<?xml version="1.0" encoding="UTF-8" standalone="no"?>
<!-- Created with Inkscape (http://www.inkscape.org/) -->
<svg id="svg2" xmlns:rdf="http://www.w3.org/1999/02/22-rdf-syntax-ns#" xmlns="http://www.w3.org/2000/svg" height="206.25" width="406.25" version="1.0" y="0" x="0" xmlns:cc="http://creativecommons.org/ns#" xmlns:xlink="http://www.w3.org/1999/xlink" xmlns:dc="http://purl.org/dc/elements/1.1/">
 <metadata id="metadata3">
  <rdf:RDF>
   <cc:Work rdf:about="">
    <dc:title/>
    <dc:description/>
    <dc:subject>
     <rdf:Bag>
      <rdf:li>digital</rdf:li>
      <rdf:li/>
      <rdf:li>11</rdf:li>
      <rdf:li>hardware</rdf:li>
      <rdf:li>photo</rdf:li>
      <rdf:li>digicam</rdf:li>
      <rdf:li>computer</rdf:li>
      <rdf:li>camera</rdf:li>
     </rdf:Bag>
    </dc:subject>
    <dc:publisher>
     <cc:Agent rdf:about="http://www.openclipart.org">
      <dc:title>AJ Ashton</dc:title>
     </cc:Agent>
    </dc:publisher>
    <dc:creator>
     <cc:Agent>
      <dc:title>AJ Ashton</dc:title>
     </cc:Agent>
    </dc:creator>
    <dc:rights>
     <cc:Agent>
      <dc:title>AJ Ashton</dc:title>
     </cc:Agent>
    </dc:rights>
    <dc:date/>
    <dc:format>image/svg+xml</dc:format>
    <dc:type rdf:resource="http://purl.org/dc/dcmitype/StillImage"/>
    <cc:license rdf:resource="http://web.resource.org/cc/PublicDomain"/>
    <dc:language>en</dc:language>
   </cc:Work>
   <cc:License rdf:about="http://web.resource.org/cc/PublicDomain">
    <cc:permits rdf:resource="http://web.resource.org/cc/Reproduction"/>
    <cc:permits rdf:resource="http://web.resource.org/cc/Distribution"/>
    <cc:permits rdf:resource="http://web.resource.org/cc/DerivativeWorks"/>
   </cc:License>
  </rdf:RDF>
 </metadata>
 <defs id="defs3">
  <linearGradient id="linearGradient2195">
   <stop id="stop2197" stop-color="#323232" offset="0"/>
   <stop id="stop2199" stop-color="#969696" offset="1"/>
  </linearGradient>
  <linearGradient id="linearGradient2189">
   <stop id="stop2191" stop-color="#bebebe" offset="0"/>
   <stop id="stop2193" stop-color="#d2d2d2" offset="1"/>
  </linearGradient>
  <linearGradient id="linearGradient2160">
   <stop id="stop2162" offset="0"/>
   <stop id="stop2164" stop-opacity="0" offset="1"/>
  </linearGradient>
  <linearGradient id="linearGradient2127">
   <stop id="stop2129" stop-color="#646464" offset="0"/>
   <stop id="stop2131" stop-color="#fff" offset="1"/>
  </linearGradient>
  <linearGradient id="linearGradient2143">
   <stop id="stop2145" offset="0"/>
   <stop id="stop2147" stop-color="#fff" offset="1"/>
  </linearGradient>
  <linearGradient id="linearGradient2061">
   <stop id="stop2063" stop-color="#fff" offset="0"/>
   <stop id="stop2187" stop-color="#fff" offset=".29381"/>
   <stop id="stop2065" stop-color="#fff" stop-opacity="0" offset="1"/>
  </linearGradient>
  <linearGradient id="linearGradient2853" y2="214.7" xlink:href="#linearGradient2143" gradientUnits="userSpaceOnUse" x2="-337.99" gradientTransform="matrix(1.4613 0 0 .68432 390.99 -110.87)" y1="192.44" x1="-338.13"/>
  <linearGradient id="linearGradient2857" y2="233.92" xlink:href="#linearGradient2143" gradientUnits="userSpaceOnUse" x2="-327.78" gradientTransform="matrix(1.5659 0 0 .73280 331.41 -147.92)" y1="220.74" x1="-327.88"/>
  <radialGradient id="radialGradient2860" xlink:href="#linearGradient2061" gradientUnits="userSpaceOnUse" cy="177.34" cx="387.73" gradientTransform="matrix(.56480 .11444 .10965 2.8513 -205.54 -428.78)" r="15.509"/>
  <radialGradient id="radialGradient2863" xlink:href="#linearGradient2160" gradientUnits="userSpaceOnUse" cy="177.34" cx="387.73" gradientTransform="matrix(.27882 .064539 -.23188 2.7936 -31.55 -441.92)" r="15.509"/>
  <linearGradient id="linearGradient2866" y2="159.7" xlink:href="#linearGradient2061" spreadMethod="reflect" gradientUnits="userSpaceOnUse" x2="559.42" gradientTransform="matrix(.33968 0 0 2.9439 -124.12 -349.24)" y1="159.7" x1="550.13"/>
  <linearGradient id="linearGradient2869" y2="170.49" xlink:href="#linearGradient2061" gradientUnits="userSpaceOnUse" x2="556.78" gradientTransform="matrix(.25443 0 0 1.216 -77.065 -108.07)" y1="132.62" x1="547.19"/>
  <linearGradient id="linearGradient2872" y2="170.49" xlink:href="#linearGradient2143" gradientUnits="userSpaceOnUse" x2="556.78" gradientTransform="matrix(.33968 0 0 2.9439 -124.12 -349.24)" y1="132.62" x1="547.19"/>
  <linearGradient id="linearGradient2875" y2="162.19" xlink:href="#linearGradient2127" spreadMethod="reflect" gradientUnits="userSpaceOnUse" x2="520.82" gradientTransform="matrix(.35887 0 0 2.7865 -124.12 -349.24)" y1="162.27" x1="500.99"/>
  <linearGradient id="linearGradient2878" y2="138.62" xlink:href="#linearGradient2143" gradientUnits="userSpaceOnUse" x2="525.78" gradientTransform="matrix(.35887 0 0 2.7865 -124.12 -349.24)" y1="185.74" x1="525.78"/>
  <linearGradient id="linearGradient2880" y2="137.74" xlink:href="#linearGradient2160" gradientUnits="userSpaceOnUse" x2="517.74" gradientTransform="matrix(.35887 0 0 2.7865 -124.12 -349.24)" y1="185.11" x1="517.74"/>
  <linearGradient id="linearGradient2883" y2="391.98" xlink:href="#linearGradient2061" gradientUnits="userSpaceOnUse" x2="332.51" gradientTransform="matrix(.20916 -.79862 .59792 .099640 -89.948 253.27)" y1="369.62" x1="338.45"/>
  <linearGradient id="linearGradient2886" y2="391.98" xlink:href="#linearGradient2061" gradientUnits="userSpaceOnUse" x2="332.51" gradientTransform="matrix(.20853 -.82126 0.598 .10214 -47.052 257.22)" y1="369.62" x1="338.45"/>
  <radialGradient id="radialGradient2889" xlink:href="#linearGradient2061" gradientUnits="userSpaceOnUse" cy="375.66" cx="336.94" gradientTransform="matrix(2.975 0 0 2.975 -738.78 -1087.2)" r="1.4142"/>
  <radialGradient id="radialGradient2892" xlink:href="#linearGradient2061" gradientUnits="userSpaceOnUse" cy="375.66" cx="336.94" gradientTransform="matrix(1.4 0 0 1.4 -211.07 -503.24)" r="1.4142"/>
  <linearGradient id="linearGradient2895" y2="391.98" xlink:href="#linearGradient2061" gradientUnits="userSpaceOnUse" x2="332.51" gradientTransform="matrix(1.0228 0 0 .61083 -77.594 -210.32)" y1="369.62" x1="338.45"/>
  <linearGradient id="linearGradient2898" y2="386.89" xlink:href="#linearGradient2061" gradientUnits="userSpaceOnUse" x2="327.73" gradientTransform="matrix(1.2736 0 0 1.2199 -160.71 -452.61)" y1="404.93" x1="333.63"/>
  <radialGradient id="radialGradient2901" xlink:href="#linearGradient2061" gradientUnits="userSpaceOnUse" cy="391.51" cx="331.81" gradientTransform="matrix(.98224 0 0 .98228 -64.533 -359)" r="10.186"/>
  <linearGradient id="linearGradient2904" y2="421.52" xlink:href="#linearGradient2143" gradientUnits="userSpaceOnUse" x2="363.78" gradientTransform="matrix(1.0913 0 0 .91634 -124.12 -349.24)" y1="396.86" x1="340.57"/>
  <radialGradient id="radialGradient2907" fx="331.78" fy="205.33" xlink:href="#linearGradient2061" gradientUnits="userSpaceOnUse" cy="204.99" cx="331.9" gradientTransform="matrix(.43133 0 0 2.3184 -124.12 -349.24)" r="17.615"/>
  <radialGradient id="radialGradient2918" xlink:href="#linearGradient2061" gradientUnits="userSpaceOnUse" cy="375.66" cx="336.94" gradientTransform="matrix(2.975 0 0 2.975 -780.16 -1085.8)" r="1.4142"/>
  <radialGradient id="radialGradient2921" xlink:href="#linearGradient2061" gradientUnits="userSpaceOnUse" cy="375.66" cx="336.94" gradientTransform="matrix(1.4633 0 0 1.4 -276.38 -500.44)" r="1.4142"/>
  <linearGradient id="linearGradient2924" y2="391.98" xlink:href="#linearGradient2061" gradientUnits="userSpaceOnUse" x2="332.51" gradientTransform="matrix(1.0228 0 0 .61083 -120.76 -208.42)" y1="369.62" x1="338.45"/>
  <linearGradient id="linearGradient2927" y2="386.89" xlink:href="#linearGradient2061" gradientUnits="userSpaceOnUse" x2="327.73" gradientTransform="matrix(1.2736 0 0 1.2199 -203.88 -450.71)" y1="404.93" x1="333.63"/>
  <radialGradient id="radialGradient2930" xlink:href="#linearGradient2061" gradientUnits="userSpaceOnUse" cy="391.51" cx="331.81" gradientTransform="matrix(.98224 0 0 .98228 -107.7 -357.1)" r="10.186"/>
  <linearGradient id="linearGradient2933" y2="443.32" xlink:href="#linearGradient2143" gradientUnits="userSpaceOnUse" x2="293.4" gradientTransform="matrix(1.1812 0 0 .84661 -124.12 -349.24)" y1="437.92" x1="288.19"/>
  <linearGradient id="linearGradient2936" y2="1046.8" xlink:href="#linearGradient2061" gradientUnits="userSpaceOnUse" x2="169.78" gradientTransform="matrix(2.741 0 0 .37192 -118.89 -361.69)" y1="1014.1" x1="169.78"/>
  <linearGradient id="linearGradient2939" y2="853.86" xlink:href="#linearGradient2061" spreadMethod="reflect" gradientUnits="userSpaceOnUse" x2="202.49" gradientTransform="matrix(2.3299 0 0 .51472 -123.62 -424.93)" y1="850.5" x1="202.39"/>
  <linearGradient id="linearGradient2942" y2="839.65" xlink:href="#linearGradient2127" spreadMethod="reflect" gradientUnits="userSpaceOnUse" x2="221.94" gradientTransform="matrix(2.2338 0 0 .53685 -123.62 -424.93)" y1="839.65" x1="204.79"/>
  <linearGradient id="linearGradient2944" y2="841.11" xlink:href="#linearGradient2143" gradientUnits="userSpaceOnUse" x2="217.54" gradientTransform="matrix(2.2338 0 0 .53685 -123.62 -424.93)" y1="826.88" x1="203.41"/>
  <linearGradient id="linearGradient2951" y2="565.61" xlink:href="#linearGradient2143" gradientUnits="userSpaceOnUse" x2="-185.93" gradientTransform="matrix(2.3702 0 0 .42191 349.24 -124.12)" y1="576.82" x1="-227.78"/>
  <linearGradient id="linearGradient2958" y2="315.39" xlink:href="#linearGradient2143" spreadMethod="reflect" gradientUnits="userSpaceOnUse" x2="639.63" gradientTransform="matrix(.72008 0 0 1.3887 -124.12 -349.24)" y1="300.2" x1="638.2"/>
  <radialGradient id="radialGradient2962" xlink:href="#linearGradient2061" gradientUnits="userSpaceOnUse" cy="421.08" cx="365.26" gradientTransform="matrix(.41497 0 0 .41512 89.645 -75.364)" r="65.002"/>
  <radialGradient id="radialGradient2965" xlink:href="#linearGradient2061" gradientUnits="userSpaceOnUse" cy="447.88" cx="389.47" gradientTransform="matrix(.41497 0 0 .41512 89.645 -75.364)" r="8.6886"/>
  <radialGradient id="radialGradient2968" gradientUnits="userSpaceOnUse" cy="459.98" cx="406.76" gradientTransform="matrix(.41497 0 0 .41512 89.645 -75.364)" r="55.331">
   <stop id="stop2305" stop-color="#531971" offset="0"/>
   <stop id="stop2323" stop-color="#2c1254" offset=".60601"/>
   <stop id="stop2321" offset=".80525"/>
   <stop id="stop2307" stop-opacity="0" offset="1"/>
  </radialGradient>
  <linearGradient id="linearGradient2973" y2="514.75" xlink:href="#linearGradient2143" gradientUnits="userSpaceOnUse" x2="398.84" gradientTransform="matrix(.70873 0 0 0.709 -29.847 -210.54)" y1="404.5" x1="398.84"/>
  <linearGradient id="linearGradient2976" y2="426.73" xlink:href="#linearGradient2061" spreadMethod="reflect" gradientUnits="userSpaceOnUse" x2="372.63" gradientTransform="matrix(.91669 0 0 .91703 -114.44 -306.24)" y1="455.61" x1="401.51"/>
  <linearGradient id="linearGradient2978" y2="403.92" xlink:href="#linearGradient2143" gradientUnits="userSpaceOnUse" x2="378.75" gradientTransform="matrix(.91669 0 0 .91703 -114.44 -306.24)" y1="513.12" x1="378.75"/>
  <linearGradient id="linearGradient2981" y2="465.23" xlink:href="#linearGradient2143" spreadMethod="reflect" gradientUnits="userSpaceOnUse" x2="405.89" gradientTransform="matrix(.91669 0 0 .91703 -114.44 -306.24)" y1="387.34" x1="406.76"/>
  <linearGradient id="linearGradient2986" y2="515.28" xlink:href="#linearGradient2143" gradientUnits="userSpaceOnUse" x2="393.84" gradientTransform="matrix(.93005 0 0 .9304 -119.87 -312.38)" y1="404.7" x1="393.84"/>
  <radialGradient id="radialGradient2989" xlink:href="#linearGradient2189" gradientUnits="userSpaceOnUse" cy="514.14" cx="387.54" gradientTransform="matrix(1.0839 0 0 1.0843 -182.44 -383.17)" r="108.4"/>
  <linearGradient id="linearGradient2991" y2="406.23" xlink:href="#linearGradient2143" gradientUnits="userSpaceOnUse" x2="404.61" gradientTransform="matrix(1.0839 0 0 1.0843 -182.44 -383.17)" y1="510.84" x1="404.61"/>
  <linearGradient id="linearGradient2994" y2="519.05" xlink:href="#linearGradient2160" gradientUnits="userSpaceOnUse" x2="406.76" gradientTransform="matrix(1.1171 0 0 1.1176 -195.97 -398.47)" y1="402.42" x1="406.76"/>
  <linearGradient id="linearGradient2998" y2="369.08" xlink:href="#linearGradient2143" spreadMethod="reflect" gradientUnits="userSpaceOnUse" x2="336.71" gradientTransform="matrix(.83405 0 0 1.199 -124.12 -349.24)" y1="361.39" x1="337.99"/>
  <linearGradient id="linearGradient3001" y2="372" xlink:href="#linearGradient2143" spreadMethod="reflect" gradientUnits="userSpaceOnUse" x2="243.75" gradientTransform="matrix(.83405 0 0 1.199 -124.12 -349.24)" y1="340.22" x1="234.9"/>
  <linearGradient id="linearGradient3004" y2="354.6" xlink:href="#linearGradient2143" spreadMethod="reflect" gradientUnits="userSpaceOnUse" x2="271.05" gradientTransform="matrix(.83405 0 0 1.199 -124.12 -349.24)" y1="350.81" x1="271.05"/>
  <linearGradient id="linearGradient3007" y2="351.37" xlink:href="#linearGradient2143" spreadMethod="reflect" gradientUnits="userSpaceOnUse" x2="302.41" gradientTransform="matrix(.83405 0 0 1.199 -124.12 -349.24)" y1="349.93" x1="302.41"/>
  <linearGradient id="linearGradient3010" y2="1233.5" xlink:href="#linearGradient2160" gradientUnits="userSpaceOnUse" x2="91.791" gradientTransform="matrix(2.904 0 0 .42713 -164.03 -349.24)" y1="1207.4" x1="91.791"/>
  <radialGradient id="radialGradient3013" gradientUnits="userSpaceOnUse" cy="1244.3" cx="81.898" gradientTransform="matrix(2.904 0 0 .42713 -164.03 -349.24)" r="87.749">
   <stop id="stop2120" stop-color="#7d7d7d" offset="0"/>
   <stop id="stop2122" stop-color="#dcdcdc" offset="1"/>
  </radialGradient>
  <linearGradient id="linearGradient3016" y2="393.49" xlink:href="#linearGradient2127" gradientUnits="userSpaceOnUse" x2="241.63" gradientTransform="matrix(1.1323 0 0 1.096 -162.46 -351.98)" y1="415.67" x1="260.92"/>
  <linearGradient id="linearGradient3020" y2="291.35" xlink:href="#linearGradient2127" gradientUnits="userSpaceOnUse" x2="286.24" gradientTransform="matrix(.82571 0 0 1.2111 -124.12 -349.24)" y1="529.03" x1="286.24"/>
  <linearGradient id="linearGradient3024" y2="293.78" gradientUnits="userSpaceOnUse" x2="265.97" gradientTransform="matrix(1.0065 0 0 1.2323 -164.03 -348.74)" y1="439.41" x1="265.97">
   <stop id="stop2101" offset="0"/>
   <stop id="stop2103" stop-opacity=".58824" offset="1"/>
  </linearGradient>
  <linearGradient id="linearGradient3027" y2="258.25" xlink:href="#linearGradient2160" gradientUnits="userSpaceOnUse" x2="286.64" gradientTransform="matrix(.5547 0 0 1.8028 -124.12 -349.24)" y1="258.25" x1="263.21"/>
  <radialGradient id="radialGradient3030" fx="270.42" fy="276.28" xlink:href="#linearGradient2143" spreadMethod="reflect" gradientUnits="userSpaceOnUse" cy="277.4" cx="272.22" gradientTransform="matrix(.5547 0 0 1.8028 -124.12 -349.24)" r="36.908"/>
  <linearGradient id="linearGradient3033" y2="653.53" xlink:href="#linearGradient2195" gradientUnits="userSpaceOnUse" x2="241.94" gradientTransform="matrix(1.5542 0 0 .64341 -124.12 -349.24)" y1="802.59" x1="241.94"/>
  <linearGradient id="linearGradient3036" y2="661.19" xlink:href="#linearGradient2143" gradientUnits="userSpaceOnUse" x2="238.77" gradientTransform="matrix(1.5288 0 0 .65411 -124.12 -349.24)" y1="787.98" x1="238.77"/>
  <linearGradient id="linearGradient3039" y2="660.4" xlink:href="#linearGradient2127" gradientUnits="userSpaceOnUse" x2="224.52" gradientTransform="matrix(1.6878 0 0 .59248 -124.12 -349.24)" y1="781.66" x1="224.53"/>
  <linearGradient id="linearGradient3041" y2="350.86" xlink:href="#linearGradient2143" gradientUnits="userSpaceOnUse" x2="389.56" gradientTransform="matrix(.91078 0 0 1.098 -124.12 -349.24)" y1="405.39" x1="409.32"/>
  <linearGradient id="linearGradient3044" y2="328.52" xlink:href="#linearGradient2143" gradientUnits="userSpaceOnUse" x2="410.82" gradientTransform="matrix(.91078 0 0 1.098 -124.12 -349.24)" y1="486.58" x1="410.82"/>
  <linearGradient id="linearGradient3047" y2="489.12" xlink:href="#linearGradient2143" gradientUnits="userSpaceOnUse" x2="390.37" gradientTransform="matrix(.91917 0 0 1.1022 -126.93 -351.77)" y1="334.77" x1="390.37"/>
  <linearGradient id="linearGradient3050" y2="311.97" xlink:href="#linearGradient2143" spreadMethod="reflect" gradientUnits="userSpaceOnUse" x2="665.37" gradientTransform="matrix(.72008 0 0 1.3887 -124.12 -349.24)" y1="310.83" x1="665.37"/>
  <linearGradient id="linearGradient3053" y2="313.88" xlink:href="#linearGradient2143" spreadMethod="reflect" gradientUnits="userSpaceOnUse" x2="665.36" gradientTransform="matrix(.72008 0 0 1.3887 -124.12 -349.24)" y1="310.83" x1="665.36"/>
  <linearGradient id="linearGradient3056" y2="327.54" xlink:href="#linearGradient2143" spreadMethod="reflect" gradientUnits="userSpaceOnUse" x2="639.63" gradientTransform="matrix(.72008 0 0 1.3887 -124.12 -349.24)" y1="319.18" x1="641.06"/>
  <linearGradient id="linearGradient3059" y2="278.93" xlink:href="#linearGradient2127" gradientUnits="userSpaceOnUse" x2="656.79" gradientTransform="matrix(.72008 0 0 1.3887 -124.12 -349.24)" y1="373.11" x1="656.79"/>
  <linearGradient id="linearGradient3061" y2="279.67" xlink:href="#linearGradient2143" gradientUnits="userSpaceOnUse" x2="653.25" gradientTransform="matrix(.72314 0 0 1.3828 -124.12 -349.24)" y1="373.11" x1="653.25"/>
  <linearGradient id="linearGradient3064" y2="262.76" xlink:href="#linearGradient2143" spreadMethod="reflect" gradientUnits="userSpaceOnUse" x2="308.27" gradientTransform="matrix(.5547 0 0 1.8028 -124.12 -349.24)" y1="285.29" x1="272.22"/>
  <linearGradient id="linearGradient3067" y2="749.76" xlink:href="#linearGradient2189" gradientUnits="userSpaceOnUse" x2="224.2" gradientTransform="matrix(1.3854 0 0 .72182 -124.12 -349.24)" y1="503.96" x1="224.2"/>
  <linearGradient id="linearGradient3070" y2="1441.2" xlink:href="#linearGradient2061" gradientUnits="userSpaceOnUse" x2="82.159" gradientTransform="matrix(4.0927 0 0 .24434 -124.12 -349.24)" y1="1523.1" x1="82.159"/>
  <linearGradient id="linearGradient3073" y2="-1484.4" xlink:href="#linearGradient2061" gradientUnits="userSpaceOnUse" x2="-159.93" gradientTransform="matrix(2.8284 0 0 .35355 349.24 124.12)" y1="-1428.4" x1="-159.93"/>
  <linearGradient id="linearGradient3076" y2="424.26" xlink:href="#linearGradient2061" gradientUnits="userSpaceOnUse" x2="-159.93" gradientTransform="matrix(2.8284 0 0 .35355 349.24 -124.12)" y1="480.34" x1="-159.93"/>
  <linearGradient id="linearGradient3079" y2="-2258.8" xlink:href="#linearGradient2061" gradientUnits="userSpaceOnUse" x2="-82.464" gradientTransform="matrix(4.0927 0 0 .24434 124.12 349.24)" y1="-2178.8" x1="-82.464"/>
  <radialGradient id="radialGradient3082" xlink:href="#linearGradient2061" gradientUnits="userSpaceOnUse" cy="367.25" cx="164.88" gradientTransform="matrix(0 1.3333 -1.3333 0 870.69 -196.88)" r="14.883"/>
  <radialGradient id="radialGradient3085" xlink:href="#linearGradient2061" gradientUnits="userSpaceOnUse" cy="367.25" cx="164.88" gradientTransform="matrix(0 -1.3333 -1.3333 0 870.69 403.12)" r="14.883"/>
  <radialGradient id="radialGradient3088" xlink:href="#linearGradient2061" gradientUnits="userSpaceOnUse" cy="367.25" cx="164.88" gradientTransform="matrix(0 -1.3333 1.3333 0 -443.94 403.12)" r="14.883"/>
  <radialGradient id="radialGradient3091" xlink:href="#linearGradient2061" gradientUnits="userSpaceOnUse" cy="367.25" cx="164.88" gradientTransform="matrix(1.3333 0 0 1.3333 -174.12 -466.69)" r="14.649"/>
  <linearGradient id="linearGradient3094" y2="327.65" xlink:href="#linearGradient2143" gradientUnits="userSpaceOnUse" x2="169.11" gradientTransform="matrix(.79349 0 0 1.2602 -124.12 -349.24)" y1="385.29" x1="219.61"/>
  <linearGradient id="linearGradient3097" y2="484.63" xlink:href="#linearGradient2195" gradientUnits="userSpaceOnUse" x2="234.54" gradientTransform="matrix(1.3693 0 0 .73030 -124.12 -349.24)" y1="745.66" x1="234.54"/>
  <radialGradient id="radialGradient3100" xlink:href="#linearGradient2195" spreadMethod="reflect" gradientUnits="userSpaceOnUse" cy="367.99" cx="195.34" gradientTransform="matrix(.79349 0 0 1.2602 -124.12 -349.24)" r="10.19"/>
 </defs>
 <path id="path2384" stroke-linejoin="round" d="m30.875 63.138c-13.8 0-25 17.92-25 40.002 0 22.08 11.2 40 25 40s25-17.92 25-40c0-22.082-11.2-40.002-25-40.002zm-10 30c5.52 0 10 4.48 10 10.002 0 5.52-4.48 10-10 10s-10-4.48-10-10c0-5.522 4.48-10.002 10-10.002z" stroke-opacity=".19608" fill-rule="evenodd" stroke-dashoffset="0pt" stroke="#000" stroke-linecap="round" fill="url(#radialGradient3100)"/>
 <rect id="rect2052" fill-rule="evenodd" rx="20" ry="20" height="200" width="375" y="3.1254" x="25.875" fill="url(#linearGradient3097)"/>
 <path id="path2424" opacity=".56345" stroke-linejoin="round" d="m26.469 65.857c-15.49 7.222-19.485 26.812-18.285 42.393 1.127 12.8 6.421 28.96 20.261 32.48 13.66 1.8 21.564-13.23 23.942-24.65 3.513-16.59 0.96-36.813-12.887-48.098-3.923-2.533-8.495-3.385-13.031-2.125zm-5.188 25.312c11.12-0.115 15.868 16.281 6.13 21.821-9.196 7.08-22.729-4.64-17.411-14.883 2.182-4.268 6.462-6.97 11.281-6.938z" stroke-dashoffset="0pt" stroke="url(#linearGradient3094)" stroke-linecap="round" stroke-width="2" fill="none"/>
 <g fill-rule="evenodd">
  <path id="path2058" d="m45.875 23.125h-20c0-11.04 8.96-20 20-20v20z" fill="url(#radialGradient3091)"/>
  <path id="path2077" d="m45.875 183.13v20c-11.04 0-20-8.96-20-20h20z" fill="url(#radialGradient3088)"/>
  <path id="path2081" d="m380.87 183.13v20c11.04 0 20.01-8.96 20.01-20h-20.01z" fill="url(#radialGradient3085)"/>
  <path id="path2085" d="m380.87 23.125v-20c11.04 0.0004 20.01 8.96 20.01 20h-20.01z" fill="url(#radialGradient3082)"/>
  <rect id="rect2103" transform="scale(-1)" height="20" width="335" y="-203.13" x="-380.88" fill="url(#linearGradient3079)"/>
  <rect id="rect2107" transform="rotate(-90)" height="20" width="160" y="25.875" x="-183.13" fill="url(#linearGradient3076)"/>
  <rect id="rect2111" transform="matrix(0 -1 -1 0 0 0)" height="20" width="160" y="-400.88" x="-183.13" fill="url(#linearGradient3073)"/>
  <rect id="rect2089" height="20" width="335" y="3.1254" x="45.875" fill="url(#linearGradient3070)"/>
  <rect id="rect2054" rx="10" ry="10" height="180.17" width="345.79" y="13.125" x="40.875" fill="url(#linearGradient3067)"/>
  <rect id="rect2603" rx="2.5" ry="65" height="130" width="40" y="38.125" x="20.875" fill="url(#linearGradient3064)"/>
  <rect id="rect2348" opacity=".8" stroke-linejoin="round" stroke-dashoffset="0pt" height="135" width="70" stroke="url(#linearGradient3061)" stroke-linecap="round" y="38.125" x="315.88" stroke-width="1.25" fill="url(#linearGradient3059)"/>
  <rect id="rect2371" opacity=".03" height="135" width="70" y="38.125" x="315.88" fill="url(#linearGradient3056)"/>
  <rect id="rect2367" opacity=".03" height="135" width="70" y="38.125" x="315.88" fill="url(#linearGradient3053)"/>
  <rect id="rect2363" opacity=".03" height="135" width="70" y="38.125" x="315.88" fill="url(#linearGradient3050)"/>
 </g>
 <path id="path2206" stroke-linejoin="round" d="m186.1 12.924h124.42c3.28 0 6.07 4.931 6.07 5.917 15.17 33.528 15.17 132.14 0 165.67 0 0.99-2.03 6.16-6.07 5.92h-124.42c-3.36 0-6.07-2.64-6.07-5.92v-165.67c0-3.277 2.71-5.916 6.07-5.916z" stroke-opacity=".78431" stroke-dashoffset="0pt" stroke="url(#linearGradient3047)" stroke-linecap="round" stroke-width="1.25" fill="none"/>
 <g fill-rule="evenodd">
  <path id="rect2201" stroke-linejoin="round" d="m187.38 14.125h122.07c3.23 0 5.96 4.864 5.96 5.837 14.89 33.075 14.89 130.35 0 163.43 0 0.97-1.99 6.08-5.96 5.84h-122.07c-3.3 0-5.96-2.61-5.96-5.84v-163.43c0-3.231 2.66-5.835 5.96-5.835z" stroke-opacity=".78431" stroke-dashoffset="0pt" stroke="url(#linearGradient3044)" stroke-linecap="round" stroke-width="1.25" fill="#9f9f9f"/>
  <path id="path2333" stroke-linejoin="round" d="m181.44 38.138v50h144.75c-0.6-18.396-2.27-36.035-5.28-50h-139.47z" stroke-opacity=".78431" stroke-dashoffset="0pt" stroke="url(#linearGradient3041)" stroke-linecap="round" stroke-width="1.25" fill="url(#linearGradient3039)"/>
  <path id="path2569" d="m181.44 107.13v62.01h138.87c3.8-16.63 5.73-39.1 6.07-62.01h-144.94z" fill="url(#linearGradient3036)"/>
  <path id="path2585" d="m181.44 108.14v60h138.87c3.8-16.09 5.73-37.83 6.07-60h-144.94z" fill="url(#linearGradient3033)"/>
  <rect id="rect2613" opacity=".55838" rx="2.5" ry="65" height="130" width="40" y="38.125" x="20.875" fill="url(#radialGradient3030)"/>
  <rect id="rect2619" opacity=".61421" rx="2.5" ry="65" height="130" width="40" y="38.125" x="20.875" fill="url(#linearGradient3027)"/>
 </g>
 <path id="rect2141" opacity=".5" stroke-linejoin="round" d="m53.039 13.625h117.84c24.8 0 24.8 180 0 180-41.35 0.01-76.495 0.01-117.84 0.01-12.405 0-12.405-180-0.001-180z" stroke-dashoffset="0pt" stroke="url(#linearGradient3024)" stroke-linecap="round" stroke-width="3" fill="none"/>
 <g fill-rule="evenodd">
  <path id="path2157" stroke-linejoin="round" d="m53.039 13.121c-2.555 0-4.545 7.609-6.047 19.327h135.98c-3.01-11.718-6.99-19.327-12.09-19.327h-117.84z" stroke-opacity=".39216" stroke-dashoffset="0pt" stroke="#000" stroke-linecap="round" fill="#fafafa"/>
  <path id="path2152" d="m47.73 33.138c-4.245 34.63-4.247 105.38 0 140h134.53c8.5-34.62 8.49-105.37 0-140l-134.53-0.002z" fill="url(#linearGradient3020)"/>
  <rect id="rect2373" opacity=".5" rx="7.5" ry="65" height="130" width="15" y="40.125" x="57.141"/>
 </g>
 <path id="path2226" stroke-linejoin="round" d="m48.275 33.862c-4.211 34.272-4.213 104.3 0 138.55h133.46c8.43-34.25 8.43-104.28 0-138.55l-133.46 0.002z" stroke-dashoffset="0pt" stroke="url(#linearGradient3016)" stroke-linecap="round" stroke-width="2" fill="none"/>
 <g fill-rule="evenodd">
  <path id="path2168" stroke-linejoin="round" d="m46.992 172.64c1.502 12.11 3.493 20 6.046 20h117.84c5.1 0 9.08-7.89 12.09-20h-135.98z" stroke-opacity=".39216" stroke-dashoffset="0pt" stroke="#000" stroke-linecap="round" fill="url(#radialGradient3013)"/>
  <path id="path2156" opacity=".5" d="m46.992 172.64c1.502 12.11 3.493 20 6.046 20h117.84c5.1 0 9.08-7.89 12.09-20h-135.98z" fill="url(#linearGradient3010)"/>
  <path id="path2169" opacity=".03" d="m48.59 35.388c-4.192 33.517-4.194 102 0 135.5h132.85c8.39-33.5 8.39-101.98 0-135.5l-132.85-0.002z" fill="url(#linearGradient3007)"/>
  <path id="path2175" opacity=".03" d="m48.59 35.388c-4.192 33.517-4.194 102 0 135.5h132.85c8.39-33.5 8.39-101.98 0-135.5l-132.85-0.002z" fill="url(#linearGradient3004)"/>
  <path id="path2183" opacity=".05" d="m48.59 35.388c-4.192 33.517-4.194 102 0 135.5h132.85c8.39-33.5 8.39-101.98 0-135.5l-132.85-0.002z" fill="url(#linearGradient3001)"/>
  <path id="path2224" opacity=".03" d="m48.59 35.388c-4.192 33.517-4.194 102 0 135.5h132.85c8.39-33.5 8.39-101.98 0-135.5l-132.85-0.002z" fill="url(#linearGradient2998)"/>
 </g>
 <path id="path2230" opacity=".6" stroke-linejoin="round" d="m320.25 115.59c0 34.15-27.67 61.83-61.81 61.83s-61.81-27.68-61.81-61.83c0-34.155 27.67-61.84 61.81-61.84s61.81 27.685 61.81 61.84v0z" stroke-opacity=".78431" stroke-dashoffset="0pt" stroke="#000" stroke-linecap="round" stroke-width="1.25" fill="none"/>
 <path id="path2232" opacity=".8" stroke-linejoin="round" d="m320.25 115.59c0 34.15-27.67 61.83-61.81 61.83s-61.81-27.68-61.81-61.83c0-34.155 27.67-61.84 61.81-61.84s61.81 27.685 61.81 61.84v0z" stroke-opacity=".78431" stroke-dashoffset="0pt" stroke="url(#linearGradient2994)" stroke-linecap="round" stroke-width="2.5" fill="none"/>
 <g fill-rule="evenodd">
  <g stroke-linejoin="round" stroke-opacity=".78431" stroke-dashoffset="0pt" stroke-linecap="round">
   <path id="path2242" d="m318.41 115.58c0 33.14-26.85 60-59.97 60-33.13 0-59.98-26.86-59.98-60 0-33.129 26.85-59.99 59.98-59.99 33.12 0 59.97 26.861 59.97 59.99z" stroke="url(#linearGradient2991)" stroke-width="1.25" fill="url(#radialGradient2989)"/>
   <g stroke-width="1.25">
    <path id="path2254" d="m309.9 115.59c0 28.43-23.04 51.48-51.46 51.48s-51.46-23.05-51.46-51.48c0-28.436 23.04-51.484 51.46-51.484s51.46 23.048 51.46 51.484z" stroke="url(#linearGradient2986)"/>
    <path id="path2260" d="m309.16 115.59c0 28.02-22.71 50.74-50.72 50.74s-50.72-22.72-50.72-50.74c0-28.028 22.71-50.745 50.72-50.745s50.72 22.717 50.72 50.745z" stroke="url(#linearGradient2978)" fill="url(#linearGradient2981)"/>
    <path id="path2243" opacity=".85" d="m309.16 115.59c0 28.02-22.71 50.74-50.72 50.74s-50.72-22.72-50.72-50.74c0-28.028 22.71-50.745 50.72-50.745s50.72 22.717 50.72 50.745z" stroke="url(#linearGradient2978)" fill="url(#linearGradient2976)"/>
    <path id="path2274" d="m297.65 115.59c0 21.66-17.55 39.23-39.21 39.23s-39.22-17.57-39.22-39.23c0-21.67 17.56-39.234 39.22-39.234s39.21 17.564 39.21 39.234z" stroke="url(#linearGradient2973)" fill="#505050"/>
   </g>
  </g>
  <path id="path2286" d="m235.19 88.345c-7.81 6.632-12.88 16.395-12.88 27.435 0 11.11 5.14 20.93 13.03 27.57h46.19c7.89-6.64 13.03-16.46 13.03-27.57 0-11.04-5.06-20.803-12.87-27.435h-46.5z"/>
  <path id="path2319" d="m237.14 89.972c-7.15 6.239-11.79 15.428-11.79 25.818 0 10.45 4.71 19.69 11.94 25.93h42.3c7.23-6.24 11.93-15.48 11.93-25.93 0-10.39-4.64-19.579-11.79-25.818h-42.59z" fill="#191919"/>
  <path id="path2299" d="m281.4 115.59c0 12.68-10.28 22.96-22.96 22.96s-22.96-10.28-22.96-22.96c0-12.69 10.28-22.973 22.96-22.973s22.96 10.283 22.96 22.973z" fill="url(#radialGradient2968)"/>
  <path id="path2325" opacity=".44503" d="m281.4 115.59c0 12.68-10.28 22.96-22.96 22.96s-22.96-10.28-22.96-22.96c0-12.69 10.28-22.973 22.96-22.973s22.96 10.283 22.96 22.973z" fill="url(#radialGradient2965)"/>
  <path id="path2329" opacity=".19895" d="m281.4 115.59c0 12.68-10.28 22.96-22.96 22.96s-22.96-10.28-22.96-22.96c0-12.69 10.28-22.973 22.96-22.973s22.96 10.283 22.96 22.973z" fill="url(#radialGradient2962)"/>
 </g>
 <path id="path2358" opacity=".7" d="m385.17 46.982c-2.9 8.638-5 31.529-5 58.658 0 27.13 2.1 49.99 5 58.62v-117.28z" fill-rule="evenodd" fill-opacity=".78431"/>
 <rect id="rect2375" opacity=".03" fill-rule="evenodd" height="135" width="70" y="38.125" x="315.88" fill="url(#linearGradient2958)"/>
 <path id="text2445" d="m-142.77 123.02c-0.23 0.9-0.65 1.57-1.25 2.01-0.59 0.43-1.4 0.65-2.4 0.65-1.48 0-2.65-0.41-3.5-1.22-0.86-0.81-1.29-1.92-1.29-3.31 0-1.4 0.43-2.51 1.29-3.32 0.85-0.82 2.02-1.22 3.5-1.22 0.52 0 1.06 0.06 1.62 0.18 0.56 0.13 1.16 0.32 1.79 0.57v2.15h-0.75c-0.15-0.73-0.43-1.28-0.83-1.65-0.4-0.36-0.93-0.55-1.59-0.55-0.86 0-1.49 0.32-1.9 0.95-0.42 0.62-0.62 1.59-0.62 2.89s0.2 2.26 0.62 2.89c0.41 0.62 1.05 0.93 1.91 0.93 0.58 0 1.06-0.16 1.42-0.48 0.37-0.33 0.64-0.82 0.81-1.47h1.17zm7.23-1.33v3.11h0.89v0.71h-2.97v-0.79c-0.27 0.33-0.58 0.57-0.91 0.73-0.34 0.15-0.72 0.23-1.15 0.23-0.64 0-1.13-0.17-1.47-0.51s-0.51-0.83-0.51-1.47c0-0.7 0.24-1.22 0.74-1.57 0.49-0.35 1.22-0.52 2.21-0.52h1.09v-0.37c0-0.5-0.12-0.88-0.35-1.12-0.24-0.24-0.61-0.36-1.11-0.36-0.42 0-0.74 0.09-0.96 0.26s-0.38 0.45-0.48 0.83h-0.66v-1.34c0.37-0.13 0.76-0.23 1.15-0.3 0.4-0.06 0.82-0.1 1.26-0.1 1.12 0 1.93 0.21 2.45 0.62 0.52 0.42 0.78 1.07 0.78 1.96zm-2.08 1.86v-1.24h-0.78c-0.38 0-0.68 0.1-0.89 0.31-0.2 0.21-0.31 0.52-0.31 0.91 0 0.4 0.08 0.69 0.23 0.89 0.15 0.19 0.38 0.29 0.69 0.29 0.32 0 0.57-0.11 0.77-0.32 0.19-0.21 0.29-0.49 0.29-0.84zm10.53-3.25c0.29-0.41 0.6-0.71 0.94-0.9s0.73-0.29 1.18-0.29c0.71 0 1.25 0.21 1.6 0.61s0.53 1.01 0.53 1.83v3.25h0.89v0.71h-3.71v-0.71h0.75v-2.94c0-0.78-0.06-1.27-0.18-1.47s-0.34-0.3-0.67-0.3c-0.37 0-0.65 0.14-0.85 0.42-0.21 0.28-0.31 0.69-0.31 1.21v3.08h0.75v0.71h-3.57v-0.71h0.75v-2.94c0-0.78-0.06-1.27-0.18-1.47-0.13-0.2-0.35-0.3-0.67-0.3-0.37 0-0.65 0.14-0.86 0.42-0.2 0.28-0.3 0.69-0.3 1.21v3.08h0.74v0.71h-3.7v-0.71h0.88v-4.81h-0.88v-0.71h2.96v0.88c0.24-0.36 0.52-0.63 0.83-0.79 0.31-0.17 0.68-0.26 1.11-0.26 0.51 0 0.92 0.1 1.24 0.29 0.32 0.2 0.56 0.5 0.73 0.9zm10.23 1.7c0-0.82-0.07-1.4-0.23-1.73-0.15-0.33-0.41-0.49-0.78-0.49-0.35 0-0.61 0.16-0.76 0.48-0.15 0.33-0.23 0.87-0.23 1.63v0.11h2zm2.28 0.69h-4.28v0.05c0 0.81 0.12 1.39 0.36 1.74 0.24 0.36 0.63 0.54 1.17 0.54 0.45 0 0.82-0.12 1.09-0.36 0.28-0.24 0.46-0.58 0.54-1.03h0.97c-0.17 0.7-0.5 1.22-1 1.55-0.5 0.34-1.2 0.5-2.1 0.5-1.08 0-1.91-0.28-2.48-0.85-0.58-0.57-0.87-1.38-0.87-2.44 0-1.03 0.3-1.83 0.89-2.41s1.41-0.87 2.46-0.87c1.03 0 1.82 0.31 2.37 0.91 0.55 0.61 0.85 1.5 0.88 2.67zm7-3.48v1.86h-0.66c-0.03-0.33-0.12-0.58-0.27-0.74-0.16-0.16-0.39-0.24-0.68-0.24-0.46 0-0.81 0.2-1.08 0.59-0.26 0.4-0.39 0.96-0.39 1.66v2.46h1.13v0.71h-4.09v-0.71h0.89v-4.81h-0.95v-0.71h3.02v1.11c0.2-0.43 0.47-0.75 0.81-0.96 0.33-0.21 0.74-0.32 1.22-0.32 0.13 0 0.27 0.01 0.45 0.03 0.17 0.02 0.37 0.04 0.6 0.07zm6.49 2.48v3.11h0.89v0.71h-2.96v-0.79c-0.28 0.33-0.58 0.57-0.92 0.73-0.33 0.15-0.72 0.23-1.15 0.23-0.63 0-1.12-0.17-1.46-0.51-0.35-0.34-0.52-0.83-0.52-1.47 0-0.7 0.25-1.22 0.74-1.57s1.23-0.52 2.22-0.52h1.09v-0.37c0-0.5-0.12-0.88-0.36-1.12s-0.61-0.36-1.11-0.36c-0.41 0-0.73 0.09-0.96 0.26-0.22 0.17-0.38 0.45-0.47 0.83h-0.67v-1.34c0.37-0.13 0.76-0.23 1.16-0.3 0.4-0.06 0.82-0.1 1.26-0.1 1.11 0 1.93 0.21 2.44 0.62 0.52 0.42 0.78 1.07 0.78 1.96zm-2.07 1.86v-1.24h-0.78c-0.39 0-0.69 0.1-0.89 0.31-0.21 0.21-0.31 0.52-0.31 0.91 0 0.4 0.07 0.69 0.22 0.89 0.15 0.19 0.38 0.29 0.69 0.29 0.32 0 0.58-0.11 0.77-0.32 0.2-0.21 0.3-0.49 0.3-0.84z" stroke-opacity=".19608" transform="rotate(-90)" stroke="#fff" stroke-width=".625" fill="none"/>
 <path id="text2391" d="m-141.36 121.6c-0.23 0.9-0.64 1.57-1.24 2.01s-1.4 0.66-2.41 0.66c-1.48 0-2.64-0.41-3.5-1.22-0.86-0.82-1.29-1.92-1.29-3.32s0.43-2.5 1.29-3.32c0.86-0.81 2.02-1.22 3.5-1.22 0.52 0 1.06 0.06 1.62 0.19 0.57 0.12 1.16 0.31 1.79 0.57v2.15h-0.74c-0.16-0.74-0.43-1.29-0.84-1.65-0.4-0.37-0.93-0.55-1.59-0.55-0.85 0-1.48 0.31-1.9 0.94-0.41 0.63-0.62 1.59-0.62 2.89s0.21 2.27 0.62 2.89c0.42 0.63 1.05 0.94 1.91 0.94 0.58 0 1.06-0.16 1.43-0.49 0.37-0.32 0.64-0.81 0.8-1.47h1.17zm7.23-1.33v3.12h0.89v0.71h-2.96v-0.79c-0.28 0.33-0.58 0.57-0.92 0.72-0.33 0.16-0.72 0.24-1.15 0.24-0.63 0-1.12-0.17-1.46-0.51-0.35-0.35-0.52-0.84-0.52-1.47 0-0.7 0.25-1.23 0.74-1.57 0.49-0.35 1.23-0.52 2.22-0.52h1.09v-0.37c0-0.51-0.12-0.88-0.36-1.12s-0.61-0.36-1.11-0.36c-0.41 0-0.73 0.08-0.96 0.25-0.22 0.17-0.38 0.45-0.47 0.84h-0.67v-1.34c0.38-0.13 0.76-0.23 1.16-0.3s0.82-0.1 1.26-0.1c1.11 0 1.93 0.21 2.44 0.62 0.52 0.41 0.78 1.07 0.78 1.95zm-2.07 1.87v-1.25h-0.78c-0.39 0-0.69 0.11-0.89 0.32-0.21 0.21-0.31 0.51-0.31 0.91 0 0.39 0.07 0.69 0.22 0.88 0.15 0.2 0.38 0.3 0.69 0.3 0.32 0 0.58-0.11 0.77-0.32 0.2-0.21 0.3-0.49 0.3-0.84zm10.53-3.25c0.29-0.42 0.6-0.72 0.93-0.91 0.34-0.19 0.73-0.28 1.18-0.28 0.72 0 1.25 0.2 1.6 0.61 0.36 0.4 0.53 1.01 0.53 1.83v3.25h0.89v0.71h-3.7v-0.71h0.74v-2.94c0-0.78-0.06-1.27-0.18-1.47-0.12-0.21-0.34-0.31-0.66-0.31-0.37 0-0.66 0.14-0.86 0.43-0.2 0.28-0.3 0.68-0.3 1.21v3.08h0.74v0.71h-3.56v-0.71h0.74v-2.94c0-0.78-0.06-1.27-0.18-1.47-0.12-0.21-0.34-0.31-0.66-0.31-0.37 0-0.66 0.14-0.86 0.43-0.21 0.28-0.31 0.68-0.31 1.21v3.08h0.75v0.71h-3.71v-0.71h0.89v-4.81h-0.89v-0.71h2.96v0.88c0.24-0.36 0.52-0.63 0.83-0.8 0.32-0.17 0.69-0.25 1.12-0.25 0.51 0 0.92 0.1 1.23 0.29 0.32 0.19 0.56 0.49 0.74 0.9zm10.23 1.69c0-0.82-0.08-1.39-0.23-1.72s-0.41-0.5-0.78-0.5c-0.36 0-0.61 0.16-0.77 0.49-0.15 0.32-0.23 0.87-0.23 1.63v0.1h2.01zm2.28 0.7h-4.29v0.05c0 0.8 0.12 1.38 0.37 1.74 0.24 0.36 0.63 0.54 1.17 0.54 0.45 0 0.81-0.12 1.09-0.36 0.27-0.24 0.45-0.59 0.53-1.04h0.97c-0.16 0.71-0.5 1.23-1 1.56s-1.2 0.5-2.1 0.5c-1.07 0-1.9-0.29-2.48-0.85-0.57-0.57-0.86-1.38-0.86-2.44 0-1.03 0.29-1.84 0.88-2.41 0.59-0.58 1.41-0.87 2.46-0.87 1.04 0 1.83 0.3 2.38 0.91s0.84 1.5 0.88 2.67zm6.99-3.48v1.86h-0.66c-0.02-0.34-0.11-0.58-0.27-0.74-0.16-0.17-0.38-0.25-0.68-0.25-0.45 0-0.81 0.2-1.07 0.6s-0.39 0.95-0.39 1.66v2.46h1.13v0.71h-4.09v-0.71h0.88v-4.81h-0.95v-0.71h3.03v1.11c0.2-0.44 0.47-0.76 0.8-0.97 0.34-0.21 0.74-0.31 1.23-0.31 0.12 0 0.27 0.01 0.44 0.03 0.18 0.01 0.38 0.04 0.6 0.07zm6.494 2.47v3.12h0.891v0.71h-2.965v-0.79c-0.27 0.33-0.58 0.57-0.91 0.72-0.34 0.16-0.72 0.24-1.15 0.24-0.64 0-1.13-0.17-1.47-0.51-0.34-0.35-0.51-0.84-0.51-1.47 0-0.7 0.24-1.23 0.73-1.57 0.49-0.35 1.23-0.52 2.22-0.52h1.09v-0.37c0-0.51-0.12-0.88-0.36-1.12s-0.61-0.36-1.11-0.36c-0.41 0-0.73 0.08-0.95 0.25-0.23 0.17-0.39 0.45-0.48 0.84h-0.66v-1.34c0.37-0.13 0.75-0.23 1.15-0.3s0.82-0.1 1.26-0.1c1.11 0 1.93 0.21 2.45 0.62 0.515 0.41 0.774 1.07 0.774 1.95zm-2.074 1.87v-1.25h-0.78c-0.39 0-0.68 0.11-0.89 0.32s-0.31 0.51-0.31 0.91c0 0.39 0.07 0.69 0.22 0.88 0.16 0.2 0.38 0.3 0.69 0.3 0.32 0 0.58-0.11 0.78-0.32 0.19-0.21 0.29-0.49 0.29-0.84z" stroke-opacity=".19608" transform="rotate(-90)" stroke="#000" stroke-width=".625" fill="none"/>
 <g>
  <path id="text2379" d="m-141.86 122.1c-0.23 0.9-0.64 1.57-1.24 2.01s-1.4 0.66-2.41 0.66c-1.48 0-2.64-0.41-3.5-1.22-0.86-0.82-1.29-1.92-1.29-3.32s0.43-2.5 1.29-3.32c0.86-0.81 2.02-1.22 3.5-1.22 0.52 0 1.06 0.06 1.62 0.19 0.57 0.12 1.16 0.31 1.79 0.57v2.15h-0.74c-0.16-0.74-0.43-1.29-0.84-1.65-0.4-0.37-0.93-0.55-1.59-0.55-0.85 0-1.48 0.31-1.9 0.94-0.41 0.63-0.62 1.59-0.62 2.89s0.21 2.27 0.62 2.89c0.42 0.63 1.05 0.94 1.91 0.94 0.58 0 1.06-0.16 1.43-0.49 0.37-0.32 0.64-0.81 0.8-1.47h1.17zm7.23-1.33v3.12h0.89v0.71h-2.96v-0.79c-0.28 0.33-0.58 0.57-0.92 0.72-0.33 0.16-0.72 0.24-1.15 0.24-0.63 0-1.12-0.17-1.46-0.51-0.35-0.35-0.52-0.84-0.52-1.47 0-0.7 0.25-1.23 0.74-1.57 0.49-0.35 1.23-0.52 2.22-0.52h1.09v-0.37c0-0.51-0.12-0.88-0.36-1.12s-0.61-0.36-1.11-0.36c-0.41 0-0.73 0.08-0.96 0.25-0.22 0.17-0.38 0.45-0.47 0.84h-0.67v-1.34c0.38-0.13 0.76-0.23 1.16-0.3s0.82-0.1 1.26-0.1c1.11 0 1.93 0.21 2.44 0.62 0.52 0.41 0.78 1.07 0.78 1.95zm-2.07 1.87v-1.25h-0.78c-0.39 0-0.69 0.11-0.89 0.32-0.21 0.21-0.31 0.51-0.31 0.91 0 0.39 0.07 0.69 0.22 0.88 0.15 0.2 0.38 0.3 0.69 0.3 0.32 0 0.58-0.11 0.77-0.32 0.2-0.21 0.3-0.49 0.3-0.84zm10.53-3.25c0.29-0.42 0.6-0.72 0.93-0.91 0.34-0.19 0.73-0.28 1.18-0.28 0.72 0 1.25 0.2 1.6 0.61 0.36 0.4 0.53 1.01 0.53 1.83v3.25h0.89v0.71h-3.7v-0.71h0.74v-2.94c0-0.78-0.06-1.27-0.18-1.47-0.12-0.21-0.34-0.31-0.66-0.31-0.37 0-0.66 0.14-0.86 0.43-0.2 0.28-0.3 0.68-0.3 1.21v3.08h0.74v0.71h-3.56v-0.71h0.74v-2.94c0-0.78-0.06-1.27-0.18-1.47-0.12-0.21-0.34-0.31-0.66-0.31-0.37 0-0.66 0.14-0.86 0.43-0.21 0.28-0.31 0.68-0.31 1.21v3.08h0.75v0.71h-3.71v-0.71h0.89v-4.81h-0.89v-0.71h2.96v0.88c0.24-0.36 0.52-0.63 0.83-0.8 0.32-0.17 0.69-0.25 1.12-0.25 0.51 0 0.92 0.1 1.23 0.29 0.32 0.19 0.56 0.49 0.74 0.9zm10.23 1.69c0-0.82-0.08-1.39-0.23-1.72s-0.41-0.5-0.78-0.5c-0.36 0-0.61 0.16-0.77 0.49-0.15 0.32-0.23 0.87-0.23 1.63v0.1h2.01zm2.28 0.7h-4.29v0.05c0 0.8 0.12 1.38 0.37 1.74 0.24 0.36 0.63 0.54 1.17 0.54 0.45 0 0.81-0.12 1.09-0.36 0.27-0.24 0.45-0.59 0.53-1.04h0.97c-0.16 0.71-0.5 1.23-1 1.56s-1.2 0.5-2.1 0.5c-1.07 0-1.9-0.29-2.48-0.85-0.57-0.57-0.86-1.38-0.86-2.44 0-1.03 0.29-1.84 0.88-2.41 0.59-0.58 1.41-0.87 2.46-0.87 1.04 0 1.83 0.3 2.38 0.91s0.84 1.5 0.88 2.67zm6.99-3.48v1.86h-0.66c-0.02-0.34-0.11-0.58-0.27-0.74-0.16-0.17-0.38-0.25-0.68-0.25-0.45 0-0.81 0.2-1.07 0.6s-0.39 0.95-0.39 1.66v2.46h1.13v0.71h-4.09v-0.71h0.88v-4.81h-0.95v-0.71h3.03v1.11c0.2-0.44 0.47-0.76 0.8-0.97 0.34-0.21 0.74-0.31 1.23-0.31 0.12 0 0.27 0.01 0.44 0.03 0.18 0.01 0.38 0.04 0.6 0.07zm6.49 2.47v3.12h0.895v0.71h-2.965v-0.79c-0.27 0.33-0.58 0.57-0.91 0.72-0.34 0.16-0.72 0.24-1.15 0.24-0.64 0-1.13-0.17-1.47-0.51-0.34-0.35-0.51-0.84-0.51-1.47 0-0.7 0.24-1.23 0.73-1.57 0.49-0.35 1.23-0.52 2.22-0.52h1.09v-0.37c0-0.51-0.12-0.88-0.36-1.12s-0.61-0.36-1.11-0.36c-0.41 0-0.73 0.08-0.95 0.25-0.23 0.17-0.39 0.45-0.48 0.84h-0.66v-1.34c0.37-0.13 0.75-0.23 1.15-0.3s0.82-0.1 1.26-0.1c1.11 0 1.93 0.21 2.45 0.62s0.77 1.07 0.77 1.95zm-2.07 1.87v-1.25h-0.78c-0.39 0-0.68 0.11-0.89 0.32s-0.31 0.51-0.31 0.91c0 0.39 0.07 0.69 0.22 0.88 0.16 0.2 0.38 0.3 0.69 0.3 0.32 0 0.58-0.11 0.78-0.32 0.19-0.21 0.29-0.49 0.29-0.84z" stroke-opacity=".78431" transform="rotate(-90)" stroke="#000" stroke-width=".625" fill="url(#linearGradient2951)"/>
  <path id="text2397" d="m-128.66 347.21v-8.59h2.95c0.67 0 1.18 0.05 1.53 0.13 0.5 0.11 0.92 0.32 1.26 0.61 0.46 0.39 0.8 0.87 1.02 1.47s0.34 1.28 0.34 2.04c0 0.65-0.08 1.23-0.23 1.74-0.15 0.5-0.35 0.92-0.59 1.25s-0.5 0.59-0.78 0.78-0.62 0.33-1.02 0.43c-0.41 0.1-0.87 0.14-1.38 0.14h-3.1zm1.13-1.01h1.84c0.56 0 1.01-0.05 1.33-0.16 0.32-0.1 0.58-0.25 0.77-0.44 0.27-0.27 0.48-0.64 0.63-1.09 0.15-0.46 0.23-1.01 0.23-1.66 0-0.89-0.15-1.58-0.45-2.07-0.29-0.48-0.65-0.8-1.07-0.97-0.31-0.11-0.8-0.17-1.47-0.17h-1.81v6.56zm7.41-6.36v-1.22h1.05v1.22h-1.05zm0 7.37v-6.22h1.05v6.22h-1.05zm2.47 0.52l1.03 0.15c0.04 0.32 0.16 0.55 0.35 0.69 0.27 0.2 0.62 0.3 1.08 0.3 0.48 0 0.86-0.1 1.13-0.3 0.26-0.19 0.44-0.47 0.54-0.82 0.05-0.21 0.08-0.66 0.07-1.35-0.46 0.54-1.03 0.81-1.72 0.81-0.86 0-1.52-0.3-1.99-0.92s-0.7-1.36-0.7-2.22c0-0.6 0.11-1.14 0.32-1.65 0.22-0.5 0.53-0.89 0.94-1.16s0.88-0.41 1.44-0.41c0.73 0 1.34 0.3 1.81 0.89v-0.75h0.97v5.38c0 0.97-0.09 1.66-0.29 2.06s-0.51 0.72-0.94 0.96c-0.43 0.23-0.95 0.35-1.58 0.35-0.74 0-1.34-0.17-1.8-0.5-0.45-0.34-0.67-0.84-0.66-1.51zm0.87-3.74c0 0.82 0.17 1.41 0.49 1.79 0.32 0.37 0.73 0.56 1.22 0.56 0.48 0 0.89-0.19 1.22-0.56s0.49-0.96 0.49-1.75c0-0.77-0.17-1.34-0.51-1.73-0.33-0.38-0.74-0.58-1.22-0.58-0.47 0-0.87 0.19-1.19 0.58-0.33 0.38-0.5 0.94-0.5 1.69zm6.01-4.15v-1.22h1.05v1.22h-1.05zm0 7.37v-6.22h1.05v6.22h-1.05zm2.41-2.76l1.08-0.09c0.05 0.43 0.17 0.78 0.35 1.06 0.19 0.27 0.47 0.5 0.87 0.67 0.39 0.17 0.83 0.25 1.31 0.25 0.44 0 0.82-0.06 1.15-0.19s0.58-0.31 0.74-0.53c0.17-0.23 0.25-0.47 0.25-0.74s-0.08-0.5-0.24-0.7c-0.15-0.21-0.41-0.37-0.77-0.51-0.23-0.09-0.74-0.23-1.53-0.42s-1.34-0.37-1.66-0.54c-0.41-0.21-0.71-0.48-0.92-0.8-0.2-0.31-0.3-0.67-0.3-1.07 0-0.43 0.13-0.83 0.37-1.21 0.25-0.38 0.61-0.66 1.08-0.86 0.47-0.19 1-0.29 1.58-0.29 0.63 0 1.19 0.1 1.68 0.31 0.49 0.2 0.86 0.5 1.12 0.9s0.4 0.85 0.42 1.35l-1.09 0.09c-0.05-0.55-0.25-0.96-0.59-1.23-0.34-0.28-0.84-0.42-1.5-0.42-0.68 0-1.19 0.13-1.5 0.38s-0.47 0.55-0.47 0.91c0 0.31 0.11 0.56 0.33 0.76s0.79 0.4 1.72 0.61c0.92 0.21 1.55 0.39 1.9 0.55 0.5 0.23 0.87 0.52 1.1 0.88 0.24 0.35 0.36 0.76 0.36 1.22s-0.13 0.89-0.39 1.29-0.64 0.72-1.13 0.94c-0.49 0.23-1.04 0.34-1.65 0.34-0.78 0-1.43-0.11-1.96-0.34-0.52-0.23-0.94-0.57-1.23-1.02-0.3-0.46-0.46-0.97-0.48-1.55zm8.27 2.76v-8.59h1.056v3.09c0.493-0.57 1.114-0.86 1.864-0.86 0.461 0 0.861 0.09 1.201 0.27s0.583 0.44 0.729 0.76c0.147 0.32 0.22 0.78 0.22 1.39v3.94h-1.055v-3.94c0-0.53-0.114-0.91-0.342-1.15-0.229-0.24-0.552-0.36-0.97-0.36-0.313 0-0.607 0.08-0.882 0.24s-0.472 0.38-0.589 0.66-0.176 0.66-0.176 1.15v3.4h-1.056zm6.289-3.11c0-1.15 0.32-2 0.961-2.56 0.535-0.46 1.187-0.69 1.957-0.69 0.855 0 1.554 0.28 2.097 0.84s0.815 1.34 0.815 2.32c0 0.81-0.12 1.44-0.36 1.89-0.241 0.46-0.59 0.82-1.049 1.07-0.459 0.26-0.96 0.38-1.503 0.38-0.871 0-1.575-0.27-2.112-0.83-0.538-0.56-0.806-1.37-0.806-2.42zm1.084 0c0 0.8 0.174 1.4 0.521 1.79 0.348 0.4 0.785 0.6 1.313 0.6 0.523 0 0.959-0.2 1.306-0.6 0.348-0.4 0.522-1.01 0.522-1.82 0-0.77-0.175-1.36-0.524-1.75-0.35-0.4-0.785-0.6-1.304-0.6-0.528 0-0.965 0.2-1.313 0.6-0.347 0.39-0.521 0.99-0.521 1.78zm8.291 2.17l0.152 0.93c-0.297 0.06-0.562 0.1-0.797 0.1-0.383 0-0.679-0.06-0.89-0.19-0.211-0.12-0.36-0.28-0.446-0.47-0.086-0.2-0.129-0.62-0.129-1.25v-3.58h-0.773v-0.82h0.773v-1.54l1.049-0.63v2.17h1.061v0.82h-1.061v3.64c0 0.3 0.019 0.49 0.056 0.58s0.098 0.15 0.182 0.21c0.084 0.05 0.204 0.07 0.36 0.07 0.117 0 0.271-0.01 0.463-0.04zm-26.424 9.93l1.13 0.29c-0.23 0.93-0.66 1.64-1.28 2.14-0.62 0.49-1.38 0.73-2.27 0.73-0.93 0-1.68-0.19-2.26-0.56-0.58-0.38-1.02-0.93-1.32-1.64-0.31-0.72-0.46-1.49-0.46-2.31 0-0.89 0.17-1.67 0.51-2.34 0.35-0.66 0.83-1.17 1.46-1.51 0.63-0.35 1.33-0.52 2.09-0.52 0.86 0 1.58 0.22 2.16 0.65 0.59 0.44 1 1.06 1.23 1.85l-1.12 0.26c-0.2-0.62-0.49-1.08-0.87-1.36-0.38-0.29-0.85-0.43-1.43-0.43-0.66 0-1.21 0.16-1.65 0.47-0.45 0.32-0.76 0.75-0.94 1.28s-0.27 1.08-0.27 1.65c0 0.73 0.11 1.37 0.32 1.91 0.22 0.55 0.55 0.95 1 1.22 0.44 0.27 0.93 0.41 1.45 0.41 0.64 0 1.18-0.19 1.62-0.55 0.44-0.37 0.74-0.92 0.9-1.64zm7.59-3.47l-1.05 0.08c-0.1-0.41-0.23-0.72-0.4-0.9-0.29-0.3-0.64-0.45-1.06-0.45-0.33 0-0.63 0.09-0.88 0.28-0.33 0.24-0.59 0.59-0.79 1.06-0.19 0.46-0.29 1.12-0.29 1.98 0.25-0.38 0.56-0.67 0.93-0.86 0.36-0.18 0.75-0.28 1.15-0.28 0.7 0 1.3 0.26 1.8 0.78 0.49 0.52 0.74 1.18 0.74 2 0 0.54-0.12 1.04-0.35 1.51-0.23 0.46-0.55 0.82-0.96 1.06-0.4 0.25-0.87 0.37-1.38 0.37-0.88 0-1.6-0.32-2.15-0.97-0.56-0.65-0.83-1.71-0.83-3.2 0-1.66 0.3-2.86 0.92-3.62 0.53-0.65 1.25-0.98 2.16-0.98 0.67 0 1.23 0.19 1.66 0.57s0.69 0.9 0.78 1.57zm-4.31 3.7c0 0.36 0.08 0.71 0.23 1.04 0.16 0.34 0.37 0.59 0.65 0.76 0.28 0.18 0.57 0.26 0.87 0.26 0.45 0 0.83-0.18 1.15-0.54s0.48-0.84 0.48-1.46c0-0.59-0.16-1.06-0.47-1.4-0.32-0.35-0.72-0.52-1.2-0.52s-0.88 0.17-1.21 0.52c-0.33 0.34-0.5 0.79-0.5 1.34zm5.51-1.45c0-1.02 0.11-1.84 0.32-2.45 0.21-0.62 0.52-1.1 0.93-1.44 0.41-0.33 0.929-0.5 1.554-0.5 0.461 0 0.865 0.09 1.213 0.28 0.347 0.18 0.634 0.45 0.861 0.8s0.404 0.78 0.533 1.28 0.194 1.18 0.194 2.03c0 1.01-0.104 1.82-0.311 2.44s-0.517 1.1-0.929 1.43c-0.412 0.34-0.932 0.51-1.561 0.51-0.824 0-1.474-0.3-1.954-0.89-0.56-0.71-0.85-1.88-0.85-3.49zm1.09 0c0 1.41 0.16 2.35 0.49 2.81 0.33 0.47 0.739 0.7 1.224 0.7 0.484 0 0.891-0.23 1.221-0.7 0.331-0.47 0.496-1.41 0.496-2.81 0-1.42-0.165-2.36-0.496-2.82-0.33-0.47-0.741-0.7-1.233-0.7-0.484 0-0.872 0.21-1.162 0.62-0.36 0.52-0.54 1.49-0.54 2.9z" transform="rotate(-90)"/>
  <g fill-rule="evenodd">
   <rect id="rect2403" stroke-linejoin="round" rx="2.1213" ry="2.1213" stroke-dashoffset="0pt" height="16.529" width="73.766" stroke="url(#linearGradient2944)" stroke-linecap="round" y="16.372" x="311.99" stroke-width="1.25" fill="url(#linearGradient2942)"/>
   <rect id="rect2435" opacity=".4" height="14.38" width="69.812" y="17.446" x="313.97" fill="url(#linearGradient2939)"/>
   <rect id="rect2441" opacity=".6" height="8.7437" width="69.112" y="18.166" x="314.32" fill="url(#linearGradient2936)"/>
   <rect id="rect2469" opacity=".9" stroke-linejoin="round" rx="2" ry="2" stroke-dashoffset="0pt" height="24.683" width="34.684" stroke="url(#linearGradient2933)" stroke-linecap="round" y="15.128" x="200.88" stroke-width=".625" fill="#191919"/>
   <path id="path2473" opacity=".28934" d="m227.92 27.47c0 5.347-4.34 9.681-9.7 9.681s-9.71-4.334-9.71-9.681 4.35-9.682 9.71-9.682 9.7 4.335 9.7 9.682z" fill="url(#radialGradient2930)"/>
   <path id="path2483" opacity=".23350" d="m230.79 27.47c0 6.649-5.63 12.038-12.57 12.038s-12.57-5.389-12.57-12.038c0-6.648 5.63-12.038 12.57-12.038s12.57 5.39 12.57 12.038z" fill="url(#linearGradient2927)"/>
   <path id="path2489" d="m228.31 31.005c0 3.329-4.52 6.027-10.09 6.027-5.58 0-10.09-2.698-10.09-6.027s4.51-6.028 10.09-6.028c5.57 0 10.09 2.699 10.09 6.028z" fill="url(#linearGradient2924)"/>
   <path id="path2515" d="m218.74 25.485c0 0.709-0.39 1.364-1.03 1.719-0.65 0.354-1.44 0.354-2.08 0-0.64-0.355-1.03-1.01-1.03-1.719 0-0.708 0.39-1.363 1.03-1.718s1.43-0.355 2.08 0c0.64 0.355 1.03 1.01 1.03 1.718z" fill="url(#radialGradient2921)"/>
   <path id="path2525" opacity=".75127" d="m226.43 31.838c0.01 1.506-0.79 2.898-2.1 3.652-1.3 0.753-2.91 0.753-4.21 0-1.3-0.754-2.1-2.146-2.1-3.652 0-1.505 0.8-2.897 2.1-3.651s2.91-0.754 4.21 0c1.31 0.754 2.11 2.146 2.1 3.651z" fill="url(#radialGradient2918)"/>
  </g>
 </g>
 <path id="path2545" fill-opacity="0" d="m246.23 155.19c-22.02-6.78-34.4-30.02-27.66-51.89 6.75-21.875 30.06-34.107 52.08-27.321 22.01 6.785 34.39 30.021 27.65 51.891-6.74 21.88-30.05 34.11-52.07 27.32z"/>
 <path id="path2564" fill-opacity="0" d="m281.4 81.021c19.21 12.763 24.51 38.579 11.82 57.669-12.68 19.09-38.53 24.22-57.74 11.46-19.22-12.76-24.51-38.58-11.83-57.673 12.68-19.09 38.53-24.219 57.75-11.456z"/>
 <g>
  <g fill-rule="evenodd">
   <path id="path1466" d="m21.156 86.076c-0.071 6.052-0.281 10.388-0.281 17.064 0 25.08 0.547 46.09 1.344 56.94 1.336 2.82 2.709 4.78 3.969 4.65 4.173-0.41 5.729-18.94 3.5-41.37-1.706-17.17-5.139-31.611-8.532-37.284z" fill="url(#radialGradient2907)"/>
   <path id="path2247" opacity=".85" stroke-linejoin="round" d="m254.28 14.576c-3.85 2.478-6.44 6.798-6.44 11.718 0 4.921 2.59 9.21 6.44 11.688h15c3.86-2.478 6.44-6.766 6.44-11.688 0-4.921-2.58-9.24-6.44-11.718h-15z" stroke-dashoffset="0pt" stroke="url(#linearGradient2904)" stroke-linecap="round" stroke-width=".85"/>
   <path id="path2261" opacity=".28934" d="m271.09 25.571c0 5.347-4.35 9.681-9.71 9.681-5.35 0-9.7-4.334-9.7-9.681s4.35-9.682 9.7-9.682c5.36 0 9.71 4.335 9.71 9.682z" fill="url(#radialGradient2901)"/>
   <path id="path2263" opacity=".23350" d="m273.95 25.571c0 6.649-5.62 12.038-12.57 12.038-6.94 0-12.56-5.389-12.56-12.038 0-6.648 5.62-12.038 12.56-12.038 6.95 0 12.57 5.39 12.57 12.038z" fill="url(#linearGradient2898)"/>
   <path id="path2265" d="m271.48 29.105c0 3.329-4.52 6.028-10.1 6.028-5.57 0-10.09-2.699-10.09-6.028s4.52-6.027 10.09-6.027c5.58 0 10.1 2.698 10.1 6.027z" fill="url(#linearGradient2895)"/>
   <path id="path2267" d="m262.62 22.69c0 0.709-0.37 1.364-0.99 1.719-0.61 0.354-1.37 0.354-1.98 0-0.61-0.355-0.99-1.01-0.99-1.719 0-0.708 0.38-1.363 0.99-1.718s1.37-0.355 1.98 0c0.62 0.355 0.99 1.01 0.99 1.718z" fill="url(#radialGradient2892)"/>
   <path id="path2269" opacity=".75127" d="m267.81 30.386c0 1.506-0.8 2.898-2.1 3.652-1.31 0.753-2.91 0.753-4.22 0-1.3-0.754-2.1-2.146-2.1-3.652 0-1.505 0.8-2.897 2.1-3.651 1.31-0.754 2.91-0.754 4.22 0 1.3 0.754 2.1 2.146 2.1 3.651z" fill="url(#radialGradient2889)"/>
   <path id="path2281" d="m258.52 16.972c3.26 0.556 4.98 4.636 3.84 9.112-1.14 4.475-4.7 7.652-7.96 7.096-3.26-0.557-4.98-4.636-3.84-9.112s4.7-7.653 7.96-7.096z" fill="url(#linearGradient2886)"/>
   <path id="path2287" d="m215.81 19.766c3.25 0.544 4.97 4.512 3.83 8.864-1.14 4.353-4.7 7.441-7.96 6.898s-4.98-4.512-3.84-8.864 4.71-7.441 7.97-6.898z" fill="url(#linearGradient2883)"/>
   <rect id="rect2291" stroke-linejoin="round" stroke-opacity=".19608" rx="7.5" ry="65" stroke-dashoffset="0pt" height="130" width="15" stroke="url(#linearGradient2880)" stroke-linecap="round" y="38.125" x="55.875" stroke-width="2" fill="url(#linearGradient2878)"/>
   <rect id="rect2310" opacity=".65" rx="7.5" ry="65" height="130" width="15" y="38.125" x="55.875" fill="url(#linearGradient2875)"/>
   <rect id="rect2318" opacity=".53807" stroke-linejoin="round" stroke-opacity=".39216" rx="3.9183" ry="65" stroke-dashoffset="0pt" height="100" width="11.538" stroke="#000" stroke-linecap="round" y="53.125" x="57.606" fill="url(#linearGradient2872)"/>
   <rect id="rect2336" rx="4.8585" ry="65" height="41.306" width="8.6425" y="58.125" x="59.054" fill="url(#linearGradient2869)"/>
   <rect id="rect2355" opacity=".24366" rx="3.9183" ry="65" height="87.584" width="10.106" y="59.334" x="58.322" fill="url(#linearGradient2866)"/>
   <path id="path2359" opacity=".62437" d="m39.755 79.531c-1.986 23.929-5.532 42.879-7.921 42.329-2.388-0.56-2.714-20.4-0.727-44.331 1.986-23.928 5.532-42.878 7.92-42.325s2.714 20.399 0.728 44.327z" fill="url(#radialGradient2863)"/>
   <path id="path2369" opacity=".49239" d="m41.657 123.03c0.939 24.42-2.221 43.43-7.059 42.45s-9.521-21.58-10.46-46c-0.939-24.424 2.221-43.427 7.059-42.447s9.521 21.573 10.46 45.997z" fill="url(#radialGradient2860)"/>
  </g>
  <path id="text2319" opacity=".51777" d="m-190.25 21.938c0.59 0.152 1.04 0.417 1.34 0.794 0.31 0.377 0.46 0.856 0.46 1.438 0 0.867-0.33 1.527-0.99 1.978-0.67 0.451-1.64 0.677-2.91 0.677-0.45 0-0.9-0.037-1.35-0.109s-0.9-0.181-1.34-0.325v-1.74c0.42 0.211 0.84 0.37 1.26 0.477 0.41 0.108 0.82 0.161 1.22 0.161 0.6 0 1.06-0.103 1.38-0.31s0.48-0.504 0.48-0.891c0-0.398-0.17-0.7-0.49-0.905-0.33-0.205-0.81-0.308-1.45-0.308h-0.9v-1.453h0.95c0.57 0 0.99-0.089 1.27-0.266 0.27-0.178 0.41-0.449 0.41-0.812 0-0.336-0.13-0.596-0.4-0.779-0.27-0.184-0.65-0.276-1.15-0.276-0.36 0-0.73 0.041-1.1 0.123s-0.74 0.204-1.1 0.364v-1.653c0.44-0.125 0.88-0.218 1.32-0.281 0.44-0.062 0.87-0.094 1.29-0.094 1.14 0 1.99 0.187 2.55 0.56 0.57 0.373 0.85 0.935 0.85 1.685 0 0.511-0.14 0.93-0.41 1.256-0.27 0.327-0.67 0.556-1.19 0.689zm3.98 2.449h2.11v2.268h-2.11v-2.268zm6.8 0.609h3.85v1.659h-6.36v-1.659l3.19-2.818c0.29-0.258 0.5-0.51 0.64-0.756 0.13-0.246 0.2-0.502 0.2-0.767 0-0.411-0.14-0.741-0.41-0.991-0.28-0.25-0.64-0.375-1.1-0.375-0.35 0-0.74 0.076-1.15 0.226-0.42 0.15-0.87 0.374-1.35 0.671v-1.922c0.51-0.168 1.01-0.296 1.51-0.384s0.98-0.132 1.46-0.132c1.05 0 1.86 0.231 2.44 0.692s0.87 1.103 0.87 1.928c0 0.476-0.12 0.92-0.37 1.333-0.25 0.412-0.76 0.963-1.55 1.655l-1.87 1.64z" transform="matrix(0 -.64618 1.5476 0 0 0)" stroke="url(#linearGradient2857)" stroke-width="1px"/>
  <path id="text2331" opacity=".68528" d="m-121.82 19.051h2.87l2 4.681 2-4.681h2.86v8.748h-2.13v-6.399l-2.01 4.717h-1.43l-2.02-4.717v6.399h-2.14v-8.748zm11.96 0h6.08v1.705h-3.83v1.629h3.6v1.705h-3.6v2.004h3.96v1.705h-6.21v-8.748zm16.062 8.097c-0.563 0.274-1.147 0.479-1.752 0.615-0.606 0.137-1.231 0.206-1.875 0.206-1.457 0-2.615-0.408-3.465-1.222-0.85-0.815-1.28-1.919-1.28-3.314 0-1.41 0.44-2.519 1.31-3.328 0.862-0.808 2.05-1.213 3.558-1.213 0.582 0 1.139 0.055 1.673 0.164 0.533 0.11 1.036 0.272 1.508 0.487v1.81c-0.488-0.277-0.973-0.484-1.456-0.621-0.482-0.137-0.966-0.205-1.45-0.205-0.898 0-1.591 0.251-2.077 0.753s-0.73 1.22-0.73 2.153c0 0.926 0.235 1.641 0.704 2.145 0.468 0.504 1.134 0.756 1.998 0.756 0.234 0 0.452-0.015 0.653-0.044s0.382-0.075 0.542-0.138v-1.699h-1.377v-1.512h3.516v4.207zm7.289-0.943h-3.528l-0.556 1.594h-2.268l3.24-8.748h2.69l3.24 8.748h-2.268l-0.55-1.594zm-2.965-1.623h2.396l-1.195-3.481-1.201 3.481zm-36.216 2.611h3.75c1.11 0 1.97 0.247 2.56 0.741 0.6 0.494 0.9 1.199 0.9 2.113 0 0.918-0.3 1.624-0.9 2.118-0.59 0.494-1.45 0.741-2.56 0.741h-1.49v3.035h-2.26v-8.748zm2.26 1.635v2.443h1.25c0.44 0 0.77-0.106 1.01-0.319s0.36-0.515 0.36-0.905c0-0.391-0.12-0.692-0.36-0.903s-0.57-0.316-1.01-0.316h-1.25zm6.53-1.635h2.26v8.748h-2.26v-8.748zm9.36 4.283l3.03 4.465h-2.35l-2.04-2.988-2.03 2.988h-2.36l3.03-4.465-2.92-4.283h2.36l1.92 2.818 1.91-2.818h2.36l-2.91 4.283zm4.38-4.283h6.086v1.705h-3.836v1.629h3.608v1.705h-3.608v2.004h3.965v1.705h-6.215v-8.748zm8.201 0h2.256v7.043h3.961v1.705h-6.217v-8.748zm13.729 0.275v1.852c-0.481-0.215-0.949-0.377-1.406-0.486-0.457-0.11-0.889-0.164-1.295-0.164-0.539 0-0.938 0.074-1.196 0.222-0.257 0.149-0.386 0.379-0.386 0.692 0 0.234 0.087 0.417 0.26 0.548 0.174 0.13 0.49 0.243 0.947 0.336l0.961 0.194c0.972 0.195 1.664 0.492 2.074 0.89 0.41 0.399 0.615 0.965 0.615 1.7 0 0.964-0.286 1.682-0.858 2.153-0.573 0.471-1.447 0.706-2.622 0.706-0.555 0-1.112-0.053-1.67-0.158-0.559-0.106-1.117-0.262-1.676-0.469v-1.904c0.559 0.297 1.099 0.52 1.62 0.671 0.522 0.15 1.025 0.225 1.509 0.225 0.492 0 0.869-0.082 1.131-0.246 0.261-0.164 0.392-0.398 0.392-0.703 0-0.273-0.089-0.484-0.266-0.633-0.178-0.148-0.533-0.281-1.064-0.398l-0.873-0.194c-0.875-0.187-1.514-0.486-1.919-0.896-0.404-0.41-0.606-0.963-0.606-1.658 0-0.871 0.281-1.541 0.844-2.01 0.562-0.469 1.371-0.703 2.425-0.703 0.481 0 0.975 0.036 1.483 0.108 0.508 0.073 1.033 0.181 1.576 0.325z" transform="matrix(0 -.89322 1.1196 0 0 0)" stroke="url(#linearGradient2853)" stroke-width="1px"/>
 </g>
</svg>
