<?xml version="1.0" encoding="UTF-8" standalone="no"?>
<svg id="svg11376" xmlns:rdf="http://www.w3.org/1999/02/22-rdf-syntax-ns#" xmlns="http://www.w3.org/2000/svg" height="88mm" width="63mm" version="1.1" xmlns:cc="http://creativecommons.org/ns#" xmlns:xlink="http://www.w3.org/1999/xlink" viewBox="0 0 223.22836 311.81102" xmlns:dc="http://purl.org/dc/elements/1.1/">
<g id="layer1" transform="translate(-2311.6 742.61)">
<g id="g11195-3-7" transform="matrix(.99554 0 0 .99680 -117.31 318.49)">
<g id="g10140-6-7" transform="translate(2179.9 -1434.3)">
<rect id="rect10142-4-2" rx="10.678" ry="10.664" height="311.81" width="223.23" stroke="#000000" y="370.28" x="260.43" stroke-width="1.0006" fill="#ffffff"/>
</g>
<path id="path10174-9-0" d="m-95.397-140.12s-2.2247-3.1898-5.2257-6.9401c-2.0077-2.5097-3.6127-5.2272-3.762-7.568-.1711-2.6739 1.449-5.3564 4.3821-5.4864 2.9314-.12993 4.1212 2.0617 4.6056 3.8686.4844-1.8069 1.6743-3.9985 4.6056-3.8686 2.9331.13002 4.5533 2.8126 4.3821 5.4864-.1492 2.3407-1.7543 5.0583-3.7619 7.568-3.0011 3.7503-5.2258 6.9401-5.2258 6.9401z" transform="translate(2552.9 -853.91)" fill="#d40000"/>
<path id="path10176-9-9" d="m93.398 31.743c0 .003-2.2247 3.1898-5.2257 6.9401-2.0077 2.5097-3.6127 5.2272-3.762 7.568-.1711 2.6739 1.449 5.3564 4.3821 5.4864 2.9314.12993 4.1212-2.0617 4.6056-3.8686.4844 1.8069 1.6743 3.9985 4.6056 3.8686 2.9331-.13002 4.5533-2.8126 4.3821-5.4864-.1492-2.3407-1.7543-5.0583-3.7619-7.568-3.0011-3.7503-5.2239-6.9375-5.2258-6.9401z" transform="translate(2552.9 -853.91)" fill="#d40000"/>
<path id="path10178-8-4" d="m2551.9-933.7s-4.6663-7.6555-10.961-16.656c-4.211-6.0233-7.5776-12.545-7.8906-18.163-.359-6.4173 3.0392-12.855 9.1914-13.167 6.1485-.31185 8.6442 4.948 9.6601 9.2846 1.016-4.3366 3.5117-9.5965 9.6602-9.2846 6.1522.31203 9.5504 6.7501 9.1914 13.167-.313 5.6178-3.6796 12.14-7.8906 18.163-6.2946 9.0008-10.961 16.656-10.961 16.656z" fill="#d40000"/>
<path id="path10182-1-9" d="m-52.766-129.4s-4.6663-7.6555-10.961-16.656c-4.211-6.0233-7.5776-12.545-7.8906-18.163-.359-6.4173 3.0392-12.855 9.1914-13.167 6.1485-.31185 8.6442 4.948 9.6601 9.2846 1.016-4.3366 3.5117-9.5965 9.6602-9.2846 6.1522.31203 9.5504 6.7501 9.1914 13.167-.313 5.6178-3.6796 12.14-7.8906 18.163-6.2946 9.0008-10.961 16.656-10.961 16.656z" transform="translate(2552.9 -853.91)" fill="#d40000"/>
<path id="path10184-9-1" d="m50.766-30.189s-4.6663-7.6555-10.961-16.656c-4.211-6.0233-7.5776-12.545-7.8906-18.163-.359-6.4173 3.0392-12.855 9.1914-13.167 6.1485-.31185 8.6442 4.948 9.6601 9.2846 1.016-4.3366 3.5117-9.5965 9.6602-9.2846 6.1522.31203 9.5504 6.7501 9.1914 13.167-.313 5.6178-3.6796 12.14-7.8906 18.163-6.2946 9.0008-10.961 16.656-10.961 16.656z" transform="translate(2552.9 -853.91)" fill="#d40000"/>
<path id="path10188-5-4" d="m50.766-129.4s-4.6663-7.6555-10.961-16.656c-4.211-6.0233-7.5776-12.545-7.8906-18.163-.359-6.4173 3.0392-12.855 9.1914-13.167 6.1485-.31185 8.6442 4.948 9.6601 9.2846 1.016-4.3366 3.5117-9.5965 9.6602-9.2846 6.1522.31203 9.5504 6.7501 9.1914 13.167-.313 5.6178-3.6796 12.14-7.8906 18.163-6.2946 9.0008-10.961 16.656-10.961 16.656z" transform="translate(2552.9 -853.91)" fill="#d40000"/>
<path id="path10192-3-6" d="m-52.766-30.189s-4.6663-7.6555-10.961-16.656c-4.211-6.0233-7.5776-12.545-7.8906-18.163-.359-6.4173 3.0392-12.855 9.1914-13.167 6.1485-.31185 8.6442 4.948 9.6601 9.2846 1.016-4.3366 3.5117-9.5965 9.6602-9.2846 6.1522.31203 9.5504 6.7501 9.1914 13.167-.313 5.6178-3.6796 12.14-7.8906 18.163-6.2946 9.0008-10.961 16.656-10.961 16.656z" transform="translate(2552.9 -853.91)" fill="#d40000"/>
<path id="path10196-7-3" d="m2551.9-882.49s-4.6662 7.6555-10.961 16.656c-4.2109 6.0233-7.5776 12.545-7.8905 18.163-.359 6.4173 3.0391 12.855 9.1913 13.167 6.1486.31185 8.6443-4.948 9.6601-9.2846 1.0161 4.3366 3.5117 9.5965 9.6603 9.2846 6.1522-.31203 9.5503-6.7501 9.1913-13.167-.3129-5.6178-3.6795-12.14-7.8905-18.163-6.2946-9.0008-10.961-16.656-10.961-16.656z" fill="#d40000"/>
<path id="path10202-2-8" d="m50.766 21.022s-4.6663 7.6555-10.961 16.656c-4.211 6.0233-7.5776 12.545-7.8906 18.163-.359 6.4173 3.0392 12.855 9.1914 13.167 6.1485.31185 8.6442-4.948 9.6601-9.2846 1.016 4.3366 3.5117 9.5965 9.6602 9.2846 6.1522-.31203 9.5504-6.7501 9.1914-13.167-.313-5.6178-3.6796-12.14-7.8906-18.163-6.2946-9.0008-10.961-16.656-10.961-16.656z" transform="translate(2552.9 -853.91)" fill="#d40000"/>
<path id="path10204-9-4" d="m-52.766 21.022s-4.6663 7.6555-10.961 16.656c-4.211 6.0233-7.5776 12.545-7.8906 18.163-.359 6.4173 3.0392 12.855 9.1914 13.167 6.1485.31185 8.6442-4.948 9.6601-9.2846 1.016 4.3366 3.5117 9.5965 9.6602 9.2846 6.1522-.31203 9.5504-6.7501 9.1914-13.167-.313-5.6178-3.6796-12.14-7.8906-18.163-6.2946-9.0008-10.961-16.656-10.961-16.656z" transform="translate(2552.9 -853.91)" fill="#d40000"/>
<path id="path27-00-0-7-4" d="m2446.8-1026.8c.1568-4.4301 1.7588-6.0918 4.9126-8.4097-2.5161-1.8149-3.5768-4.4903-3.3608-6.7675.5181-5.5143 4.7763-8.2708 9.4228-8.153 4.6503.1231 8.6526 3.8094 8.965 7.8165.2713 3.4833-.7637 5.1647-3.2348 6.9967 2.9327 2.4762 4.8059 4.1026 4.7365 8.4659-.069 4.3633-3.7812 9.5555-10.251 9.7139-6.4695.1584-11.351-5.2328-11.19-9.6628zm18.06.016c.2764-4.011-3.2695-6.7165-7.2719-6.7558-3.8969-.042-7.3824 3.2843-7.3824 6.8854 0 3.867 4.5346 5.9687 7.4634 5.9779 3.5601.016 6.9504-2.6544 7.1909-6.1075zm-1.2806-14.348c.076-3.3745-3.0381-5.7958-6.2523-5.6989-2.858.088-5.8807 2.2667-5.8858 5.09 0 3.5344 3.4405 5.2996 6.3783 5.3677 2.6665.06 5.6994-2.2065 5.7598-4.7588z" fill="#d40000"/>
<path id="path27-0-1-0-8-9" d="m2635.6-789.36c.1568 4.4301 1.7588 6.0918 4.9126 8.4097-2.5161 1.8149-3.5768 4.4902-3.3608 6.7675.5181 5.5143 4.7763 8.2708 9.4228 8.1529 4.6503-.1231 8.6526-3.8093 8.965-7.8164.2713-3.4833-.7637-5.1647-3.2348-6.9967 2.9327-2.4762 4.8059-4.1026 4.7365-8.4659-.069-4.3633-3.7812-9.5555-10.251-9.7139-6.4695-.1585-11.351 5.2328-11.19 9.6628zm18.06-.016c.2764 4.011-3.2695 6.7165-7.2719 6.7558-3.8969.042-7.3824-3.2843-7.3824-6.8854 0-3.867 4.5346-5.9687 7.4634-5.9779 3.5601-.016 6.9504 2.6544 7.1909 6.1075zm-1.2806 14.348c.076 3.3745-3.0381 5.7958-6.2523 5.6989-2.858-.088-5.8807-2.2667-5.8858-5.09 0-3.5344 3.4405-5.2996 6.3783-5.3677 2.6665-.06 5.6994 2.2065 5.7598 4.7588z" fill="#d40000"/>
</g>
</g>
</svg>
