<?xml version="1.0" encoding="UTF-8" standalone="no"?>
<svg id="svg11376" xmlns:rdf="http://www.w3.org/1999/02/22-rdf-syntax-ns#" xmlns="http://www.w3.org/2000/svg" height="88mm" width="63mm" version="1.1" xmlns:cc="http://creativecommons.org/ns#" xmlns:xlink="http://www.w3.org/1999/xlink" viewBox="0 0 223.22836 311.81102" xmlns:dc="http://purl.org/dc/elements/1.1/">
<g id="layer1" transform="translate(-2311.6 390.8)" fill="#000000">
  <g id="g8511-1-4" transform="matrix(.99554 0 0 .99680 -284.6 79.602)">
  <rect id="rect7125-2-7" rx="10.678" ry="10.664" height="311.81" width="223.23" stroke="#000000" y="-471.41" x="2608.3" stroke-width="1.0006" fill="#ffffff"/>
  <path id="path7155-4-0" d="m2668.2-438.71c-9.226 13.157-19.098 20.729-19.262 30.993-.055 3.3239 1.7421 8.9734 7.3711 10.055 3.652.69833 8.6801-2.2575 8.7851-8.2625-.016-1.1956 1.2659-1.1645 1.2539.47372-.172 4.7367-1.6714 10.252-4.1914 14.741h12.086c-2.52-4.4891-4.0194-10.004-4.1914-14.741-.012-1.6382 1.2699-1.6693 1.2539-.47372.105 6.005 5.1331 8.9608 8.7851 8.2625 5.629-1.0814 7.4261-6.7309 7.3711-10.055-.164-10.265-10.036-17.836-19.262-30.993z" />
  <path id="path7157-2-9" d="m2625.6-421.43c-4.3106 5.4821-8.9228 8.6369-8.9994 12.914-.026 1.385.8139 3.7389 3.4439 4.1895 1.7063.29097 4.0555-.94062 4.1046-3.4427-.01-.49815.5914-.4852.5858.19738-.08 1.9736-.7809 4.2715-1.9583 6.142h5.6468c-1.1774-1.8705-1.878-4.1683-1.9583-6.142-.01-.68258.5933-.69553.5858-.19738.049 2.5021 2.3983 3.7337 4.1046 3.4427 2.63-.45057 3.4696-2.8045 3.4439-4.1895-.077-4.277-4.6889-7.4318-8.9994-12.914z"/>
  <path id="path7162-7-0" d="m2814.4-209.57c-4.3106-5.4821-8.9228-8.6369-8.9994-12.914-.026-1.385.8139-3.7389 3.4439-4.1895 1.7063-.29097 4.0555.94062 4.1046 3.4427-.01.49815.5914.4852.5858-.19738-.08-1.9736-.7809-4.2715-1.9583-6.142h5.6468c-1.1774 1.8705-1.878 4.1683-1.9583 6.142-.01.68258.5933.69553.5858.19738.049-2.5021 2.3983-3.7337 4.1046-3.4427 2.63.45057 3.4696 2.8045 3.4439 4.1895-.077 4.277-4.6889 7.4318-8.9994 12.914z"/>
  <path id="path7164-8-3" d="m2771.7-438.71c-9.226 13.157-19.098 20.729-19.262 30.993-.055 3.3239 1.7421 8.9734 7.3711 10.055 3.652.69833 8.6801-2.2575 8.7851-8.2625-.016-1.1956 1.2659-1.1645 1.2539.47372-.172 4.7367-1.6714 10.252-4.1914 14.741h12.086c-2.52-4.4891-4.0194-10.004-4.1914-14.741-.012-1.6382 1.2699-1.6693 1.2539-.47372.105 6.005 5.1331 8.9608 8.7851 8.2625 5.629-1.0814 7.4261-6.7309 7.3711-10.055-.164-10.265-10.036-17.836-19.262-30.993z"/>
  <path id="path7168-3-2" d="m2720-389.11c-9.226 13.157-19.098 20.729-19.262 30.993-.055 3.3239 1.7421 8.9734 7.3711 10.055 3.652.69833 8.6801-2.2575 8.7851-8.2625-.016-1.1956 1.2659-1.1645 1.2539.47372-.172 4.7367-1.6714 10.252-4.1914 14.741h12.086c-2.52-4.4891-4.0194-10.004-4.1914-14.741-.012-1.6382 1.2699-1.6693 1.2539-.47372.105 6.005 5.1331 8.9608 8.7851 8.2625 5.629-1.0814 7.4261-6.7309 7.3711-10.055-.164-10.265-10.036-17.836-19.262-30.993z"/>
  <path id="path7174-5-0" d="m2668.2-339.5c-9.226 13.157-19.098 20.729-19.262 30.993-.055 3.3239 1.7421 8.9734 7.3711 10.055 3.652.69833 8.6801-2.2575 8.7851-8.2625-.016-1.1956 1.2659-1.1645 1.2539.47372-.172 4.7367-1.6714 10.252-4.1914 14.741h12.086c-2.52-4.4891-4.0194-10.004-4.1914-14.741-.012-1.6382 1.2699-1.6693 1.2539-.47372.105 6.005 5.1331 8.9608 8.7851 8.2625 5.629-1.0814 7.4261-6.7309 7.3711-10.055-.164-10.265-10.036-17.836-19.262-30.993z"/>
  <path id="path7176-7-0" d="m2668.2-192.29c-9.226-13.157-19.098-20.729-19.262-30.993-.055-3.3239 1.7421-8.9734 7.3711-10.055 3.652-.69833 8.6801 2.2575 8.7851 8.2625-.016 1.1956 1.2659 1.1645 1.2539-.47372-.172-4.7367-1.6714-10.252-4.1914-14.741h12.086c-2.52 4.4891-4.0194 10.004-4.1914 14.741-.012 1.6382 1.2699 1.6693 1.2539.47372.105-6.005 5.1331-8.9608 8.7851-8.2625 5.629 1.0814 7.4261 6.7309 7.3711 10.055-.164 10.265-10.036 17.836-19.262 30.993z"/>
  <path id="path7178-9-4" d="m2771.7-192.29c-9.226-13.157-19.098-20.729-19.262-30.993-.055-3.3239 1.7421-8.9734 7.3711-10.055 3.652-.69833 8.6801 2.2575 8.7851 8.2625-.016 1.1956 1.2659 1.1645 1.2539-.47372-.172-4.7367-1.6714-10.252-4.1914-14.741h12.086c-2.52 4.4891-4.0194 10.004-4.1914 14.741-.012 1.6382 1.2699 1.6693 1.2539.47372.105-6.005 5.1331-8.9608 8.7851-8.2625 5.629 1.0814 7.4261 6.7309 7.3711 10.055-.164 10.265-10.036 17.836-19.262 30.993z"/>
  <path id="path7180-5-1" d="m2720-241.9c-9.226-13.157-19.098-20.729-19.262-30.993-.055-3.3239 1.7421-8.9734 7.3711-10.055 3.652-.69833 8.6801 2.2575 8.7851 8.2625-.016 1.1956 1.2659 1.1645 1.2539-.47372-.172-4.7367-1.6714-10.252-4.1914-14.741h12.086c-2.52 4.4891-4.0194 10.004-4.1914 14.741-.012 1.6382 1.2699 1.6693 1.2539.47372.105-6.005 5.1331-8.9608 8.7851-8.2625 5.629 1.0814 7.4261 6.7309 7.3711 10.055-.164 10.265-10.036 17.836-19.262 30.993z"/>
  <path id="path7189-7-7" d="m2771.7-339.5c-9.226 13.157-19.098 20.729-19.262 30.993-.055 3.3239 1.7421 8.9734 7.3711 10.055 3.652.69833 8.6801-2.2575 8.7851-8.2625-.016-1.1956 1.2659-1.1645 1.2539.47372-.172 4.7367-1.6714 10.252-4.1914 14.741h12.086c-2.52-4.4891-4.0194-10.004-4.1914-14.741-.012-1.6382 1.2699-1.6693 1.2539-.47372.105 6.005 5.1331 8.9608 8.7851 8.2625 5.629-1.0814 7.4261-6.7309 7.3711-10.055-.164-10.265-10.036-17.836-19.262-30.993z"/>
  <path id="path27-43-30-7" d="m2614.8-434.24c.1568-4.43 1.7588-6.0918 4.9126-8.4096-2.5161-1.815-3.5768-4.4903-3.3608-6.7675.5181-5.5144 4.7763-8.2709 9.4228-8.153 4.6503.1231 8.6526 3.8093 8.965 7.8164.2713 3.4833-.7637 5.1647-3.2348 6.9967 2.9327 2.4763 4.8059 4.1027 4.7365 8.4659-.069 4.3633-3.7812 9.5555-10.251 9.714-6.4695.1584-11.351-5.2328-11.19-9.6629zm18.06.016c.2764-4.011-3.2695-6.7164-7.2719-6.7557-3.8969-.042-7.3824 3.2842-7.3824 6.8854 0 3.8669 4.5346 5.9687 7.4634 5.9779 3.5601.016 6.9504-2.6544 7.1909-6.1076zm-1.2806-14.348c.076-3.3746-3.0381-5.7959-6.2523-5.699-2.858.088-5.8807 2.2668-5.8858 5.0901 0 3.5343 3.4405 5.2995 6.3783 5.3676 2.6665.06 5.6994-2.2065 5.7598-4.7587z"/>
  <path id="path27-43-3-4-8" d="m2803.6-196.77c.1568 4.43 1.7589 6.0918 4.9127 8.4096-2.5161 1.815-3.5768 4.4903-3.3608 6.7675.5181 5.5144 4.7763 8.2709 9.4228 8.153 4.6503-.1231 8.6526-3.8093 8.965-7.8164.2713-3.4833-.7637-5.1647-3.2348-6.9967 2.9327-2.4763 4.8059-4.1027 4.7365-8.4659-.069-4.3633-3.7812-9.5555-10.251-9.714-6.4695-.1584-11.351 5.2328-11.19 9.6629zm18.06-.016c.2764 4.011-3.2695 6.7164-7.2719 6.7557-3.8969.042-7.3824-3.2842-7.3824-6.8854 0-3.8669 4.5346-5.9687 7.4635-5.9779 3.56-.016 6.9504 2.6544 7.1909 6.1076zm-1.2806 14.348c.076 3.3746-3.0381 5.7959-6.2523 5.699-2.858-.088-5.8807-2.2668-5.8858-5.0901 0-3.5343 3.4405-5.2995 6.3783-5.3676 2.6665-.06 5.6994 2.2065 5.7598 4.7587z"/>
  </g>
  </g>
</svg>
