<?xml version="1.0" encoding="UTF-8" standalone="no"?>
<svg stroke-width="2" xmlns:rdf="http://www.w3.org/1999/02/22-rdf-syntax-ns#" xmlns="http://www.w3.org/2000/svg" height="100%" width="100%" version="1.1" xmlns:cc="http://creativecommons.org/ns#" xmlns:dc="http://purl.org/dc/elements/1.1/" viewBox="-52 -53 100 99">
	<metadata>
		<rdf:RDF>
			<cc:Work rdf:about="">
				<dc:format>image/svg+xml</dc:format>
				<dc:type rdf:resource="http://purl.org/dc/dcmitype/StillImage"/>
				<dc:title/>
			</cc:Work>
		</rdf:RDF>
	</metadata>
	<g fill="none" transform="translate(-2,1)">
		<ellipse d="M 6,0 C 6,24.300529 3.3137085,44 0,44 -3.3137085,44 -6,24.300529 -6,0 c 0,-24.300529 2.6862915,-44 6,-44 3.3137085,0 6,19.699471 6,44 z" cx="0" rx="6" ry="44" stroke="#66899a" cy="0"/>
		<ellipse d="M 6,0 C 6,24.300529 3.3137085,44 0,44 -3.3137085,44 -6,24.300529 -6,0 c 0,-24.300529 2.6862915,-44 6,-44 3.3137085,0 6,19.699471 6,44 z" rx="6" ry="44" stroke="#e1d85d" transform="matrix(0.40673664,-0.91354546,0.91354546,0.40673664,0,0)" cy="0" cx="0"/>
		<ellipse d="M 6,0 C 6,24.300529 3.3137085,44 0,44 -3.3137085,44 -6,24.300529 -6,0 c 0,-24.300529 2.6862915,-44 6,-44 3.3137085,0 6,19.699471 6,44 z" rx="6" ry="44" stroke="#80a3cf" transform="matrix(0.40673664,0.91354546,-0.91354546,0.40673664,0,0)" cy="0" cx="0"/>
		<circle d="M 44,0 C 44,24.300529 24.300529,44 0,44 -24.300529,44 -44,24.300529 -44,0 c 0,-24.300529 19.699471,-44 44,-44 24.300529,0 44,19.699471 44,44 z" cy="0" stroke="#4b541f" cx="0" r="44"/>
	</g>
	<g fill="#66899a" stroke="#ffffff" transform="translate(-2,1)">
		<circle d="M 13,0 C 13,7.1797017 7.1797017,13 0,13 -7.1797017,13 -13,7.1797017 -13,0 c 0,-7.1797017 5.8202983,-13 13,-13 7.1797017,0 13,5.8202983 13,13 z" cy="0" cx="0" r="13" fill="#80a3cf"/>
		<circle d="m 9,-44 c 0,4.970563 -4.0294373,9 -9,9 -4.9705627,0 -9,-4.029437 -9,-9 0,-4.970563 4.0294373,-9 9,-9 4.9705627,0 9,4.029437 9,9 z" cy="-44" cx="0" r="9"/>
		<circle d="m -31,18 c 0,4.970563 -4.029437,9 -9,9 -4.970563,0 -9,-4.029437 -9,-9 0,-4.970563 4.029437,-9 9,-9 4.970563,0 9,4.029437 9,9 z" cy="18" cx="-40" r="9"/>
		<circle d="m 49,18 c 0,4.970563 -4.029437,9 -9,9 -4.970563,0 -9,-4.029437 -9,-9 0,-4.970563 4.029437,-9 9,-9 4.970563,0 9,4.029437 9,9 z" cy="18" cx="40" r="9"/>
	</g>
</svg>
