<svg xmlns="http://www.w3.org/2000/svg" xmlns:xlink="http://www.w3.org/1999/xlink" version="1.1" x="0px" y="0px" viewBox="0 0 100 73.61" enable-background="new 0 0 100 73.61" xml:space="preserve"><path d="M40.069,31.214c0.177,0,0.357-0.016,0.537-0.049l12.569-2.285l2.003,5.008l-12.958,2.64  c-0.96,0.195-1.785,0.805-2.252,1.666c-0.468,0.86-0.532,1.884-0.174,2.796l6.242,15.917c0.513,1.308,1.765,2.106,3.089,2.106  c0.403,0,0.812-0.074,1.21-0.229c1.707-0.669,2.546-2.594,1.877-4.3L47.41,42.242l12.985-2.646c0.964-0.196,1.792-0.81,2.258-1.676  c0.468-0.866,0.525-1.894,0.161-2.807l-6.867-17.166c-0.681-1.702-2.612-2.526-4.312-1.848c-1.701,0.681-2.528,2.611-1.848,4.312  l1.126,2.816l-11.375,2.069c-1.621,0.294-2.695,1.847-2.4,3.468C37.4,30.205,38.655,31.214,40.069,31.214z"></path><path d="M68.784,24.798l0.139,1.385l25.896-4.185L95,16.996C95,16.996,66.6,16.06,68.784,24.798z"></path><path d="M70.033,37.282h19.038c0,0,4.056-0.624,5.305-3.121l0.408-11.208l-25.768,4.164L70.033,37.282z"></path><path d="M89.877,52.818l-4.602,1.048c-0.078-0.675-0.203-1.349-0.388-2.015c0.753,0.056,1.437,0.192,2.035,0.417l0.945-0.545  c-0.346-1.618-0.94-3.21-1.812-4.72c-4.48-7.763-14.406-10.422-22.167-5.94c-6.702,3.869-9.59,11.795-7.371,18.884H38.321  l-3.145-18.554c-0.095-0.745-1.01-6.751-5.702-9.667c0.414-0.882,1.617-2.128,5.12-1.824c1.088,0.087,2.06-0.716,2.156-1.811  c0.095-1.095-0.715-2.06-1.811-2.155c-3.131-0.273-5.603,0.355-7.356,1.866c-0.949,0.817-1.494,1.738-1.821,2.53  c-0.008-0.002-0.015-0.004-0.022-0.005c-0.111-0.019-0.223-0.028-0.336-0.028h-6.866c-1.099,0-1.99,0.891-1.99,1.991  c0,1.099,0.891,1.99,1.99,1.99h6.687c5.145,1.002,5.972,7.362,6.004,7.628c0.004,0.037,0.009,0.072,0.015,0.108l3.434,20.255  c0.162,0.957,0.992,1.658,1.962,1.658h21.749c0.788,1.217,1.709,2.301,2.741,3.232l1.282-0.739c0.146-0.471,0.36-0.963,0.625-1.466  c4.141,3.942,10.541,4.887,15.734,1.887c3.419-1.975,5.609-5.257,6.329-8.853l5.66-1.29c1.072-0.244,1.744-1.311,1.5-2.383  S90.943,52.573,89.877,52.818z M73.427,55.376c2.73-1.576,5.232-2.591,7.421-3.119c0.295,0.817,0.463,1.657,0.52,2.499  l-10.828,2.465C71.448,56.584,72.408,55.964,73.427,55.376z M76.781,63.394c-3.517,2.031-7.82,1.471-10.718-1.07l14.588-3.321  C79.896,60.788,78.585,62.352,76.781,63.394z"></path><path d="M18.226,42.158C10.933,42.158,5,48.09,5,55.383s5.933,13.226,13.226,13.226c7.292,0,13.226-5.933,13.226-13.226  S25.518,42.158,18.226,42.158z M18.226,64.628c-5.098,0-9.245-4.147-9.245-9.245s4.147-9.245,9.245-9.245  c5.097,0,9.245,4.147,9.245,9.245S23.323,64.628,18.226,64.628z"></path><path d="M39.426,10.577c-0.583,2.977,0.885,5.779,3.271,6.246c0.328,0.064,0.656,0.077,0.98,0.05  c-0.012,0.013-0.021,0.022-0.021,0.022c8.45-1.266,6.407-1.484,7.043-4.738c0.637-3.253-1.484-6.407-4.738-7.044  c-3.254-0.637-6.408,1.485-7.044,4.738l0.654,0.128C39.516,10.174,39.465,10.372,39.426,10.577z M40.719,10.83  c0.04-0.206,0.094-0.403,0.154-0.596l3.936,0.77c1.932,0.606,1.407,2.309,0.535,3.729c-0.698,0.644-1.551,0.962-2.394,0.797  C41.277,15.202,40.276,13.094,40.719,10.83z"></path></svg>