<?xml version="1.0" encoding="UTF-8" standalone="no"?>
<svg    xmlns="http://www.w3.org/2000/svg"   viewBox="0 0 32 32">
	
<path
   d="M 24.139598,2.2370137 C 21.866214,4.5051718 6.3903703,20.004561 4.3813358,21.995959 3.536688,24.598643 2.1203009,28.810841 1.330584,31.18 c 2.4224685,-0.793242 7.0852189,-2.377827 9.184363,-3.050412 2.27372,-2.315289 17.486052,-17.48623 19.758512,-19.758697 0.374417,-0.374415 0.36455,-1.1354491 1e-6,-1.4999987 -0.788871,-0.7919843 -4.233036,-4.233048 -4.633867,-4.6338786 -0.371241,-0.3712424 -1.124595,-0.3731084 -1.499995,0 z m 0.749995,0.6565034 4.727366,4.7273779 -3.933861,3.933903 C 24.521816,10.418488 21.982782,7.879377 20.955733,6.8274201 z m -4.621358,4.6214031 c 1.174528,1.1403078 3.67659,3.6519078 4.727365,4.7273778 L 9.983696,27.254591 2.793,29.718 5.2563304,22.527212 z"
   id="path3779"
   style="font-size:medium;font-style:normal;font-variant:normal;font-weight:normal;font-stretch:normal;text-indent:0;text-align:start;text-decoration:none;line-height:normal;letter-spacing:normal;word-spacing:normal;text-transform:none;direction:ltr;block-progression:tb;writing-mode:lr-tb;text-anchor:start;baseline-shift:baseline;color:#000000;fill:#1467ba;fill-opacity:1;fill-rule:nonzero;stroke:none;stroke-width:1;marker:none;visibility:visible;display:inline;overflow:visible;enable-background:accumulate;font-family:Sans;-inkscape-font-specification:Sans" />

</svg>