<?xml version="1.0" encoding="UTF-8" standalone="no"?>
<svg xmlns:rdf="http://www.w3.org/1999/02/22-rdf-syntax-ns#" xmlns="http://www.w3.org/2000/svg" enable-background="new 0 0 66.525 100" xml:space="preserve" viewBox="0 0 66.525 100" version="1.1" y="0px" x="0px" xmlns:cc="http://creativecommons.org/ns#" xmlns:dc="http://purl.org/dc/elements/1.1/"><metadata><rdf:RDF><cc:Work rdf:about=""><dc:format>image/svg+xml</dc:format><dc:type rdf:resource="http://purl.org/dc/dcmitype/StillImage"/><dc:title/></cc:Work></rdf:RDF></metadata>
<g>
	<g fill="#FFF">
		<path d="M15.961,59.258s0.379-0.505,0.981-0.703c0.601-0.198,1.106-0.188,1.106-0.188s-0.047-0.612,0.229-1.342c0.368-0.975,1.055-2.498,1.373-4.669,0.233-1.589,0.38-3.523,0.471-5.533,0.107-2.365,0.365-5.196-0.073-7.671-0.599-3.376-1.651-5.999-2.902-9.211-0.935-2.405-2.065-5.436-2.74-7.75-1.341-4.599-2.541-8.779-2.272-11.54,0.181-1.856,1.323-2.987,2.448-3.322,4.108-1.224,5.462,3.749,7.78,8.13,1.246,2.355,3.06,4.797,4.012,6.657,1.119,2.188,1.521,3.414,1.521,3.414s2.37-2.688,4.335-4.124c1.021-0.745,1.996-1.88,2.724-2.234,1.007-0.488,3.683-0.504,4.98,0.92,2.433,2.669,3.496,7.956,3.496,7.956s2.174-0.236,3.612,1.515c1.498,1.82,1.871,2.757,3.296,6.44,0,0,2.159-1.263,4.131,0.727,1.624,1.64,2.587,4.786,3.785,8.224,0.824,2.363,2.349,3.526,2.349,7.18,0,4.158,0.442,9.119,0.653,13.837,0.143,3.122-0.114,6.139,0.394,8.745,0.56,2.891-0.1,1.328,3.002,7.181,0.481,0.911,0.732,3.216-0.494,4.972-5.158,7.397-24.788,17.147-31.487,7.168-1.616-2.408-2.479-5.068-4.048-6.657-2.559-2.599-6.265-2.611-9.397-5.482-5.56-5.098-11.546-9.018-13.054-12.141-0.285-0.589-0.678-2.923-1.318-5.37-0.432-1.654-1.376-3.237-1.702-4.682-0.915-4.046-1.912-5.108-1.969-7.023-0.044-1.479,1.139-4.014,0.812-6.159-0.136-0.899-0.714-2.646-0.913-3.945-0.329-2.148,0.345-4.189,2.106-4.456,1.415-0.215,2.749,0.19,4.386,1.74,1.986,1.879,3.773,4.714,4.586,6.822,0.775,2.012,0.197,3.87,0.197,3.87s0.558,0.502,0.981,1.854c0.161,0.513,0.356,1.593,0.562,2.137,0.504,1.33,0.86,2.325,1.064,3.032,0.187,0.646,0,1.01,0,1.01l0.997,0.671z"/>
		<path d="M60.814-1.708"/>
		<path d="M25.23,11c0,5.319-4.313,9.631-9.632,9.631-5.32,0-9.631-4.312-9.631-9.631,0-5.321,4.311-9.633,9.631-9.633,5.319,0,9.632,4.312,9.632,9.633zm-9.631-7.653c-4.226,0-7.65,3.427-7.65,7.653,0,4.225,3.425,7.651,7.65,7.651,4.226,0,7.651-3.426,7.651-7.651,0-4.226-3.425-7.653-7.651-7.653z"/>
	</g>
	<g>
		<linearGradient id="SVGID_1_" y2="34.44" gradientUnits="userSpaceOnUse" x2="29.014" y1="24.227" x1="33.616">
			<stop stop-color="#000" stop-opacity="0" offset="0"/>
			<stop stop-color="#000" offset="1"/>
		</linearGradient>
		<path opacity="0.5" d="M32.305,36.844c0.096,0.211,1.278-0.303,1.366-1.724,0.125-2.001-0.408-6.309-0.109-7.851,0.416-2.148,1.281-4.754,0.661-5.153-0.533,1.347-2.212,1.901-2.974,1.902-1.914,0.004-3.354,1.512-3.354,1.512s0.32,0.692,0.876,2.647c0.555,1.959,3.149,7.818,3.534,8.667z" fill="url(#SVGID_1_)"/>
		<linearGradient id="SVGID_2_" y2="35.112" gradientUnits="userSpaceOnUse" x2="43.07" y1="33.686" x1="46.675">
			<stop stop-color="#000" stop-opacity="0" offset="0"/>
			<stop stop-color="#000" offset="1"/>
		</linearGradient>
		<path opacity="0.5" d="M45.975,40.885s-0.76-0.974-1.271-3.426c-0.514-2.452-1.273-9.41-1.273-9.41s0.621,0.861,1.104,2.778c0.408,1.623-0.02,1.312,0.499,6.251,0.096,0.922,0.818,2.511,0.941,3.807z" fill="url(#SVGID_2_)"/>
		<linearGradient id="SVGID_3_" y2="39.452" gradientUnits="userSpaceOnUse" x2="51.245" y1="38.913" x1="52.607">
			<stop stop-color="#000" stop-opacity="0" offset="0"/>
			<stop stop-color="#000" offset="1"/>
		</linearGradient>
		<path opacity="0.5" d="M53.009,42.139s-0.682-0.446-1.141-1.566c-0.459-1.122-1.139-4.302-1.139-4.302s0.556,0.394,0.988,1.27c0.367,0.741-0.017,0.6,0.446,2.857,0.087,0.422,0.733,1.147,0.846,1.741z" fill="url(#SVGID_3_)"/>
	</g>
</g>
</svg>
