<?xml version="1.0" encoding="UTF-8" standalone="no"?>
<svg width="13px" height="16px" viewBox="0 0 13 16" version="1.1" xmlns="http://www.w3.org/2000/svg" xmlns:xlink="http://www.w3.org/1999/xlink" xmlns:sketch="http://www.bohemiancoding.com/sketch/ns">
    <!-- Generator: Sketch 3.4.4 (17249) - http://www.bohemiancoding.com/sketch -->
    <title>icn_geoloc</title>
    <desc>Created with Sketch.</desc>
    <defs></defs>
    <g id="Decoupe-Windows-phone" stroke="none" stroke-width="1" fill="none" fill-rule="evenodd" sketch:type="MSPage">
        <g id="icn_geoloc" sketch:type="MSArtboardGroup" fill="#323232">
            <g id="Page-1" sketch:type="MSLayerGroup" transform="translate(1.000000, 1.000000)">
                <path d="M5.49994568,1.03703704 C3.0597405,1.03703704 1.07468921,2.95244444 1.07468921,5.30703704 C1.07468921,6.9102963 3.34615965,10.3060741 5.47146498,12.9494815 L5.47200235,12.95 C5.47522658,12.9536296 5.48221241,12.962963 5.49994568,12.962963 C7.65426908,10.3060741 9.92520215,6.9102963 9.92520215,5.30703704 C9.92520215,2.95244444 7.94015086,1.03703704 5.49994568,1.03703704 M5.49994568,14 L5.49994568,14 C5.15387826,14 4.83414206,13.8485926 4.62241759,13.5846667 C2.89584211,11.438 -5.43209877e-05,7.50762963 -5.43209877e-05,5.30703704 C-5.43209877e-05,2.38103704 2.46701945,0 5.49994568,0 C8.53287191,0 10.9999457,2.38103704 10.9999457,5.30703704 C10.9999457,7.50814815 8.10404925,11.4385185 6.37747377,13.5851852 C6.16574929,13.8485926 5.84601309,14 5.49994568,14" id="Fill-1" sketch:type="MSShapeGroup"></path>
                <path d="M5.50881662,3.50859259 C4.40591634,3.50859259 3.50908148,4.40583836 3.50908148,5.50859259 C3.50908148,6.61134683 4.40591634,7.50859259 5.50881662,7.50859259 C6.61171689,7.50859259 7.50908148,6.61134683 7.50908148,5.50859259 C7.50908148,4.40583836 6.61171689,3.50859259 5.50881662,3.50859259" id="Fill-4" sketch:type="MSShapeGroup"></path>
            </g>
        </g>
    </g>
</svg>