<?xml version="1.0" encoding="utf-8"?>
<!-- Generator: Adobe Illustrator 19.1.0, SVG Export Plug-In . SVG Version: 6.00 Build 0)  -->
<!DOCTYPE svg PUBLIC "-//W3C//DTD SVG 1.1//EN" "http://www.w3.org/Graphics/SVG/1.1/DTD/svg11.dtd">
<svg version="1.1" id="Layer_1" xmlns="http://www.w3.org/2000/svg" xmlns:xlink="http://www.w3.org/1999/xlink" x="0px" y="0px"
	 width="50px" height="31px" viewBox="0 0 50 31" enable-background="new 0 0 50 31" xml:space="preserve">
<path fill="#007AFF" d="M49.6,4c0-0.5-0.4-0.4-0.5-0.8c-0.1-0.5-0.3-0.9-0.4-1.4c-0.3,0-0.3-0.2-0.5-0.2c-0.2,0.3-0.4,0.3-0.8,0.2
	c-0.2,0.3-0.3,0.7-0.4,1.1c0.3,0.3-0.1,0.6,0.1,1c-0.3,0.1-0.2,0.4-0.3,0.7c-0.1,0.1-0.3,0.1-0.4,0.2c-0.1,0.2,0.1,0.5-0.2,0.4
	c-0.2-0.2-0.1,0-0.4,0C45,5.6,44,5.6,43.3,5.9c-0.3,0.3-0.4,0.7-0.7,1c0.1,0.9-0.2,1.4-0.9,1.5c-0.6-0.2-1.1,0-1.5,0.2
	c0,0.3,0.3,0.3,0.2,0.8c-0.3,0.5-0.8,0.7-1.3,1.1c-0.2,0-0.2,0.1-0.3,0c-0.2,0.5-0.7,0.7-1.2,0.9c-0.2-0.2-0.7-0.1-0.9-0.3
	c0.2-0.2,0.4-0.5,0.4-1c0.2-0.1,0.3-0.2,0.3-0.4c0.1-0.4-0.1-0.5-0.2-0.8c-0.2-0.2-0.2-0.5-0.5-0.5c-0.4,0-0.3,0.5-0.7,0.5
	c-0.1-0.3,0.1-0.4,0.2-0.5c0.1-0.2,0.2-0.3,0.2-0.5c0.1-0.5-0.3-0.5-0.2-1c-0.6,0-1.1-0.6-1.7-0.2c0.2,0,0.1,0.2,0.2,0.3
	c-0.4,0.1-0.3,0.3-0.2,0.7c-0.3,0.1-0.3-0.4-0.5-0.1c-0.2,0.1-0.3,0.7-0.1,1c-0.5,0.4-0.1,1.4,0.1,1.7c-0.1,0.6-0.1,1.3-0.7,1.4
	c-0.3-0.3-0.5-0.6-0.7-1c-0.1-1.3,0-2.4,0.4-3.3c-0.4-0.2-0.4,0.6-0.5,0.2c0.1-0.4,0.4-0.7,0.7-1.1c0.3,0.3,0.4-0.3,0.8-0.2
	c0.7,0.1,1.1-0.1,1.5-0.2c0.1-0.7-0.9-0.2-0.9-0.9c-0.3,0.1-0.5,0.3-1,0.2c-0.3,0.1-0.3,0.4-0.8,0.3c-0.3,0-0.4-0.2-0.5-0.4
	c-0.3-0.1-0.5,0.2-0.5,0C32,5,32.1,4.8,32.2,4.6c-0.6-0.1-0.5,0.4-0.9,0.5c-0.6,0.1-0.7,0.6-1.4,0.7c0-0.1,0.2-0.2,0.1-0.4
	c-0.5,0-0.7,0.4-1.2,0.3c0.4-0.4,0.7-0.8,1.1-1.1C30.3,4.4,30.8,4.3,31,4c-0.4,0.1-0.7-0.1-0.8-0.1C30.2,3.9,30.1,4,30,4
	c-0.1,0-0.2-0.2-0.3-0.2c-0.2,0-0.2,0.3-0.4,0.2c-0.4-0.2-0.9-0.5-1.4-0.7c-0.4,0.3-0.7,0-1.2,0c0-0.3,0-0.7-0.3-0.8
	c-0.3-0.1,0.1,0.5-0.2,0.4c-3.9,0-7.8-0.4-11.1-0.8c-1.7-0.2-3.3-0.4-4.6-0.8c-0.5-0.1-0.9-0.2-1.3-0.4C9.1,1.4,8.9,1,8.8,1
	C8.1,1,7.4,0.7,6.6,0.5C5.8,0.3,5.1,0.1,4.3,0c-0.2,0.3,0,0.8-0.1,1C3.6,0.8,3.2,0.5,2.6,0.3C2.3,1.1,2.7,2.4,2.4,2.9
	c0.2,0,0.4,0,0.4,0.1c-0.3,0-0.4,0-0.5,0.1c0.1,0.6-0.3,0.6-0.2,1.2C1.7,4.7,1.5,5.2,1.4,5.9C1.2,6.1,0.8,6.2,0.8,6.6
	C0.9,8,0.4,8.8,0,9.7c0,0.2,0.2,0.3,0.2,0.5c0.1,0.5-0.2,1-0.2,1.4c0.1,0.2,0.3,0.4,0.4,0.5c-0.2,0,0.1,0.4,0,0.7
	c0.4-0.1,0.1,0.7,0.4,0.7c-0.2,0-0.1,0.3-0.1,0.4C1.1,14.4,1,14.4,1,15.1c0.3,0.8,0.8,1.4,0.5,2.5c0.7,0.1,1.1,0.4,1.4,0.9
	c0.1,0,0.3,0,0.4,0C3.4,19,4,19.2,4,19.8c0,0.3,0,0.5,0,0.8c1,0,1.5,0.3,2.4,0.2C6.7,21,6.5,21,6.7,21.3c1.2,0.6,2.3,1.3,3.4,2
	c1,0.1,2,0.4,3.1,0.4c0-0.3,0.1-0.5,0.2-0.5c0.5,0.1,1.1,0.2,1.6,0.2c0.4,1,1.6,1.1,1.5,2.6c0.5,0.4,1,0.8,1.6,1.1
	c0.2-0.3,0.4-0.6,0.7-0.9c0.4-0.2,0.6,0.1,1.2,0c0.3,0.6,0.9,1,1,1.8c0.1,0.1,0.3,0.2,0.4,0.3c-0.1,0.5,0.4,0.3,0.4,0.7
	c-0.2,0.4,0.4,0.7,0.3,1.3c0.3,0.1,0.6,0.2,0.9,0.4c0.6-0.1,0.9,0.4,1.2,0.2c0.1-0.4-0.1-0.6-0.2-0.8c0.3-0.4-0.2-0.6-0.1-1.1
	c0.1,0,0.2,0,0.3,0c-0.1-0.5,0.6-0.5,0.7-1c0.1,0,0.2,0.2,0.3,0.1c0.3-0.2-0.3-0.3,0-0.4c0.4,0.3,0.4-0.2,1-0.1
	c0.3-0.3,0.5-0.7,0.7-1.1c0.6,0.4,0.8-0.2,1.2-0.3c0.4,0.2,0.8,0.3,1.4,0.3c0.2-0.1,0.3-0.3,0.7-0.3c0.2,0.5,1.5,1,1.8,0.3
	c0.1,0.2,0.9,0.5,1,0.1c-0.2-0.1-0.5-0.2-0.7-0.4c0.1,0,0.2-0.1,0.2-0.3c-0.3-0.2-0.8,0.1-1-0.3c0.2,0,0.3,0,0.4-0.1
	c0,0.2,0.1,0.3,0.3,0.2c0.5-0.2,0.6-0.4,1.2-0.2c0.2-0.1,0.2-0.3,0.3-0.4c0.1,0.2,0.2,0.4,0.5,0.4c0.2-0.1,0.5-0.3,0.7-0.4
	c0.2,0.4,0.9,0.2,1.4,0.3c0.3,0.1,0.2,0.5,0.7,0.5c0.3-0.2,0.5-0.5,0.9-0.7c0.7,0.2,1,0.8,1.6,1.1c0.3,0.3,0.1,1.2,0.5,1.3
	c-0.2,0.3-0.2,0.4-0.1,0.9c0.1,0.2,0.5,0.2,0.7,0.3c0,0.4,0.4,0.4,0.3,0.9c0.2,0.1,0.5,0.1,0.8,0.2c0,0.4,0.2,0.6,0.5,0.7
	c0.2,0,0.2-0.1,0.4-0.1c0.2-0.5,0.4-0.9,0.3-1.6c-0.7-1.8-1.7-3.2-2.5-4.9c0.4-0.2-0.2-0.3-0.1-0.5c0.2-0.2,0.4-0.4,0.2-0.8
	c0.3-0.2,0.4-0.6,0.5-1c0.2,0,0.2,0.2,0.3,0.2c0.2-0.4,0.6-0.7,0.9-1c0-0.5,0.3-0.7,0.4-1c0.1,0,0.2-0.2,0.4-0.1
	c0-0.5,0.4-0.6,0.5-1c0.3,0.1,0.2-0.3,0.4-0.3c0.2,0,0.4,0,0.4-0.2c-0.4-0.2-0.2-0.1-0.1-0.4c0-0.2-0.4-0.3-0.3-0.3
	c0.3,0,0.6,0,0.9,0c0-0.5,0.2-0.3,0.1-0.7c-0.5-0.2-0.1,0.4-0.5,0.3c0-0.1,0.1-0.2,0.1-0.3c-0.4-0.2-0.5,0.5-0.7,0.1
	c0.1-0.2,0.3-0.2,0.7-0.2c0.2-0.4,0.1-0.5,0.1-1.1c-0.5,0.1-0.6-0.1-0.9-0.6c0.1,0,0.1,0,0.2,0c-0.1-0.5-0.5-0.5-0.2-0.9
	c-0.5-0.1-0.2-0.9-0.5-1.2c0.2,0,0.1-0.3,0.4-0.2c-0.3,0.4,0.4,0.7,0,1.2c0.2,0.1,0.5,0.1,0.5,0.4c0.3-0.1,0.4,0.1,0.5,0.2
	c0.2-0.3,0.1-0.9,0.1-1.3c-0.3-0.1-0.5-0.3-0.5-0.7c0.3,0.1,0.3,0.4,0.5,0.4c0.1-0.2,0.2-0.4,0.4-0.6c0-0.6,0-1.5-0.2-1.5
	c0.2,0,0.4,0,0.7,0c0.2-0.5,0.8-0.3,0.9-0.8c-0.5-0.2-0.9,0.4-1.2,0.1c0.6-0.3,1.1-0.6,1.8-0.8c0-0.2,0-0.4,0.1-0.4
	c0.2,0.1,0.3,0.3,0.7,0.2c-0.1-0.3,0.2-0.3,0.1-0.7c-0.2-0.3-0.6-0.4-0.8-0.7c0.1-0.5,0.3-1,0.2-1.6C48.2,6.4,48,5.9,48.5,6
	c0-0.2,0-0.4,0-0.7C49,5.4,48.7,5.1,48.9,5c0.3,0,0.2,0.2,0.5,0.1c0-0.4,0.5-0.5,0.5-0.9C50,4,49.6,4.2,49.6,4z"/>
</svg>
