<?xml version="1.0" encoding="UTF-8"?>
<svg viewBox="0 0 12 12" version="1.1" xmlns="http://www.w3.org/2000/svg" >
    <path d="M1.81817457,4.36363636 L0.363643615,4.36363636 C0.163678784,4.36363636 0,4.53463331 0,4.74544427 L0,11.6182378 C0,11.8289574 0.162960895,12 0.363643615,12 L1.81817457,12 C2.01885729,12 2.18181818,11.8289345 2.18181818,11.6182378 L2.18181818,4.74544427 C2.18181818,4.53463331 2.01811764,4.36363636 1.81817457,4.36363636 Z"/>
    <path d="M11.0371475,3.73777958 C10.9750395,3.72691107 8.06696952,3.73777958 8.06696952,3.73777958 L8.47316308,2.59296299 C8.75343341,1.80227875 8.57197752,0.594992046 7.79431272,0.165781162 C7.54110504,0.0260159122 7.1873295,-0.0441765608 6.90209884,0.0299962663 C6.73852322,0.0725169358 6.59476586,0.184395872 6.509079,0.334290766 C6.41054141,0.506685386 6.42071586,0.707919698 6.38562439,0.899072036 C6.29663833,1.38391254 6.07487686,1.84489475 5.73146034,2.19089955 C5.13271358,2.79417347 3.27272727,4.53456544 3.27272727,4.53456544 L3.27272727,10.9090909 L9.70023402,10.9090907 C10.5675309,10.9096151 11.1359158,9.9090446 10.7081505,9.12748895 C11.2180497,8.79011223 11.3924457,8.07948792 11.0938106,7.53386955 C11.6037328,7.19649283 11.7781058,6.48586852 11.4794707,5.94025016 C12.3592722,5.35814124 12.065136,3.91739604 11.0371475,3.73777958 Z"/>
</svg>