<?xml version="1.0" encoding="UTF-8" standalone="no"?>
<svg width="196px" height="52px" viewBox="0 0 196 52" version="1.1" xmlns="http://www.w3.org/2000/svg" xmlns:xlink="http://www.w3.org/1999/xlink" xmlns:sketch="http://www.bohemiancoding.com/sketch/ns">
    <defs>
        <path id="path-1" d="M0,0.595352459 L191.787264,0.595352459 L191.787264,46.5 L0,46.5 L0,0.595352459 Z"></path>
    </defs>
    <g stroke="none" stroke-width="1" fill="none" fill-rule="evenodd" >
        <path d="M66.0347904,37.4931025 C65.2829184,38.4086189 63.3168384,39.3866434 61.6994304,39.3866434 C59.0406144,39.3866434 57.5368704,37.9512418 57.5368704,35.3685861 L57.5368704,18.3861762 L48.5190144,18.3861762 L48.5190144,36.5737746 C48.5190144,43.2301352 51.5249664,46.4996189 57.8241024,46.4996189 C62.5089024,46.4996189 65.2237824,45.0619303 67.1898624,42.8848156 L67.7673984,45.9240861 L75.0526464,45.9240861 L75.0526464,18.3861762 L66.0347904,18.3861762 L66.0347904,37.4931025 Z M94.3578624,38.8690451 C89.9073024,38.8690451 87.5948544,36.114873 87.5948544,31.9268238 C87.5948544,27.9110533 89.9073024,25.4442664 94.2994944,25.4442664 C96.6710784,25.4442664 98.5787904,26.070873 100.25303,27.1655287 L101.525606,19.6485369 C99.0964224,18.6141025 96.4967424,17.8106434 92.1037824,17.8106434 C83.1442944,17.8106434 78.2313984,22.9164959 78.2313984,32.2706189 C78.2313984,41.679627 82.8547584,46.4996189 91.8710784,46.4996189 C96.2064384,46.4996189 100.367462,45.182373 102.101606,44.0320697 L100.831334,37.0326762 C98.8084224,38.0663484 96.8438784,38.8690451 94.3578624,38.8690451 L94.3578624,38.8690451 Z M121.963622,17.8106434 C118.265702,17.8106434 115.836518,18.6720369 113.986406,20.1638484 L113.986406,8.1150123 L104.735846,8.1150123 L104.735846,45.9240861 L113.753702,45.9240861 L113.753702,26.8224959 C114.506342,25.9008811 116.471654,24.9274303 118.088294,24.9274303 C120.749414,24.9274303 122.249318,26.3613074 122.249318,28.9424385 L122.249318,45.9240861 L131.267942,45.9240861 L131.267942,27.73725 C131.267942,21.0831762 128.262758,17.8106434 121.963622,17.8106434 L121.963622,17.8106434 Z M182.538086,17.8106434 C177.857126,17.8106434 175.139942,19.2468074 173.175398,21.4277336 L172.597094,18.3861762 L165.31415,18.3861762 L165.31415,45.9240861 L174.33047,45.9240861 L174.33047,26.8224959 C175.084646,25.9008811 177.047654,24.9274303 178.666598,24.9274303 C181.326182,24.9274303 182.830694,26.3613074 182.830694,28.9424385 L182.830694,45.9240861 L191.78711,45.9240861 L191.78711,27.73725 C191.78711,21.0831762 188.783462,17.8106434 182.538086,17.8106434 L182.538086,17.8106434 Z M134.448998,33.1891844 C134.448998,42.4846107 137.91575,46.4996189 144.619622,46.4996189 C148.724582,46.4996189 151.558502,45.1213893 153.117542,42.8848156 L153.579878,45.9240861 L160.921958,45.9240861 L160.921958,19.532668 C157.973606,18.6141025 154.622054,17.8106434 148.31831,17.8106434 C139.361126,17.8106434 134.448998,23.2618156 134.448998,33.1891844 L134.448998,33.1891844 Z M151.69751,37.4931025 C150.888038,38.4086189 149.559398,39.3866434 147.36215,39.3866434 C144.932966,39.3866434 143.604326,37.1470205 143.604326,32.8438648 C143.604326,27.5664959 145.049702,24.9274303 147.938918,24.9274303 C149.61623,24.9274303 150.484838,25.0410123 151.69751,25.3291598 L151.69751,37.4931025 Z M14.8752384,21.1921844 L20.4240384,16.6603402 C21.5806464,13.5059631 22.7933184,10.2913648 24.0666624,7.59588934 C24.7033344,9.03052869 25.2900864,10.4674549 25.9282944,12.0156762 C28.9772544,9.53288115 30.8411904,8.05097951 33.3617664,7.34204508 C31.8034944,3.95745492 30.7137024,1.62864344 30.1922304,0.594971311 L17.8811904,0.594971311 C16.8382464,2.77589754 12.9076224,10.8661352 8.3433984,21.8256516 L12.7931904,21.8256516 C13.6026624,21.8256516 14.2953984,21.7090205 14.8752384,21.1921844 L14.8752384,21.1921844 Z M-0.0001536,45.9240861 L10.9845504,45.9240861 L14.7009024,34.3928484 L4.0072704,34.3928484 C2.7346944,37.835373 1.3868544,41.6224549 -0.0001536,45.9240861 L-0.0001536,45.9240861 Z M33.1336704,35.0644303 L37.0258944,45.9240861 L47.8838784,45.9240861 C45.6282624,39.2684877 43.2013824,33.0161434 40.9473024,27.2783484 C39.0664704,31.1302254 37.2862464,33.0664549 33.1336704,35.0644303 L33.1336704,35.0644303 Z M38.1717504,28.4256025 C41.5985664,22.9279303 42.7981824,14.1943156 42.7981824,14.1943156 L41.4664704,13.6203074 C41.2936704,13.5638975 41.2360704,13.3931434 41.4081024,13.2178156 L42.3903744,12.0141516 C41.7575424,10.8097254 39.5602944,8.85825 36.3216384,8.85825 C34.4001024,8.85825 32.7212544,9.36822541 31.2090624,10.3447254 C31.2090624,10.3447254 29.0133504,11.8258648 25.8146304,14.5693648 C22.1320704,17.7313648 17.1177984,22.5734631 12.5981184,28.7793074 C12.4752384,28.9500615 12.6219264,29.1703648 12.7931904,29.1703648 L18.6307584,29.1703648 C22.4484864,29.1703648 27.4197504,28.4820123 32.5630464,23.0895369 C32.6813184,22.9744303 32.7803904,22.9599467 32.8948224,23.0163566 C33.0123264,23.0765779 33.0261504,23.2038811 32.9677824,23.3151762 C32.1590784,25.2666516 30.1361664,29.2275369 26.4367104,31.5769303 L31.4079744,31.5769303 C34.6535424,31.5769303 37.1449344,30.0210861 38.1717504,28.4256025 L38.1717504,28.4256025 Z M35.5682304,15.4307582 C34.7802624,14.6494057 34.7802624,13.3794221 35.5682304,12.5995943 C36.3554304,11.8159549 37.6310784,11.8159549 38.4182784,12.5995943 C39.2077824,13.3794221 39.2077824,14.6494057 38.4182784,15.4307582 C37.6310784,16.2121107 36.3554304,16.2121107 35.5682304,15.4307582 L35.5682304,15.4307582 Z" id="Fill-3" fill="#E0001A"></path>
        <path d="M32.1137664,24.2670541 C32.3856384,23.8615131 32.6467584,23.4422508 32.8955904,23.0146033 C32.7803904,22.9604803 32.6790144,22.9742016 32.5630464,23.0885459 C27.4197504,28.4833082 22.4492544,29.1701361 18.6315264,29.1701361 L12.7931904,29.1701361 C12.6219264,29.1701361 12.4767744,28.9505951 12.5958144,28.7790787 C17.1177984,22.5762836 22.1320704,17.7318984 25.8146304,14.5698984 L16.0310784,22.6845295 C15.2792064,23.3164721 14.3537664,23.7182016 13.0827264,23.7182016 L0.7693824,23.7182016 C0.4230144,23.7182016 0.5382144,24.0071115 0.5950464,24.1755787 C1.4621184,26.8169311 3.7753344,29.1701361 7.8226944,29.1701361 L4.9327104,32.0973492 C4.8152064,32.2124557 4.8152064,32.4967918 5.1070464,32.4967918 L16.0886784,32.4967918 C24.0274944,32.4967918 28.9096704,29.0740869 32.1137664,24.2670541 M28.6915584,36.2838738 L32.1598464,45.9246197 L34.7042304,45.9246197 L31.0616064,35.8264967 C30.3704064,35.9995377 29.5593984,36.1702918 28.6915584,36.2838738 M38.4182784,13.9280459 C38.0504064,14.2939475 37.4513664,14.2939475 37.0811904,13.9280459 C36.7125504,13.5606197 36.7125504,12.9637426 37.0811904,12.5993656 C37.4513664,12.2334639 38.0504064,12.2334639 38.4182784,12.5993656 C37.6318464,11.8164885 36.3554304,11.8164885 35.5697664,12.5993656 C34.7802624,13.380718 34.7802624,14.6514639 35.5697664,15.4305295 C36.3554304,16.2111197 37.6318464,16.2111197 38.4182784,15.4305295 C39.2077824,14.6514639 39.2077824,13.380718 38.4182784,12.5993656 C38.7892224,12.9637426 38.7892224,13.5606197 38.4182784,13.9280459 M31.4087424,31.5797508 L26.4374784,31.5797508 C25.1641344,32.3268 24.7624704,32.5547262 22.9691904,33.2461279 C22.8393984,33.2926279 22.7956224,33.416882 22.8524544,33.5883984 L27.2937984,45.9246197 L29.8374144,45.9246197 L25.7624064,34.6220705 C28.4104704,34.6220705 34.7418624,33.9238082 38.1717504,28.4261361 C37.1449344,30.022382 34.6535424,31.5797508 31.4087424,31.5797508 M46.4392704,12.0146852 L42.3903744,12.0146852 L41.4081024,13.2168246 C41.2345344,13.3929148 41.2936704,13.5621443 41.4664704,13.6200787 L42.7981824,14.1971361 L46.5552384,12.4735869 C46.7848704,12.3569557 46.7265024,12.0146852 46.4392704,12.0146852" id="Fill-6" fill="#00985F" ></path>
    </g>
</svg>