<svg xmlns="http://www.w3.org/2000/svg" viewBox="0 0 679.28 98.36">
	<path d="M351.31,1.28a47.93,47.93,0,1,0,47.93,47.93h0A47.94,47.94,0,0,0,351.31,1.28Z" transform="translate(-5.12 -0.03)" fill="none" stroke="#fff" stroke-width="2.5"/>
	<path d="M351.31,1.28a47.93,47.93,0,1,0,47.93,47.93h0A47.94,47.94,0,0,0,351.31,1.28Zm0,87.63A39.7,39.7,0,1,1,391,49.21a39.7,39.7,0,0,1-39.73,39.7v0Z" transform="translate(-5.12 -0.03)" fill="#ba2334"/>
	<path d="M351.31,88.88A39.7,39.7,0,1,1,391,49.18,39.7,39.7,0,0,1,351.31,88.88Z" transform="translate(-5.12 -0.03)" fill="#222478"/>
	<path d="M333.55,26.44h21.58c8.73,0,14.65,2.83,14.65,11.37,0,4.49-2.24,7.64-6.24,9.57C369.14,49,372,53.28,372,59c0,9.32-7.91,13.29-16.2,13.29H333.56V26.44h0ZM343.64,45h10.22c3.52,0,6.15-1.6,6.15-5.47,0-4.37-3.33-5.27-6.93-5.27h-9.45V45h0Zm0,19.45h10.79c4,0,7.45-1.28,7.45-6s-2.94-6.55-7.26-6.55h-11V64.49Z" transform="translate(-5.12 -0.03)" fill="#fff"/>
	<path d="M438.79,40.48c3.17,0.8,3.88,2,4,3.1a2.24,2.24,0,0,1-1.78,2.5,3,3,0,0,1-2.29-.36c-0.28-.17-0.89-0.8-1.59-1.27a11.21,11.21,0,0,0-5.34-1.17,37.26,37.26,0,0,0-8.57.73c-3,.62-7.2,2.36-8.6,4.41s0.07,3.41,1.65,4a17.1,17.1,0,0,0,6.26.77H441.9c13.64,0,15.46-.48,21.43-3,1.85-2.72,4.57-6.31,5.81-8a3,3,0,0,1,3-1.53h2.14c2.77,0,1.67,1.63,1.21,2.21s-0.47.66-3.47,4.68c-1.39,1.9-2.06,3.35-1.65,4.55s2.22,1.39,3.74,1.5c8.21,0.64,16.13-8.81,17.91-11s3.23-2,3.83-2h2.28c3.16,0,2.43.93,1.72,2s-5.08,7.51-8.15,11.74c3.39-1.21,9.81-1.15,13.61-1.15h0.23a37.52,37.52,0,0,0,12.23-1.71,5.13,5.13,0,0,1,.93-3.38A12.12,12.12,0,0,1,522,45a29.81,29.81,0,0,1,7.9-3.7,36.17,36.17,0,0,1,11.47-1.65,39.59,39.59,0,0,1,8.4.6c2.17,0.4,4.85,1.51,4.86,3.38a2.21,2.21,0,0,1-1.95,2.44h-0.05a2.94,2.94,0,0,1-2.43-.62,6.81,6.81,0,0,0-2.59-1.65c-1.17-.41-3.35-0.68-7-0.53A33.79,33.79,0,0,0,532,44.9a12,12,0,0,0-5.14,3c-0.91,1-1.46,2.58-.25,3.68s3.84,1.62,6.86,1.62h14.16c7.84,0,12.94-.55,17.4-2A20.68,20.68,0,0,0,575.61,44c1.64-2.17,17.23-24.11,17.23-24.11s1-1.48,4-1.48c3.62,0,2.69.84,1.62,2.35-2.52,3.5-19.52,27.44-19.52,27.44s-2.51,3-1.17,4.2c1,0.84,3.61.76,5.4,0.76h5.5c6.82,0,7.77-.14,10-0.47a30.87,30.87,0,0,0,5.59-1.47A7.8,7.8,0,0,1,605.6,48c0.49-.66,1.67-2.26,5.29-4.29a28.52,28.52,0,0,1,9.23-3.44,50.51,50.51,0,0,1,10.51-.61c3.13,0.1,7.29.72,9.69,2.54s2.47,4,1.56,5.54a3.93,3.93,0,0,1-3.68,2H626.61c-3,0-3.26-.43-3.34-1s0.49-1.12,3.17-1.53a58.83,58.83,0,0,1,8.08-.42c2.69,0,3.11-.57,3.36-0.85a0.86,0.86,0,0,0-.28-1.18l-0.11-.06a7.46,7.46,0,0,0-3.36-1.14,38.82,38.82,0,0,0-13.2.57c-2.54.52-6.33,2-7.88,3.71S611.83,51,614,52s6.19,1.25,8.74,1.25h50.62c-1.93,3-4.81,3.94-9.31,3.94H614c-4.19,0-6.85-.82-8.08-1.81-3.81,1.85-18.25,1.79-18.25,1.79h-5.19s-8-.14-9.37-0.39a2.89,2.89,0,0,1-2.62-2c-3.71,2.32-14.74,2.42-20.21,2.42H527.32c-4.14,0-6.33-.94-7.48-1.77C516,57.08,509,57.16,506.1,57.16h-0.58a45,45,0,0,0-4.61.14c-3.35.24-11.67,0-16,6.3-6.84,10-13.85,19.43-14.71,20.3a3.74,3.74,0,0,1-3.76.83c-1.44-.43-1.79-1.44-1.19-2.33,0.17-.24,19.66-28.15,20.92-29.83-2.4,2.73-15.23,9.52-22.55,2.19-2.71,1.24-7.78,2.38-17.19,2.38s-25.6.09-28.12,0.09-5.83.1-8.2-.73c-3-1-4.12-3-4.3-4.92a4.73,4.73,0,0,1,.38-2.29,10.39,10.39,0,0,1,2.87-3.42,22.25,22.25,0,0,1,5.87-3.38,35.7,35.7,0,0,1,13.43-2.73,41.89,41.89,0,0,1,10.32.73" transform="translate(-5.12 -0.03)" fill="#222478"/>

	<polygon points="569.88 53.53 568.77 53.53 568.77 53.16 571.43 53.16 571.43 53.53 570.32 53.53 570.32 56.48 569.88 56.48 569.88 53.53" fill="#222478"/>
	<polygon points="572.08 53.16 572.69 53.16 573.73 55.95 574.79 53.16 575.39 53.16 575.39 56.48 574.97 56.48 574.97 53.72 574.96 53.72 573.93 56.48 573.55 56.48 572.51 53.72 572.5 53.72 572.5 56.48 572.08 56.48 572.08 53.16" fill="#222478"/>

	<path d="M678.44,53.86h-1.18v-0.4h2.82v0.4h-1.17V57h-0.47V53.86h0Z" transform="translate(-5.12 -0.03)" fill="#222478"/>
	<path d="M680.88,53.47h0.65l1.11,3,1.12-3h0.64V57H684V54.07h0L682.85,57h-0.4l-1.1-2.93h0V57H680.9V53.47h0Z" transform="translate(-5.12 -0.03)" fill="#222478"/>

	<g style="isolation:isolate">
		<path d="M5.12,26h8.32l14.4,38.4L42.3,26h8.32V71.72H44.86v-38H44.73l-14.27,38H25.28L11,33.71H10.88v38H5.12V26Z" transform="translate(-5.12 -0.03)" fill="#ba2334"/>
		<path d="M72.19,26h6.72L96.76,71.72H90L85.05,58H65.73L60.61,71.72H54.34ZM67.65,52.84H83.13L75.52,31.53H75.39Z" transform="translate(-5.12 -0.03)" fill="#ba2334"/>
		<path d="M100.29,26H116c14.08,0,22,7,22,21.76,0,15.29-6.72,23.93-22,23.93H100.29V26Zm6.08,40.57h10.11c4.16,0,15.36-1.15,15.36-18,0-10.88-4-17.47-15.23-17.47H106.37V66.6Z" transform="translate(-5.12 -0.03)" fill="#ba2334"/>
		<path d="M144.64,26h6.08V71.72h-6.08V26Z" transform="translate(-5.12 -0.03)" fill="#ba2334"/>
		<path d="M186.43,39.4c-0.7-6.53-5.06-9.34-11.33-9.34-5.12,0-10.24,1.86-10.24,7.81,0,5.63,7.3,6.46,14.65,8.13s14.59,4.22,14.59,13.18c0,9.73-9.54,13.63-17.85,13.63-10.24,0-18.88-5-18.88-16.13h5.76c0,7.68,6.4,11,13.31,11,5.5,0,11.58-1.73,11.58-8.32,0-6.27-7.3-7.36-14.59-9s-14.65-3.71-14.65-12.09c0-9.28,8.26-13.37,16.57-13.37,9.34,0,16.45,4.42,16.83,14.46h-5.76Z" transform="translate(-5.12 -0.03)" fill="#ba2334"/>
		<path d="M219.84,24.94c14.53,0,21.89,11.52,21.89,23.93s-7.36,23.93-21.89,23.93-21.89-11.52-21.89-23.93S205.31,24.94,219.84,24.94Zm0,42.75c11.14,0,15.81-9.6,15.81-18.82S231,30.06,219.84,30.06,204,39.66,204,48.87,208.7,67.69,219.84,67.69Z" transform="translate(-5.12 -0.03)" fill="#ba2334"/><path d="M248.13,26h6.46l24.06,37.05h0.13V26h5.76V71.72h-6.66L254,35.05h-0.13V71.72h-5.76V26Z" transform="translate(-5.12 -0.03)" fill="#ba2334"/>
	</g>
</svg>
