<?xml version="1.0" encoding="utf-8"?><!DOCTYPE svg PUBLIC "-//W3C//DTD SVG 1.1//EN" "http://www.w3.org/Graphics/SVG/1.1/DTD/svg11.dtd"><svg version="1.1" baseProfile="full" xmlns="http://www.w3.org/2000/svg" xmlns:xlink="http://www.w3.org/1999/xlink" xmlns:ev="http://www.w3.org/2001/xml-events"   height="25px"   width="25px" ><g fill="#FFFFFF"><path opacity="0.749" d="M24.899,14.245 C24.899,14.245 22.625,15.411 22.625,15.411 C22.378,16.39 22.035,17.218 21.5170000000001,18.085 C21.5170000000001,18.085 22.301,20.518 22.301,20.518 C21.746,21.204 21.204,21.746 20.518,22.301 C20.518,22.301 18.085,21.517 18.085,21.517 C17.218,22.035 16.391,22.378 15.4109999999999,22.624 C15.4109999999999,22.624 14.245,24.899 14.245,24.899 C13.367,24.992 12.602,24.992 11.724,24.899 C11.724,24.899 10.557,22.624 10.557,22.624 C9.57799999999997,22.378 8.75099999999998,22.035 7.88400000000001,21.517 C7.88400000000001,21.517 5.45100000000002,22.301 5.45100000000002,22.301 C4.76400000000001,21.746 4.22299999999996,21.204 3.66800000000001,20.518 C3.66800000000001,20.518 4.452,18.085 4.452,18.085 C3.93399999999997,17.218 3.59100000000001,16.39 3.34400000000005,15.411 C3.34400000000005,15.411 1.07000000000005,14.245 1.07000000000005,14.245 C0.97699999999998,13.367 0.97699999999998,12.602 1.07000000000005,11.724 C1.07000000000005,11.724 3.34400000000005,10.557 3.34400000000005,10.557 C3.59100000000001,9.578 3.93399999999997,8.75 4.452,7.884 C4.452,7.884 3.66800000000001,5.451 3.66800000000001,5.451 C4.22299999999996,4.764 4.76400000000001,4.223 5.45100000000002,3.668 C5.45100000000002,3.668 7.88400000000001,4.452 7.88400000000001,4.452 C8.75099999999998,3.934 9.57799999999997,3.591 10.557,3.344 C10.557,3.344 11.724,1.07 11.724,1.07 C12.602,0.977 13.367,0.977 14.245,1.07 C14.245,1.07 15.4109999999999,3.344 15.4109999999999,3.344 C16.391,3.591 17.218,3.934 18.085,4.452 C18.085,4.452 20.518,3.668 20.518,3.668 C21.204,4.223 21.746,4.764 22.301,5.451 C22.301,5.451 21.5170000000001,7.884 21.5170000000001,7.884 C22.035,8.75 22.378,9.578 22.625,10.557 C22.625,10.557 24.899,11.724 24.899,11.724 C24.992,12.602 24.992,13.367 24.899,14.245 ZM13,7 C9.68600000000004,7 7,9.686 7,13 C7,16.314 9.68600000000004,19 13,19 C16.314,19 19,16.314 19,13 C19,9.686 16.314,7 13,7 Z "/> </g></svg>