<?xml version="1.0" encoding="utf-8"?><!DOCTYPE svg PUBLIC "-//W3C//DTD SVG 1.1//EN" "http://www.w3.org/Graphics/SVG/1.1/DTD/svg11.dtd"><svg version="1.1" baseProfile="full" xmlns="http://www.w3.org/2000/svg" xmlns:xlink="http://www.w3.org/1999/xlink" xmlns:ev="http://www.w3.org/2001/xml-events"   height="28px"   width="24px" ><g fill="#FFFFFF"><path opacity="0.749" d="M16.752,24.862 C16.752,24.288 16.571,24.378 16.752,23.837 C17.018,23.039 16.673,22.441 16.752,21.662 C16.822,20.98 16.67,20.016 16.804,19.323 C16.982,18.405 17.437,17.527 17.444,16.585 C17.4450000000001,16.479 17.485,16.347 17.674,16.352 C17.835,16.356 17.816,16.482 17.853,16.566 C18.369,17.753 18.615,20.473 20.083,22.693 C21.168,24.335 20.561,24.897 22.303,24.862 C23.668,21.851 22.721,20.98 21.9589999999999,18.041 C21.7859999999999,17.375 21.292,16.496 21.09,15.749 C20.85,14.86 20.9400000000001,14.528 20.772,13.6 C20.706,13.231 20.621,12.87 20.551,12.517 C20.381,11.645 20.08,10.803 18.985,10.332 C17.748,9.798 16.509,9.264 15.244,8.77 C14.404,8.441 13.7619999999999,8.065 13.971,7.227 C13.996,7.127 13.886,7.009 13.9,6.905 C13.951,6.54 13.88,6.13 14.321,5.872 C14.816,5.584 15.1130000000001,4.864 14.746,4.51 C14.478,4.251 14.489,4 14.479,3.724 C14.472,3.502 14.486,3.281 14.471,3.06 C14.4160000000001,2.242 13.53,1.386 12.45,1.098 C11.485,0.841 10.47,1.082 9.70699999999999,1.736 C9.00800000000004,2.336 8.94899999999996,3.063 8.94399999999996,3.82 C8.94299999999998,4.018 9.27999999999997,4.434 8.57899999999995,4.405 C8.56100000000004,4.404 8.50999999999999,4.488 8.51900000000001,4.524 C8.61400000000003,4.866 8.45899999999995,5.22 8.61000000000001,5.558 C8.66300000000001,5.679 8.71799999999996,5.851 8.86500000000001,5.863 C9.39999999999998,5.904 9.33500000000004,6.216 9.38099999999997,6.483 C9.45500000000004,6.908 9.42600000000004,7.334 9.39800000000002,7.76 C9.37699999999995,8.07 9.21000000000004,8.303 8.86000000000001,8.454 C7.53099999999995,9.028 6.226,9.639 4.86699999999996,10.164 C4.22199999999998,10.413 3.77800000000002,10.746 3.48500000000001,11.234 C3.05200000000002,11.953 2.78700000000003,12.639 2.73400000000004,13.495 C2.71199999999999,13.84 2.66600000000005,14.474 2.66600000000005,14.474 C2.66600000000005,14.474 2.20600000000002,16.62 2.20600000000002,16.62 C2.20600000000002,16.62 1.88999999999999,17.993 1.58100000000002,19.389 C1.27099999999996,20.784 0.69200000000001,22.514 1.20799999999997,24.862 C3.45500000000004,24.871 4.06100000000004,22.655 4.60500000000002,20.906 C5.01700000000005,19.579 4.91099999999994,20.119 5.24599999999998,18.887 C5.34299999999996,16.909 5.928,16.692 5.77499999999998,16.7 C6.00400000000002,16.688 6,16.894 6.01900000000001,17.028 C6.14999999999998,17.954 6.39200000000005,18.149 6.65499999999997,19.056 C6.78200000000004,19.497 6.76300000000003,19.928 6.64999999999998,20.369 C6.404,21.334 6.798,22.863 6.75900000000001,23.837 C6.74199999999996,24.275 6.75900000000001,24.4 6.75900000000001,24.862 C6.75900000000001,27.789 16.752,27.672 16.752,24.862 Z "/> </g></svg>