<?xml version="1.0" encoding="UTF-8" standalone="no"?>
<svg
   xmlns:dc="http://purl.org/dc/elements/1.1/"
   xmlns:cc="http://creativecommons.org/ns#"
   xmlns:rdf="http://www.w3.org/1999/02/22-rdf-syntax-ns#"
   xmlns:svg="http://www.w3.org/2000/svg"
   xmlns="http://www.w3.org/2000/svg"
   xmlns:sodipodi="http://sodipodi.sourceforge.net/DTD/sodipodi-0.dtd"
   xmlns:inkscape="http://www.inkscape.org/namespaces/inkscape"
   version="1.1"
   height="24px"
   width="24px"
   >
   <g fill="#FFFFFF">
	<path
	   opacity="0.749"
	   d="M23,24 C23,24 19,24 19,24 C18.448,24 18,23.552 18,23 C18,23 18,19 18,19 C18,18.448 18.448,18 19,18 C19,18 23,18 23,18 C23.552,18 24,18.448 24,19 C24,19 24,23 24,23 C24,23.552 23.552,24 23,24 ZM23,15 C23,15 19,15 19,15 C18.448,15 18,14.552 18,14 C18,14 18,10 18,10 C18,9.448 18.448,9 19,9 C19,9 23,9 23,9 C23.552,9 24,9.448 24,10 C24,10 24,14 24,14 C24,14.552 23.552,15 23,15 ZM23,6 C23,6 19,6 19,6 C18.448,6 18,5.552 18,5 C18,5 18,1 18,1 C18,0.448 18.448,0 19,0 C19,0 23,0 23,0 C23.552,0 24,0.448 24,1 C24,1 24,5 24,5 C24,5.552 23.552,6 23,6 ZM14,24 C14,24 10,24 10,24 C9.44799999999998,24 9,23.552 9,23 C9,23 9,19 9,19 C9,18.448 9.44799999999998,18 10,18 C10,18 14,18 14,18 C14.552,18 15,18.448 15,19 C15,19 15,23 15,23 C15,23.552 14.552,24 14,24 ZM14,15 C14,15 10,15 10,15 C9.44799999999998,15 9,14.552 9,14 C9,14 9,10 9,10 C9,9.448 9.44799999999998,9 10,9 C10,9 14,9 14,9 C14.552,9 15,9.448 15,10 C15,10 15,14 15,14 C15,14.552 14.552,15 14,15 ZM14,6 C14,6 10,6 10,6 C9.44799999999998,6 9,5.552 9,5 C9,5 9,1 9,1 C9,0.448 9.44799999999998,0 10,0 C10,0 14,0 14,0 C14.552,0 15,0.448 15,1 C15,1 15,5 15,5 C15,5.552 14.552,6 14,6 ZM5,24 C5,24 1,24 1,24 C0.44799999999998,24 0,23.552 0,23 C0,23 0,19 0,19 C0,18.448 0.44799999999998,18 1,18 C1,18 5,18 5,18 C5.55200000000002,18 6,18.448 6,19 C6,19 6,23 6,23 C6,23.552 5.55200000000002,24 5,24 ZM5,15 C5,15 1,15 1,15 C0.44799999999998,15 0,14.552 0,14 C0,14 0,10 0,10 C0,9.448 0.44799999999998,9 1,9 C1,9 5,9 5,9 C5.55200000000002,9 6,9.448 6,10 C6,10 6,14 6,14 C6,14.552 5.55200000000002,15 5,15 ZM5,6 C5,6 1,6 1,6 C0.44799999999998,6 0,5.552 0,5 C0,5 0,1 0,1 C0,0.448 0.44799999999998,0 1,0 C1,0 5,0 5,0 C5.55200000000002,0 6,0.448 6,1 C6,1 6,5 6,5 C6,5.552 5.55200000000002,6 5,6 Z "
	   id="path4" />
    </g>
</svg>
