<?xml version="1.0" encoding="utf-8"?><!DOCTYPE svg PUBLIC "-//W3C//DTD SVG 1.1//EN" "http://www.w3.org/Graphics/SVG/1.1/DTD/svg11.dtd"><svg version="1.1" baseProfile="full" xmlns="http://www.w3.org/2000/svg" xmlns:xlink="http://www.w3.org/1999/xlink" xmlns:ev="http://www.w3.org/2001/xml-events"   height="24px"   width="26px" ><g fill="#FFFFFF"><path opacity="0.749" d="M12.998,0 C12.623,0 12.281,0.223 12.128,0.565 C12.128,0.565 9.173,7.217 9.173,7.217 C9.173,7.217 1.75900000000001,8.701 1.75900000000001,8.701 C1.416,8.771 1.14100000000002,9.023 1.03899999999999,9.36 C0.93599999999998,9.693 1.029,10.056 1.27800000000002,10.308 C1.27800000000002,10.308 6.44099999999997,15.468 6.44099999999997,15.468 C6.44099999999997,15.468 4.99799999999999,22.857 4.99799999999999,22.857 C4.92700000000002,23.217 5.01999999999998,23.567 5.29899999999998,23.791 C5.46499999999997,23.922 5.67899999999997,23.995 5.90100000000001,23.995 C6.03399999999999,23.995 6.16500000000002,23.967 6.28300000000002,23.913 C6.28300000000002,23.913 12.998,20.935 12.998,20.935 C12.998,20.935 19.724,23.917 19.724,23.917 C19.838,23.972 19.965,24 20.102,24 C20.315,24 20.526,23.927 20.691,23.796 C20.972,23.573 21.066,23.213 20.998,22.858 C20.998,22.858 19.552,15.468 19.552,15.468 C19.552,15.468 24.719,10.308 24.719,10.308 C24.968,10.059 25.061,9.696 24.959,9.362 C24.857,9.025 24.579,8.771 24.235,8.701 C24.235,8.701 16.823,7.217 16.823,7.217 C16.823,7.217 13.867,0.564 13.867,0.564 C13.715,0.221 13.373,0 12.998,0 C12.998,0 12.998,0 12.998,0 Z "/> </g></svg>