<?xml version="1.0" encoding="UTF-8" standalone="no"?><svg xmlns:rdf="http://www.w3.org/1999/02/22-rdf-syntax-ns#" xmlns="http://www.w3.org/2000/svg" height="120.1" width="160.49" version="1.1" xmlns:cc="http://creativecommons.org/ns#" xmlns:dc="http://purl.org/dc/elements/1.1/">  <g transform="translate(345.96,-103.73933)">    <path d="m-296.23,197.32,6.9971-12.666c-5.2257-3.7643-9.2557-8.4143-12.134-14.216-3.0114-5.6243-4.4286-11.736-4.4286-18.069,0-7.2186,1.86-13.994,5.4471-20.106-13.684,6.9086-25.021,17.449-34.056,31.531,9.92,15.323,22.719,26.527,38.174,33.524zm34.809-67.801c0-1.24-0.35429-2.2586-1.24-3.1443-0.79715-0.75286-1.7714-1.1957-3.0114-1.1957-7.44,0-13.906,2.6572-19.22,7.9714-5.3586,5.3586-8.0157,11.78-8.0157,19.22,0,1.1957,0.44286,2.2143,1.24,3.0114,0.88572,0.88571,1.86,1.1957,3.1,1.1957,1.1072,0,2.2143-0.31,3.0114-1.1957,0.88572-0.79714,1.1957-1.8157,1.1957-3.0114,0-5.0929,1.9043-9.5657,5.58-13.197,3.5428-3.5871,8.0157-5.4471,13.109-5.4471,1.24,0,2.2143-0.35429,3.0114-1.24,0.88571-0.75286,1.24-1.86,1.24-2.9672zm32.594-17.094c0,0.44285-0.13285,0.66428-0.13285,0.75285-6.2443,11.204-15.677,28.077-28.254,50.619-12.444,22.541-21.921,39.414-28.254,50.619l-4.4286,7.9714c-0.57571,1.0186-1.3286,1.4614-2.4357,1.4614-0.79714,0-4.7829-2.1257-12.046-6.3328-0.97428-0.53143-1.4171-1.3286-1.4171-2.4357,0-0.66428,1.3286-3.3214,3.9857-7.75-8.5472-3.8971-16.474-8.99-23.693-15.456-7.13-6.4214-13.33-13.773-18.556-21.966-1.24-1.7714-1.9043-3.8971-1.9043-6.1114,0-2.3472,0.66428-4.34,1.9043-6.2,9.1229-13.994,20.46-24.977,33.923-33.081,13.551-8.1043,28.343-12.223,44.463-12.223,5.3586,0,10.673,0.57571,16.12,1.55l4.7828-8.6357c0.66429-1.0186,1.4614-1.4614,2.5686-1.4614,0.22143,0,0.79714,0.13285,1.55,0.57571,0.79714,0.31,1.8157,0.75286,2.79,1.3286,1.1071,0.53143,2.1257,1.1072,3.0114,1.6386,0.88572,0.57572,1.7714,1.1072,2.79,1.6829,0.97428,0.53143,1.55,0.88572,1.7714,0.97429,0.88572,0.66428,1.4614,1.4614,1.4614,2.48zm3.3214,39.946c0,8.1929-2.4357,15.766-7.13,22.63-4.65,6.7757-10.983,11.647-18.689,14.659l18.03-32.2c0.44286,2.7014,0.79714,5.2257,0.79714,7.5729zm40.034,11.426c0,2.1257-0.57572,4.1186-1.7714,6.1114-2.3471,3.8972-5.58,8.1929-9.7871,12.976-8.9014,10.23-19.264,18.201-31.044,23.87-11.78,5.6686-24.357,8.5471-37.599,8.5471l6.5543-11.869c12.71-1.0186,24.49-5.0929,35.163-12.223,10.806-7.0857,19.796-16.209,27.014-27.413-6.8643-10.673-15.234-19.441-25.243-26.306l5.6686-10.009c5.6686,3.8086,11.116,8.3257,16.341,13.684,5.27,5.3143,9.5657,10.761,12.931,16.43,1.1957,2.0814,1.7714,4.0743,1.7714,6.2z" fill-rule="evenodd" fill="#193458"/>  </g></svg>