<?xml version="1.0" ?>
<!-- Generator: Adobe Illustrator 18.1.1, SVG Export Plug-In . SVG Version: 6.00 Build 0)  -->
<svg version="1.1" xmlns="http://www.w3.org/2000/svg" xmlns:xlink="http://www.w3.org/1999/xlink" x="0px" y="0px" width="50px" height="50px">
	<g>
		<path d="M12.639,6.909V4.785C12.639,2.147,10.493,0,7.854,0S3.071,2.147,3.071,4.785v2.124H2.141v8.895
			h11.521V6.909H12.639z M8.981,11.512v1.881c0,0.49-0.397,0.887-0.887,0.887c-0.491,0-0.888-0.396-0.888-0.887v-1.881
			c-0.309-0.256-0.51-0.639-0.51-1.071c0-0.772,0.626-1.397,1.398-1.397S9.49,9.669,9.49,10.441
			C9.491,10.874,9.29,11.256,8.981,11.512z M10.899,6.909H4.811V4.785c0-1.679,1.366-3.045,3.045-3.045
			c1.678,0,3.044,1.366,3.044,3.045V6.909z"/>
	</g>
</svg>
