<?xml version="1.0" ?>
<!-- Generator: Adobe Illustrator 16.0.0, SVG Export Plug-In . SVG Version: 6.00 Build 0)  -->
<!DOCTYPE svg PUBLIC "-//W3C//DTD SVG 1.1//EN" "http://www.w3.org/Graphics/SVG/1.1/DTD/svg11.dtd">
<svg version="1.1" xmlns="http://www.w3.org/2000/svg" xmlns:xlink="http://www.w3.org/1999/xlink" x="0px" y="0px"
	 width="50.406px" height="50.407px">
	<g>
		<path fill="#003087" d="M9.035,20.603c-0.165-0.331-0.426-0.604-0.75-0.809c-0.338-0.207-0.737-0.352-1.193-0.438
			c-0.464-0.084-1-0.122-1.621-0.128l-2.867,0.002c-0.298,0.004-0.59,0.236-0.66,0.524l-1.929,8.402
			c-0.07,0.284,0.117,0.522,0.415,0.522h1.373c0.298,0,0.593-0.231,0.659-0.522l0.471-2.04c0.063-0.284,0.357-0.521,0.658-0.521
			h0.393c1.679-0.002,2.979-0.345,3.913-1.032c0.939-0.688,1.402-1.597,1.402-2.723C9.298,21.347,9.217,20.933,9.035,20.603z
			 M6.074,23.348c-0.415,0.304-0.992,0.456-1.736,0.456H4.002c-0.299,0-0.482-0.236-0.417-0.524l0.413-1.784
			c0.058-0.286,0.359-0.523,0.654-0.521l0.45-0.003c0.525,0,0.926,0.091,1.194,0.267c0.265,0.174,0.398,0.451,0.396,0.818
			C6.7,22.615,6.487,23.044,6.074,23.348z M24.948,22.251l-5.47,9.251c-0.176,0.289-0.565,0.522-0.861,0.522l-1.422,0.002
			c-0.295,0-0.392-0.235-0.212-0.523l1.216-2.118c0,0,0.098-0.123,0.011-0.813c-0.187-1.251-1.121-6.566-1.121-6.566
			c-0.067-0.288,0.115-0.524,0.411-0.524l1.23-0.002c0.377,0,0.68,0.248,0.748,0.538l0.612,3.687l0.228,0.003
			c0.191-0.339,2.157-3.713,2.157-3.713c0.188-0.285,0.568-0.524,0.864-0.524c0,0,1.321,0.004,1.646,0
			C25.474,21.46,24.948,22.251,24.948,22.251z M33.967,20.634c-0.172-0.333-0.43-0.602-0.756-0.812
			c-0.334-0.208-0.73-0.354-1.193-0.438c-0.455-0.081-0.998-0.125-1.615-0.126l-2.871,0.002c-0.299,0.005-0.586,0.237-0.655,0.522
			l-1.931,8.406c-0.07,0.285,0.122,0.521,0.414,0.521l1.375-0.002c0.292,0.002,0.591-0.232,0.66-0.52l0.465-2.041
			c0.068-0.284,0.363-0.523,0.66-0.521h0.393c1.681,0,2.984-0.346,3.922-1.031c0.927-0.693,1.396-1.6,1.396-2.727
			C34.226,21.376,34.141,20.961,33.967,20.634z M31.006,23.383c-0.414,0.298-0.992,0.45-1.732,0.45h-0.342
			c-0.295,0.003-0.486-0.237-0.42-0.523l0.416-1.781c0.061-0.285,0.359-0.524,0.656-0.521l0.445-0.003
			c0.528,0.003,0.924,0.09,1.194,0.266c0.269,0.176,0.396,0.452,0.399,0.818C31.625,22.647,31.418,23.077,31.006,23.383z
			 M15.655,21.804c-0.518-0.292-1.336-0.438-2.454-0.438c-0.553,0-1.104,0.043-1.661,0.129c-0.411,0.063-0.451,0.075-0.704,0.13
			c-0.522,0.114-0.604,0.635-0.604,0.635l-0.168,0.691c-0.095,0.441,0.159,0.424,0.265,0.387c0.228-0.068,0.355-0.138,0.821-0.242
			c0.445-0.101,0.914-0.177,1.286-0.172c0.549,0,0.969,0.058,1.249,0.176c0.276,0.12,0.414,0.326,0.414,0.624l-0.024,0.194
			l-0.198,0.122c-0.779,0.049-1.342,0.121-2.025,0.22c-0.668,0.093-1.254,0.256-1.741,0.479c-0.523,0.23-0.911,0.539-1.182,0.932
			c-0.262,0.395-0.393,0.874-0.393,1.436c0,0.529,0.19,0.966,0.559,1.304c0.371,0.332,0.861,0.494,1.447,0.494
			c0.371-0.002,0.658-0.031,0.862-0.08l0.665-0.229l0.563-0.312l0.518-0.342l0.007,0.01l-0.052,0.22l-0.003,0.009v0.002
			c-0.056,0.268,0.106,0.488,0.367,0.514l0.005,0.006h0.024h1.053h0.198l0.018-0.008c0.274-0.032,0.531-0.252,0.591-0.514
			l1.001-4.333l0.052-0.353l0.024-0.331C16.439,22.55,16.174,22.095,15.655,21.804z M13.441,26.676l-0.214,0.282l-0.54,0.279
			c-0.254,0.103-0.495,0.155-0.718,0.155c-0.338,0-0.603-0.049-0.782-0.149l-0.265-0.515c0-0.279,0.064-0.5,0.201-0.67l0.582-0.396
			c0.249-0.084,0.553-0.155,0.905-0.204c0.314-0.039,0.934-0.11,1.015-0.112l0.095,0.167C13.702,25.608,13.526,26.344,13.441,26.676
			z M47.723,18.761h0.459v0.189h-0.459v0.611l0.002,0.165l0.033,0.11l0.072,0.07l0.141,0.022l0.115-0.016l0.086-0.026h0.012v0.201
			l-0.139,0.027l-0.131,0.011l-0.312-0.112l-0.106-0.352V18.95h-0.154v-0.189h0.154v-0.381h0.227V18.761L47.723,18.761z
			 M40.592,21.81c-0.521-0.292-1.338-0.439-2.453-0.439c-0.553,0-1.105,0.043-1.66,0.132c-0.412,0.06-0.453,0.073-0.707,0.127
			c-0.521,0.113-0.602,0.636-0.602,0.636l-0.168,0.69c-0.094,0.441,0.154,0.421,0.27,0.387c0.229-0.068,0.352-0.135,0.814-0.243
			c0.443-0.1,0.916-0.174,1.289-0.172c0.547,0,0.967,0.059,1.246,0.177c0.278,0.12,0.414,0.328,0.414,0.623l-0.021,0.193
			l-0.196,0.125c-0.787,0.047-1.351,0.119-2.027,0.218c-0.666,0.093-1.254,0.255-1.742,0.479c-0.521,0.231-0.914,0.54-1.182,0.934
			c-0.265,0.395-0.394,0.873-0.394,1.43c0,0.533,0.188,0.97,0.562,1.306c0.373,0.331,0.858,0.497,1.444,0.497
			c0.369-0.004,0.656-0.028,0.861-0.081l0.663-0.226l0.568-0.312l0.514-0.346l0.009,0.011l-0.047,0.222l-0.005,0.004l0.002,0.004
			c-0.062,0.268,0.101,0.49,0.365,0.514l0.002,0.005h0.024l0,0c0.173,0,0.771,0,1.056,0h0.194l0.021-0.007
			c0.271-0.033,0.527-0.253,0.584-0.518l1.004-4.327l0.053-0.355l0.029-0.332C41.377,22.554,41.115,22.101,40.592,21.81z
			 M38.383,26.682l-0.223,0.285l-0.535,0.277c-0.254,0.102-0.496,0.155-0.715,0.155c-0.349,0-0.607-0.05-0.781-0.15l-0.268-0.513
			c0-0.28,0.065-0.499,0.196-0.672c0.133-0.163,0.336-0.297,0.588-0.395c0.246-0.084,0.55-0.152,0.904-0.203
			c0.312-0.039,0.93-0.112,1.01-0.113l0.097,0.167C38.642,25.615,38.465,26.348,38.383,26.682z M45.74,19.849l0.004,0.001
			l-1.838,8.331l-0.066,0.1c-0.107,0.234-0.342,0.424-0.592,0.424h-1.277l-0.021-0.029c-0.244-0.037-0.402-0.231-0.345-0.488
			l-0.002-0.006l0.056-0.24l1.719-7.814l0.062-0.272l0.068-0.106c0.111-0.23,0.338-0.417,0.59-0.417h1.23
			C45.623,19.329,45.803,19.562,45.74,19.849z M50.301,18.858l0.105,0.373v0.867h-0.224v-0.763l-0.015-0.163l-0.028-0.129
			l-0.08-0.077l-0.147-0.027l-0.188,0.047l-0.19,0.121l0.004,0.065l0.004,0.071v0.854h-0.223v-0.763l-0.011-0.165l-0.033-0.128
			l-0.075-0.077l-0.152-0.027l-0.186,0.046l-0.187,0.116v0.997h-0.222v-1.335h0.223v0.148l0.211-0.136l0.223-0.049l0.232,0.055
			l0.143,0.159l0.246-0.166l0.242-0.049L50.301,18.858z"/>
	</g>
</svg>