<?xml version="1.0" encoding="utf-8"?>
<!-- Generator: Adobe Illustrator 19.1.0, SVG Export Plug-In . SVG Version: 6.00 Build 0)  -->
<svg version="1.1" id="Layer_1" xmlns="http://www.w3.org/2000/svg" xmlns:xlink="http://www.w3.org/1999/xlink" x="0px" y="0px" viewBox="0 0 777 481" style="enable-background:new 0 0 777 481;" xml:space="preserve">
<style type="text/css">
	.st0{fill:#CFB835;stroke:#FFFFFF;stroke-width:0.5;stroke-miterlimit:10;}
	.st1{fill:#FFFFFF;stroke:#7C7C7C;stroke-width:0.5;stroke-miterlimit:10;}
	.st2{fill:#E0E1E0;stroke:#7C7C7C;stroke-width:0.5;stroke-miterlimit:10;}
</style>
<g>
	<g id="region48.OK">
		<polygon id="Area48" class="st0" points="417.7,271.8 307.6,269.5 293.1,268.6 292.5,277.7 337.3,280.3 336.1,316.5 337.7,316.8 &#xA;			338.6,317.5 340.8,320.3 341.8,320.8 344.9,320.5 345.9,319.6 347.7,320.5 348.1,321.4 348,322.2 348.8,323.6 349.3,323.8 &#xA;			353.4,324.6 354.9,325.3 355.7,325.3 356,325 357.2,324.7 358.2,326.2 359.8,326.9 360.9,325.8 364.8,326.3 364.8,326.9 &#xA;			366.6,328.4 367.2,328.7 367.2,330.6 370.1,331.2 370.7,329.3 371.9,328.8 375.5,331.6 376.1,331.6 377.7,330.4 379,330.4 &#xA;			379.2,331.2 378.9,332.8 379.5,334 380.5,333.2 380.4,332.2 381.5,330.6 383,329.7 383.6,329.9 383.7,331 385.5,331.6 &#xA;			386.2,331.6 386.8,330.7 388,330.9 388.3,331.2 388.3,331.6 389.7,332.3 392.1,334 394.6,332.1 395.5,331.6 398.8,331.3 &#xA;			401.6,330.3 402.6,330.2 404,330.2 407.3,330.6 409.5,329.9 410,329.4 417.5,333.4 418.8,333.8 419.4,334.5 420.1,334.7 &#xA;			420.5,301.7 417.9,281.2 		" />
	</g>
	<g id="region47.GA">
		<polygon id="Area47" class="st0" points="555.4,301 566.4,340.4 567.4,341.4 568.3,344.2 568.9,345.4 570.2,346.3 571.2,347.5 &#xA;			570.7,349.1 572,350.7 571.8,351.3 570.4,353.3 570.4,355.8 569.5,358 569.6,361.4 571.5,365.5 571.2,370.3 573.2,373.3 &#xA;			573.4,374.4 573.6,375.3 575.1,376.8 574.9,377.9 575.9,379.4 618.7,376.8 619.3,378.8 619.9,379.7 622.3,380 622.7,377.8 &#xA;			621.4,373.7 621.5,372.2 622,371.5 623.1,370.6 626.2,372.1 629,372.2 630.3,371.8 629.9,368.7 629.3,367.1 629.3,365 &#xA;			629.6,363.4 631.8,357 632.2,354.2 633.3,351.6 634.6,348.9 635.9,347.6 636.6,347.3 636.9,346.4 635.8,346.1 635.8,345.7 &#xA;			635,345.7 632.8,345.5 632.2,345.1 631.6,344.2 630.8,340.4 628.9,337.8 626.5,336.9 625.3,332.9 623.9,331.2 623.1,329.1 &#xA;			621.8,328.5 619.2,327.5 617.6,325.5 615.8,324.3 615.7,323.3 614.8,321.4 614.2,320.8 611.7,319.9 606.9,315.3 604.7,314.6 &#xA;			604.1,313.1 602,311.4 600.6,308.5 599.1,307 598.5,305.8 595.4,305.2 591.3,303.2 590,302 591.5,298.9 592.5,298 593.2,297 &#xA;			593.4,296.3 593.2,296 570.7,299.2 		" />
	</g>
	<g id="region46.VA">
		<g id="Area46">
			<polygon class="st0" points="693.7,249.2 656.3,256.4 617,262.9 616.3,262.6 614.6,263 610.5,263.4 610.8,262.7 606.7,263.4 &#xA;				606.7,263.9 581.9,267 583,265.9 588.3,263.4 588.8,262.1 591.8,260.1 591.9,258.8 592.4,258 593.8,257.1 594,255.5 595.4,254.2 &#xA;				603.1,247.6 603.5,246.1 604.1,246.6 603.5,248.1 605.8,250.2 609.1,251.4 610.5,251.6 612.3,250.1 612.4,249.1 613.6,248.5 &#xA;				614.8,249.5 615.5,250 616.7,249.7 620.4,248.2 620.9,245.9 621.4,245.9 622.3,246.6 625.2,243.9 626.2,244.5 628.7,241.3 &#xA;				628.1,240 628.3,237.8 630.8,233.1 634,220.9 634.6,220.8 636.3,222 636.6,222.7 637.5,223.7 639.4,223.3 640.7,221.1 &#xA;				641.9,216.5 642.9,214.8 644.7,215.5 645.9,212.9 647,212.4 648.1,211 648.9,208.5 649.7,207.9 649.8,207.3 649.2,206.7 &#xA;				649.5,203 649.8,202.5 650.4,202 657.2,206.3 658.2,206.6 658.5,206.3 659.2,202.6 660.4,202.6 661.6,203 663,203.5 662.1,204.9 &#xA;				663.8,206.7 666.5,206.7 667.9,208 669.6,208.8 670.9,210.4 670.6,211.3 668.9,214.5 667.7,217.4 668,219.5 670.2,219.6 &#xA;				672.1,218.4 673.6,220.2 674.5,220.6 675.2,220.8 676.4,221.8 677,222 678,221.4 678.6,221.5 681.9,223.3 684.3,224 685.6,225.5 &#xA;				685.5,226.2 684.6,226.9 685,229.3 684.6,229.7 683.8,230.2 683.8,230.5 686.5,231.6 687.4,233.5 687.2,234.3 686.8,234.9 &#xA;				684.7,234.4 684.4,235.3 685.2,236.2 685.6,236 685.6,236.8 684.4,237.2 683.8,237.2 683.7,237.6 684.4,238.2 686.2,238.4 &#xA;				687.8,239 688.2,239.8 686.5,241.6 685.6,241.6 683.4,240.9 683.4,241.7 684.9,242.5 686.2,243.7 687.8,243.1 689.4,241.9 &#xA;				691,241.9 693.2,241.9 693.4,242.2 695.1,247.3 693.8,248.5 693.5,248.5 			" />
			<polygon class="st1" points="692.9,222.2 693.4,222.4 693.5,224 693.4,224.9 692.2,226.2 691.6,227.4 691.2,230.3 691.6,232.9 &#xA;				691.6,235.7 692.3,237.8 692.8,235 693.7,232.2 695.4,228.1 696.2,226.4 696.6,224.7 696.4,222.4 696.6,221.5 698.6,219.9 &#xA;				698.9,219.2 694.1,220.8 			" />
		</g>
	</g>
	<g id="region45.NY">
		<polygon id="Area45" class="st1" points="692.8,156.1 705,160.4 705.8,162.4 705,163.3 704.4,164 704.1,165.2 704.2,167.3 &#xA;			703.3,167.4 702.8,167.9 701.7,170.2 701.7,171.1 702,171.2 702.6,170.9 702.9,170.2 704.8,168.4 706,168.6 708.6,168.6 &#xA;			709.5,167.9 712,167.3 714,166.2 715.5,165.5 717.1,163.9 723.9,159.4 725.6,158.2 727.1,157 728.3,156.6 729,155.7 730.5,154.8 &#xA;			731.3,154.2 732.1,152.6 732.2,152 731.9,151.7 730.5,153.2 729,153.6 727.2,154.4 726.2,155.2 725.6,156.4 724,157.2 &#xA;			723.7,156.7 724.3,155.5 725.5,154.2 726.8,152 726.4,151.6 725.2,152.8 724.5,153.9 723.4,155 719.6,157 714.8,159.5 &#xA;			710.8,161.4 709.3,162.1 707.9,164.2 707,163.6 706.7,162.1 707.3,160.4 708.6,159.4 707.2,157.9 709.3,155.5 709.5,154.5 &#xA;			708.5,153.3 706.7,139.6 706.1,139.1 706.3,126.2 704.8,123.1 703.8,120.1 703.8,117.4 702.9,112.9 701.4,110.5 700.6,110.5 &#xA;			700.8,111.1 700.4,111.3 700,110.5 700.3,108 697.9,102.8 697.8,100.7 698.6,98.8 697.9,94.8 695.9,89.4 695.7,88.8 695,88 &#xA;			695.4,87.1 694.4,85.3 694.4,85.3 676.8,89.7 676.5,89.1 675.8,89.4 674.5,90.2 670.2,94.6 666,100.4 665.2,101.4 665.7,102.3 &#xA;			664.9,104.7 664,105.5 659.7,109.9 659.2,110.8 659.8,112.6 660.2,112.9 661.4,112.7 662.3,113.3 662.4,114.2 661.6,115.2 &#xA;			662,116.7 663,118.3 662.7,120.9 659.9,122.1 655.8,126.5 652.8,127.5 645.7,129.6 643.4,128.7 641.2,128.3 637.5,128.7 &#xA;			633.7,129.4 629.6,131.1 627.7,132.4 627,134.6 627,136.2 629.7,139.3 630.2,139.7 630.5,141.2 630,142.3 629,143.1 628,145.7 &#xA;			622.3,151.6 620.1,153.2 621.1,158 681.2,146 682.2,146.7 682.7,147.8 683.1,148.2 683.5,148.1 684.1,148.7 685,148.9 &#xA;			686.9,152.5 687.4,153.8 687.9,154.4 688.1,154.8 691.6,155.1 		" />
	</g>
	<g id="region44.FL">
		<polygon id="Area44" class="st1" points="573.4,374.4 532.1,378.5 532.1,379.3 532.2,379.7 531.8,380.1 532,381.5 533.1,383.2 &#xA;			534,384 534.4,384 535.6,385 535.9,385.6 535.2,387.3 535.2,387.8 536.1,388.2 536.4,388.6 536.4,389.1 535.5,389.8 535.5,391 &#xA;			535.9,391.3 538.3,390.6 539,390 539.9,387.8 540.2,387 541.2,387.3 542.1,387.3 542.5,387 543.2,387.2 543.1,387.8 541.5,389.1 &#xA;			541.8,389.4 543.1,388.8 545,388.6 552.5,386.2 553.5,386.2 553.5,386.7 552.2,387.9 552.8,388.2 556,388.5 559.1,389.7 &#xA;			562.4,391.4 563.3,391.6 563.2,390.6 563.9,390 564.6,390.8 566.6,391.4 567,391.7 567.1,392 566.4,392.5 566.7,393 570.8,396.1 &#xA;			571.1,397.3 571,398.3 570.7,399.1 570.1,398.5 569.8,397.7 569.5,398.5 569.6,399.3 570.5,399.6 576.2,398 576.5,397.3 &#xA;			578.6,397.1 583.3,393.3 586.3,393.3 586.3,392.6 585.9,391.9 586.8,389.8 591.8,389.2 599.2,393 599.4,394.1 601.3,395.5 &#xA;			602.9,398 607.6,401.4 608.2,402.7 609.5,403.9 613,403.7 615.8,407.9 616.5,408.4 616.3,409.6 617.4,413.7 617,418.4 &#xA;			615.8,423.2 616,427.2 616.5,428.5 619.3,430.4 620.2,428.8 619.3,428.1 618.6,425.4 618.7,425 620.4,424.7 621.5,427.2 &#xA;			622.3,427.2 622.6,425.9 623,425.6 623.7,426.2 623.6,427.4 622.9,428.7 622.1,429.8 621.1,432.9 620.2,433.4 620.2,434.8 &#xA;			621.2,436 622.9,437.5 625.3,443 629.3,445.5 629.7,445.4 629.9,444.1 631.1,444.1 631.9,446.4 632.1,447.7 633.4,450.7 &#xA;			635,451.7 636.8,452.3 639.7,460.2 640.4,460.6 644.4,461.5 646,462.4 650.4,467.8 652.3,469.3 653.1,469.3 654.2,469.9 &#xA;			654.5,470.9 653.6,471.2 652.9,470.9 652.5,470.9 651.9,471.2 651.7,471.9 652.3,472.7 654.5,473.1 655.7,472.4 657.5,472.2 &#xA;			663.9,469.7 665.4,467.1 665.5,466.5 664.6,463 664.8,461.2 666.1,458.1 667.4,458.4 665.8,452 666.2,448.8 666,442.7 &#xA;			664.6,437.9 663.8,436.1 659.2,430.3 656.4,423.7 652.9,419 653.1,418.4 652.8,417.2 651.6,414.7 651.6,413.6 652.8,412 &#xA;			652.8,411.2 648.2,404.9 645.6,402.4 643.8,401.4 643.4,400.5 640.4,396.6 636.5,389.5 635.5,385.4 633,379.7 633,378.7 &#xA;			631.9,377.8 631.4,377.4 630.9,373.3 630.3,371.8 629,372.2 626.2,372.1 623.1,370.6 622,371.5 621.5,372.2 621.4,373.7 &#xA;			622.7,377.8 622.3,380 619.9,379.7 619.3,378.8 618.7,376.8 575.9,379.4 574.9,377.9 575.1,376.8 573.6,375.3 		" />
	</g>
	<g id="region43.NM">
		<polygon id="Area43" class="st1" points="204,258.6 189,364.3 189,364.5 202.7,365.9 203.7,357.7 229.5,360.9 229.2,360.6 &#xA;			228.6,359.2 229.2,358 229.1,357.7 228.6,357.1 228.9,356.8 285.1,362.1 291.8,277.7 292.5,277.7 293.1,268.6 		" />
	</g>
	<g id="region42.MD">
		<polygon id="Area42" class="st1" points="684.1,189.6 671.7,191.8 632.4,199.4 634.6,209.1 635.3,207.7 636.2,207.3 639.1,203.9 &#xA;			640.4,203.6 641.5,201.9 642.5,201.4 643.4,199.5 644.1,200.4 645.9,200.8 647.8,200.3 648.2,198.9 652.9,197.3 653.9,197.9 &#xA;			655.1,197.9 656.3,197.5 656.9,199.1 657.6,199.2 659.2,202.6 659.2,202.6 660.4,202.6 661.6,203 663,203.5 662.1,204.9 &#xA;			663.8,206.7 666.5,206.7 667.9,208 669.6,208.8 670.9,210.4 670.6,211.3 668.9,214.5 667.7,217.4 668,219.5 670.2,219.6 &#xA;			672.1,218.4 673.6,220.2 674.5,220.6 674.5,220 676.4,219.6 678.6,219.8 681.6,220.8 683.1,221.5 683.7,221.4 683.8,220.8 &#xA;			683.1,220 681.8,217.9 680.5,217.6 680.3,217.3 680.5,216.7 680.9,216.7 681.5,215.9 679.9,215.4 678.7,213.5 677.7,210.2 &#xA;			677.4,208.9 677.1,207 677.7,203.8 677.5,202.7 677,202.2 676.8,201.3 677.1,200.5 677.5,199.8 678,198.6 680.5,196.7 &#xA;			680.9,196.2 681.6,193.7 683.3,193.8 683.8,194.7 682.7,196.7 681.8,198.2 680.9,199.4 680.2,201 680.9,202.6 682.1,203 &#xA;			682.8,206.6 682.7,207.1 680.8,208.3 681.1,209.1 682.7,209.6 683.1,210.4 682.7,212 683.1,212.9 683,213.7 683.8,215.8 &#xA;			685.9,217.3 686.9,217.3 687.7,216.7 688.8,216.7 689.4,217 689.1,218.1 690.3,220.2 690.3,220.9 691,222.1 692.8,222 &#xA;			693.1,222.2 694.1,220.8 698.9,219.2 699.1,218.4 699.4,217.3 700.6,211.1 700.4,210.5 691,212.6 		" />
	</g>
	<g id="region41.TX">
		<polygon id="Area41" class="st1" points="420.1,334.7 419.4,334.5 418.8,333.8 417.5,333.4 410,329.4 409.5,329.9 407.3,330.6 &#xA;			404,330.2 402.6,330.2 401.6,330.3 398.8,331.3 395.5,331.6 394.6,332.1 392.1,334 389.7,332.3 388.3,331.6 388.3,331.2 &#xA;			388,330.9 386.8,330.7 386.2,331.6 385.5,331.6 383.7,331 383.6,329.9 383,329.7 381.5,330.6 380.4,332.2 380.5,333.2 379.5,334 &#xA;			378.9,332.8 379.2,331.2 379,330.4 377.7,330.4 376.1,331.6 375.5,331.6 371.9,328.8 370.7,329.3 370.1,331.2 367.2,330.6 &#xA;			367.2,328.7 366.6,328.4 364.8,326.9 364.8,326.3 360.9,325.8 359.8,326.9 358.2,326.2 357.2,324.7 356,325 355.7,325.3 &#xA;			354.9,325.3 353.4,324.6 349.3,323.8 348.8,323.6 348,322.2 348.1,321.4 347.7,320.5 345.9,319.6 344.9,320.5 341.8,320.8 &#xA;			340.8,320.3 338.6,317.5 337.7,316.8 336.1,316.5 337.3,280.3 292.5,277.7 291.8,277.7 285.1,362.1 228.9,356.8 228.6,357.1 &#xA;			229.1,357.7 229.2,358 228.6,359.2 229.2,360.6 229.5,360.9 232.4,362.8 233.2,364.7 234.3,367.4 237.3,369.3 245.9,379.7 &#xA;			253.3,385.6 253.8,386.6 254.3,387.9 254.1,389.5 254.7,390.4 256.3,393 256.2,399.1 256.6,400.8 259.3,405.1 270.3,413.1 &#xA;			277.7,417.8 279.8,418.1 281.3,417.4 282.9,415.3 284.2,414.3 287.4,407 288.9,404.6 290.1,404 292.7,404.8 293.3,404.6 &#xA;			293.7,403.5 294.5,402.6 295.9,403.2 297.2,404 301.5,404.6 302.7,405.2 305.3,405.9 306.8,405.4 310.1,407.3 310.9,409.2 &#xA;			311.5,409.5 311.8,410.2 312.3,410.3 313.8,411.2 315.7,413.9 318.9,416.6 320.5,419.1 320.7,420.3 325.5,431.9 326.3,434.2 &#xA;			331.5,440.3 332,441.7 335.6,445.7 336.7,446.3 338.1,448 338.6,449 338.3,453 339.5,454.5 339.9,458.9 341.1,460.3 344.9,467.7 &#xA;			345.2,469.7 347.8,470 350.7,471.8 354.3,472.9 359.5,476.3 366.6,476.9 368,477 371.9,479.7 373.8,480.6 375.5,478.4 &#xA;			377.1,478.8 377.7,478.2 377.7,477.2 376.1,476.6 376.4,476 374.8,474.1 372.4,465.3 371.3,461.8 373,456.5 372.7,454.8 &#xA;			372.3,454.5 371.9,454.3 371.6,454 371.6,453.6 371.9,453.3 374.2,451.8 375.7,447 374.5,446.6 374.1,444.2 375.2,442.7 &#xA;			376.8,443.9 379.5,442 380.2,439.5 378.9,438.5 379.5,437.3 380.1,437.6 380.8,437.8 381.4,437 382.3,437.5 383.1,437.5 &#xA;			383.9,437.2 384,436.6 384,434.5 384.3,433.9 385.1,433.8 385.3,434.1 386.1,434.2 390,433.2 390.5,433.1 390.6,432.3 &#xA;			390.3,431.9 388.3,430.7 388.3,429.8 391.9,428.8 392.5,428.1 393.6,427.8 393.9,428.1 393.4,428.5 394,429.5 394.6,429.5 &#xA;			395.3,429 401,427.2 410.6,421 411,418.7 415.4,414.9 415.6,414.3 413.6,411.7 414.1,409.6 417,408.4 417.6,408.4 417.2,410.8 &#xA;			417.5,411.5 420.8,411.1 421.4,412 428.2,409 432.1,408.6 432.3,408.4 432.1,408 431.4,407.3 431.1,406.1 431.5,405.5 432,404.3 &#xA;			433.1,403.2 434.6,399.1 433.4,397.3 433.4,396 433.7,395.1 433.6,393.9 434,391.6 435.2,390.7 435.9,388.9 436.5,385.6 &#xA;			436.5,383.5 435.9,380.6 434.8,378.5 434.2,377.9 434.5,376.9 433.9,376.2 433,374.4 432,373.5 431.7,373 432.3,370.9 &#xA;			430.9,368.3 428.7,366.2 428,365 427.6,346.3 427.6,336.3 425.2,335.7 423.2,336.6 422.4,336.5 		" />
	</g>
	<g id="region40.KS">
		<polygon id="Area40" class="st0" points="310.9,212.7 406.5,214.9 412.6,219.6 410.7,222 410.3,224.3 411.3,225.5 412.9,226.2 &#xA;			413.8,229.4 415.3,230.5 416.7,230.8 417.3,231.2 417.7,271.8 307.6,269.5 		" />
	</g>
	<g id="region39.NE">
		<polygon id="Area39" class="st0" points="283.9,191.6 287.1,154.1 362.8,158 364.8,161 367.3,161 369.2,160.5 370.7,161.6 &#xA;			371.9,164 373.8,164.5 375.8,164 377.7,162.6 380.2,162.6 381.7,163 387.7,167 390.6,169 390.6,170.9 392.7,172.1 392.7,173.4 &#xA;			391.8,176.1 393.3,177.4 394.1,180.5 395.8,181.9 395.2,183.4 395.8,185 397.7,186.5 398.3,187.9 397.7,189.6 397.2,192.5 &#xA;			399.1,193.5 399.7,195 398.7,196.4 399.1,197.9 400.2,199.4 399.7,200.8 400.2,202.9 400.7,203.8 401.8,205.4 403.2,206.9 &#xA;			403.7,209.3 405.7,211.8 406.6,212.4 406.2,214.3 406.5,214.9 310.9,212.7 312,194 283.9,191.6 		" />
	</g>
	<g id="region38.SD">
		<polygon id="Area38" class="st0" points="287.1,154.1 290.2,117 291.8,98.8 389.3,103.1 389.5,104.7 388.6,106.6 386.2,109.1 &#xA;			386.4,110.7 391.1,115.2 391.2,149.4 390.3,149.2 389.2,149.4 389.6,150.6 390.2,151.6 389.5,153.5 390.5,154.5 391.1,157.3 &#xA;			390,158.2 390.3,159.8 388.9,163.2 390.3,166.7 390.6,168.6 390.6,169 387.7,167 381.7,163 380.2,162.6 377.7,162.6 375.8,164 &#xA;			373.8,164.5 371.9,164 370.7,161.6 369.2,160.5 367.3,161 364.8,161 362.8,158 		" />
	</g>
	<g id="region37.ND">
		<polygon id="Area37" class="st0" points="291.8,98.8 296.5,42.1 321.7,43.8 339.6,45.1 381.7,46.3 381.8,47.8 383.1,52.2 &#xA;			382.7,53.5 382.3,56.6 382.4,61.9 383.6,67.9 385.2,69.6 386.2,75.1 386.5,84.4 387.1,86.3 387.1,89.7 387.3,91.2 389.5,97.8 &#xA;			389.2,100.3 389.3,103.1 		" />
	</g>
	<g id="region36.MT">
		<polygon id="Area36" class="st0" points="290.2,117 197.7,105.7 196.4,115.1 196.4,115.2 195.1,113.9 194.5,111.7 192.6,109.7 &#xA;			190.9,111 191.1,112.4 187.3,112.4 186.7,112.7 185.1,111.9 181.6,111.7 180.8,111 179.8,111.1 178.6,112.3 177.3,112.1 &#xA;			174.4,111 173.6,111.6 172.8,113.3 170.9,112.3 170,110.2 170,109.5 170.4,107 170.1,105.8 168.8,104.1 167.2,104.1 165.7,101.7 &#xA;			166.6,100.1 166.6,99 165.1,96.9 164.3,94.4 164.3,90.6 164.7,88.2 164,87.7 163.5,87.2 162.9,85.9 162.5,85.6 161.9,85.9 &#xA;			157.8,89.1 157.1,89.4 154.4,86.8 155.2,85.3 155,84.1 155,82.5 157.2,81.1 157.4,79.5 157.1,79.2 157.2,76.2 158.3,75.3 &#xA;			158.1,74.3 161,68.3 160.2,67.3 157.4,66.8 157.2,65.4 155.2,65.2 154.1,62.9 153.7,60.5 151.5,55.6 148.3,52.5 146.8,50.4 &#xA;			145.9,49.4 146.7,48.5 147.3,46.6 146.7,43.5 144.5,38.7 147.7,20.8 161.6,23.2 198.9,29.5 237,35.9 296.5,42.1 291.8,98.8 		" />
	</g>
	<g id="region35.WY">
		<polygon id="Area35" class="st0" points="283.9,191.6 287.1,154.1 290.2,117 197.7,105.7 196.4,115.1 189.6,161.6 189.5,161.6 &#xA;			186.5,179.7 214.1,184 283.9,191.6 		" />
	</g>
	<g id="region34.CO">
		<polygon id="Area34" class="st0" points="204,258.6 214.1,184 283.9,191.6 312,194 310.9,212.7 307.6,269.5 293.1,268.6 		" />
	</g>
	<g id="region33.UT">
		<polygon id="Area33" class="st0" points="204,258.6 214.1,184 186.5,179.7 189.5,161.6 148.3,154.2 130.3,247 130.3,247 		" />
	</g>
	<g id="region32.ID">
		<polygon id="Area32" class="st0" points="135.8,18.5 147.7,20.8 144.5,38.7 146.7,43.5 147.3,46.6 146.7,48.5 145.9,49.4 &#xA;			146.8,50.4 148.3,52.5 151.5,55.6 153.7,60.5 154.1,62.9 155.2,65.2 157.2,65.4 157.4,66.8 160.2,67.3 161,68.3 158.1,74.3 &#xA;			158.3,75.3 157.2,76.2 157.1,79.2 157.4,79.5 157.2,81.1 155,82.5 155,84.1 155.2,85.3 154.4,86.8 157.1,89.4 157.8,89.1 &#xA;			161.9,85.9 162.5,85.6 162.9,85.9 163.5,87.2 164,87.7 164.7,88.2 164.3,90.6 164.3,94.4 165.1,96.9 166.6,99 166.6,100.1 &#xA;			165.7,101.7 167.2,104.1 168.8,104.1 170.1,105.8 170.4,107 170,109.5 170,110.2 170.9,112.3 172.8,113.3 173.6,111.6 174.4,111 &#xA;			177.3,112.1 178.6,112.3 179.8,111.1 180.8,111 181.6,111.7 185.1,111.9 186.7,112.7 187.3,112.4 191.1,112.4 190.9,111 &#xA;			192.6,109.7 194.5,111.7 195.1,113.9 196.4,115.2 196.4,115.1 189.6,161.6 189.5,161.6 148.3,154.2 107.5,145.7 114.9,112.6 &#xA;			116.8,110.2 116.9,108 117.4,107.7 117.5,107.2 118.1,106.1 117.2,104.7 115,103.6 114.6,102.5 115.2,100.3 118.5,95.1 &#xA;			120.6,94.1 122,92.6 122,91.3 123.2,90.3 129.7,80.3 129.2,77.7 127.9,76.5 126.7,76.2 125.4,74.5 125.1,72.9 125,70.5 &#xA;			125.6,69.6 125.9,68.6 125,67.1 125,65.5 125.6,64.8 		" />
	</g>
	<g id="region31.AZ">
		<polygon id="Area31" class="st0" points="189,364.3 204,258.6 130.3,247 130.3,247 128.5,256.7 125.7,264.6 124.1,264.6 &#xA;			122.9,263.4 123.1,262.9 122,261.5 119.1,260.8 116.9,261.2 116.2,262.1 116.8,265.6 115.9,274.6 116.6,275.9 115.4,279.9 &#xA;			114.7,281.2 114.9,282.1 114.7,284.7 114.9,285.7 114.7,286.5 115.9,288.8 115.9,290.6 116.5,291.9 117.1,294.1 117.9,294.7 &#xA;			118.8,295.8 119.1,297.6 118.8,298.2 118.2,297.8 116.3,299.4 114.1,300.1 112.5,302.3 111.3,307.4 108.4,311.2 106.8,311.2 &#xA;			106.6,312.3 107.1,313.6 106.9,314.6 106.2,317 106.8,318.1 108.8,319.9 109.1,320.6 108.6,321.5 108.3,322.7 106.9,324 &#xA;			106.2,323.8 103.9,323.4 102.7,327.8 157.2,359.2 189,364.5 		" />
	</g>
	<g id="region30.NV">
		<polygon id="Area30" class="st1" points="67.5,136.3 53.4,191.8 114.9,282.1 114.7,281.2 115.4,279.9 116.6,275.9 115.9,274.6 &#xA;			116.8,265.6 116.2,262.1 116.9,261.2 119.1,260.8 122,261.5 123.1,262.9 122.9,263.4 124.1,264.6 125.7,264.6 128.5,256.7 &#xA;			130.3,247 148.3,154.2 107.5,145.7 		" />
	</g>
	<g id="region29.WA">
		<polygon id="Area29" class="st1" points="125.9,68.6 125.6,69.6 125,70.5 125.1,72.9 99,66.7 97.1,67.6 95.8,67.6 94.5,67.1 &#xA;			92.7,67 91.7,66.6 90.4,66.6 88.9,67 87,66.6 85.4,66.6 83.5,67.4 82,67.7 78.8,67.3 77.9,66.7 76,66 70,66.7 68.8,65.1 &#xA;			63.8,63.6 61.5,63.3 58.4,63.6 53.9,63.3 50.1,61.3 49.3,59.8 49.6,55.1 49.9,54.2 49.5,51.3 46.7,49.3 44.6,49 44.3,48.4 &#xA;			43.2,47.2 40.8,46.2 40.5,45.9 38.2,44.4 37.5,44.3 37,44.1 37,43.4 37.6,41.2 38,40.2 38,39.3 38,38.7 38.5,38.5 38.8,38.7 &#xA;			38.9,40 38.8,40.7 38.6,41.2 38.8,41.8 40.5,40.2 40.4,39.6 40.4,38.7 41.1,37.8 40.5,36.6 39.5,36.3 39.4,33.6 39.8,33.3 &#xA;			40.8,33.6 41.1,33.1 43,32.7 41.7,31.5 41.7,31.2 41.3,30.8 39.9,31.7 39.9,29.6 39.9,28.4 40.4,26.1 40.1,24.3 39.9,22.7 &#xA;			40.4,18.9 40.7,17.3 39.1,12.2 39.2,8.6 39.8,6.7 40.2,4.1 49.5,10.5 54.3,13.2 58.1,14.4 60.3,15.7 62.2,15.7 63,16.1 63.7,17.3 &#xA;			64,21.8 63.7,22.9 62.2,23.9 61.6,25.9 61.6,27.6 61.8,28.4 61.6,29.3 61.2,30 61.2,30.8 62.1,31.5 63.8,30.6 65,26.5 65.7,25.6 &#xA;			66.5,23.7 69,21.2 69.1,20.2 68.1,16.6 66.2,11.4 66,10.5 66.6,10.3 67.7,10.5 68.8,8.2 68.7,5.6 67.1,5.6 66.9,3.8 66.8,0.4 &#xA;			86.4,5.9 105,10.8 135.8,18.5 125.6,64.8 125,65.5 125,67.1 		" />
	</g>
	<g id="region28.CA">
		<g id="Area28">
			<polygon class="st1" points="118.8,295.8 117.9,294.7 117.1,294.1 116.5,291.9 115.9,290.6 115.9,288.8 114.7,286.5 114.9,285.7 &#xA;				114.7,284.7 114.9,282.1 53.4,191.8 67.5,136.3 11.8,121.1 11.1,122.1 10,124.6 11.1,127 10.6,132.1 9.3,134.3 8.1,135.3 &#xA;				7.7,137.7 7.7,138.8 2.4,144.7 0.5,147.8 0.7,149.7 0.2,150.4 0.5,152.8 1.1,154.5 2,155.4 2.4,156.4 2.6,157.4 4.3,161.4 &#xA;				4.8,165.4 4.3,166.4 3,168.4 1.8,172.6 2.1,174 2.6,175.8 1.4,177.7 3.6,183.4 4.8,185.9 7.7,189.1 7.7,195.9 6.7,197.9 &#xA;				8.7,198.8 10.9,201.9 13,202.6 13.6,201.7 13.6,200.7 15.2,199.1 15.6,199.2 15.3,201.9 15.6,203.9 16.6,207.3 16.5,209.1 &#xA;				16,209.6 13.8,208 13.6,207.3 13.6,205 13,203.8 12.4,204.1 11.9,207 11.2,207.3 11.5,208.9 11.1,209.8 10.9,216.1 11.8,218.3 &#xA;				14.1,220.3 16.5,221.4 17.5,222.5 17.2,225.6 15.6,227.4 14.7,227.7 13.8,228.6 13.6,233.2 16.8,237.9 17.1,239.7 18,241.5 &#xA;				18.2,243.7 22.8,251.7 24.5,253.2 24.4,255.1 24,255.1 23.5,255.7 23.7,257.7 25.4,258.6 26,261 25.6,261.8 25.1,263.9 &#xA;				24.5,267.1 23.5,268.4 23.5,269.9 25.3,271.5 28.1,273.4 30.3,273.4 37,276.5 39.4,277.1 41.7,278.8 43.3,282.9 46,285.3 &#xA;				48.2,286.2 51.8,286.6 53.1,288.1 53,289.1 53.6,290.3 52.8,292 54,293.4 56.4,293.2 59.9,296.4 61.5,299.2 63.3,301 66.3,307.6 &#xA;				66.5,313.6 66.3,314.2 66.9,315.8 67.2,315.8 67.7,316.4 67.4,316.5 66.9,317.5 67.4,319.3 67.7,319.9 103.9,323.4 106.2,323.8 &#xA;				106.9,324 108.3,322.7 108.6,321.5 109.1,320.6 108.8,319.9 106.8,318.1 106.2,317 106.9,314.6 107.1,313.6 106.6,312.3 &#xA;				106.8,311.2 108.4,311.2 111.3,307.4 112.5,302.3 114.1,300.1 116.3,299.4 118.2,297.8 118.8,298.2 119.1,297.6 			" />
		</g>
	</g>
	<g id="region27.OR">
		<polygon id="Area27" class="st1" points="11.8,121.1 11.1,120.2 10,116.4 10.9,114.5 10.9,112.9 12.1,109.9 11.5,104.1 &#xA;			12.4,102.8 13.6,102.2 14.3,101.2 15,99.2 15.8,98.5 16,95.9 16.6,95.7 20.2,91.5 21.9,87.5 25,81.8 28.4,71.4 30.9,67 33.1,60.5 &#xA;			35.7,52.5 36.7,49.7 37.2,47.2 37.2,46.5 38.5,46 39.9,46.5 40.8,46.2 43.2,47.2 44.3,48.4 44.6,49 46.7,49.3 49.5,51.3 &#xA;			49.9,54.2 49.6,55.1 49.3,59.8 50.1,61.3 53.9,63.3 58.4,63.6 61.5,63.3 63.8,63.6 68.8,65.1 70,66.7 76,66 77.9,66.7 78.8,67.3 &#xA;			82,67.7 83.5,67.4 85.4,66.6 87,66.6 88.9,67 90.4,66.6 91.7,66.6 92.7,67 94.5,67.1 95.8,67.6 97.1,67.6 99,66.7 125.1,72.9 &#xA;			125.4,74.5 126.7,76.2 127.9,76.5 129.2,77.7 129.7,80.3 123.2,90.3 122,91.3 122,92.6 120.6,94.1 118.5,95.1 115.2,100.3 &#xA;			114.6,102.5 115,103.6 117.2,104.7 118.1,106.1 117.5,107.2 117.4,107.7 116.9,108 116.8,110.2 114.9,112.6 107.5,145.7 &#xA;			67.5,136.3 		" />
	</g>
	<g id="region26.KY">
		<polygon id="Area26" class="st0" points="494.4,277.7 516.1,275.9 516.1,274.1 515.5,273.1 518,272.8 519.1,273.6 580.6,267.8 &#xA;			581.9,267 583,265.9 588.3,263.4 588.8,262.1 591.8,260.1 591.9,258.8 592.4,258 593.8,257.1 594,255.5 595.4,254.2 603.1,247.6 &#xA;			603.5,246.1 602.5,246.1 601.4,245.4 601,245.4 600.6,244.8 599.1,244.1 598.4,244.2 597.9,243.9 596,241 592.9,237.2 592.7,236 &#xA;			592.8,234.9 592.8,233.1 592.4,230.8 591.8,230.2 590.2,229 588.5,228.6 587.1,226.5 586.3,225.3 584.6,226.6 584.1,227.4 &#xA;			583.1,228 582.8,228.4 580.6,228.7 578,227.7 577,227.8 575.8,229.4 572.7,227.2 569.6,227.5 567.4,226.6 566.4,224 563.5,221.8 &#xA;			561.9,222.7 561,222.7 559.5,222 558.3,222 557.8,223.3 557.8,224.3 558.6,227.5 558.1,228.7 556.4,229.1 554.4,230.8 &#xA;			551.9,230.2 550.7,231 550.7,233.8 544.9,241.5 543.8,244.8 540.2,245 538.6,243.1 537.5,242.9 536.6,244.1 535.5,247.9 &#xA;			534.3,248.9 532.8,247.9 531.8,246.6 529.3,247.5 528.4,250.4 527.6,250.7 527.1,250.2 522.7,248.2 519.2,249.5 516.4,249.4 &#xA;			516,250.7 516.1,251.3 514.9,251.7 513.8,251.6 513.8,251.6 514.1,251.9 513.5,252.7 513.2,254.2 512.6,254.6 512.6,255.2 &#xA;			514.1,257.1 513.8,257.4 509.2,258.8 507.9,259.5 508.2,261.4 509.1,265.2 507,266.1 505.3,264.8 503.4,263.9 500.9,263.4 &#xA;			499.1,264.3 498.2,267.7 498.5,268 499,268.3 499.7,268.9 500.3,270.6 498.8,275.3 497.9,275.9 497.2,275.5 495.3,276.3 		" />
	</g>
	<g id="region25.ME">
		<polygon id="Area25" class="st1" points="722.4,72.4 733,104.1 733.1,104.7 733,106 733.1,106.6 735.7,108.6 736.3,108.8 &#xA;			736.6,109.8 736.6,110.5 738.1,113 738.4,112.3 738.7,110.5 739,108.2 740.1,105.8 740.9,102.3 742.3,101 742.5,100.3 741.8,99.8 &#xA;			741,97.8 744.5,94.6 745.1,95 745.7,96.5 746.1,96.9 746.6,96.3 746.6,94.7 746.9,93.8 749.5,93.5 750.7,92.4 750.7,91.2 &#xA;			751.1,90.6 752.5,90.6 753.5,90 753.9,89.4 754.5,87.1 754.2,85.3 756,83.4 756,82.2 756.7,82.2 758.6,82.5 759.5,82.1 &#xA;			760.1,81.1 760.8,79.3 761.5,79.2 762.7,77.1 764.8,77.3 766.2,78.7 768.3,75.1 770,74.2 772.8,71.7 773.6,70.4 774,70.1 &#xA;			774.7,70.1 776.1,69.3 776.8,67.7 776.5,66.6 775.3,66 775.2,66.1 774.4,65.8 774.9,64.5 775.3,64.2 775.3,63.2 774.2,60.8 &#xA;			772.7,60.1 771.8,60.2 771.4,60.8 770.2,61.1 768.9,60.7 767.7,56 768.1,55.4 767.8,54.5 767.4,53.9 766.5,53.9 766.1,54.4 &#xA;			764,53.6 762.9,53.6 762.3,53.2 761.4,50.4 761.2,49.7 754.8,29.2 749.1,25.6 747.6,25.5 746.1,25.5 745.7,26.4 745.3,27.4 &#xA;			744.5,27.4 742.5,28.4 739.6,30.8 738.7,31.1 737.5,29.6 737.8,27.6 737.2,26.7 736.3,26.7 734.1,27.6 729.4,43.5 729.1,45.9 &#xA;			730,47.1 730.2,48.8 729.6,50 728.8,50.7 728.3,52.2 729.9,58.6 729,60.7 729,62.4 726.6,65.5 726.4,66.7 727.2,68.9 727.1,69.2 &#xA;			725.8,69.2 725.9,70.8 725.5,71.8 724.7,71.7 723.7,71.2 		" />
	</g>
	<g id="region24.PA">
		<polygon id="Area24" class="st0" points="632.4,199.4 671.7,191.8 684.1,189.6 684.3,189.4 684.7,189.1 684.9,187.9 686.2,186.6 &#xA;			687.8,186.5 689,186.8 692.6,184.3 693.1,182.2 695.4,179.9 697.6,178.6 697.8,178.1 695.7,176.7 695,175.8 693.8,175.3 &#xA;			693.4,174.7 691.9,174.3 691.2,172.1 689.4,171.8 689.1,171.5 689,168.2 689.9,167.6 689.7,165.7 688.5,164.5 688.5,163.9 &#xA;			688.8,163.3 690.6,161.7 691,158.9 691,158 692.1,156.4 692.8,156.1 691.6,155.1 688.1,154.8 687.9,154.4 687.4,153.8 &#xA;			686.9,152.5 685,148.9 684.1,148.7 683.5,148.1 683.1,148.2 682.7,147.8 682.2,146.7 681.2,146 621.1,158 620.1,153.2 &#xA;			616.8,156.3 616.3,156.6 615.8,156 615.2,156 614.5,157.9 611.9,160.2 610.7,161 615.1,185.6 617.9,202.2 		" />
	</g>
	<g id="region23.MI">
		<g id="Area23">
			<polygon class="st0" points="523.9,176.1 552.6,172.4 552.8,173.3 571,170.9 571.2,170.1 573.4,165.7 574.3,164.5 574.2,161.6 &#xA;				574.9,159.2 577.3,157.3 577.3,154.8 577.7,154.4 577.7,153 579,151.9 579.6,153.2 580,153.3 580.9,152.8 581.4,152.2 &#xA;				581.7,150.8 581.2,148.4 581.5,145.1 580.6,143.1 580,138.5 575.9,127.8 571.8,126.5 570.2,127.5 568.3,129.4 563.5,136.6 &#xA;				563,136.6 562.6,136.3 560.7,135.6 560.1,135 559.4,133.4 560,130.5 560.8,129.2 563.2,127.7 563.8,126.4 563.9,125.3 564.2,124 &#xA;				565.4,123.4 566.4,121.1 566.4,116.4 565.7,114.1 564.9,112.7 563.5,111 563,110.1 563.3,108.9 564.9,108.3 565.2,107.9 &#xA;				563.3,104.5 561.7,103.6 556.9,101.7 553.4,101.2 552.2,99.7 549.4,99.1 546.8,98.2 544.9,96.9 543.7,97.9 542.2,98.5 &#xA;				540.8,101.2 540.8,103.2 541,104.1 541.6,104.1 541.9,105 541.3,105.3 540.2,105.8 539.3,106.4 538.3,107.7 537.2,109.7 &#xA;				537.5,111.7 537.8,113.6 536.6,115.8 535,116.7 534.7,115.1 535.5,113.2 534.7,111.1 535,110.4 534.9,109.8 534.2,110.2 &#xA;				533.3,111.7 533,113.5 532.4,114.5 531.4,114.5 529.6,116 529,117.3 528.7,118.3 527.3,120.1 527.1,123 527,126.4 526.7,128.3 &#xA;				525.5,130.8 524.5,132.2 524.8,133.8 526.1,137.9 525.4,140.4 526.4,142.6 529,148.2 530.9,152.8 530.9,156.6 531.8,157.4 &#xA;				531.8,158 531.2,158.6 530.8,162.6 530,165.4 529,168.2 526.7,173.6 524.6,175.3 			" />
			<polygon class="st0" points="469.5,88.8 472.1,88 473.5,87.1 476.2,85.5 476.8,84.1 478,84 483,82.1 486.5,80.2 490.6,75.9 &#xA;				492.1,75.6 495.5,71.8 497.8,70.7 501.6,69.9 502.6,70.2 502.8,70.7 500.7,72.1 500.1,72.3 499.3,74 496.5,77.1 495.2,78.3 &#xA;				494.4,79.3 493.8,81.9 494.4,83.7 494.9,82.7 497.2,80.8 498.8,80.9 499.8,80.6 505,82.8 509.1,87.2 512.3,86.8 513.9,87.1 &#xA;				515.1,87.7 516.1,87.7 516.6,87.5 517.7,88 517.7,88.5 518.5,88 519.1,86.8 522.7,84.1 534.4,81.2 537.5,79.5 539,79 539.6,79.7 &#xA;				538.7,81.4 538.7,82.4 540.2,85.2 541,85.5 541.6,85 543.5,85.2 544.4,84.7 548.1,84.3 549.7,85.3 551.3,88.2 552.5,89.4 &#xA;				555.3,90.7 558.3,90 559.1,90 559.8,90.7 560,91.8 558.8,92.9 556.9,93.1 555.9,92.9 555.6,92.4 555,92.4 553.1,93.4 551.7,92.9 &#xA;				550.6,92.8 547.3,93.5 545.4,92.9 544.7,93.5 545.2,95.3 544.7,95.9 543.8,95.6 541.9,93.8 537.1,93.2 536.1,93.5 534.9,92.9 &#xA;				531.5,95.4 530.8,95.4 529.5,96.2 529,96.8 528.3,97 526.4,96.6 524.3,97 524.2,98.7 523.7,99.5 519.6,103.2 518.9,102.9 &#xA;				518.5,102.3 520.2,100 520.2,98.8 517.9,99 517,101.2 516.1,102 515.2,101 514.9,99 514.5,99.2 514.1,101.9 512.6,104.5 &#xA;				511.7,107.2 510.8,108.8 508.9,111.7 508.9,113.8 508.6,114.5 506.6,113.3 506,111.1 506.7,110.4 507,109.4 506.7,109.1 &#xA;				504.4,109.5 504,109.4 504.7,104.7 504.4,102.9 502,101.7 500,101.2 500.1,100.6 500.4,100.1 499.7,99.4 497.8,98.8 494.7,98.2 &#xA;				493.8,98.2 493.3,98.8 492.7,98.2 490.9,98.2 488.3,96 486.8,96 474.5,93.5 473.6,93.1 473,90.9 472.1,90.2 470.2,89.9 			" />
		</g>
	</g>
	<g id="region22.MA">
		<polygon id="Area22" class="st1" points="706.3,126.2 716.4,124 732.4,120.4 732.5,119.8 733,119.3 733.4,119.8 733.7,119.3 &#xA;			733.4,118.2 734.7,117.7 735.9,115.8 736.9,115.5 737.8,116 738.4,118.2 740.3,119.6 740.7,120.5 740.4,121.1 739.6,121.7 &#xA;			738.7,123.3 738.1,125.3 738.2,126.4 740.1,126.4 741.9,127.4 744.8,130.3 745.9,132.2 747.2,133.8 750.5,134 752.5,133.1 &#xA;			753.6,130.9 753,130.5 751.7,129.2 750,128.4 750.1,127.5 751.4,127.5 752,127.5 754.2,130.8 755.5,134 755.4,135.6 754.1,134.6 &#xA;			752.5,135.7 750.1,136.8 747.8,138.8 747,138.8 746.6,138.5 746.6,137.7 746.1,136 745.7,136 744.4,138.4 742.6,140.4 742.2,141 &#xA;			741.2,139.9 741,139.3 740.4,139.1 740.1,138.7 739.1,138.1 739.1,137.5 736.6,136.9 735.9,135 735,134.7 734.4,133 729.1,134.3 &#xA;			716.5,137.5 716.4,138.2 716.1,138.4 715.2,137.5 706.7,139.6 706.1,139.1 		" />
	</g>
	<g id="region21.RI">
		<polygon id="Area21" class="st1" points="729.1,134.3 732.2,144.7 731.8,145.7 731.5,146.3 731.6,146.7 731.8,147.2 732.5,147.3 &#xA;			735.2,145.6 736.8,144.1 736.8,142.9 736.3,142.2 736.3,140.4 737.5,139.3 737.9,139.7 737.9,140.7 737.9,142.9 738.4,143.7 &#xA;			739.3,143.5 739.3,142.2 739.8,142.2 740.7,141.3 742,141.2 742.2,141 741.2,139.9 741,139.3 740.4,139.1 740.1,138.7 &#xA;			739.1,138.1 739.1,137.5 736.6,136.9 735.9,135 735,134.7 734.4,133 		" />
	</g>
	<g id="region20.CT">
		<polygon id="Area20" class="st1" points="706.7,139.6 715.2,137.5 716.1,138.4 716.4,138.2 716.5,137.5 729.1,134.3 732.2,144.7 &#xA;			731.8,145.7 731.5,146.3 731.6,146.7 731.8,147.2 730.2,147.5 725.9,149.2 724.7,149.1 724.3,149.5 724.3,150.3 723.9,150.4 &#xA;			721.4,150.8 717.9,152.5 717.4,151.9 715.4,154.2 710.5,158.3 708.6,159.4 707.2,157.9 709.3,155.5 709.5,154.5 708.5,153.3 		" />
	</g>
	<g id="region19.WV">
		<polygon id="Area19" class="st1" points="615.1,185.6 614.6,185.4 613.6,186.3 614.3,188.2 612.3,190 615.1,191.3 614.1,198.1 &#xA;			613.5,199.7 613.5,201.3 613.8,202.2 613.9,204.4 612.3,205.8 611.6,206.1 608.8,209.3 608.8,210.1 607,210.5 605.8,210.2 &#xA;			604.7,211.5 604.5,212.3 603.2,213.5 601.7,216.7 602.3,219 600.6,220.9 599.4,218.7 598.2,218.7 596.8,223.1 597,225.3 &#xA;			596.8,227.2 595.7,228.1 594.3,230.6 592.4,230.8 592.8,233.1 592.8,234.9 592.7,236 592.9,237.2 596,241 597.9,243.9 &#xA;			598.4,244.2 599.1,244.1 600.6,244.8 601,245.4 601.4,245.4 602.5,246.1 603.5,246.1 604.1,246.6 603.5,248.1 605.8,250.2 &#xA;			609.1,251.4 610.5,251.6 612.3,250.1 612.4,249.1 613.6,248.5 614.8,249.5 615.5,250 616.7,249.7 620.4,248.2 620.9,245.9 &#xA;			621.4,245.9 622.3,246.6 625.2,243.9 626.2,244.5 628.7,241.3 628.1,240 628.3,237.8 630.8,233.1 634,220.9 634.6,220.8 &#xA;			636.3,222 636.6,222.7 637.5,223.7 639.4,223.3 640.7,221.1 641.9,216.5 642.9,214.8 644.7,215.5 645.9,212.9 647,212.4 &#xA;			648.1,211 648.9,208.5 649.7,207.9 649.8,207.3 649.2,206.7 649.5,203 649.8,202.5 650.4,202 657.2,206.3 658.2,206.6 &#xA;			658.5,206.3 659.2,202.6 659.2,202.6 657.6,199.2 656.9,199.1 656.3,197.5 655.1,197.9 653.9,197.9 652.9,197.3 648.2,198.9 &#xA;			647.8,200.3 645.9,200.8 644.1,200.4 643.4,199.5 642.5,201.4 641.5,201.9 640.4,203.6 639.1,203.9 636.2,207.3 635.3,207.7 &#xA;			634.6,209.1 632.4,199.4 617.9,202.2 		" />
	</g>
	<g id="region18.OH">
		<polygon id="Area18" class="st0" points="552.8,173.3 558.3,222 559.5,222 561,222.7 561.9,222.7 563.5,221.8 566.4,224 &#xA;			567.4,226.6 569.6,227.5 572.7,227.2 575.8,229.4 577,227.8 578,227.7 580.6,228.7 582.8,228.4 583.1,228 584.1,227.4 &#xA;			584.6,226.6 586.3,225.3 587.1,226.5 588.5,228.6 590.2,229 591.8,230.2 592.4,230.8 594.3,230.6 595.7,228.1 596.8,227.2 &#xA;			597,225.3 596.8,223.1 598.2,218.7 599.4,218.7 600.6,220.9 602.3,219 601.7,216.7 603.2,213.5 604.5,212.3 604.7,211.5 &#xA;			605.8,210.2 607,210.5 608.8,210.1 608.8,209.3 611.6,206.1 612.3,205.8 613.9,204.4 613.8,202.2 613.5,201.3 613.5,199.7 &#xA;			614.1,198.1 615.1,191.3 612.3,190 614.3,188.2 613.6,186.3 614.6,185.4 615.1,185.6 610.7,161 603.6,164.5 600.6,166.4 &#xA;			599.4,167.4 595.3,171.8 594.1,172.5 592.9,172.4 590.6,172.4 589.3,172.7 585.9,175.6 584.6,175.3 581.9,174.5 581.2,174.9 &#xA;			580.2,174.6 580.9,173.4 580.3,173.3 578.3,173 573.9,171.5 573,171.2 571,171.7 571,170.9 		" />
	</g>
	<g id="region17.IN">
		<polygon id="Area17" class="st0" points="515.1,177.2 518.8,221.7 518.2,222.4 518.5,224 517.9,226.4 519.6,229.7 520.2,233.8 &#xA;			518.2,237.5 518,238.7 516.7,241.6 514.4,243.8 514.4,246.6 513.6,250.1 513.6,250.8 513.8,251.6 513.8,251.6 514.9,251.7 &#xA;			516.1,251.3 516,250.7 516.4,249.4 519.2,249.5 522.7,248.2 527.1,250.2 527.6,250.7 528.4,250.4 529.3,247.5 531.8,246.6 &#xA;			532.8,247.9 534.3,248.9 535.5,247.9 536.6,244.1 537.5,242.9 538.6,243.1 540.2,245 543.8,244.8 544.9,241.5 550.7,233.8 &#xA;			550.7,231 551.9,230.2 554.4,230.8 556.4,229.1 558.1,228.7 558.6,227.5 557.8,224.3 557.8,223.3 558.3,222 552.8,173.3 &#xA;			552.6,172.4 523.9,176.1 523,176.8 520.8,177.7 519.6,178.3 517,178.7 		" />
	</g>
	<g id="region16.IL">
		<polygon id="Area16" class="st0" points="509.7,163 471,165.7 471.6,166.7 474.3,168.6 474.6,170.3 477.4,172 478.3,175.2 &#xA;			478.2,176.8 477.3,178.7 476.2,179.7 476.2,181.3 473.8,184 471.6,184.7 470.8,185.4 468,185.6 466.6,186.5 465.7,188.4 &#xA;			465.8,190 467.6,191.8 468,192.9 467.6,195.7 465.5,200.3 463.3,201.7 462.6,203.2 462.8,204.7 461.7,206.3 461.7,207 461,209.1 &#xA;			461.3,212.6 462.3,215.7 462.6,217 466.9,222 471.1,225.3 472.3,226.5 474.8,233.2 475.5,233.8 476.8,232.5 478,231.9 &#xA;			481.5,233.7 482.1,234.9 481.4,237.2 481.7,239.8 479,242.9 478.6,244.1 479.5,246.3 482,248.6 486.1,251.3 488.1,252 &#xA;			492.4,255.7 493.1,258.9 494.4,260.5 494.4,261.2 493.3,262.4 493.3,263.2 496.2,268.3 496.8,268 496.9,267.3 497.9,267.3 &#xA;			498.2,267.7 499.1,264.3 500.9,263.4 503.4,263.9 505.3,264.8 507,266.1 509.1,265.2 508.2,261.4 507.9,259.5 509.2,258.8 &#xA;			513.8,257.4 514.1,257.1 512.6,255.2 512.6,254.6 513.2,254.2 513.5,252.7 514.1,251.9 513.8,251.6 513.6,250.8 513.6,250.1 &#xA;			514.4,246.6 514.4,243.8 516.7,241.6 518,238.7 518.2,237.5 520.2,233.8 519.6,229.7 517.9,226.4 518.5,224 518.2,222.4 &#xA;			518.8,221.7 515.1,177.2 514.4,176.8 513.8,175.6 512.9,171.5 512.3,170.3 511,169.2 509.7,166.4 		" />
	</g>
	<g id="region15.NC">
		<polygon id="Area15" class="st0" points="570.7,299.2 571.1,294.8 572.4,294.8 573,294.7 574.2,293.5 574.3,292.3 574.2,291.6 &#xA;			574.8,290.6 575.8,289.1 578.9,287.8 582.4,286.9 585.9,283.8 587.4,283.2 589.4,281.2 590,279.4 590.3,279.3 591.2,279.4 &#xA;			591.8,278.5 592.1,278.1 593.2,276.9 593.7,277.1 594.7,277.7 595.9,277.1 596,276.5 597.9,275 599.2,274.4 601.6,274.3 &#xA;			604.1,270 606.1,268.9 606.3,267.7 606.6,266.5 606.4,265.1 606.7,263.9 606.7,263.4 610.8,262.7 610.5,263.4 614.6,263 &#xA;			616.3,262.6 617,262.9 656.3,256.4 693.7,249.2 694.2,250 694.5,250.5 695.6,251.1 696.3,251.4 696.9,252.3 697.5,252.9 &#xA;			698.2,254.6 697.9,255.2 698.1,255.4 697.5,255.4 697.3,254.8 696.2,255.1 695.4,255.1 694.7,254.8 694.1,254.9 694.5,255.7 &#xA;			694.4,256.1 690.9,257.7 690.1,258.5 688.8,259.8 686.6,260.1 686.2,261.5 686.2,262 686.6,262.1 687.4,262 689.7,260.8 &#xA;			692.1,260.2 693.4,259.3 695.6,259.5 695.9,259.8 695.6,261.1 695.9,261.7 696.4,262.1 697.3,261.8 697.6,261.1 698.9,259.5 &#xA;			700.1,259.5 700.8,261.2 701.1,264.2 701.4,265.1 701.4,265.6 699.5,267.1 699.1,268.3 698.8,269 697.3,270.2 696.3,270.6 &#xA;			695.1,271.4 692.6,271.2 691.8,270.9 691.5,271.2 691.2,271.2 690.7,270 690.7,269.5 690.3,269 689.7,268.9 689.3,269.3 &#xA;			689.7,271.5 689.3,272.2 689,271.9 689.7,273 690.7,273.1 691.8,274.3 691,275.6 691.5,276.3 688.7,279.9 687.8,280 686.2,279.4 &#xA;			685,279.4 684.9,280 685.9,280.7 689,280.6 690.9,280 693.7,278.7 694,277.7 694.7,278 695.7,278.8 694.7,281.2 692.5,283.7 &#xA;			689.9,284.1 688.8,284.7 685.7,285.1 683.3,289.4 682.1,289.5 682.1,290.1 682.2,290.3 679.3,292.2 677.7,294.2 676.1,297.9 &#xA;			675.2,302.3 674.5,303.5 673,304.1 666.8,305.2 666.2,305.8 646.2,291.9 629.2,294.1 628.7,291.7 625.8,289.4 624.3,290.1 &#xA;			623.7,289.4 624,288.8 623.9,288.2 604.1,290.6 603.5,290.6 603.1,291.2 599.1,292.9 599,293.8 597.6,293.8 593.2,296 		" />
	</g>
	<g id="region14.TN">
		<polygon id="Area14" class="st0" points="606.7,263.9 581.9,267 580.6,267.8 519.1,273.6 518,272.8 515.5,273.1 516.1,274.1 &#xA;			516.1,275.9 494.4,277.7 493.3,280.3 492.5,283.5 492.8,284.6 492.1,287.3 491.5,288.2 491.8,289.1 491.2,290.7 489.3,292.8 &#xA;			488.6,296.6 486.7,299.1 486.9,301.7 486.8,304.9 486.2,305.2 484.6,306.7 516.1,304.5 555.4,301 570.7,299.2 571.1,294.8 &#xA;			572.4,294.8 573,294.7 574.2,293.5 574.3,292.3 574.2,291.6 574.8,290.6 575.8,289.1 578.9,287.8 582.4,286.9 585.9,283.8 &#xA;			587.4,283.2 589.4,281.2 590,279.4 590.3,279.3 591.2,279.4 591.8,278.5 592.1,278.1 593.2,276.9 593.7,277.1 594.7,277.7 &#xA;			595.9,277.1 596,276.5 597.9,275 599.2,274.4 601.6,274.3 604.1,270 606.1,268.9 606.3,267.7 606.6,266.5 606.4,265.1 		" />
	</g>
	<g id="region13.SC">
		<polygon id="Area13" class="st1" points="635.8,345.7 635,345.7 632.8,345.5 632.2,345.1 631.6,344.2 630.8,340.4 628.9,337.8 &#xA;			626.5,336.9 625.3,332.9 623.9,331.2 623.1,329.1 621.8,328.5 619.2,327.5 617.6,325.5 615.8,324.3 615.7,323.3 614.8,321.4 &#xA;			614.2,320.8 611.7,319.9 606.9,315.3 604.7,314.6 604.1,313.1 602,311.4 600.6,308.5 599.1,307 598.5,305.8 595.4,305.2 &#xA;			591.3,303.2 590,302 591.5,298.9 592.5,298 593.2,297 593.4,296.3 593.2,296 597.6,293.8 599,293.8 599.1,292.9 603.1,291.2 &#xA;			603.5,290.6 604.1,290.6 623.9,288.2 624,288.8 623.7,289.4 624.3,290.1 625.8,289.4 628.7,291.7 629.2,294.1 646.2,291.9 &#xA;			666.2,305.8 665.5,306.3 663.9,307.3 662.6,309.2 660.7,311.5 659.4,314.5 658.6,316.5 658.6,318.6 658.6,320.3 658,320.9 &#xA;			657.6,321.8 656.3,321.9 655.5,322.8 654.5,324 653.5,325.6 652.8,326.9 650.3,328.7 648.8,330.9 647.5,332.1 645.7,333.4 &#xA;			644.5,334.5 643.7,335.3 642.2,336 641.3,336.3 640.9,336.9 641,337.5 640.7,337.8 640,339.2 638.8,340.4 637.7,340.4 &#xA;			637.4,340.7 637.2,341 637.5,341.4 638.1,341.6 638.4,341.9 638.2,342.6 637.5,343.1 636.2,344.4 635.8,345.4 		" />
	</g>
	<g id="region12.AL">
		<polygon id="Area12" class="st0" points="516.1,304.5 517.6,306.1 516.4,361.2 516.7,363.9 520.1,391.7 520.8,391.1 521.7,390.6 &#xA;			524.2,391.4 524.8,390.3 525.2,386.3 526.2,383.5 527.9,386.3 527.7,387.3 528.4,389.5 530.2,392 531.8,392.2 533.1,392 535,390 &#xA;			535.5,389.8 536.4,389.1 536.4,388.6 536.1,388.2 535.2,387.8 535.2,387.3 535.9,385.6 535.6,385 534.4,384 534,384 533.1,383.2 &#xA;			532,381.5 531.8,380.1 532.2,379.7 532.1,379.3 532.1,378.5 573.4,374.4 573.2,373.3 571.2,370.3 571.5,365.5 569.6,361.4 &#xA;			569.5,358 570.4,355.8 570.4,353.3 571.8,351.3 572,350.7 570.7,349.1 571.2,347.5 570.2,346.3 568.9,345.4 568.3,344.2 &#xA;			567.4,341.4 566.4,340.4 555.4,301 		" />
	</g>
	<g id="region11.MS">
		<polygon id="Area11" class="st0" points="516.1,304.5 484.6,306.7 484.5,307.7 481.5,310.4 480.5,313.1 480.8,316.2 480.3,317.8 &#xA;			477.6,319.6 475.7,322.2 474.9,323.1 474.9,325.6 473.6,327.2 473.6,329.1 472.7,331.6 471.1,334.1 471.8,336.9 473.2,338.5 &#xA;			473.3,340.4 473.9,341 473.9,341.7 473,342.3 472.7,343.9 472.7,345 472.7,346.6 474.6,350.4 474.9,353.9 476,355.8 476.8,356.8 &#xA;			477,358.6 474.9,359.8 474.5,360.4 473.5,364.3 470.5,368.9 468,376.8 467.7,382.6 497.1,381.3 497.8,382.2 496.9,385.1 &#xA;			496.9,389.2 500.1,392.3 500.9,395.8 502.9,396 506,393.3 513.2,391.1 514.9,391.7 517.4,390.8 517.9,391.6 519.5,392 &#xA;			520.1,391.7 516.7,363.9 516.4,361.2 517.6,306.1 		" />
	</g>
	<g id="region10.AR">
		<polygon id="Area10" class="st0" points="417.9,281.2 484.5,278.3 484.2,279 485.6,280 486.2,281.6 485.9,283.1 483.9,284.7 &#xA;			482.1,286.8 482,288.1 492.1,287.3 491.5,288.2 491.8,289.1 491.2,290.7 489.3,292.8 488.6,296.6 486.7,299.1 486.9,301.7 &#xA;			486.8,304.9 486.2,305.2 484.6,306.7 484.5,307.7 481.5,310.4 480.5,313.1 480.8,316.2 480.3,317.8 477.6,319.6 475.7,322.2 &#xA;			474.9,323.1 474.9,325.6 473.6,327.2 473.6,329.1 472.7,331.6 471.1,334.1 471.8,336.9 473.2,338.5 473.3,340.4 473.9,341 &#xA;			473.9,341.7 473,342.3 472.7,343.9 472.7,345 427.6,346.3 427.6,336.3 425.2,335.7 423.2,336.6 422.4,336.5 420.1,334.7 &#xA;			420.5,301.7 		" />
	</g>
	<g id="region9.LA">
		<polygon id="Area9" class="st0" points="427.6,346.3 472.7,345 472.7,346.6 474.6,350.4 474.9,353.9 476,355.8 476.8,356.8 &#xA;			477,358.6 474.9,359.8 474.5,360.4 473.5,364.3 470.5,368.9 468,376.8 467.7,382.6 497.1,381.3 497.8,382.2 496.9,385.1 &#xA;			496.9,389.2 500.1,392.3 500.9,395.8 496.6,394.9 492.8,393.2 491.8,393 490.8,393.6 488,396.1 487.8,397.4 489,398.9 &#xA;			490.5,399.3 493.7,399.1 495.5,397.9 496.6,397.3 498.5,397.3 499.4,397.1 499.6,397.9 499.1,398.6 497.9,399.6 498.2,400.8 &#xA;			499.4,401.4 500.3,401.7 501,401 502.3,398.6 505.6,397.3 506.7,396.7 507.5,396.7 508.2,397.7 507.8,399.1 508.2,399.8 &#xA;			508.1,400.8 506.6,401.8 504.2,404.9 501.8,406.7 501.6,408.4 502.5,409.8 505.7,411.7 511.3,413.9 512,414.9 511.4,416.2 &#xA;			510.3,416.5 506,418.4 505.6,414.9 503.1,413.7 498.2,411.8 497.7,410.2 496.8,409.6 495.5,410.3 494.7,413.7 495.2,414.2 &#xA;			495.3,414.9 492.8,416.6 491.8,416.4 490.5,414.4 489.7,414.3 488.1,414.9 487.4,414.2 486.7,414.3 484.5,416.6 482,416.8 &#xA;			481.1,416.2 478.4,415.6 474.5,410.8 472.3,410.3 470.1,409.3 469.2,407.9 468.6,407.9 468.5,407.6 468.2,407.3 468.5,406.4 &#xA;			467.4,406.1 466.9,406.4 465.1,406.1 464.7,405.8 464.4,404.6 463.3,404.6 460.3,407.4 461.7,409 461.1,409.6 456.3,409.8 &#xA;			447.9,408.3 443.1,406.4 432.1,408 431.4,407.3 431.1,406.1 431.5,405.5 432,404.3 433.1,403.2 434.6,399.1 433.4,397.3 &#xA;			433.4,396 433.7,395.1 433.6,393.9 434,391.6 435.2,390.7 435.9,388.9 436.5,385.6 436.5,383.5 435.9,380.6 434.8,378.5 &#xA;			434.2,377.9 434.5,376.9 433.9,376.2 433,374.4 432,373.5 431.7,373 432.3,370.9 430.9,368.3 428.7,366.2 428,365 		" />
	</g>
	<g id="region8.MO">
		<polygon id="Area8" class="st0" points="417.9,281.2 484.5,278.3 484.2,279 485.6,280 486.2,281.6 485.9,283.1 483.9,284.7 &#xA;			482.1,286.8 482,288.1 492.1,287.3 492.8,284.6 492.5,283.5 493.3,280.3 494.4,277.7 495.3,276.3 497.2,275.5 497.9,275.9 &#xA;			498.8,275.3 500.3,270.6 499.7,268.9 499,268.3 498.5,268 498.2,267.7 497.9,267.3 496.9,267.3 496.8,268 496.2,268.3 &#xA;			493.3,263.2 493.3,262.4 494.4,261.2 494.4,260.5 493.1,258.9 492.4,255.7 488.1,252 486.1,251.3 482,248.6 479.5,246.3 &#xA;			478.6,244.1 479,242.9 481.7,239.8 481.4,237.2 482.1,234.9 481.5,233.7 478,231.9 476.8,232.5 475.5,233.8 474.8,233.2 &#xA;			472.3,226.5 471.1,225.3 466.9,222 462.6,217 462.3,215.7 461.3,212.6 461,209.1 461.7,207 461.7,206.3 457.5,202 400.7,203.8 &#xA;			401.8,205.4 403.2,206.9 403.7,209.3 405.7,211.8 406.6,212.4 406.2,214.3 406.5,214.9 412.6,219.6 410.7,222 410.3,224.3 &#xA;			411.3,225.5 412.9,226.2 413.8,229.4 415.3,230.5 416.7,230.8 417.3,231.2 417.7,271.8 		" />
	</g>
	<g id="region7.IA">
		<polygon id="Area7" class="st0" points="391.2,149.4 461.6,147 462.3,149.4 463.9,150.8 463.9,152 462.8,153.8 463.5,156.1 &#xA;			464.8,161.3 469.1,162.7 470.4,163.9 471,165.7 471.6,166.7 474.3,168.6 474.6,170.3 477.4,172 478.3,175.2 478.2,176.8 &#xA;			477.3,178.7 476.2,179.7 476.2,181.3 473.8,184 471.6,184.7 470.8,185.4 468,185.6 466.6,186.5 465.7,188.4 465.8,190 &#xA;			467.6,191.8 468,192.9 467.6,195.7 465.5,200.3 463.3,201.7 462.6,203.2 462.8,204.7 461.7,206.3 457.5,202 400.7,203.8 &#xA;			400.2,202.9 399.7,200.8 400.2,199.4 399.1,197.9 398.7,196.4 399.7,195 399.1,193.5 397.2,192.5 397.7,189.6 398.3,187.9 &#xA;			397.7,186.5 395.8,185 395.2,183.4 395.8,181.9 394.1,180.5 393.3,177.4 391.8,176.1 392.7,173.4 392.7,172.1 390.6,170.9 &#xA;			390.6,169 390.6,168.6 390.3,166.7 388.9,163.2 390.3,159.8 390,158.2 391.1,157.3 390.5,154.5 389.5,153.5 390.2,151.6 &#xA;			389.6,150.6 389.2,149.4 390.3,149.2 		" />
	</g>
	<g id="region6.MN">
		<polygon id="Area6" class="st0" points="391.2,149.4 391.1,115.2 386.4,110.7 386.2,109.1 388.6,106.6 389.5,104.7 389.3,103.1 &#xA;			389.2,100.3 389.5,97.8 387.3,91.2 387.1,89.7 387.1,86.3 386.5,84.4 386.2,75.1 385.2,69.6 383.6,67.9 382.4,61.9 382.3,56.6 &#xA;			382.7,53.5 383.1,52.2 381.8,47.8 381.7,46.3 407,46.2 407.2,41.9 407.5,39.4 409.4,39.4 412,40.5 412.3,44.6 413.1,47.3 &#xA;			412.9,49.8 415.7,51.9 416.7,51.6 418.6,51.9 419.5,52.9 421.7,52.6 424.1,53.1 424.6,53.9 424.6,54.7 428.3,54.5 429.5,53.1 &#xA;			434.9,52.8 438.4,53.8 439.3,53.8 438.7,54.8 439.9,55.8 440.5,55.6 441.1,56.1 441.6,58.6 443,59.4 444.4,57.6 445.2,57.2 &#xA;			446.6,57.6 447.5,59.4 450.4,60.1 451.3,61.3 452.6,62.3 454.5,62.3 456.5,61.9 461.3,58.5 462,58.9 463.3,60.5 470.7,60.4 &#xA;			471.8,60.7 472.7,61.3 474.6,62.6 476.2,61.9 479.5,61.7 477.6,63.5 473.3,66 471,66.6 469.2,67.3 467.3,69.2 463.5,70.8 &#xA;			461.9,72.1 455.7,78.9 446.9,86.9 445.9,88.2 445,89.1 445.3,99.2 444.3,100.4 443.1,101 439.3,104.1 439.2,105.7 438.7,106.1 &#xA;			437.7,108.9 439.7,109.9 441.1,112.3 439.9,114.5 440,116.4 439.7,119.5 439.7,124.5 440.5,125.5 441.9,126.5 442.2,127.4 &#xA;			445.8,128 446.3,128.4 446.5,129.3 447.4,129.9 451.5,131.6 452.8,134.6 456.5,137.4 460.7,140.3 461.3,141.3 461.1,143.7 &#xA;			461.6,147 		" />
	</g>
	<g id="region5.WI">
		<polygon id="Area5" class="st0" points="471,165.7 470.4,163.9 469.1,162.7 464.8,161.3 463.5,156.1 462.8,153.8 463.9,152 &#xA;			463.9,150.8 462.3,149.4 461.6,147 461.1,143.7 461.3,141.3 460.7,140.3 456.5,137.4 452.8,134.6 451.5,131.6 447.4,129.9 &#xA;			446.5,129.3 446.3,128.4 445.8,128 442.2,127.4 441.9,126.5 440.5,125.5 439.7,124.5 439.7,119.5 440,116.4 439.9,114.5 &#xA;			441.1,112.3 439.7,109.9 437.7,108.9 438.7,106.1 439.2,105.7 439.3,104.1 443.1,101 444.3,100.4 445.3,99.2 445,89.1 445.9,88.2 &#xA;			446.9,86.9 448.2,87.7 450,88 452.2,87.8 455.7,85.8 462.3,82.4 463.5,82.2 463.9,83 463.9,84.4 463.3,85.3 463.3,86.2 &#xA;			462.6,88.8 465.1,87.7 466.4,87.7 468,89.1 469.5,88.8 470.2,89.9 472.1,90.2 473,90.9 473.6,93.1 474.5,93.5 486.8,96 488.3,96 &#xA;			490.9,98.2 492.7,98.2 493.3,98.8 493.8,98.2 494.7,98.2 497.8,98.8 499.7,99.4 500.4,100.1 500.1,100.6 500,101.2 502,101.7 &#xA;			504.4,102.9 504.7,104.7 504,109.4 504.4,109.5 506.7,109.1 507,109.4 506.7,110.4 506,111.1 506.6,113.3 508.6,114.5 &#xA;			508.4,114.8 505.6,117.6 503.8,121.1 503.2,123.6 502.9,124.8 503.5,125.2 505.6,124.2 507.8,120.1 510.1,118.2 511.3,117.6 &#xA;			511.6,116.5 512.6,115.7 513.2,114.5 513,113.2 513.2,112.1 513.8,111.7 514.4,110.5 514.9,109.9 515.7,109.8 516.1,110.5 &#xA;			515.8,112.9 513.9,117.6 513,118.7 512.6,120.5 512.6,121.5 510.8,125.3 510.8,128.7 510.7,131.1 508.9,132.8 508.5,134 &#xA;			509.1,136.6 509.2,141.2 508.5,142.2 507,146.9 507.9,153.8 509.8,158.5 509.4,159.2 509.7,160.2 509.5,161 509.7,163 		" />
	</g>
	<g id="region4.NJ">
		<polygon id="Area4" class="st1" points="689,186.8 688.1,190.1 688.1,190.7 688.7,190.4 689.6,192 690.7,193.5 691.8,194.7 &#xA;			695.1,196.4 696.2,196.7 698.5,197.2 699.4,197.3 699.5,199.5 699.4,201 700.3,201.7 701.1,200.7 702.2,198.5 702.3,196.4 &#xA;			703.8,193.8 704.7,191.6 706.7,188.7 707.6,186.5 708.5,184.4 708.5,183 708,176.8 707.4,171.8 706.4,170.3 704.4,170.9 &#xA;			703.6,171.5 702.9,171.2 702.6,170.9 702,171.2 701.7,171.1 701.7,170.2 702.8,167.9 703.3,167.4 704.2,167.3 704.1,165.2 &#xA;			704.4,164 705,163.3 705.8,162.4 705,160.4 692.8,156.1 692.1,156.4 691,158 691,158.9 690.6,161.7 688.8,163.3 688.5,163.9 &#xA;			688.5,164.5 689.7,165.7 689.9,167.6 689,168.2 689.1,171.5 689.4,171.8 691.2,172.1 691.9,174.3 693.4,174.7 693.8,175.3 &#xA;			695,175.8 695.7,176.7 697.8,178.1 697.6,178.6 695.4,179.9 693.1,182.2 692.6,184.3 		" />
	</g>
	<g id="region3.VT">
		<polygon id="Area3" class="st0" points="694.4,85.3 695.4,87.1 695,88 695.7,88.8 695.9,89.4 697.9,94.8 698.6,98.8 697.8,100.7 &#xA;			697.9,102.8 700.3,108 700,110.5 700.4,111.3 700.8,111.1 700.6,110.5 701.4,110.5 702.9,112.9 703.8,117.4 703.8,120.1 &#xA;			704.8,123.1 706.3,126.2 716.4,124 716.1,123 714.9,121.8 715.1,119.9 715.5,119.3 714.9,117.6 714.2,109.9 714.2,107.6 &#xA;			715.1,103.1 715.9,100.1 716.1,98.1 715.2,96.5 715.2,94.7 715.8,93.7 718.7,91.2 720.3,87.1 718.7,84.7 718.4,83.6 719,83 &#xA;			719,82.1 718.3,79.3 694.4,85.3 		" />
	</g>
	<g id="region2.NH">
		<polygon id="Area2" class="st1" points="737.8,116 736.9,115.5 735.9,115.8 734.7,117.7 733.4,118.2 733.7,119.3 733.4,119.8 &#xA;			733,119.3 732.5,119.8 732.4,120.4 716.4,124 716.1,123 714.9,121.8 715.1,119.9 715.5,119.3 714.9,117.6 714.2,109.9 &#xA;			714.2,107.6 715.1,103.1 715.9,100.1 716.1,98.1 715.2,96.5 715.2,94.7 715.8,93.7 718.7,91.2 720.3,87.1 718.7,84.7 718.4,83.6 &#xA;			719,83 719,82.1 718.3,79.3 718.9,75.8 718,74.6 718.3,74.2 719.3,74.2 719.8,73 720.6,73.3 721.7,73.1 722.4,72.4 733,104.1 &#xA;			733.1,104.7 733,106 733.1,106.6 735.7,108.6 736.3,108.8 736.6,109.8 736.6,110.5 738.1,113 737.8,113.5 737.8,114.8 		" />
	</g>
	<g id="region1.DE">
		<polygon id="Area1" class="st1" points="700.4,210.5 700.1,208.8 699.1,206.1 697.3,204.4 694.7,202.6 693.8,201.4 693.2,200.3 &#xA;			691.2,196.7 690.3,195.3 688.7,193.4 688.1,192 687.9,190.9 688.1,190.7 688.1,190.1 689,186.8 687.8,186.5 686.2,186.6 &#xA;			684.9,187.9 684.7,189.1 684.3,189.4 684.1,189.6 691,212.6 		" />
	</g>
	<g id="region0.DC">
		<polygon id="Area0" class="st2" points="667.8,209 670.4,207 672.9,210.6 669.8,212.8 		" />
	</g>
</g>
</svg>