<?xml version="1.0" encoding="utf-8"?>
<!-- Generator: Adobe Illustrator 19.1.0, SVG Export Plug-In . SVG Version: 6.00 Build 0)  -->
<svg version="1.1" id="Layer_1" xmlns="http://www.w3.org/2000/svg" xmlns:xlink="http://www.w3.org/1999/xlink" x="0px" y="0px"
	 viewBox="0 0 350 240" style="enable-background:new 0 0 350 240;" xml:space="preserve">
<style type="text/css">
	.st0{fill:url(#SVGID_1_);}
	.st1{fill-rule:evenodd;clip-rule:evenodd;fill:url(#SVGID_2_);}
	.st2{fill-rule:evenodd;clip-rule:evenodd;fill:url(#SVGID_3_);}
	.st3{fill-rule:evenodd;clip-rule:evenodd;fill:url(#SVGID_4_);}
	.st4{fill-rule:evenodd;clip-rule:evenodd;fill:url(#SVGID_5_);}
	.st5{fill-rule:evenodd;clip-rule:evenodd;fill:url(#SVGID_6_);}
	.st6{fill-rule:evenodd;clip-rule:evenodd;fill:url(#SVGID_7_);}
</style>
<linearGradient id="SVGID_1_" gradientUnits="userSpaceOnUse" x1="2.440442e-002" y1="162.5667" x2="162.8604" y2="162.5667">
	<stop  offset="0" style="stop-color:#ED1C24"/>
	<stop  offset="1" style="stop-color:#F7941E"/>
</linearGradient>
<polygon class="st0" points="112.5,180.8 162.9,144.3 100.7,144.3 81.4,85.1 62.2,144.3 0,144.3 50.3,180.8 31.1,240 81.4,203.4 
	131.8,240 "/>
<linearGradient id="SVGID_2_" gradientUnits="userSpaceOnUse" x1="126.0008" y1="67.2295" x2="345.2478" y2="67.2295" gradientTransform="matrix(0.9974 7.150000e-002 -7.150000e-002 0.9974 8.6605 -13.7229)">
	<stop  offset="0" style="stop-color:#F58320"/>
	<stop  offset="0.2263" style="stop-color:#F5A322"/>
	<stop  offset="0.472" style="stop-color:#F6C225"/>
	<stop  offset="0.6918" style="stop-color:#F8D827"/>
	<stop  offset="0.8753" style="stop-color:#F9E628"/>
	<stop  offset="1" style="stop-color:#F9ED28"/>
</linearGradient>
<path class="st1" d="M171,141.8c-0.9,0.4-1.3,1.9-2.7,1.2c-1.2-4.6-5-4.9-8.6-4.9c-11.8,0.1-23.6,0.5-35.4,0.8
	c-0.5-0.6,0-1.2,0.3-1.6c16.8-28,36.9-53.1,62.6-73.5c23.2-18.4,49.1-31.8,76.8-42c26.9-9.9,54.7-16.6,82.9-21.7
	c0.5-0.1,1-0.2,1.4-0.2c0.4,0,0.8,0.2,1.7,0.5c-2.2,0.9-3.9,1.7-5.7,2.3c-58.5,20.9-109.2,53.8-152.5,98.3c-0.6,0.6-1.1,1.2-1.6,1.8
	c-0.3,0.3-0.6,0.6-0.2,0.9c0,0,0.4-0.3,0.6-0.4c11.3-7.3,22.5-14.8,34.4-21.2c26.9-14.6,55-25.7,85.6-29.2
	c11.8-1.3,23.6-1.3,35.4-0.2c1.3,0.1,2.6,0.5,3.9,0.9C283,64.4,226.4,96.2,175,138.6l-0.1,0"/>
<linearGradient id="SVGID_3_" gradientUnits="userSpaceOnUse" x1="108.8887" y1="67.1893" x2="270.9116" y2="67.1893" gradientTransform="matrix(0.9974 7.150000e-002 -7.150000e-002 0.9974 8.6605 -13.7229)">
	<stop  offset="0" style="stop-color:#F58320"/>
	<stop  offset="0.2263" style="stop-color:#F5A322"/>
	<stop  offset="0.472" style="stop-color:#F6C225"/>
	<stop  offset="0.6918" style="stop-color:#F8D827"/>
	<stop  offset="0.8753" style="stop-color:#F9E628"/>
	<stop  offset="1" style="stop-color:#F9ED28"/>
</linearGradient>
<path class="st2" d="M279.2,1c-6,2.3-11.9,4.6-17.8,7c-39.1,15.4-74.6,36.4-104.7,66c-14.6,14.3-27.3,30-36.5,48.4
	c-1.6,3.3-3.2,6.6-4.1,10.1c-0.2,0.6-0.2,1.3-0.9,1.4c-1,0.1-1-0.8-1.2-1.4c-1.7-5.5-3.4-11-5.2-16.5c-0.5-1.5,0.2-2.5,0.9-3.6
	c13.9-22.6,31.6-41.9,52.1-58.6c33.6-27.3,72.1-44.3,114.2-53.2C277.1,0.3,278.2,0,279.2,1z"/>
<linearGradient id="SVGID_4_" gradientUnits="userSpaceOnUse" x1="88.4754" y1="60.8565" x2="174.0959" y2="60.8565" gradientTransform="matrix(0.9974 7.150000e-002 -7.150000e-002 0.9974 8.6605 -13.7229)">
	<stop  offset="0" style="stop-color:#F58320"/>
	<stop  offset="0.2263" style="stop-color:#F5A322"/>
	<stop  offset="0.472" style="stop-color:#F6C225"/>
	<stop  offset="0.6918" style="stop-color:#F8D827"/>
	<stop  offset="0.8753" style="stop-color:#F9E628"/>
	<stop  offset="1" style="stop-color:#F9ED28"/>
</linearGradient>
<path class="st3" d="M99.1,95.9c-3.2-5.1-0.8-12.9-8.6-15.1c4.4-7.9,10.3-14.5,16.8-20.6c14.5-13.4,31.2-23.5,48.8-32.3
	c7.2-3.6,14.5-6.9,21.9-9.9c0.9-0.4,1.7-1,2.9-0.6c-0.3,1.5-1.6,1.6-2.5,2.1c-25.1,15.5-48.2,33.6-67.4,56.2
	C106,81.8,101.7,88.2,99.1,95.9z"/>
<linearGradient id="SVGID_5_" gradientUnits="userSpaceOnUse" x1="135.6023" y1="158.2762" x2="241.6018" y2="158.2762" gradientTransform="matrix(0.9974 7.150000e-002 -7.150000e-002 0.9974 8.6605 -13.7229)">
	<stop  offset="0" style="stop-color:#F58320"/>
	<stop  offset="0.2263" style="stop-color:#F5A322"/>
	<stop  offset="0.472" style="stop-color:#F6C225"/>
	<stop  offset="0.6918" style="stop-color:#F8D827"/>
	<stop  offset="0.8753" style="stop-color:#F9E628"/>
	<stop  offset="1" style="stop-color:#F9ED28"/>
</linearGradient>
<path class="st4" d="M174.9,138.6L174.9,138.6c1.3,1.7,2-0.1,2.6-0.5c9.7-6.7,20-12.3,31.2-16.3c9.2-3.3,18.6-5.5,28.4-5.3
	c0.7,0,1.4,0,2.1,0.1c0.7,0.1,1.5,0.4,2.2,0.7c-0.3,1-1,0.8-1.6,0.9c-38,4.5-66.5,24-87.5,55.4c-5.4,8.1-10.4,16.5-15.7,25.5
	c-2.1-5.9-4-11.3-6-16.6c-0.5-1.3,0.6-1.6,1.2-2.1c10.3-9.6,20.6-19.2,31-28.7c2.7-2.4,5-4.9,5.5-8.7c1.4,0.7,1.8-0.9,2.7-1.2"/>
<linearGradient id="SVGID_6_" gradientUnits="userSpaceOnUse" x1="144.9409" y1="182.9155" x2="221.8675" y2="182.9155" gradientTransform="matrix(0.9974 7.150000e-002 -7.150000e-002 0.9974 8.6605 -13.7229)">
	<stop  offset="0" style="stop-color:#F58320"/>
	<stop  offset="0.2263" style="stop-color:#F5A322"/>
	<stop  offset="0.472" style="stop-color:#F6C225"/>
	<stop  offset="0.6918" style="stop-color:#F8D827"/>
	<stop  offset="0.8753" style="stop-color:#F9E628"/>
	<stop  offset="1" style="stop-color:#F9ED28"/>
</linearGradient>
<path class="st5" d="M219.2,152.7c-29.8,14.7-58.3,30.5-77.8,59c-1-2.8-1.9-5.3-2.9-7.7c-0.4-0.9,0.1-1.3,0.6-1.8
	c15-16,30.3-31.5,50.2-41.5c8.5-4.3,17.6-6.9,27-8.4C217.3,152.1,218.1,152.1,219.2,152.7z"/>
<linearGradient id="SVGID_7_" gradientUnits="userSpaceOnUse" x1="148.3313" y1="199.8714" x2="225.2577" y2="199.8714" gradientTransform="matrix(0.9974 7.150000e-002 -7.150000e-002 0.9974 8.6605 -13.7229)">
	<stop  offset="0" style="stop-color:#F58320"/>
	<stop  offset="0.2263" style="stop-color:#F5A322"/>
	<stop  offset="0.472" style="stop-color:#F6C225"/>
	<stop  offset="0.6918" style="stop-color:#F8D827"/>
	<stop  offset="0.8753" style="stop-color:#F9E628"/>
	<stop  offset="1" style="stop-color:#F9ED28"/>
</linearGradient>
<path class="st6" d="M221.3,169.8c-29.8,14.7-58.3,30.5-77.8,59c-1-2.8-1.9-5.3-2.9-7.7c-0.4-0.9,0.1-1.3,0.6-1.8
	c15-16,30.3-31.5,50.2-41.5c8.5-4.3,17.6-6.9,27-8.4C219.5,169.2,220.3,169.3,221.3,169.8z"/>
</svg>
