<svg xmlns="http://www.w3.org/2000/svg" viewBox="0 0 28 28">
    <path fill="#fff" d="M21.768 15.426c.036-.297.06-.605.06-.926 0-.32-.024-.63-.072-.926l2.064-1.568a.482.482 0 0 0 .122-.605l-1.954-3.29c-.123-.214-.38-.285-.599-.214l-2.43.95a7.209 7.209 0 0 0-1.65-.926l-.366-2.517A.484.484 0 0 0 16.454 5h-3.908a.471.471 0 0 0-.477.404l-.366 2.517a7.4 7.4 0 0 0-1.65.926l-2.43-.95a.49.49 0 0 0-.598.214l-1.955 3.29a.452.452 0 0 0 .122.605l2.065 1.568a5.805 5.805 0 0 0-.086.926c0 .309.025.63.074.926L5.18 16.994a.481.481 0 0 0-.122.605l1.954 3.29a.503.503 0 0 0 .599.213l2.43-.95c.514.38 1.051.69 1.65.927l.366 2.517a.493.493 0 0 0 .489.404h3.908c.245 0 .452-.166.477-.404l.366-2.517a7.401 7.401 0 0 0 1.65-.927l2.43.95a.49.49 0 0 0 .598-.213l1.955-3.29a.452.452 0 0 0-.122-.605l-2.04-1.568zM14.5 18.062c-2.015 0-3.664-1.603-3.664-3.562 0-1.96 1.649-3.563 3.664-3.563s3.664 1.604 3.664 3.563c0 1.96-1.649 3.563-3.664 3.563z"/>
</svg>
