<?xml version="1.0" encoding="UTF-8" standalone="no"?>
<svg xmlns:rdf="http://www.w3.org/1999/02/22-rdf-syntax-ns#" xmlns="http://www.w3.org/2000/svg" xml:space="preserve" version="1.1" xmlns:cc="http://creativecommons.org/ns#" xmlns:dc="http://purl.org/dc/elements/1.1/" viewBox="0 0 34.004 32.009"><metadata><rdf:RDF><cc:Work rdf:about=""><dc:format>image/svg+xml</dc:format><dc:type rdf:resource="http://purl.org/dc/dcmitype/StillImage"/><dc:title/></cc:Work></rdf:RDF></metadata><defs>
	</defs>
<path style="fill-rule:evenodd;fill:#ffffff;" clip-rule="evenodd" d="m11.144,20.005c1.042,0,2.046-0.159,2.989-0.454,0.691-0.216-0.478-0.701,1.877-2.548,0.57-0.446,2.466-0.517,3-0.999,0.749-0.678,0.233-0.044,0.75-0.918,0.881-1.49,1.387-3.228,1.387-5.084,0-5.524-4.479-10.002-10.003-10.002-5.523,0-10.002,4.479-10.002,10.002,0.001,5.524,4.479,10.003,10.002,10.003zm9.332,4.044c-0.52-0.366-3.712,0.04-4.465-0.045-0.427-0.048,0.01-1.83-1.566-2.054-1.043-0.15-2.15-0.23-3.3-0.23-6.155,0-11.145,2.303-11.145,5.145,0,2.841,4.989,5.144,11.145,5.144s11.146-2.303,11.146-5.144c-0.001-1.039-0.668-2.006-1.815-2.816zm11.459-6.23h-4.829v-4.843c0-1.146-0.926-2.076-2.069-2.076s-2.069,0.93-2.069,2.076v4.843h-4.829c-1.143,0-2.069,0.93-2.069,2.077,0,1.146,0.927,2.075,2.069,2.075h4.829v4.843c0,1.147,0.927,2.076,2.069,2.076,1.144,0,2.069-0.929,2.069-2.076v-4.843h4.829c1.144,0,2.069-0.93,2.069-2.075,0.001-1.146-0.925-2.077-2.069-2.077z"/>
</svg>
