<?xml version="1.0" encoding="UTF-8" standalone="no"?>
<svg xmlns:rdf="http://www.w3.org/1999/02/22-rdf-syntax-ns#" xmlns="http://www.w3.org/2000/svg" enable-background="new 0 0 48.203 48.203" xml:space="preserve" height="31.998" viewBox="0 0 32.822377 31.998" width="32.822" version="1.1" y="0px" x="0px" xmlns:cc="http://creativecommons.org/ns#" xmlns:dc="http://purl.org/dc/elements/1.1/"><metadata><rdf:RDF><cc:Work rdf:about=""><dc:format>image/svg+xml</dc:format><dc:type rdf:resource="http://purl.org/dc/dcmitype/StillImage"/><dc:title/></cc:Work></rdf:RDF></metadata>
<g clip-rule="evenodd" transform="translate(-8.851,-7.218)">
		<path style="fill-rule:evenodd;fill:#b9c5cf;" d="m19.048,27.54c0.177,0-1.188-3.103,1.902-4.804,3.173-1.747,5.354,2.28,6.66,0.961,1.859-1.877,2.237-3.222,2.237-6.48,0-5.521-4.446-9.999-9.932-9.999-5.484,0-9.931,4.478-9.931,9.999,0.002,5.523,3.58,10.323,9.064,10.323z"/>
		<path style="fill-rule:evenodd;fill:#b9c5cf;" d="m19.917,28.931c-6.111,0-11.066,2.302-11.066,5.143,0,2.839,4.955,5.142,11.066,5.142,6.112,0,8.646-1.076,8.646-2.071-0.788-0.083-7.806-8.214-8.646-8.214z"/>
		<path style="fill-rule:evenodd;fill:#f46732;" d="m41.138,21.279c-0.715-0.721-1.873-0.721-2.587,0l-8.938,9.025-5.083-5.133c-0.714-0.72-1.87-0.72-2.583,0-0.714,0.721-0.714,1.889,0,2.608l6.027,6.086c0.104,0.105,0.218,0.189,0.338,0.264,0.022,0.024,0.039,0.05,0.062,0.074,0.714,0.722,1.701,0.858,2.415,0.136l10.348-10.447c0.715-0.722,0.715-1.891,0.001-2.613z"/>
</g>
</svg>
