<?xml version="1.0" encoding="UTF-8" standalone="no"?>
<svg xmlns="http://www.w3.org/2000/svg" version="1.1" y="0px" x="0px" viewBox="0 0 65 65">
	<circle style="fill:#ffffff;" cy="200" transform="translate(-573,-167.5)" cx="605.5" r="32.5"/>
	<path style="fill:#266fb8;" d="m35.42,30.41c-1.896,0-3.427,1.537-3.427,3.437,0,1.895,1.531,3.436,3.427,3.436,1.89,0,3.427-1.538,3.427-3.436,0-1.91-1.54-3.44-3.43-3.44zm0,5.05c-0.893,0-1.612-0.725-1.612-1.617,0-0.893,0.72-1.618,1.612-1.618,0.89,0,1.612,0.725,1.612,1.618,0.01,0.9-0.72,1.62-1.61,1.62z"/>
	<path style="fill:#266fb8;" d="M43.85,24.18h-2.05l-2.715-2.741s-0.013-0.014-0.02-0.014l-0.014-0.013c-0.404-0.403-0.947-0.659-1.565-0.659h-4.502c-0.658,0-1.243,0.283-1.652,0.732v0.006l-2.654,2.688h-1.604v-1.184c0-0.492-0.398-0.89-0.889-0.89h-4.069c-0.49,0-0.888,0.398-0.888,0.89v1.184h-0.074c-1.25,0-2.057,0.779-2.057,2.029v13.981c0,1.25,0.807,2.063,2.057,2.063h22.694c1.243,0,2.057-0.813,2.057-2.063v-13.981c-0.01-1.26-0.82-2.04-2.06-2.04zm-16.58,4.5c0,0.371-0.301,0.671-0.671,0.671h-4.904c-0.371,0-0.672-0.301-0.672-0.671v-1.277c0-0.371,0.301-0.672,0.672-0.672h4.904c0.37,0,0.671,0.301,0.671,0.672v1.284zm8.15,11.39c-3.42,0-6.208-2.795-6.208-6.222,0-3.433,2.788-6.222,6.208-6.222,3.427,0,6.207,2.789,6.207,6.222,0,3.42-2.78,6.22-6.21,6.22z"/>
</svg>
