<?xml version="1.0" encoding="utf-8"?>
<svg version="1.1" id="Calque_1" xmlns="http://www.w3.org/2000/svg" xmlns:xlink="http://www.w3.org/1999/xlink" x="0px" y="0px"
	 width="48.203px" height="48.203px" viewBox="0 0 48.203 48.203" enable-background="new 0 0 48.203 48.203" xml:space="preserve">
<g>
	<g>
		<path fill-rule="evenodd" clip-rule="evenodd" fill="#ffffff" d="M45.006,8.861H3.198c-1.71,0-3.097,1.364-3.097,3.047v25.903
			c0,1.683,1.386,3.048,3.097,3.048h41.808c1.71,0,3.097-1.365,3.097-3.048V11.908C48.103,10.225,46.716,8.861,45.006,8.861z
			 M32.718,24.21l10.739,12.076L29.952,25.951l-5.851,3.681l-5.85-3.681L4.746,36.287l10.739-12.076L3.198,16.479l1.548-1.524
			l19.383,11.12l19.328-11.12l1.549,1.524L32.718,24.21z"/>
	</g>
</g>
</svg>
