<?xml version="1.0" encoding="UTF-8" standalone="no"?>
<!-- Generator: Adobe Illustrator 16.0.0, SVG Export Plug-In . SVG Version: 6.00 Build 0)  -->
<svg xmlns:rdf="http://www.w3.org/1999/02/22-rdf-syntax-ns#" xmlns="http://www.w3.org/2000/svg" enable-background="new 0 0 266.893 266.895" xml:space="preserve" height="266.9px" viewBox="0 0 266.893 266.895" width="266.89px" version="1.1" y="0px" x="0px" xmlns:cc="http://creativecommons.org/ns#" xmlns:dc="http://purl.org/dc/elements/1.1/"><metadata><rdf:RDF><cc:Work rdf:about=""><dc:format>image/svg+xml</dc:format><dc:type rdf:resource="http://purl.org/dc/dcmitype/StillImage"/><dc:title/></cc:Work></rdf:RDF></metadata>
<path d="M248.08,262.31c7.854,0,14.223-6.369,14.223-14.225v-229.27c0-7.857-6.368-14.224-14.223-14.224h-229.27c-7.857,0-14.224,6.367-14.224,14.224v229.27c0,7.855,6.366,14.225,14.224,14.225h229.27z" fill="#3C5A99"/>
<path d="M182.41,262.31v-99.803h33.499l5.016-38.895h-38.515v-24.843c0-11.261,3.127-18.935,19.275-18.935l20.596-0.009v-34.788c-3.562-0.474-15.788-1.533-30.012-1.533-29.695,0-50.025,18.126-50.025,51.413v28.684h-33.585v38.895h33.585v99.803h40.149z" fill="#FFF"/>
</svg>
