<?xml version="1.0" encoding="UTF-8" standalone="no"?><svg xmlns="http://www.w3.org/2000/svg" version="1.1" xmlns:xlink="http://www.w3.org/1999/xlink" viewBox="0 0 89.008611 63.991532">
	<defs>
		<path id="SVGID_1_" d="m33.428,65.002c-8.547,0-16.581-3.331-22.625-9.376-6.045-6.044-9.376-14.078-9.376-22.625,0-8.548,3.331-16.582,9.376-22.626,6.044-6.045,14.078-9.375,22.625-9.375h24.999c8.549,0,16.586,3.33,22.631,9.375,6.043,6.041,9.371,14.079,9.371,22.626s-3.328,16.584-9.371,22.625c-6.045,6.045-14.082,9.376-22.631,9.376h-24.999"/>
	</defs>
	<use style="stroke:#f46732;stroke-dasharray:none;stroke-miterlimit:4;stroke-width:2;fill:none;" xlink:href="#SVGID_1_" transform="matrix(0.97811661,0,0,0.96956867,-0.42792652,0)" height="66.667999" width="92" clip-rule="evenodd" y="0" x="0" overflow="visible"/>
	<clipPath>
		<use xlink:href="#SVGID_1_" height="66.667999" width="92" y="0" x="0" overflow="visible"/>
	</clipPath>
	<defs>
		<path id="SVGID_3_" d="m33.428,2.999h24.999c16.572,0,30.002,13.435,30.002,30.002,0,16.566-13.43,30.001-30.002,30.001h-24.999c-16.566,0-30.001-13.435-30.001-30.001,0-16.567,13.435-30.002,30.001-30.002z"/>
	</defs>
	<clipPath>
		<use xlink:href="#SVGID_3_" height="66.667999" width="92" y="0" x="0" overflow="visible"/>
	</clipPath>
	<path style="fill:#f46732;" d="m66.106,32.521v-0.008h-4.83v-4.858c0-1.143-0.926-2.07-2.07-2.07-1.143,0-2.068,0.927-2.068,2.07v4.858h-4.828v0.008c-1.143,0-2.07,0.928-2.07,2.07s0.928,2.07,2.07,2.07v0.01h4.828v4.85h0.004c0,0.018-0.004,0.031-0.004,0.049,0,1.143,0.926,2.068,2.068,2.068,1.145,0,2.07-0.926,2.07-2.068,0-0.018-0.004-0.031-0.004-0.049h0.004v-4.85h4.83v-0.01c1.145,0,2.07-0.928,2.07-2.07s-0.925-2.07-2.07-2.07z"/>
	<path style="fill:#f46732;" d="m34.087,41.618c0,2.844,4.989,5.15,11.146,5.15,6.154,0,11.144-2.307,11.144-5.15,0-1.014-0.59-1.979-1.816-2.818-1.055-0.535-4.555,0.402-4.68-0.285-0.172-2.188-1.594-1.969-4.648-2.049-6.156-0.024-11.146,2.307-11.146,5.152z"/>
	<path style="fill:#f46732;" d="m51.292,31.319-0.02,0.223,0.02-0.223,1.334-0.041c1.664-1.791,2.607-3.941,2.607-6.583,0-5.543-4.477-10.037-10-10.037-5.524,0-10.002,4.494-10.002,10.037s4.478,10.037,10.002,10.037c1.211,0,2.361-0.238,3.437-0.635,0.028-1.416,1.2-2.778,2.622-2.778z"/>
</svg>
