<?xml version="1.0" encoding="utf-8"?>
<!-- Generator: Adobe Illustrator 21.1.0, SVG Export Plug-In . SVG Version: 6.00 Build 0)  -->
<svg version="1.0" id="Layer_1" xmlns="http://www.w3.org/2000/svg" xmlns:xlink="http://www.w3.org/1999/xlink" x="0px" y="0px"
	 width="32px" height="32px" viewBox="0 0 32 32" enable-background="new 0 0 32 32" xml:space="preserve">
<circle fill="#C8C8C8" cx="16" cy="16" r="16"/>
<path fill="#3C5A98" d="M16,3C8.8,3,3,8.8,3,16c0,7.2,5.6,13,12.8,13c0.3,0,0.6,0,0.6,0c0-2.8,0-5.8,0-8.8c0,0,0.3,0,0.2,0
	c-0.8,0-1.6,0.1-2.4,0.1c-0.1,0-0.2,0.1-0.2-0.1c0-1.2,0-2.5,0-3.7c0,0,0-0.3,0-0.3c0.9,0,1.9,0,2.9,0c0,0,0,0,0,0
	c0-0.7,0-1.4,0.1-2.1c0.2-1.4,0.9-2.5,2.1-3.3c0.7-0.5,1.5-0.6,2.3-0.6c1,0,1.9,0,2.9,0c0.1,0,0.1,0,0.1,0c0,1,0,2.4,0,3.7
	c0,0-0.1,0.3-0.2,0.3c-0.9,0-1.8,0-2.7,0c-0.5,0-0.9,0-0.9,0.5c0,0.6,0,1.5,0,1.5c1.3,0,2.6,0,3.9,0c0,0,0,0.3,0,0.4
	c0,1.2,0,2.4,0,3.6c0,0.2-0.1,0.1-0.2,0.1c-1.2,0-2.3-0.1-3.5-0.1c-0.1,0-0.4,0-0.4,0s0,0.5,0,0.5c0,2.5,0,5,0,7.5
	c5-1.8,8.6-6.6,8.6-12.2C29,8.8,23.2,3,16,3z"/>
</svg>
