<?xml version="1.0" encoding="UTF-8" standalone="no"?>
<svg xmlns:rdf="http://www.w3.org/1999/02/22-rdf-syntax-ns#" xmlns="http://www.w3.org/2000/svg" xml:space="preserve" height="742.45" width="1437.3" version="1.1" y="0px" x="0px" xmlns:cc="http://creativecommons.org/ns#" xmlns:dc="http://purl.org/dc/elements/1.1/" viewBox="0 0 1437.2203 742.44842"><metadata><rdf:RDF><cc:Work rdf:about=""><dc:format>image/svg+xml</dc:format><dc:type rdf:resource="http://purl.org/dc/dcmitype/StillImage"/><dc:title/></cc:Work></rdf:RDF></metadata>
		<path style="stroke:#ff8267;stroke-dasharray:none;stroke-miterlimit:4;stroke-width:18;fill:#ff8268;" d="m530.57,322.6c15.664,0,29.813-9.405,35.872-23.854,25.017-59.604,83.842-101.61,152.42-101.61,37.797,0,72.449,12.955,100.23,34.442l-21.775,3.371c-7.438,1.153-13.224,7.054-14.232,14.512-1.01,7.454,3.008,14.686,9.867,17.768l119.75,53.872c5.249,2.357,11.33,1.904,16.168-1.205,4.83-3.114,7.764-8.458,7.796-14.208l0.621-131.94c0.042-7.506-4.851-14.144-12.024-16.332-7.185-2.188-14.947,0.589-19.104,6.837l-16.505,24.805c-44.005-43.318-104.3-70.096-170.79-70.096-100.81,0-187.48,61.562-224.45,149.06-5.134,12.128-3.84,26.015,3.429,36.987,7.269,10.976,19.556,17.594,32.727,17.594z"/>
		<path style="stroke:#ff8267;stroke-dasharray:none;stroke-miterlimit:4;stroke-width:18;fill:#ff8268;" d="m939.88,420.14c-7.27-10.977-19.558-17.594-32.728-17.594-15.664,0-29.813,9.405-35.872,23.854-25.018,59.604-83.843,101.61-152.42,101.61-37.798,0-72.45-12.955-100.23-34.442l21.776-3.369c7.437-1.153,13.223-7.055,14.233-14.514,1.009-7.453-3.008-14.686-9.867-17.768l-119.75-53.872c-5.25-2.356-11.33-1.905-16.169,1.205-4.829,3.114-7.764,8.458-7.795,14.207l-0.622,131.94c-0.042,7.506,4.85,14.144,12.024,16.332,7.185,2.188,14.948-0.59,19.104-6.839l16.505-24.805c44.004,43.32,104.3,70.098,170.79,70.098,100.81,0,187.48-61.561,224.45-149.06,5.137-12.128,3.843-26.014-3.425-36.987z"/>
<path style="fill-opacity:0.3;stroke:#ff8267;stroke-dasharray:none;stroke-miterlimit:4;stroke-width:20.92510796;fill:#fff9f7;" d="m1426.7,624.51c0,59.273-57.509,107.48-128.2,107.48h-1159.8c-70.714,0-128.22-48.208-128.22-107.48v-506.57c-0.003-59.252,57.505-107.48,128.22-107.48h1159.9c70.691,0,128.2,48.229,128.2,107.48v506.56z"/></svg>
