<?xml version="1.0" encoding="UTF-8" standalone="no"?>
<svg width="74px" height="74px" viewBox="0 0 74 74" version="1.1" xmlns="http://www.w3.org/2000/svg" xmlns:xlink="http://www.w3.org/1999/xlink">
    <defs></defs>
    <g id="Page-1" stroke="none" stroke-width="1" fill="none" fill-rule="evenodd">
        <path d="M35,23.1417777 C28.8686177,24.0188032 24.0188032,28.8686177 23.1417777,35 L19,35 L19,39 L23.1417777,39 C24.0188032,45.1313823 28.8686177,49.9811968 35,50.8582223 L35,55 L39,55 L39,50.8582223 C45.1313823,49.9811968 49.9811968,45.1313823 50.8582223,39 L55,39 L55,35 L50.8582223,35 C49.9811968,28.8686177 45.1313823,24.0188032 39,23.1417777 L39,19 L35,19 L35,23.1417777 Z M37,74 C57.4345357,74 74,57.4345357 74,37 C74,16.5654643 57.4345357,0 37,0 C16.5654643,0 0,16.5654643 0,37 C0,57.4345357 16.5654643,74 37,74 Z M37,70 C55.2253967,70 70,55.2253967 70,37 C70,18.7746033 55.2253967,4 37,4 C18.7746033,4 4,18.7746033 4,37 C4,55.2253967 18.7746033,70 37,70 Z M37,47 C42.5228475,47 47,42.5228475 47,37 C47,31.4771525 42.5228475,27 37,27 C31.4771525,27 27,31.4771525 27,37 C27,42.5228475 31.4771525,47 37,47 Z M37,41 C39.209139,41 41,39.209139 41,37 C41,34.790861 39.209139,33 37,33 C34.790861,33 33,34.790861 33,37 C33,39.209139 34.790861,41 37,41 Z" id="Oval-1-Copy" fill="#A666E6"></path>
    </g>
</svg>