<?xml version="1.0" encoding="UTF-8" standalone="no"?>
<!-- Created with Inkscape (http://www.inkscape.org/) -->

<svg
   xmlns:dc="http://purl.org/dc/elements/1.1/"
   xmlns:cc="http://creativecommons.org/ns#"
   xmlns:rdf="http://www.w3.org/1999/02/22-rdf-syntax-ns#"
   xmlns:svg="http://www.w3.org/2000/svg"
   xmlns="http://www.w3.org/2000/svg"
   xmlns:sodipodi="http://sodipodi.sourceforge.net/DTD/sodipodi-0.dtd"
   xmlns:inkscape="http://www.inkscape.org/namespaces/inkscape"
   width="210mm"
   height="297mm"
   viewBox="0 0 744.09448819 1052.3622047"
   id="svg3639"
   version="1.1"
   inkscape:version="0.91 r13725"
   sodipodi:docname="WizzardPairing.svg">
  <defs
     id="defs3641" />
  <sodipodi:namedview
     id="base"
     pagecolor="#ffffff"
     bordercolor="#666666"
     borderopacity="1.0"
     inkscape:pageopacity="0.0"
     inkscape:pageshadow="2"
     inkscape:zoom="0.35"
     inkscape:cx="22.142857"
     inkscape:cy="520"
     inkscape:document-units="px"
     inkscape:current-layer="layer1"
     showgrid="false"
     inkscape:window-width="1920"
     inkscape:window-height="1027"
     inkscape:window-x="-8"
     inkscape:window-y="-8"
     inkscape:window-maximized="1" />
  <metadata
     id="metadata3644">
    <rdf:RDF>
      <cc:Work
         rdf:about="">
        <dc:format>image/svg+xml</dc:format>
        <dc:type
           rdf:resource="http://purl.org/dc/dcmitype/StillImage" />
        <dc:title />
      </cc:Work>
    </rdf:RDF>
  </metadata>
  <g
     inkscape:label="Ebene 1"
     inkscape:groupmode="layer"
     id="layer1">
    <g
       transform="matrix(2.9198965,0,0,2.9198965,-721.17721,-64.370966)"
       id="g27">
      <polyline
         style="fill:none;stroke:#000000;stroke-width:0.72000003;stroke-linecap:round;stroke-linejoin:round;stroke-miterlimit:10"
         stroke-miterlimit="10"
         points="   431.679,72.68 431.738,72.68 431.738,72.741  "
         id="polyline29" />
      <polyline
         style="fill:none;stroke:#000000;stroke-width:0.72000003;stroke-linecap:round;stroke-linejoin:round;stroke-miterlimit:10"
         stroke-miterlimit="10"
         points="   423.938,74 425.798,73.581 428.019,73.161  "
         id="polyline31" />
      <line
         style="fill:none;stroke:#000000;stroke-width:0.72000003;stroke-linecap:round;stroke-linejoin:round;stroke-miterlimit:10"
         stroke-miterlimit="10"
         x1="431.55899"
         y1="72.621002"
         x2="428.01901"
         y2="73.161003"
         id="line33" />
      <line
         style="fill:none;stroke:#000000;stroke-width:0.72000003;stroke-linecap:round;stroke-linejoin:round;stroke-miterlimit:10"
         stroke-miterlimit="10"
         x1="423.93799"
         y1="74"
         x2="420.03799"
         y2="75.081001"
         id="line35" />
      <polyline
         style="fill:none;stroke:#000000;stroke-width:0.72000003;stroke-linecap:round;stroke-linejoin:round;stroke-miterlimit:10"
         stroke-miterlimit="10"
         points="   411.938,78.141 408.878,79.581 408.099,80  "
         id="polyline37" />
      <polyline
         style="fill:none;stroke:#000000;stroke-width:0.72000003;stroke-linecap:round;stroke-linejoin:round;stroke-miterlimit:10"
         stroke-miterlimit="10"
         points="   387.278,96.021 388.958,94.281 390.398,92.84 393.519,89.96 397.118,87.081  "
         id="polyline39" />
      <line
         style="fill:none;stroke:#000000;stroke-width:0.72000003;stroke-linecap:round;stroke-linejoin:round;stroke-miterlimit:10"
         stroke-miterlimit="10"
         x1="384.33899"
         y1="99.379997"
         x2="381.57901"
         y2="102.92"
         id="line41" />
      <polyline
         style="fill:none;stroke:#000000;stroke-width:0.72000003;stroke-linecap:round;stroke-linejoin:round;stroke-miterlimit:10"
         stroke-miterlimit="10"
         points="   381.579,102.92 380.738,104 378.938,106.641  "
         id="polyline43" />
      <polyline
         style="fill:none;stroke:#000000;stroke-width:0.72000003;stroke-linecap:round;stroke-linejoin:round;stroke-miterlimit:10"
         stroke-miterlimit="10"
         points="   374.378,114.38 376.599,110.42 377.259,109.281 378.938,106.641  "
         id="polyline45" />
      <polyline
         style="fill:none;stroke:#000000;stroke-width:0.72000003;stroke-linecap:round;stroke-linejoin:round;stroke-miterlimit:10"
         stroke-miterlimit="10"
         points="   372.458,118.46 371.438,120.68 370.719,122.601  "
         id="polyline47" />
      <line
         style="fill:none;stroke:#000000;stroke-width:0.72000003;stroke-linecap:round;stroke-linejoin:round;stroke-miterlimit:10"
         stroke-miterlimit="10"
         x1="370.71899"
         y1="122.601"
         x2="369.27802"
         y2="126.621"
         id="line49" />
      <polyline
         style="fill:none;stroke:#000000;stroke-width:0.72000003;stroke-linecap:round;stroke-linejoin:round;stroke-miterlimit:10"
         stroke-miterlimit="10"
         points="   366.938,135.441 366.278,138.861 366.159,139.821  "
         id="polyline51" />
      <polyline
         style="fill:none;stroke:#000000;stroke-width:0.72000003;stroke-linecap:round;stroke-linejoin:round;stroke-miterlimit:10"
         stroke-miterlimit="10"
         points="   366.698,165.68 366.278,163.401 365.979,161.481 365.499,157.401 365.259,152.901  "
         id="polyline53" />
      <line
         style="fill:none;stroke:#000000;stroke-width:0.72000003;stroke-linecap:round;stroke-linejoin:round;stroke-miterlimit:10"
         stroke-miterlimit="10"
         x1="367.659"
         y1="169.821"
         x2="368.858"
         y2="173.84"
         id="line55" />
      <polyline
         style="fill:none;stroke:#000000;stroke-width:0.72000003;stroke-linecap:round;stroke-linejoin:round;stroke-miterlimit:10"
         stroke-miterlimit="10"
         points="   368.858,173.84 369.278,174.981 370.298,177.741  "
         id="polyline57" />
      <polyline
         style="fill:none;stroke:#000000;stroke-width:0.72000003;stroke-linecap:round;stroke-linejoin:round;stroke-miterlimit:10"
         stroke-miterlimit="10"
         points="   373.898,185.121 371.979,181.521 371.438,180.38 370.298,177.741  "
         id="polyline59" />
      <polyline
         style="fill:none;stroke:#000000;stroke-width:0.72000003;stroke-linecap:round;stroke-linejoin:round;stroke-miterlimit:10"
         stroke-miterlimit="10"
         points="   375.999,188.601 377.259,190.34 378.339,191.84  "
         id="polyline61" />
      <polyline
         style="fill:none;stroke:#000000;stroke-width:0.72000003;stroke-linecap:round;stroke-linejoin:round;stroke-miterlimit:10"
         stroke-miterlimit="10"
         points="   383.618,197.901 380.919,194.96 380.738,194.84 378.339,191.84  "
         id="polyline63" />
      <polyline
         style="fill:none;stroke:#000000;stroke-width:0.72000003;stroke-linecap:round;stroke-linejoin:round;stroke-miterlimit:10"
         stroke-miterlimit="10"
         points="   386.559,200.601 388.958,202.581 389.618,203.061  "
         id="polyline65" />
      <line
         style="fill:none;stroke:#000000;stroke-width:0.72000003;stroke-linecap:round;stroke-linejoin:round;stroke-miterlimit:10"
         stroke-miterlimit="10"
         x1="392.91901"
         y1="205.34"
         x2="396.27802"
         y2="207.38"
         id="line67" />
      <polyline
         style="fill:none;stroke:#000000;stroke-width:0.72000003;stroke-linecap:round;stroke-linejoin:round;stroke-miterlimit:10"
         stroke-miterlimit="10"
         points="   409.179,212.481 408.878,212.42 408.639,212.361  "
         id="polyline69" />
      <polyline
         style="fill:none;stroke:#000000;stroke-width:0.72000003;stroke-linecap:round;stroke-linejoin:round;stroke-miterlimit:10"
         stroke-miterlimit="10"
         points="   427.179,214.401 423.099,214.46 419.019,214.22  "
         id="polyline71" />
      <line
         style="fill:none;stroke:#000000;stroke-width:0.72000003;stroke-linecap:round;stroke-linejoin:round;stroke-miterlimit:10"
         stroke-miterlimit="10"
         x1="431.31799"
         y1="214.101"
         x2="431.73801"
         y2="214.041"
         id="line73" />
      <polyline
         style="fill:none;stroke:#000000;stroke-width:0.72000003;stroke-linecap:round;stroke-linejoin:round;stroke-miterlimit:10"
         stroke-miterlimit="10"
         points="   411.938,78.141 414.398,77.061 415.898,76.521 420.038,75.081  "
         id="polyline75" />
      <polyline
         style="fill:none;stroke:#000000;stroke-width:0.72000003;stroke-linecap:round;stroke-linejoin:round;stroke-miterlimit:10"
         stroke-miterlimit="10"
         points="   397.118,87.081 398.378,86.061 400.659,84.5 403.538,82.581 404.318,82.161  "
         id="polyline77" />
      <polyline
         style="fill:none;stroke:#000000;stroke-width:0.72000003;stroke-linecap:round;stroke-linejoin:round;stroke-miterlimit:10"
         stroke-miterlimit="10"
         points="   384.339,99.38 384.698,98.96 387.278,96.021  "
         id="polyline79" />
      <polyline
         style="fill:none;stroke:#000000;stroke-width:0.72000003;stroke-linecap:round;stroke-linejoin:round;stroke-miterlimit:10"
         stroke-miterlimit="10"
         points="   372.458,118.46 374.139,114.861 374.378,114.38  "
         id="polyline81" />
      <polyline
         style="fill:none;stroke:#000000;stroke-width:0.72000003;stroke-linecap:round;stroke-linejoin:round;stroke-miterlimit:10"
         stroke-miterlimit="10"
         points="   366.938,135.441 367.538,132.741 367.958,131.121 369.278,126.621  "
         id="polyline83" />
      <polyline
         style="fill:none;stroke:#000000;stroke-width:0.72000003;stroke-linecap:round;stroke-linejoin:round;stroke-miterlimit:10"
         stroke-miterlimit="10"
         points="   365.259,152.901 365.259,151.281 365.318,148.581 365.499,145.101 365.618,144.201  "
         id="polyline85" />
      <polyline
         style="fill:none;stroke:#000000;stroke-width:0.72000003;stroke-linecap:round;stroke-linejoin:round;stroke-miterlimit:10"
         stroke-miterlimit="10"
         points="   367.659,169.821 367.538,169.281 366.698,165.68  "
         id="polyline87" />
      <polyline
         style="fill:none;stroke:#000000;stroke-width:0.72000003;stroke-linecap:round;stroke-linejoin:round;stroke-miterlimit:10"
         stroke-miterlimit="10"
         points="   375.999,188.601 374.139,185.541 373.898,185.121  "
         id="polyline89" />
      <polyline
         style="fill:none;stroke:#000000;stroke-width:0.72000003;stroke-linecap:round;stroke-linejoin:round;stroke-miterlimit:10"
         stroke-miterlimit="10"
         points="   386.559,200.601 384.698,198.92 383.618,197.901  "
         id="polyline91" />
      <polyline
         style="fill:none;stroke:#000000;stroke-width:0.72000003;stroke-linecap:round;stroke-linejoin:round;stroke-miterlimit:10"
         stroke-miterlimit="10"
         points="   396.038,207.26 393.519,205.76 392.919,205.34  "
         id="polyline93" />
      <polyline
         style="fill:none;stroke:#000000;stroke-width:0.72000003;stroke-linecap:round;stroke-linejoin:round;stroke-miterlimit:10"
         stroke-miterlimit="10"
         points="   399.579,209.061 398.378,208.46 396.579,207.5  "
         id="polyline95" />
      <line
         style="fill:none;stroke:#000000;stroke-width:0.72000003;stroke-linecap:round;stroke-linejoin:round;stroke-miterlimit:10"
         stroke-miterlimit="10"
         x1="415.05899"
         y1="213.741"
         x2="419.01901"
         y2="214.22"
         id="line97" />
      <polyline
         style="fill:none;stroke:#000000;stroke-width:0.72000003;stroke-linecap:round;stroke-linejoin:round;stroke-miterlimit:10"
         stroke-miterlimit="10"
         points="   431.318,214.101 431.259,214.101 427.179,214.401  "
         id="polyline99" />
      <line
         style="fill:none;stroke:#000000;stroke-width:0.72000003;stroke-linecap:round;stroke-linejoin:round;stroke-miterlimit:10"
         stroke-miterlimit="10"
         x1="408.099"
         y1="80"
         x2="404.31799"
         y2="82.161003"
         id="line101" />
      <line
         style="fill:none;stroke:#000000;stroke-width:0.72000003;stroke-linecap:round;stroke-linejoin:round;stroke-miterlimit:10"
         stroke-miterlimit="10"
         x1="366.159"
         y1="139.821"
         x2="365.61801"
         y2="144.201"
         id="line103" />
      <polyline
         style="fill:none;stroke:#000000;stroke-width:0.72000003;stroke-linecap:round;stroke-linejoin:round;stroke-miterlimit:10"
         stroke-miterlimit="10"
         points="   392.919,205.34 392.858,205.34 389.618,203.061  "
         id="polyline105" />
      <polyline
         style="fill:none;stroke:#000000;stroke-width:0.72000003;stroke-linecap:round;stroke-linejoin:round;stroke-miterlimit:10"
         stroke-miterlimit="10"
         points="   396.278,207.38 399.818,209.18 403.479,210.68  "
         id="polyline107" />
      <polyline
         style="fill:none;stroke:#000000;stroke-width:0.72000003;stroke-linecap:round;stroke-linejoin:round;stroke-miterlimit:10"
         stroke-miterlimit="10"
         points="   411.099,213.021 414.999,213.741 415.059,213.741  "
         id="polyline109" />
      <polyline
         style="fill:none;stroke:#000000;stroke-width:0.72000003;stroke-linecap:round;stroke-linejoin:round;stroke-miterlimit:10"
         stroke-miterlimit="10"
         points="   411.099,213.021 407.259,212 407.198,212 403.479,210.68  "
         id="polyline111" />
      <polyline
         style="fill:none;stroke:#000000;stroke-width:0.72000003;stroke-linecap:round;stroke-linejoin:round;stroke-miterlimit:10"
         stroke-miterlimit="10"
         points="   431.858,213.981 431.798,213.981 431.738,214.041  "
         id="polyline113" />
      <polyline
         style="fill:none;stroke:#000000;stroke-width:0.72000003;stroke-linecap:round;stroke-linejoin:round;stroke-miterlimit:10"
         stroke-miterlimit="10"
         points="   439.479,212.601 439.419,212.601 435.398,213.5  "
         id="polyline115" />
      <line
         style="fill:none;stroke:#000000;stroke-width:0.72000003;stroke-linecap:round;stroke-linejoin:round;stroke-miterlimit:10"
         stroke-miterlimit="10"
         x1="431.73801"
         y1="214.041"
         x2="435.39801"
         y2="213.5"
         id="line117" />
      <polyline
         style="fill:none;stroke:#000000;stroke-width:0.72000003;stroke-linecap:round;stroke-linejoin:round;stroke-miterlimit:10"
         stroke-miterlimit="10"
         points="   474.579,84.321 474.159,84.021 474.099,83.901  "
         id="polyline119" />
      <polyline
         style="fill:none;stroke:#000000;stroke-width:0.72000003;stroke-linecap:round;stroke-linejoin:round;stroke-miterlimit:10"
         stroke-miterlimit="10"
         points="   466.958,79.22 470.318,81.26 470.378,81.26  "
         id="polyline121" />
      <polyline
         style="fill:none;stroke:#000000;stroke-width:0.72000003;stroke-linecap:round;stroke-linejoin:round;stroke-miterlimit:10"
         stroke-miterlimit="10"
         points="   463.419,77.481 463.419,77.42 459.759,75.92  "
         id="polyline123" />
      <line
         style="fill:none;stroke:#000000;stroke-width:0.72000003;stroke-linecap:round;stroke-linejoin:round;stroke-miterlimit:10"
         stroke-miterlimit="10"
         x1="459.759"
         y1="75.919998"
         x2="455.979"
         y2="74.661003"
         id="line125" />
      <polyline
         style="fill:none;stroke:#000000;stroke-width:0.72000003;stroke-linecap:round;stroke-linejoin:round;stroke-miterlimit:10"
         stroke-miterlimit="10"
         points="   452.139,73.641 454.238,74.121 455.979,74.661  "
         id="polyline127" />
      <line
         style="fill:none;stroke:#000000;stroke-width:0.72000003;stroke-linecap:round;stroke-linejoin:round;stroke-miterlimit:10"
         stroke-miterlimit="10"
         x1="448.23801"
         y1="72.861"
         x2="444.27802"
         y2="72.379997"
         id="line129" />
      <polyline
         style="fill:none;stroke:#000000;stroke-width:0.72000003;stroke-linecap:round;stroke-linejoin:round;stroke-miterlimit:10"
         stroke-miterlimit="10"
         points="   444.278,72.38 443.079,72.26 440.198,72.201  "
         id="polyline131" />
      <line
         style="fill:none;stroke:#000000;stroke-width:0.72000003;stroke-linecap:round;stroke-linejoin:round;stroke-miterlimit:10"
         stroke-miterlimit="10"
         x1="436.17899"
         y1="72.200996"
         x2="440.198"
         y2="72.200996"
         id="line133" />
      <line
         style="fill:none;stroke:#000000;stroke-width:0.72000003;stroke-linecap:round;stroke-linejoin:round;stroke-miterlimit:10"
         stroke-miterlimit="10"
         x1="478.23801"
         y1="87.441002"
         x2="478.599"
         y2="87.800003"
         id="line135" />
      <polyline
         style="fill:none;stroke:#000000;stroke-width:0.72000003;stroke-linecap:round;stroke-linejoin:round;stroke-miterlimit:10"
         stroke-miterlimit="10"
         points="   467.438,79.521 469.599,80.781 470.139,81.141  "
         id="polyline137" />
      <polyline
         style="fill:none;stroke:#000000;stroke-width:0.72000003;stroke-linecap:round;stroke-linejoin:round;stroke-miterlimit:10"
         stroke-miterlimit="10"
         points="   463.419,77.481 464.738,78.081 466.839,79.161  "
         id="polyline139" />
      <polyline
         style="fill:none;stroke:#000000;stroke-width:0.72000003;stroke-linecap:round;stroke-linejoin:round;stroke-miterlimit:10"
         stroke-miterlimit="10"
         points="   448.238,72.861 448.719,72.92 452.139,73.641  "
         id="polyline141" />
      <polyline
         style="fill:none;stroke:#000000;stroke-width:0.72000003;stroke-linecap:round;stroke-linejoin:round;stroke-miterlimit:10"
         stroke-miterlimit="10"
         points="   431.559,72.621 432.099,72.561 436.179,72.201  "
         id="polyline143" />
      <polyline
         style="fill:none;stroke:#000000;stroke-width:0.72000003;stroke-linecap:round;stroke-linejoin:round;stroke-miterlimit:10"
         stroke-miterlimit="10"
         points="   451.479,208.46 451.419,208.46 447.519,210.141 443.499,211.521 439.479,212.601  "
         id="polyline145" />
      <polyline
         style="fill:none;stroke:#000000;stroke-width:0.72000003;stroke-linecap:round;stroke-linejoin:round;stroke-miterlimit:10"
         stroke-miterlimit="10"
         points="   479.618,88.76 482.378,91.641 482.378,91.701  "
         id="polyline147" />
      <polyline
         style="fill:none;stroke:#000000;stroke-width:0.72000003;stroke-linecap:round;stroke-linejoin:round;stroke-miterlimit:10"
         stroke-miterlimit="10"
         points="   476.738,86.061 476.679,86 473.618,83.541  "
         id="polyline149" />
      <line
         style="fill:none;stroke:#000000;stroke-width:0.72000003;stroke-linecap:round;stroke-linejoin:round;stroke-miterlimit:10"
         stroke-miterlimit="10"
         x1="466.95801"
         y1="79.220001"
         x2="463.41901"
         y2="77.481003"
         id="line151" />
      <polyline
         style="fill:none;stroke:#000000;stroke-width:0.72000003;stroke-linecap:round;stroke-linejoin:round;stroke-miterlimit:10"
         stroke-miterlimit="10"
         points="   462.759,202.101 459.099,204.5 455.318,206.601 451.479,208.46  "
         id="polyline153" />
      <polyline
         style="fill:none;stroke:#000000;stroke-width:0.72000003;stroke-linecap:round;stroke-linejoin:round;stroke-miterlimit:10"
         stroke-miterlimit="10"
         points="   476.079,190.581 472.958,193.76 469.719,196.76 466.298,199.521  "
         id="polyline155" />
      <polyline
         style="fill:none;stroke:#000000;stroke-width:0.72000003;stroke-linecap:round;stroke-linejoin:round;stroke-miterlimit:10"
         stroke-miterlimit="10"
         points="   466.298,199.521 466.298,199.581 462.759,202.101  "
         id="polyline157" />
      <line
         style="fill:none;stroke:#000000;stroke-width:0.72000003;stroke-linecap:round;stroke-linejoin:round;stroke-miterlimit:10"
         stroke-miterlimit="10"
         x1="476.07901"
         y1="190.58099"
         x2="479.01901"
         y2="187.22"
         id="line159" />
      <polyline
         style="fill:none;stroke:#000000;stroke-width:0.72000003;stroke-linecap:round;stroke-linejoin:round;stroke-miterlimit:10"
         stroke-miterlimit="10"
         points="   488.919,172.281 486.759,176.241 484.358,180.021 481.839,183.741  "
         id="polyline161" />
      <line
         style="fill:none;stroke:#000000;stroke-width:0.72000003;stroke-linecap:round;stroke-linejoin:round;stroke-miterlimit:10"
         stroke-miterlimit="10"
         x1="489.39801"
         y1="101.601"
         x2="491.31799"
         y2="105.201"
         id="line163" />
      <polyline
         style="fill:none;stroke:#000000;stroke-width:0.72000003;stroke-linecap:round;stroke-linejoin:round;stroke-miterlimit:10"
         stroke-miterlimit="10"
         points="   487.298,98.121 487.238,98.061 484.898,94.821  "
         id="polyline165" />
      <line
         style="fill:none;stroke:#000000;stroke-width:0.72000003;stroke-linecap:round;stroke-linejoin:round;stroke-miterlimit:10"
         stroke-miterlimit="10"
         x1="479.61801"
         y1="88.760002"
         x2="476.73801"
         y2="86.060997"
         id="line167" />
      <line
         style="fill:none;stroke:#000000;stroke-width:0.72000003;stroke-linecap:round;stroke-linejoin:round;stroke-miterlimit:10"
         stroke-miterlimit="10"
         x1="473.61801"
         y1="83.541"
         x2="470.37799"
         y2="81.260002"
         id="line169" />
      <line
         style="fill:none;stroke:#000000;stroke-width:0.72000003;stroke-linecap:round;stroke-linejoin:round;stroke-miterlimit:10"
         stroke-miterlimit="10"
         x1="479.01901"
         y1="187.22"
         x2="481.83899"
         y2="183.741"
         id="line171" />
      <polyline
         style="fill:none;stroke:#000000;stroke-width:0.72000003;stroke-linecap:round;stroke-linejoin:round;stroke-miterlimit:10"
         stroke-miterlimit="10"
         points="   488.919,172.281 490.898,168.26 492.639,164.121  "
         id="polyline173" />
      <line
         style="fill:none;stroke:#000000;stroke-width:0.72000003;stroke-linecap:round;stroke-linejoin:round;stroke-miterlimit:10"
         stroke-miterlimit="10"
         x1="496.599"
         y1="121.041"
         x2="495.63901"
         y2="116.901"
         id="line175" />
      <polyline
         style="fill:none;stroke:#000000;stroke-width:0.72000003;stroke-linecap:round;stroke-linejoin:round;stroke-miterlimit:10"
         stroke-miterlimit="10"
         points="   494.438,112.941 494.438,112.88 492.999,108.981  "
         id="polyline177" />
      <line
         style="fill:none;stroke:#000000;stroke-width:0.72000003;stroke-linecap:round;stroke-linejoin:round;stroke-miterlimit:10"
         stroke-miterlimit="10"
         x1="489.39801"
         y1="101.601"
         x2="487.298"
         y2="98.121002"
         id="line179" />
      <line
         style="fill:none;stroke:#000000;stroke-width:0.72000003;stroke-linecap:round;stroke-linejoin:round;stroke-miterlimit:10"
         stroke-miterlimit="10"
         x1="484.89801"
         y1="94.820999"
         x2="482.37799"
         y2="91.700996"
         id="line181" />
      <line
         style="fill:none;stroke:#000000;stroke-width:0.72000003;stroke-linecap:round;stroke-linejoin:round;stroke-miterlimit:10"
         stroke-miterlimit="10"
         x1="495.39801"
         y1="155.601"
         x2="496.41901"
         y2="151.28101"
         id="line183" />
      <line
         style="fill:none;stroke:#000000;stroke-width:0.72000003;stroke-linecap:round;stroke-linejoin:round;stroke-miterlimit:10"
         stroke-miterlimit="10"
         x1="492.63901"
         y1="164.121"
         x2="494.13901"
         y2="159.86099"
         id="line185" />
      <line
         style="fill:none;stroke:#000000;stroke-width:0.72000003;stroke-linecap:round;stroke-linejoin:round;stroke-miterlimit:10"
         stroke-miterlimit="10"
         x1="496.41901"
         y1="151.28101"
         x2="497.198"
         y2="146.901"
         id="line187" />
      <polyline
         style="fill:none;stroke:#000000;stroke-width:0.72000003;stroke-linecap:round;stroke-linejoin:round;stroke-miterlimit:10"
         stroke-miterlimit="10"
         points="   497.198,146.901 497.738,142.581 497.738,142.521 498.038,138.141  "
         id="polyline189" />
      <polyline
         style="fill:none;stroke:#000000;stroke-width:0.72000003;stroke-linecap:round;stroke-linejoin:round;stroke-miterlimit:10"
         stroke-miterlimit="10"
         points="   498.038,138.141 498.038,133.821 497.798,129.5  "
         id="polyline191" />
      <polyline
         style="fill:none;stroke:#000000;stroke-width:0.72000003;stroke-linecap:round;stroke-linejoin:round;stroke-miterlimit:10"
         stroke-miterlimit="10"
         points="   496.599,121.041 497.318,125.241 497.378,125.241  "
         id="polyline193" />
      <line
         style="fill:none;stroke:#000000;stroke-width:0.72000003;stroke-linecap:round;stroke-linejoin:round;stroke-miterlimit:10"
         stroke-miterlimit="10"
         x1="497.798"
         y1="129.5"
         x2="497.37799"
         y2="125.241"
         id="line195" />
      <line
         style="fill:none;stroke:#000000;stroke-width:0.72000003;stroke-linecap:round;stroke-linejoin:round;stroke-miterlimit:10"
         stroke-miterlimit="10"
         x1="494.13901"
         y1="159.86099"
         x2="495.39801"
         y2="155.601"
         id="line197" />
      <line
         style="fill:none;stroke:#000000;stroke-width:0.72000003;stroke-linecap:round;stroke-linejoin:round;stroke-miterlimit:10"
         stroke-miterlimit="10"
         x1="495.63901"
         y1="116.901"
         x2="494.43799"
         y2="112.941"
         id="line199" />
      <line
         style="fill:none;stroke:#000000;stroke-width:0.72000003;stroke-linecap:round;stroke-linejoin:round;stroke-miterlimit:10"
         stroke-miterlimit="10"
         x1="492.99899"
         y1="108.981"
         x2="491.31799"
         y2="105.201"
         id="line201" />
      <path
         style="fill:none;stroke:#000000;stroke-width:0.72000003;stroke-linecap:round;stroke-linejoin:round;stroke-miterlimit:10"
         inkscape:connector-curvature="0"
         stroke-miterlimit="10"
         d="m 348.458,30.801 6.181,-1.56 m 12.36,-1.5 6.18,0.12 m 12,1.98 5.699,1.8 m -101.1,75.42 0.48,-4.681 0,-0.06 0.72,-4.68 m -1.2,9.421 -0.18,4.68 0,0.78 m 1.381,-14.82 -0.24,1.62 -0.42,3.06 -0.36,3.601 -0.119,1.14 m 2.219,-14.461 1.2,-4.26 0.72,-2.28 m 0,0 0.78,-2.28 1.56,-4.08 m 0.18,-0.421 -0.181,0.42 m 6.841,-13.26 -0.601,1.021 -1.86,3.12 -1.5,2.88 -0.72,1.439 m 7.8,-13.139 2.46,-3.18 1.74,-2.16 m 1.32,-1.561 -1.319,1.56 m 15.419,-14.339 -0.66,0.48 -3.12,2.4 -2.1,1.8 -1.5,1.32 M 337.839,35 l -1.381,0.66 m 5.94,-2.7 -0.36,0.18 m 0.36,-0.18 3.899,-1.44 2.16,-0.72 m 12.361,-2.639 -1.44,0.18 m 1.44,-0.18 2.94,-0.3 3.24,-0.12 m 6.181,0.12 3.6,0.3 2.46,0.36 m 1.74,0.36 -1.74,-0.36 m 5.879,1.26 4.08,1.26 m 3.961,1.5 -0.061,0 m -3.78,-1.44 -0.12,-0.06 m 4.021,1.56 -0.06,-0.06 m -2.281,-0.9 2.341,0.96 3.18,1.44 m -10e-4,0 0.601,0.3 3.72,2.1 m 0.899,0.539 -0.899,-0.54 m -64.261,-0.779 -2.699,1.44 -3,1.8 -1.021,0.6 m 18.72,-8.7 2.16,-0.6 4.021,-0.96 m 0.36,-0.12 -0.36,0.12 m 13.5,-1.56 -1.14,0.06 m 6.18,0.12 -0.721,-0.06 m 18.42,3.84 -1.68,-0.6 m -97.139,61.62 -0.06,0.36 m 14.279,-31.2 -0.42,0.66 m 74.701,-33.72 0.42,0.06 4.14,0.96 m -10.741,-1.861 2.341,0.24 0.6,0.12 m -10.081,-0.539 0.841,-0.06 4.319,0.12 0.54,0 m -11.64,0.3 2.4,-0.24 2.7,-0.12 m -5.819,0.48 -1.261,0.12 m 4.38,-0.48 0.061,0 m -41.7,17.16 c 10.556,-8.664 23.701,-14.77 37.26,-16.68 m -40.861,19.74 -3.42,3.3 m 3.42,-3.3 3.601,-3.06 m -16.261,17.459 2.881,-3.9 3.06,-3.66 3.3,-3.54 m -18.601,27.901 1.98,-4.38 2.22,-4.26 2.46,-4.2 m 2.7,-3.961 -2.699,3.96 m -6.661,12.841 -1.74,4.5 -1.5,4.56 m -2.219,9.3 0.96,-4.681 1.26,-4.62 m 123.06,-41.759 -14.641,-9.6 m -109.92,110.88 4.801,-0.601 m 88.98,207.841 -12.899,0.359 -14.341,0.12 c 0.013,-65.099 -0.069,-130.202 -0.18,-195.3 m 27.42,194.821 0,-0.36 m 0,0 -4.08,-82.08 -4.021,-80.04 m -16.44,-23.701 -1.561,-4.319 -1.319,-4.32 m 14.581,26.939 -1.979,-2.22 -2.881,-3.78 -2.58,-3.96 -2.279,-4.14 m -0.001,0.001 -1.98,-4.2 m -5.641,-24.241 0,0.24 m 2.761,15.361 c -0.998,-4.144 -1.931,-8.494 -2.46,-12.72 m 0,0 -0.18,-1.32 -0.121,-1.32 m 1.5,0.48 -1.5,-0.721 m 1.5,0.721 1.561,0.72 1.26,0.54 m -4.321,-1.981 -16.5,-7.8 -16.139,-7.739 -15.841,-7.86 M 454.659,74.18 421.719,50.301 m -114.66,64.44 -0.24,6.54 m 0.24,-6.54 c 2.258,-26.688 17.328,-51.756 40.14,-65.88 23.158,-14.35 52.355,-15.511 74.521,1.44 m -77.041,325.919 0.18,0.061 m -10.621,-4.08 -8.1,-3.06 -6.24,-2.461 m -11.639,-4.5 36.42,14.04 m -36.42,-14.04 -0.061,0 -0.119,-0.06 m -0.121,-0.059 0.121,0.06 m -0.121,-0.06 -0.119,-0.061 -0.061,-0.06 m -0.179,-0.18 0.18,0.181 m -0.18,-0.181 -0.12,-0.06 -0.06,-0.12 m -0.121,-0.179 0.061,0.12 0.061,0.06 m -0.241,-0.241 -0.12,-0.239 m -0.06,-0.24 0.06,0.12 0,0.12 m -0.06,-0.24 -0.061,-0.12 0,-0.12 m -0.06,-0.241 0,0.181 0.061,0.06 m -0.121,-0.361 0,-0.239 m 0,-0.12 0,0.12 m 0,0.239 0.06,0.12 m 0.301,0.96 0.119,0.061 m -0.48,-240.12 0,238.62 m 45.96,14.76 -0.96,0.84 -0.96,0.601 -0.96,0.42 m 6.96,-9.781 c -0.396,1.612 -1.458,4.503 -2.46,5.82 m 3.54,-11.341 -0.24,1.561 -0.24,1.439 m 0.48,-3 0.18,-1.739 0.12,-1.86 0,-2.04 m -0.78,8.639 -0.299,1.32 -0.301,1.2 m -3.24,6.961 0.78,-1.14 m -7.679,4.199 -0.841,-0.18 -0.18,-0.06 -0.119,0 m 1.44,0.24 0.84,0.061 0.061,0 m -0.001,0 0.959,-0.061 m 0.721,-0.179 0.3,-0.06 m 2.879,-1.86 0.84,-0.96 m -8.76,2.58 0.721,0.24 m 3.299,0.239 0.721,-0.18 m -2.88,0.18 0.3,0 m 38.46,-21.659 c 0.048,4.066 -1.329,20.655 -7.26,21 m -30.24,0.72 30.24,-0.72 m 37.2,-3.66 36.06,-5.16 m -36.06,5.16 -0.601,0.12 -36.18,3.54 m 82.8,-26.46 c -0.15,1.993 -0.443,3.796 -0.779,5.76 m -0.541,2.04 0.24,-1.021 0.301,-1.02 m -1.201,3.961 c -0.408,1.104 -1.373,3.041 -2.1,3.96 m -0.54,0.66 0.54,-0.66 m -1.56,1.8 c -1.24,1.06 -1.561,1.179 -3,1.86 m -1.319,0.3 0.66,-0.12 0.659,-0.18 m 4.02,-3 -0.479,0.6 -0.541,0.54 m 4.32,-7.68 -0.3,0.96 -0.36,0.96 m 2.041,-13.8 c -0.019,1.36 0.051,2.729 -0.061,4.08 m 0.061,-4.08 -35.521,5.159 -40.5,4.021 m 76.021,-9.18 3.959,-83.04 3.121,-64.86 m -42.301,84.66 c -3.941,0.683 -7.296,0.862 -11.279,0.42 m 0,0 -0.121,0 -0.119,-0.061 -0.18,0 -0.121,-0.06 -0.119,-0.12 -0.12,-0.06 -0.12,-0.12 c -0.413,-0.486 -0.389,-0.442 -0.48,-1.08 m -0.001,-50.339 0,50.34 m 0.361,-51.6 c 0.41,-0.414 0.474,-0.521 1.021,-0.78 m -1.021,0.78 -0.06,0.18 -0.121,0.12 m 0,0 c -0.11,0.239 -0.2,0.697 -0.18,0.96 m 16.68,-161.16 -5.699,0.42 m 5.699,-0.42 5.58,0.06 5.521,0.66 5.46,1.2 5.221,1.68 m -69.241,124.2 c -22.521,-17.532 -27.976,-48.245 -19.32,-74.46 8.697,-26.882 32.482,-49.51 61.08,-52.92 m 9.48,189.48 0,-0.061 0.06,0 m -0.06,-0.12 0.06,0.061 0,0.06 m -19.321,1.517 0,20.322 m -1.2,-31.259 1.2,0.72 0,-19.62 m 0,-0.001 -1.2,-0.659 m 1.92,20.34 0.061,0 m -0.061,0 c -0.119,0 -0.24,0 -0.359,0 l -0.12,0 -0.06,-0.061 -0.181,0 m 12.96,-1.439 6.061,-0.721 m -6.061,0.721 -6.119,0.779 -6.061,0.721 m 18.541,8.58 0,19.68 m 0,-50.22 0,19.68 -0.12,0 0,0.06 -0.18,0 m -0.66,31.8 0.06,0 0,-0.061 m -0.06,0.061 0.06,0 m 0.9,-1.38 0.06,0 m -0.72,1.26 -0.06,0.06 -0.061,0 -0.12,0.061 -0.06,0 m 0.961,-1.201 0,-0.18 m -0.66,1.26 0.12,-0.12 m 0,0 0.061,-0.061 m 0.118,-0.119 0.061,-0.061 m -0.061,0.061 -0.119,0.119 m 0.299,-0.3 -0.119,0.12 m 0.18,-0.299 0.061,-0.061 m -10e-4,-0.119 0.06,-0.12 0,-0.061 m -0.181,0.54 0,-0.06 0.061,-0.12 m 0.06,-0.179 0,0.119 m 0.06,-0.3 0,-0.06 m -15.901,3.48 2.521,0.061 m -2.521,-0.061 -2.34,-0.18 m 4.201,0.241 -0.18,0 -0.301,-0.061 m 11.221,-1.5 -2.521,0.601 m -2.52,0.479 2.521,-0.479 m 2.52,-0.601 2.34,-0.779 m -9.901,2.159 0.061,0 m 2.459,-0.3 -2.52,0.3 -2.52,0.181 m -5.94,-1.441 0,0.181 0.06,0.06 0,0.12 0.061,0.06 0,0.12 0.061,0.061 0.06,0.12 0.06,0.06 0,0.06 0.061,0.061 0.06,0 0,0.06 0.06,0 0.061,0.061 0.061,0.06 m -0.004,-0.004 0.06,0 m 0,0 0.06,0 0.061,0.061 m 0.059,0 0.06,0.06 m -0.24,-0.121 0.06,0 m 0.12,0.061 -0.061,0 m 0.121,0.06 0.18,0 m -0.06,-52.8 -0.061,0 m -0.42,0.3 0.061,-0.12 0.119,-0.06 0.061,0 m 0,0 0.061,-0.061 0.119,-0.06 m -0.78,0.721 0.119,-0.12 0,-0.06 0.061,-0.12 0.119,-0.061 0.061,-0.06 m -0.481,0.781 0,-0.061 0.061,-0.12 m -0.121,0.481 0,-0.12 0.06,-0.06 m 0.06,-0.301 0,-0.06 0.061,-0.06 0,-0.061 m -0.121,0.482 0,-0.12 m -0.06,0.3 0,0.06 m 0.02,19.712 -0.02,10.287 -1.2,-0.659 m 1.92,0.72 0.061,0 m -0.061,0 c -0.199,0 -0.399,0 -0.6,0 l 0,-0.061 -0.12,0 m 19.321,-12.119 0,9.899 m -0.06,-9.959 0.06,0 m 0,0 0,0.061 m -6.361,10.738 6.061,-0.779 m -6.061,0.779 -6.119,0.721 -6.061,0.72 M 298.778,155.96 c -1.619,-2.075 -2.292,-5.886 -2.279,-8.46 m 86.34,50.041 c -26.103,-20.396 -29.062,-57.817 -14.521,-85.979 15.117,-30.244 50.5,-50.504 83.761,-38.221 m 3.84,1.26 -3.84,-1.261 m -21.781,-3.599 -5.699,0.42 m 5.699,-0.42 5.58,0.06 5.521,0.66 5.46,1.2 5.221,1.68 m -65.642,127.14 -3.6,-2.94 -4.2,-3.6 -3.841,-3.96 -3.42,-4.38 -3.06,-4.74 -2.64,-5.04 -2.16,-5.34 c -4.658,-13.153 -5.071,-27.908 -1.68,-41.4 6.97,-29.523 32.037,-55.234 62.76,-58.92"
         id="path203" />
      <path
         style="fill:none;stroke:#000000;stroke-width:0.72000003;stroke-linecap:round;stroke-linejoin:round;stroke-miterlimit:10"
         inkscape:connector-curvature="0"
         stroke-miterlimit="10"
         d="m 423.759,226.821 2.22,-0.18 m -10.98,2.22 2.22,-0.66 2.159,-0.6 2.16,-0.421 m 4.441,-0.539 2.16,-0.061 m -6.601,0.6 2.221,-0.359 m 8.699,-0.061 -2.16,-0.18 -2.159,0 m 5.04,0.42 0.119,0.12 m -0.119,-0.12 -0.12,-0.06 -0.181,-0.061 m 0,0.001 -0.119,-0.06 -0.12,0 -0.181,-0.061 m 1.44,1.382 c -0.178,-0.35 -0.237,-0.82 -0.601,-1.021 m 0.601,21.6 0,0.24 m 0,10.141 0,0.239 m 50.88,80.521 0,0.06 m -0.119,0.18 0.119,-0.12 m -0.48,0.3 0.24,-0.12 m -0.66,0.299 0.121,-0.06 0.18,-0.061 m 0.599,-0.419 0,0.061 m -0.119,0.12 -0.121,0.06 m -0.24,0.12 -0.119,0.06 m -0.301,0.119 -0.18,0 m -2.58,17.04 -0.119,0.061 -0.061,0.119 m 0.661,-0.84 -0.18,0.24 -0.061,0.12 m 0,0.001 -0.18,0.18 -0.061,0.12 m 3.661,-16.501 0,-1.14 m -3.179,16.98 0.061,-0.239 m 0.479,-0.96 0.06,-0.12 0.36,-0.9 m 1.02,-3.18 -0.301,1.08 -0.3,1.02 -0.06,0.12 -0.36,0.96 m -0.419,1.02 -0.36,0.84 -0.119,0.12 m 2.158,-6.421 0.24,-1.14 m -0.24,1.14 -0.239,1.141 0,0.12 M 484.778,341 c -0.066,2.771 -0.297,5.312 -0.72,8.04 m -31.919,18.121 19.44,-4.62 m -10.08,-16.56 11.64,-2.82 10.56,-2.7 m 1.14,-113.1 0,-48.061 m -0.061,160.561 0.061,-112.561 0,-23.46 m -13.32,158.701 0,0.061 -0.18,0 m 6.84,-1.981 -0.54,0.3 -0.181,0.061 -0.119,0.06 m 0,-10e-4 -0.601,0.18 -0.12,0.061 m -0.359,0.119 0.359,-0.12 m 1.561,-0.66 0.119,-0.12 m 1.44,-1.14 0.12,-0.12 m -0.12,0.12 -0.6,0.6 m 1.861,-2.22 -0.42,0.66 -0.121,0.12 m 0,0 -0.479,0.6 -0.12,0.12 m -0.72,0.719 -0.54,0.36 -0.12,0.12 m -0.181,0.06 0.181,-0.06 m -6.96,2.161 4.74,-1.2 m -61.68,-132.3 1.26,0.72 m 8.039,-1.92 1.86,-0.24 m 7.38,0.059 -2.279,-0.18 -1.801,-0.06 m 5.041,31.98 -0.541,-0.3 m -0.18,-31.379 0.061,0 0.06,0.06 m -0.3,-0.121 -0.061,0 m 0.361,0.12 0.06,0 0.061,0.061 m -0.421,-0.181 0.06,0 0.06,0.061 0.061,0 m -0.181,0 -0.061,-0.061 m 0.061,0.12 0,-0.06 m 0.599,0.301 0.061,0.061 m -0.12,-0.121 -0.06,-0.061 m -0.06,-0.059 0.061,0 m 0.359,0.42 0,0.12 m -0.061,-0.181 -0.06,-0.06 m -0.12,-0.119 -0.06,-0.06 m -0.059,-0.061 -0.061,-0.06 m 0.541,1.081 0,-0.061 m -0.06,-0.42 -0.061,-0.06 m 0.001,-0.119 -0.061,-0.061 m 0.121,0.24 0,0.061 0.06,0.06 0,0.06 m -0.241,-0.48 -0.06,-0.06 m -8.1,-0.48 2.521,-0.12 0.779,-0.06 m -8.34,0.96 -1.619,0.359 -0.9,0.301 m 0,0 -2.34,0.72 m 4.859,-1.38 1.021,-0.24 1.5,-0.24 0.659,-0.06 m 10.201,21.18 -0.541,-0.3 M 296.499,146.84 l 0,0.66 m 0,-0.66 0.06,-0.6 0.06,-0.66 m -0.001,10e-4 c 0.057,-0.828 0.293,-1.568 0.541,-2.34 m 9.6,218.099 0.119,0.061 0.061,0.12 0.061,0.06 0.239,0.12 0.06,0.06 c 0.205,0.111 0.375,0.212 0.601,0.24 m -1.141,-0.661 -0.061,-0.12 -0.06,-0.06 m -16.979,-8.579 0,-0.18 m 0.959,2.04 0.12,0.06 0.06,0.061 0.24,0.119 m -0.84,-0.6 0.12,0.061 0.06,0.06 m -0.48,-0.661 0.12,0.24 m -0.299,-0.84 0,0.12 0.06,0.119 m 0.599,1.021 0.061,0.12 0.12,0.06 0.06,0.061 m -0.6,-0.661 0.061,0.06 0.119,0.24 m -0.421,-0.901 0.061,0.12 0,0.12 0.06,0.12 m -0.24,-0.959 0,0.12 0.06,0.12 0,0.12 m -0.12,-0.601 0,0.061 0.061,0 m -0.061,0 0.061,0 m -0.001,0 0.06,0 m -0.12,-0.061 0,0.24 m 1.32,2.041 0.119,0.06 m -0.3,-0.181 0.06,0.061 m -0.06,-0.061 -0.06,0 -0.061,-0.06 m 10e-4,10e-4 -0.06,-0.061 -0.12,-0.06 m -0.719,-1.259 -0.06,-0.12 0,-0.061 -0.061,-0.12 0,-0.18 m 0.241,0.961 -0.061,-0.18 -0.06,-0.12 m 0.24,0.42 0.061,0.12 m -0.3,-0.72 0,0.18 m 0.239,0.42 -0.06,0 -0.06,-0.12 m 0.6,0.78 c -0.212,-0.193 -0.285,-0.3 -0.42,-0.54 m 0.78,0.78 -0.119,-0.061 -0.12,-0.12 m 0.179,0.12 -0.06,0 m 0.12,0.061 0.121,0.06 m 0.119,0.059 16.5,7.2 m -9.119,-205.08 -0.121,0.24 m 0.121,-0.24 0.24,-0.479 m 0,0 c 0.664,-1.838 0.657,-2.596 0.779,-4.5 m -7.74,-3.12 0,-0.42 m 0,0.42 0.061,0.42 0,0.36 m 0,0 c 0.248,2.488 1.021,5.664 2.64,7.62 1.381,1.492 2.647,1.696 3.899,-0.061 m -6.6,-8.759 0,-0.42 m -2.039,-35.28 0,239.82 m 16.5,-231.42 -5.521,-2.82 m 0.001,0 -5.521,-2.76 -5.459,-2.82 m 9.719,38.82 0.061,0.42 m -0.241,-2.88 0.061,0.42 m -0.061,-0.42 -0.06,-0.42 -0.12,-0.42 m -4.439,-6.721 0.239,0 m -0.239,0 -0.181,0 -0.18,0.061 m 10e-4,0 c -2.091,0.646 -2.552,4.614 -2.521,6.42 m 7.321,0.24 c -0.33,-2.079 -1.76,-6.315 -4.2,-6.721 m 4.559,10.021 c 0.015,-0.683 -0.031,-1.367 -0.119,-2.04 m -9.66,202.979 0,-239.819 0,0.06 0.061,0 m 35.578,-69.96 c -21.881,16.094 -35.579,42.762 -35.579,69.96 m 58.799,-81.78 -6.06,2.16 -5.94,2.7 m 30.541,-7.92 -6.181,0.42 -6.18,1.08 m 30.541,0.6 -5.94,-1.32 -6.06,-0.66 m 28.439,9.119 -5.22,-2.94 -5.521,-2.4 m -54.419,4.021 -5.699,3.24 -5.521,3.72"
         id="path205" />
    </g>
    <g
       id="g3345"
       transform="matrix(-0.25533389,0,0,0.25533389,147.28506,419.01329)"
       style="fill:#000000">
      <g
         transform="translate(0,-329.90002)"
         id="g5"
         style="fill:#000000">
        <rect
           style="fill:#000000"
           id="rect7"
           height="510.10001"
           width="20"
           class="st0"
           transform="matrix(0.7071,-0.7071,0.7071,0.7071,-210.1008,334.642)"
           y="165.89999"
           x="288.89999" />
      </g>
      <g
         transform="translate(0,-329.90002)"
         id="g9"
         style="fill:#000000">
        <polygon
           style="fill:#000000"
           id="polygon11"
           points="59,249.4 34,156 127.4,181 220.7,206 122.4,244.4 84,342.8 "
           class="st0" />
      </g>
    </g>
  </g>
</svg>
