<?xml version="1.0" encoding="utf-8"?>
<!-- Generator: Adobe Illustrator 16.0.4, SVG Export Plug-In . SVG Version: 6.00 Build 0)  -->
<!DOCTYPE svg PUBLIC "-//W3C//DTD SVG 1.1//EN" "http://www.w3.org/Graphics/SVG/1.1/DTD/svg11.dtd">
<svg version="1.1" id="Capa_1" xmlns="http://www.w3.org/2000/svg" xmlns:xlink="http://www.w3.org/1999/xlink" x="0px" y="0px"
	 width="64px" height="64px" viewBox="0 0 64 64" enable-background="new 0 0 64 64" xml:space="preserve">
<g>
	<path d="M21.629,47H30V14c0-0.552-0.448-1-1-1H9.952c-0.967-0.976-2.306-1.583-3.785-1.583c-2.94,0-5.333,2.393-5.333,5.333
		c0,1.246,0.447,2.378,1.166,3.287V48c0,0.552,0.448,1,1,1h16.072L21.629,47z M24.97,14.197c2.16,0,3.917,1.757,3.917,3.917
		c0,2.16-1.757,3.917-3.917,3.917s-3.917-1.757-3.917-3.917C21.053,15.954,22.811,14.197,24.97,14.197z M6.142,12.867
		c2.131,0,3.858,1.727,3.858,3.858c0,2.13-1.727,3.858-3.858,3.858s-3.858-1.728-3.858-3.858
		C2.284,14.594,4.011,12.867,6.142,12.867z M4.166,33c0-6.571,5.346-11.917,11.917-11.917S28,26.429,28,33
		s-5.346,11.917-11.917,11.917S4.166,39.571,4.166,33z"/>
	<path d="M16.083,22.083c-6.02,0-10.917,4.897-10.917,10.917s4.897,10.917,10.917,10.917S27,39.02,27,33
		S22.103,22.083,16.083,22.083z M16.33,35.208c-1.268,0-2.295-1.027-2.295-2.295s1.027-2.295,2.295-2.295s2.295,1.027,2.295,2.295
		S17.598,35.208,16.33,35.208z"/>
	<circle cx="24.97" cy="18.114" r="2.917"/>
	<path d="M46,52H18c-0.552,0-1.056,0.443-1.124,0.993l-0.752,6.015C16.056,59.557,16.448,60,17,60h30
		c0.552,0,0.943-0.443,0.876-0.993l-0.752-6.015C47.057,52.443,46.552,52,46,52z M22,58h-3v-1h3V58z M32.467,59.312
		c-1.759,0-3.186-1.426-3.186-3.186s1.426-3.186,3.186-3.186c1.021,0,1.921,0.489,2.503,1.236l-1.04,0.369
		c-0.521,0.185-0.793,0.756-0.608,1.276c0.146,0.41,0.531,0.666,0.942,0.666c0.111,0,0.224-0.019,0.334-0.058l1.048-0.371
		c0.001,0.022,0.007,0.044,0.007,0.066C35.652,57.887,34.227,59.312,32.467,59.312z"/>
	<path d="M47.25,22.083c-6.02,0-10.917,4.897-10.917,10.917S41.23,43.917,47.25,43.917S58.167,39.02,58.167,33
		S53.27,22.083,47.25,22.083z M47.33,35.208c-1.268,0-2.295-1.027-2.295-2.295s1.027-2.295,2.295-2.295s2.295,1.027,2.295,2.295
		S48.598,35.208,47.33,35.208z"/>
	<path d="M38.363,21.031c1.609,0,2.918-1.309,2.918-2.917c0-1.609-1.309-2.917-2.918-2.917c-1.607,0-2.916,1.309-2.916,2.917
		C35.447,19.723,36.756,21.031,38.363,21.031z"/>
	<path d="M57.167,11.417c-1.479,0-2.817,0.607-3.785,1.583H34c-0.552,0-1,0.448-1,1v33h9.432l2.558,2H60c0.552,0,1-0.448,1-1V20.442
		c0.924-0.959,1.5-2.258,1.5-3.692C62.5,13.81,60.107,11.417,57.167,11.417z M38.363,14.197c2.16,0,3.918,1.757,3.918,3.917
		c0,2.16-1.758,3.917-3.918,3.917c-2.159,0-3.916-1.757-3.916-3.917C34.447,15.954,36.204,14.197,38.363,14.197z M47.25,44.917
		c-6.571,0-11.917-5.346-11.917-11.917s5.346-11.917,11.917-11.917S59.167,26.429,59.167,33S53.821,44.917,47.25,44.917z
		 M57.191,20.583c-2.131,0-3.858-1.728-3.858-3.858c0-2.131,1.728-3.858,3.858-3.858s3.857,1.727,3.857,3.858
		C61.049,18.855,59.322,20.583,57.191,20.583z"/>
	<polygon points="18.138,51 45.924,51 42.088,48 21.974,48 	"/>
	<circle cx="6.329" cy="16.754" r="1.777"/>
	<circle cx="57.329" cy="16.754" r="1.777"/>
</g>
</svg>
