<?xml version="1.0" encoding="utf-8"?>
<!-- Generator: Adobe Illustrator 16.0.4, SVG Export Plug-In . SVG Version: 6.00 Build 0)  -->
<!DOCTYPE svg PUBLIC "-//W3C//DTD SVG 1.1//EN" "http://www.w3.org/Graphics/SVG/1.1/DTD/svg11.dtd">
<svg version="1.1" id="Capa_1" xmlns="http://www.w3.org/2000/svg" xmlns:xlink="http://www.w3.org/1999/xlink" x="0px" y="0px"
	 width="64px" height="64px" viewBox="0 0 64 64" enable-background="new 0 0 64 64" xml:space="preserve">
<g>
	<path d="M7,47.614V19.75c0-1.499,1.358-2.813,2.906-2.813c1.575,0,2.906,1.231,2.906,2.688c0,0.552,0.448,1,1,1s1-0.448,1-1
		c0-2.585-2.201-4.688-4.906-4.688C7.247,14.937,5,17.141,5,19.75v27.906C4.225,48.149,3.688,49,3.688,49h4.687
		C8.375,49,7.81,48.099,7,47.614z"/>
	<path d="M59,33.575c-0.293-0.175-0.65-0.263-1.064-0.188c-9.022,1.61-17.5-3.88-25.87-6.333c-0.065-0.019-0.13-0.035-0.195-0.054
		c-6.668-1.921-13.708-2.241-20.187,0c-1.092,0.378-2.17,0.821-3.226,1.349c-0.016,0.008-0.032,0.014-0.047,0.022
		C7.46,28.849,7.494,29.843,8,30.501c0.415,0.539,1.147,0.852,1.924,0.461c9.181-4.618,19.315-2.063,28.402,1.455
		c6.619,2.562,13.217,5.146,20.406,3.862c0.098-0.016,0.184-0.045,0.268-0.075C60.188,35.775,59.977,34.158,59,33.575z"/>
	<path d="M38.326,34.417c-9.088-3.518-19.221-6.073-28.402-1.455C9.147,33.352,8.415,33.04,8,32.501c0,0,2.231,11.489,4.899,14.008
		l-0.032,1.134c-0.036,1.252,0.698,1.597,1.64,0.771c0.752-0.66,1.383-1.214,1.609-1.412h34.632l1.548,1.403
		C53.236,49.256,54,48.932,54,47.68c0-0.337,0-0.652,0-0.939c2.713-1.408,5-8.537,5-8.537c-0.084,0.031-0.17,0.059-0.268,0.076
		C51.543,39.562,44.945,36.98,38.326,34.417z"/>
</g>
</svg>
