<?xml version="1.0" encoding="utf-8"?>
<!-- Generator: Adobe Illustrator 16.0.4, SVG Export Plug-In . SVG Version: 6.00 Build 0)  -->
<!DOCTYPE svg PUBLIC "-//W3C//DTD SVG 1.1//EN" "http://www.w3.org/Graphics/SVG/1.1/DTD/svg11.dtd">
<svg version="1.1" id="Capa_1" xmlns="http://www.w3.org/2000/svg" xmlns:xlink="http://www.w3.org/1999/xlink" x="0px" y="0px"
	 width="64px" height="64px" viewBox="0 0 64 64" enable-background="new 0 0 64 64" xml:space="preserve">
<g>
	<rect x="15" y="30" width="4" height="2"/>
	<path d="M59,33H12v-3.364c0.572-0.379,2.119-0.849,2.73-0.849c0.194,0,0.377,0.099,0.485,0.213h3.079
		c-0.104-1.758-1.686-3.213-3.564-3.213c-0.681,0-5.73,0.735-5.73,3.479V33H6c-0.829,0-1.5,0.672-1.5,1.5S5.171,36,6,36h53
		c0.828,0,1.5-0.672,1.5-1.5S59.828,33,59,33z"/>
	<path d="M4.755,37.814c0,0,1.984,0.715,3.129,4.644c0.753,2.584-0.861,7.748,6.087,10.982c-0.001,0.023-0.005,0.055-0.006,0.077
		l-0.159,3.318c-0.027,0.551,0.329,0.758,0.795,0.461l2.794-1.781c0.246-0.157,0.564-0.385,0.841-0.641
		c3.167,0.771,7.346,1.279,12.884,1.386l-0.082,0.024c0.396,0,0.762-0.009,1.146-0.013c0.384,0.004,0.75,0.013,1.146,0.013
		l-0.111-0.024c5.671-0.106,9.937-0.635,13.159-1.434c0.287,0.274,0.626,0.522,0.887,0.688l2.795,1.781
		c0.465,0.297,0.821,0.09,0.795-0.461l-0.16-3.318c-0.002-0.049-0.009-0.112-0.012-0.167c6.84-3.238,5.422-8.332,6.168-10.893
		c1.146-3.929,2.885-4.644,2.885-4.644L32,37.635L4.755,37.814z"/>
	<path d="M23.801,22.423c0.263,0.184,0.562,0.298,0.885,0.298c0.854,0,1.564-0.735,1.758-1.721h-1.408
		C24.85,21.613,24.365,22.122,23.801,22.423z"/>
	<path d="M25.06,20h1.4c-0.174-1.02-0.901-1.785-1.774-1.785c-0.324,0-0.623,0.114-0.886,0.298
		C24.383,18.826,24.889,19.359,25.06,20z"/>
	<path d="M24.431,24.218c2.067,0,3.749-1.682,3.749-3.749c0-2.067-1.682-3.749-3.749-3.749s-3.749,1.682-3.749,3.749
		C20.682,22.536,22.364,24.218,24.431,24.218z M22.851,18.227c0.448-0.317,0.991-0.507,1.581-0.507c1.355,0,2.478,0.988,2.702,2.28
		c0.026,0.153,0.047,0.308,0.047,0.469c0,0.182-0.02,0.359-0.054,0.531c-0.249,1.262-1.362,2.218-2.695,2.218
		c-0.59,0-1.134-0.191-1.583-0.509c-0.703-0.498-1.167-1.314-1.167-2.24C21.682,19.542,22.146,18.725,22.851,18.227z"/>
	<path d="M37.965,26h-1.447c-0.158,0.833-0.872,1.51-1.643,1.783c0.245,0.083,0.505,0.137,0.779,0.137
		C36.83,27.92,37.796,27.085,37.965,26z"/>
	<path d="M36.42,25h1.464c-0.298-0.916-1.178-1.586-2.229-1.586c-0.274,0-0.533,0.054-0.777,0.137
		C35.54,23.786,36.158,24.322,36.42,25z"/>
	<path d="M35.866,29.416h0.002c2.067,0,3.749-1.682,3.749-3.749s-1.682-3.749-3.749-3.749s-3.749,1.682-3.749,3.749
		S33.8,29.416,35.866,29.416z M34.286,23.426c0.448-0.318,0.992-0.508,1.582-0.508c1.284,0,2.357,0.889,2.657,2.082
		c0.055,0.215,0.092,0.436,0.092,0.667c0,0.114-0.021,0.223-0.034,0.333c-0.166,1.357-1.314,2.416-2.717,2.416
		c-0.59,0-1.134-0.191-1.582-0.509c-0.702-0.499-1.165-1.315-1.165-2.24C33.119,24.741,33.583,23.925,34.286,23.426z"/>
	<path d="M44.083,11.111c0-0.038-0.007-0.073-0.009-0.111h-1.29c0.003,0.038,0.015,0.073,0.015,0.111
		c0,0.848-0.61,1.578-1.338,1.962c0.254,0.18,0.542,0.292,0.854,0.292C43.291,13.364,44.083,12.355,44.083,11.111z"/>
	<path d="M42.426,10h1.419c-0.305-0.679-0.872-1.142-1.53-1.142c-0.311,0-0.599,0.111-0.853,0.291
		C41.841,9.349,42.181,9.642,42.426,10z"/>
	<path d="M42.105,14.86c2.067,0,3.75-1.682,3.75-3.749s-1.683-3.749-3.75-3.749c-2.066,0-3.748,1.682-3.748,3.749
		S40.039,14.86,42.105,14.86z M40.524,8.87c0.447-0.317,0.991-0.508,1.581-0.508c1.12,0,2.083,0.675,2.511,1.638
		c0.137,0.308,0.214,0.646,0.228,1c0.002,0.038,0.012,0.073,0.012,0.111c0,1.516-1.233,2.749-2.75,2.749
		c-0.59,0-1.135-0.191-1.582-0.509c-0.703-0.499-1.166-1.315-1.166-2.24C39.357,10.185,39.82,9.368,40.524,8.87z"/>
</g>
</svg>
