<?xml version="1.0" encoding="utf-8"?>
<!-- Generator: Adobe Illustrator 16.0.4, SVG Export Plug-In . SVG Version: 6.00 Build 0)  -->
<!DOCTYPE svg PUBLIC "-//W3C//DTD SVG 1.1//EN" "http://www.w3.org/Graphics/SVG/1.1/DTD/svg11.dtd">
<svg version="1.1" id="Capa_1" xmlns="http://www.w3.org/2000/svg" xmlns:xlink="http://www.w3.org/1999/xlink" x="0px" y="0px"
	 width="64px" height="64px" viewBox="0 0 64 64" enable-background="new 0 0 64 64" xml:space="preserve">
<g>
	<path d="M25.526,35.974c-0.388-0.379-0.764-0.754-1.102-1.145L11.202,47.895c-2.977,0.133-7.286,0.361-7.502,0.576
		c-0.216,0.213-1.08,1.245-1.102,1.596c-0.087,1.363,1.957,2.885,4.066,4.97c2.095,2.069,3.583,4.121,4.951,4.067
		c0.365-0.014,1.417-0.865,1.638-1.084l0.518-7.039l13.507-13.347c-0.461-0.393-0.932-0.853-1.453-1.368L25.526,35.974z
		 M7.538,52.846l-0.187,0.186c-0.155,0.152-0.407,0.152-0.562,0l-2.435-2.406c-0.155-0.152-0.155-0.402,0-0.555l0.187-0.186
		c0.155-0.152,0.407-0.152,0.562,0l2.435,2.406C7.693,52.443,7.693,52.693,7.538,52.846z M12.034,57.289l-0.187,0.186
		c-0.155,0.152-0.407,0.152-0.562,0L8.85,55.068c-0.155-0.153-0.155-0.402,0-0.555l0.187-0.186c0.155-0.153,0.407-0.153,0.562,0
		l2.435,2.406C12.189,56.887,12.189,57.136,12.034,57.289z"/>
	<path d="M54.199,12.996c-1.18,0.479-1.893,1.837-2.292,2.974c-0.403,1.147-0.684,2.331-0.867,3.531l3.979-4.646
		c0.569-0.564,1.245-1.003,1.947-1.374C56.084,12.949,55.112,12.625,54.199,12.996z"/>
	<path d="M60.666,9.983L56.17,5.541c-1.055-1.042-2.278-1.593-3.539-1.593c-1.316,0-2.636,0.615-3.812,1.778L31.42,21.854
		c-0.049-0.025-0.098-0.05-0.154-0.067c-0.346-0.108-0.709-0.174-1.067-0.164c-0.347,0.009-0.688,0.09-1,0.28
		c-0.587,0.358-0.827,0.993-0.908,1.642c-0.019,0.152-0.037,0.306-0.04,0.456c-0.006,0.328,0.12,0.57,0.309,0.731
		c-0.615,0.665-1.169,1.297-1.65,1.888l8.533,8.432c2.547-2.06,6.108-5.411,11.36-10.601l1.95-2.278
		c0.053-3.173,0.597-6.631,2.356-9.025c2.276-3.094,5.294-2.46,7.917-0.602c1.098-0.459,2.215-0.933,2.311-1.424
		C61.387,10.863,61.148,10.459,60.666,9.983z"/>
	<path d="M24.196,31.922c0.004,1.355,0.942,2.273,2.029,3.335l0.302,0.297c1.423,1.407,2.363,2.338,3.62,2.338
		c0.917,0,2.044-0.461,3.687-1.619l-8.138-8.042C24.688,29.718,24.193,30.935,24.196,31.922z"/>
</g>
</svg>
