<?xml version="1.0" encoding="utf-8"?>
<!-- Generator: Adobe Illustrator 16.0.4, SVG Export Plug-In . SVG Version: 6.00 Build 0)  -->
<!DOCTYPE svg PUBLIC "-//W3C//DTD SVG 1.1//EN" "http://www.w3.org/Graphics/SVG/1.1/DTD/svg11.dtd">
<svg version="1.1" id="Capa_1" xmlns="http://www.w3.org/2000/svg" xmlns:xlink="http://www.w3.org/1999/xlink" x="0px" y="0px"
	 width="64px" height="64px" viewBox="0 0 64 64" enable-background="new 0 0 64 64" xml:space="preserve">
<g>
	<path d="M59,18h-3c-0.552,0-1,0.448-1,1v6.479c0.341,0.635,0.552,1.35,0.552,2.12s-0.211,1.484-0.552,2.12V32h-2.958
		c-0.328,0.076-0.666,0.125-1.017,0.125S50.337,32.076,50.009,32H9v-9c0-0.552-0.448-1-1-1H5c-0.552,0-1,0.448-1,1v10v5v9
		c0,0.552,0.448,1,1,1h3c0.552,0,1-0.448,1-1v-8h46v8c0,0.552,0.448,1,1,1h3c0.552,0,1-0.448,1-1V19C60,18.448,59.552,18,59,18z"/>
	<path d="M46.813,25.977L39,25H17.875L10,26v5h37v-1.376c-0.31-0.612-0.5-1.293-0.5-2.024C46.5,27.026,46.618,26.482,46.813,25.977z
		"/>
	<path d="M51.025,31.125c1.944,0,3.526-1.582,3.526-3.526s-1.582-3.526-3.526-3.526S47.5,25.655,47.5,27.599
		S49.081,31.125,51.025,31.125z"/>
</g>
</svg>
