<?xml version="1.0" encoding="utf-8"?>
<!-- Generator: Adobe Illustrator 16.0.4, SVG Export Plug-In . SVG Version: 6.00 Build 0)  -->
<!DOCTYPE svg PUBLIC "-//W3C//DTD SVG 1.1//EN" "http://www.w3.org/Graphics/SVG/1.1/DTD/svg11.dtd">
<svg version="1.1" id="Capa_1" xmlns="http://www.w3.org/2000/svg" xmlns:xlink="http://www.w3.org/1999/xlink" x="0px" y="0px"
	 width="64px" height="64px" viewBox="0 0 64 64" enable-background="new 0 0 64 64" xml:space="preserve">
<g>
	<rect x="6" y="40" fill="#0C140E" width="4" height="4"/>
	<rect x="53" y="40" fill="#0C140E" width="4" height="4"/>
	<polygon fill="#0C140E" points="2,39 6,39 10,39 41,39 41,28 2,28 	"/>
	<path fill="#0C140E" d="M50.023,23.438c-4.035,0-7.306,1.562-7.306,3.562H57.33C57.33,25,54.059,23.438,50.023,23.438z"/>
	<path fill="#0C140E" d="M58,14.559V28H42v11h11h4h2h2v-7v-4V14.504c-0.453,0.28-0.98,0.449-1.551,0.449
		C58.92,14.953,58.431,14.803,58,14.559z"/>
	<circle fill="#0C140E" cx="59.449" cy="11.986" r="1.967"/>
</g>
</svg>
