<?xml version="1.0" encoding="iso-8859-1"?>
<!-- Generator: Adobe Illustrator 17.0.0, SVG Export Plug-In . SVG Version: 6.00 Build 0)  -->
<!DOCTYPE svg PUBLIC "-//W3C//DTD SVG 1.1//EN" "http://www.w3.org/Graphics/SVG/1.1/DTD/svg11.dtd">
<svg version="1.1" id="Capa_1" xmlns="http://www.w3.org/2000/svg" xmlns:xlink="http://www.w3.org/1999/xlink" x="0px" y="0px"
	 width="64px" height="64px" viewBox="0 0 64 64" style="enable-background:new 0 0 64 64;" xml:space="preserve">
<g>
	<path d="M55.84,20.427c-0.246-1.413-1.426-3.189-2.634-3.966L35.472,5.065c-1.208-0.776-3.164-0.771-4.367,0.013l-17.63,11.478
		c-1.204,0.783-2.381,2.565-2.629,3.979L8.402,34.456c-0.082,0.473,0.023,1.097,0.234,1.396c0.211,0.3,0.731,0.371,1.16,0.159
		l21.153-10.39c1.289-0.632,3.379-0.636,4.67-0.003L56.89,36.014c0.43,0.21,0.911,0.015,1.073-0.435l0.057-0.158
		c0.164-0.45,0.23-1.197,0.148-1.669L55.84,20.427z"/>
	<path d="M30.944,27.992L11.881,37.23l1.009,18.886c0.077,1.435,1.303,2.597,2.739,2.597h9.396c1.437,0,2.648-0.073,2.706-0.163
		c0.058-0.089,0.104-1.327,0.104-2.763V45.87c0.373-0.006,0.726-0.095,1.038-0.258c0.66,0.345,1.539,0.335,2.192-0.023
		c0.668,0.367,1.568,0.367,2.235,0c0.666,0.366,1.562,0.368,2.227,0.004c0.674,0.368,1.58,0.362,2.248-0.015
		c0.321,0.181,0.688,0.277,1.073,0.288v9.921c0,1.436,0.034,2.674,0.076,2.763c0.042,0.09,1.239,0.163,2.676,0.163h9.457
		c1.437,0,2.628-1.163,2.663-2.599l0.478-19.721l-18.552-8.457C34.344,27.343,32.236,27.366,30.944,27.992z M20.125,51.019h-2.6
		v-2.275h2.6V51.019z M20.125,47.879h-2.6v-2.926h2.6V47.879z M23.593,51.019h-2.601v-2.275h2.601V51.019z M23.593,47.879h-2.601
		v-2.926h2.601V47.879z M46.509,44.953h2.329v2.654h-2.329V44.953z M46.509,48.475h2.329v2.545h-2.329V48.475z M42.771,44.953h2.871
		v2.654h-2.871V44.953z M42.771,48.475h2.871v2.545h-2.871V48.475z M39.75,43.5c0.003,0.004,0.006,0.011,0.01,0.015l0.234,0.311
		h-0.023c0.055,0.129,0.088,0.269,0.088,0.417c0,0.579-0.471,1.047-1.049,1.047c-0.475,0-0.86-0.324-0.989-0.759h-0.296
		c-0.128,0.435-0.514,0.759-0.99,0.759c-0.475,0-0.86-0.324-0.989-0.759h-0.242c-0.127,0.435-0.513,0.759-0.989,0.759
		c-0.476,0-0.861-0.324-0.99-0.759h-0.254c-0.129,0.435-0.515,0.759-0.99,0.759c-0.477,0-0.862-0.324-0.989-0.759h-0.256
		c-0.128,0.435-0.515,0.759-0.99,0.759c-0.475,0-0.86-0.324-0.989-0.759h-0.171c-0.128,0.435-0.514,0.759-0.99,0.759
		c-0.578,0-1.047-0.468-1.047-1.047c0-0.233,0.092-0.438,0.221-0.613l1.008-1.536h10.619L39.75,43.5z M37.84,37.098h-8.775V30.76
		h8.775V37.098z"/>
</g>
</svg>
