<?xml version="1.0" encoding="utf-8"?>
<!-- Generator: Adobe Illustrator 17.0.0, SVG Export Plug-In . SVG Version: 6.00 Build 0)  -->
<!DOCTYPE svg PUBLIC "-//W3C//DTD SVG 1.1//EN" "http://www.w3.org/Graphics/SVG/1.1/DTD/svg11.dtd">
<svg version="1.1" id="Capa_1" xmlns="http://www.w3.org/2000/svg" xmlns:xlink="http://www.w3.org/1999/xlink" x="0px" y="0px"
	 width="64px" height="64px" viewBox="0 0 64 64" enable-background="new 0 0 64 64" xml:space="preserve">
<g>
	<path d="M8.044,35.116l1.232-1.228l3.652,24.276c0,1.014,0.841,1.836,1.879,1.836H50.09c1.038,0,1.879-0.822,1.879-1.836
		l3.566-23.702l0.711,0.689c0.582,0.564,1.335,0.845,2.087,0.845c0.783,0,1.566-0.305,2.154-0.913
		c1.153-1.19,1.123-3.089-0.067-4.242L35.988,7.173c-1.133-1.133-2.64-1.757-4.243-1.757c-1.602,0-3.108,0.624-4.242,1.757
		L3.802,30.874c-1.172,1.171-1.172,3.071,0,4.242C4.974,36.288,6.872,36.288,8.044,35.116z M32.417,47.667
		c-4.096,0-7.417-3.321-7.417-7.417c0-4.096,3.321-7.417,7.417-7.417c4.096,0,7.417,3.321,7.417,7.417
		C39.833,44.346,36.513,47.667,32.417,47.667z"/>
</g>
</svg>
