<?xml version="1.0" encoding="utf-8"?>
<!-- Generator: Adobe Illustrator 16.0.4, SVG Export Plug-In . SVG Version: 6.00 Build 0)  -->
<!DOCTYPE svg PUBLIC "-//W3C//DTD SVG 1.1//EN" "http://www.w3.org/Graphics/SVG/1.1/DTD/svg11.dtd">
<svg version="1.1" id="Capa_1" xmlns="http://www.w3.org/2000/svg" xmlns:xlink="http://www.w3.org/1999/xlink" x="0px" y="0px"
	 width="64px" height="64px" viewBox="0 0 64 64" enable-background="new 0 0 64 64" xml:space="preserve">
<g>
	<path d="M42,57.277V26.726v-0.768V23v-0.291C42,22.31,41.79,19,37.863,17h-0.002L37,8h-6c0,0-1.25,8.5-1.291,9
		C25.196,20,25,22.31,25,22.709V23v2.958V27h1.099H32v24h-7v7h0.506c0.94,0.817,3.948,1.416,7.52,1.416
		c3.572,0,7.394-0.599,8.616-1.416H42v-0.359c0.029-0.06,0.049-0.12,0.049-0.182S42.029,57.337,42,57.277z"/>
	<path d="M32.334,7h3.333C36.402,7,37,6.403,37,5.667V5.333C37,4.597,36.402,4,35.666,4h-3.333C31.597,4,31,4.597,31,5.333v0.334
		C31,6.403,31.597,7,32.334,7z"/>
</g>
</svg>
