<?xml version="1.0" encoding="utf-8"?>
<!-- Generator: Adobe Illustrator 16.0.4, SVG Export Plug-In . SVG Version: 6.00 Build 0)  -->
<!DOCTYPE svg PUBLIC "-//W3C//DTD SVG 1.1//EN" "http://www.w3.org/Graphics/SVG/1.1/DTD/svg11.dtd">
<svg version="1.1" id="Capa_1" xmlns="http://www.w3.org/2000/svg" xmlns:xlink="http://www.w3.org/1999/xlink" x="0px" y="0px"
	 width="64px" height="64px" viewBox="0 0 64 64" enable-background="new 0 0 64 64" xml:space="preserve">
<g>
	<path d="M56,34V17c0-6.627-5.373-12-12-12H20C13.373,5,8,10.373,8,17v17H4v25h6V39h44v20h6V34H56z M53,34H11V17
		c0-4.963,4.037-9,9-9h24c4.963,0,9,4.037,9,9V34z"/>
	<path d="M12,48h40v-7H12V48z M25,44h14v1H25V44z"/>
	<path d="M43.461,16.303l-1.164-1.626l4.445-3.183l1.165,1.626L43.461,16.303z M42.593,20.173l-1.165-1.626l4.445-3.182l1.164,1.626
		L42.593,20.173z M15.449,27.309l-1.143-1.642l7.447-5.184l1.143,1.642L15.449,27.309z M14.592,31.173l-1.164-1.626l4.445-3.182
		l1.164,1.626L14.592,31.173z"/>
</g>
</svg>
