<?xml version="1.0" encoding="utf-8"?>
<!-- Generator: Adobe Illustrator 16.0.4, SVG Export Plug-In . SVG Version: 6.00 Build 0)  -->
<!DOCTYPE svg PUBLIC "-//W3C//DTD SVG 1.1//EN" "http://www.w3.org/Graphics/SVG/1.1/DTD/svg11.dtd">
<svg version="1.1" id="Capa_1" xmlns="http://www.w3.org/2000/svg" xmlns:xlink="http://www.w3.org/1999/xlink" x="0px" y="0px"
	 width="64px" height="64px" viewBox="0 0 64 64" enable-background="new 0 0 64 64" xml:space="preserve">
<g>
	<polygon points="40.494,53 41.51,57 6.201,57 7.216,53 5.46,53 4.24,58 43.723,58 42.502,53 	"/>
	<path d="M26,7c0-1.104-0.896-2-2-2s-2,0.896-2,2v45h4V7z"/>
	<path d="M48,26.164V56c0,1.104,0.896,2,2,2s2-0.896,2-2V26.2c-0.659,0.114-1.354,0.194-2.134,0.194
		C49.197,26.394,48.579,26.31,48,26.164z"/>
	<path d="M39.463,53H8.248l-0.762,3h32.738L39.463,53z M9.026,54.572c-0.308,0-0.557-0.25-0.557-0.557
		c0-0.309,0.25-0.558,0.557-0.558s0.557,0.249,0.557,0.558C9.583,54.322,9.333,54.572,9.026,54.572z M38.102,54.707
		c-0.34,0-0.615-0.275-0.615-0.616c0-0.34,0.275-0.616,0.615-0.616c0.341,0,0.616,0.276,0.616,0.616
		C38.718,54.432,38.442,54.707,38.102,54.707z"/>
	<path d="M48.673,7.157l-1.781,9.526L45.41,6.074l-4.225-1.958c0.013,6.962,0.327,21.278,8.681,21.278
		c8.535,0,8.678-7.747,8.68-14.726L48.673,7.157z"/>
</g>
</svg>
