<?xml version="1.0" encoding="utf-8"?>
<!-- Generator: Adobe Illustrator 16.0.0, SVG Export Plug-In . SVG Version: 6.00 Build 0)  -->
<!DOCTYPE svg PUBLIC "-//W3C//DTD SVG 1.1//EN" "http://www.w3.org/Graphics/SVG/1.1/DTD/svg11.dtd">
<svg version="1.1" id="Capa_1" xmlns="http://www.w3.org/2000/svg" xmlns:xlink="http://www.w3.org/1999/xlink" x="0px" y="0px"
	 width="64px" height="64px" viewBox="0 0 64 64" enable-background="new 0 0 64 64" xml:space="preserve">
<g>
	<path d="M21.419,7.938L3.251,12.264v46.071l18.342,5.307l17.967-5.199c0,0,0.062-45.654,0-45.666L21.419,7.938z M37.598,56.578
		l-13.867,4.01V19.383l13.867-4.01V56.578z"/>
	<polygon points="25.5,21.942 25.5,28.486 26.692,28.148 30.14,27.176 30.14,20.634 26.692,21.606 	"/>
	<polygon points="36.071,18.968 31.433,20.276 31.433,26.82 36.071,25.511 	"/>
	<polygon points="25.5,30.507 25.5,37.051 26.692,36.713 30.14,35.74 30.14,29.198 26.692,30.172 	"/>
	<polygon points="36.071,27.533 31.433,28.842 31.433,35.385 36.071,34.076 	"/>
	<polygon points="25.5,39.072 25.5,45.615 26.692,45.279 30.14,44.308 30.14,37.764 26.692,38.735 	"/>
	<polygon points="36.071,36.099 31.433,37.405 31.433,43.948 36.071,42.64 	"/>
	<path d="M60.722,4.91L42.756,0.358l-18.344,4.04V6.89l16.928,4.444c0,0,0,39.979-0.005,44.028l1.421,0.411l17.966-5.195
		C60.722,50.578,60.782,4.922,60.722,4.91z M58.759,48.711l-13.864,4.013V11.517l13.864-4.011V48.711z"/>
	<polygon points="46.661,14.077 46.661,20.619 47.853,20.283 51.301,19.311 51.301,12.768 47.853,13.74 	"/>
	<polygon points="57.232,11.102 52.595,12.411 52.595,18.953 57.232,17.646 	"/>
	<polygon points="46.661,22.641 46.661,29.185 47.853,28.848 51.301,27.875 51.301,21.333 47.853,22.305 	"/>
	<polygon points="57.232,19.667 52.595,20.977 52.595,27.519 57.232,26.21 	"/>
	<polygon points="46.661,31.207 46.661,37.749 47.853,37.413 51.301,36.442 51.301,29.898 47.853,30.87 	"/>
	<polygon points="57.232,28.233 52.595,29.541 52.595,36.083 57.232,34.774 	"/>
</g>
</svg>
