<?xml version="1.0" encoding="utf-8"?>
<!-- Generator: Adobe Illustrator 16.0.4, SVG Export Plug-In . SVG Version: 6.00 Build 0)  -->
<!DOCTYPE svg PUBLIC "-//W3C//DTD SVG 1.1//EN" "http://www.w3.org/Graphics/SVG/1.1/DTD/svg11.dtd">
<svg version="1.1" id="Capa_1" xmlns="http://www.w3.org/2000/svg" xmlns:xlink="http://www.w3.org/1999/xlink" x="0px" y="0px"
	 width="64px" height="64px" viewBox="0 0 64 64" enable-background="new 0 0 64 64" xml:space="preserve">
<g>
	<path d="M38.959,47.448l-15.471-0.027c0,0-0.001,0-0.002,0c-0.827,0-1.499,0.67-1.5,1.497c-0.001,0.829,0.669,1.501,1.498,1.503
		l15.47,0.027c0.001,0,0.002,0,0.003,0c0.827,0,1.498-0.67,1.5-1.497C40.457,48.122,39.787,47.45,38.959,47.448z"/>
	<path d="M38.619,51.957L38.619,51.957l-14.796,0.014c-0.828,0.001-1.5,0.673-1.499,1.501s0.672,1.499,1.5,1.499
		c0,0,0.001,0,0.001,0l14.794-0.014c0.829-0.001,1.5-0.673,1.499-1.501S39.447,51.957,38.619,51.957z"/>
	<path d="M36.616,56.562c-0.002,0-0.005,0-0.008,0l-10.79,0.055c-0.828,0.004-1.497,0.679-1.492,1.508
		c0.004,0.825,0.675,1.492,1.5,1.492c0.002,0,0.005,0,0.008,0l10.79-0.055c0.828-0.004,1.496-0.679,1.492-1.508
		C38.112,57.229,37.441,56.562,36.616,56.562z"/>
	<path d="M47.068,21.01c0-9.579-7.104-17.344-15.867-17.344S15.333,11.431,15.333,21.01c0,4.458,1.552,8.509,4.08,11.581
		c-0.134,0.007-0.231,0.014-0.256,0.021c0.001,0,4.368,4.389,4.738,13.389H38.95c0,0,0.021-8.104,4.29-13.491c0,0-0.073,0-0.183,0
		C45.545,29.446,47.068,25.427,47.068,21.01z M31.5,42.5c-0.276,0-0.5-0.224-0.5-0.5V29.204l-5.37-5.479
		c-0.193-0.197-0.19-0.514,0.007-0.707c0.197-0.194,0.513-0.19,0.707,0.007l5.143,5.247l4.76-5.233
		c0.187-0.203,0.502-0.218,0.707-0.034c0.204,0.186,0.219,0.502,0.033,0.707L32,29.193V42C32,42.276,31.776,42.5,31.5,42.5z"/>
</g>
</svg>
