<?xml version="1.0" encoding="utf-8"?>
<!-- Generator: Adobe Illustrator 16.0.4, SVG Export Plug-In . SVG Version: 6.00 Build 0)  -->
<!DOCTYPE svg PUBLIC "-//W3C//DTD SVG 1.1//EN" "http://www.w3.org/Graphics/SVG/1.1/DTD/svg11.dtd">
<svg version="1.1" id="Capa_1" xmlns="http://www.w3.org/2000/svg" xmlns:xlink="http://www.w3.org/1999/xlink" x="0px" y="0px"
	 width="64px" height="64px" viewBox="0 0 64 64" enable-background="new 0 0 64 64" xml:space="preserve">
<g>
	<path d="M40.874,51H24.382c0,0.671,0.002,1.341,0.021,2h16.449C40.872,52.341,40.874,51.671,40.874,51z"/>
	<path d="M24.557,55h16.142c0.043-0.328,0.078-0.66,0.103-1H24.455C24.479,54.34,24.513,54.672,24.557,55z"/>
	<path d="M32.628,61.014c5.382,0,7.243-2.141,7.893-5.014H24.736C25.385,58.873,27.247,61.014,32.628,61.014z"/>
	<path d="M49.463,21.881c0-10.244-7.598-18.549-16.97-18.549c-9.373,0-16.97,8.305-16.97,18.549c0,4.905,1.755,9.353,4.6,12.67
		C19.837,34.562,24.284,39,24.678,49h16.101c0,0,4.457-14.625,4.229-14.624C47.767,31.078,49.463,26.701,49.463,21.881z"/>
</g>
</svg>
