<?xml version="1.0" encoding="utf-8"?>
<!-- Generator: Adobe Illustrator 16.0.4, SVG Export Plug-In . SVG Version: 6.00 Build 0)  -->
<!DOCTYPE svg PUBLIC "-//W3C//DTD SVG 1.1//EN" "http://www.w3.org/Graphics/SVG/1.1/DTD/svg11.dtd">
<svg version="1.1" id="Capa_1" xmlns="http://www.w3.org/2000/svg" xmlns:xlink="http://www.w3.org/1999/xlink" x="0px" y="0px"
	 width="64px" height="64px" viewBox="0 0 64 64" enable-background="new 0 0 64 64" xml:space="preserve">
<g>
	<path d="M14.935,55c-0.093,0.316-0.159,0.644-0.159,0.99c0,1.938,1.572,3.51,3.51,3.51s3.51-1.571,3.51-3.51
		c0-0.347-0.065-0.674-0.159-0.99H14.935z"/>
	<path d="M43.013,55c-0.094,0.316-0.159,0.644-0.159,0.99c0,1.938,1.572,3.51,3.51,3.51c1.939,0,3.511-1.571,3.511-3.51
		c0-0.347-0.065-0.674-0.159-0.99H43.013z"/>
	<path d="M12,4v50h41V4H12z M51,46.628C51,47.936,49.936,49,48.628,49H16.372C15.064,49,14,47.936,14,46.628V31.372
		C14,30.064,15.064,29,16.372,29h32.256C49.936,29,51,30.064,51,31.372V46.628z M51,23.628C51,24.936,49.936,26,48.628,26H16.372
		C15.064,26,14,24.936,14,23.628V8.372C14,7.064,15.064,6,16.372,6h32.256C49.936,6,51,7.064,51,8.372V23.628z"/>
	<path d="M48.628,7H16.372C15.616,7,15,7.616,15,8.372v15.256C15,24.384,15.616,25,16.372,25h32.256C49.385,25,50,24.384,50,23.628
		V8.372C50,7.616,49.385,7,48.628,7z M39,17v1H26v-1v-1c0-0.276,0.224-0.5,0.5-0.5S27,15.724,27,16v1h11v-1
		c0-0.276,0.224-0.5,0.5-0.5S39,15.724,39,16V17z"/>
	<path d="M48.628,30H16.372C15.616,30,15,30.616,15,31.372v15.256C15,47.385,15.616,48,16.372,48h32.256
		C49.385,48,50,47.385,50,46.628V31.372C50,30.616,49.385,30,48.628,30z M39,40v1H26v-1v-1c0-0.276,0.224-0.5,0.5-0.5
		S27,38.724,27,39v1h11v-1c0-0.276,0.224-0.5,0.5-0.5S39,38.724,39,39V40z"/>
</g>
</svg>
