<?xml version="1.0" encoding="utf-8"?>
<!-- Generator: Adobe Illustrator 16.0.4, SVG Export Plug-In . SVG Version: 6.00 Build 0)  -->
<!DOCTYPE svg PUBLIC "-//W3C//DTD SVG 1.1//EN" "http://www.w3.org/Graphics/SVG/1.1/DTD/svg11.dtd">
<svg version="1.1" id="Capa_1" xmlns="http://www.w3.org/2000/svg" xmlns:xlink="http://www.w3.org/1999/xlink" x="0px" y="0px"
	 width="64px" height="64px" viewBox="0 0 64 64" enable-background="new 0 0 64 64" xml:space="preserve">
<g>
	<path d="M45,26.439v4.825c3.514-0.091,8.024-0.204,8.896,2.798c0.86,2.967-3.565,7.263-5.158,9.395
		c-2.908,3.891-8.727,11.661-2.111,15.132c2.834,1.487,5.598-2.683,2.746-4.179c-2.618-1.374,8.535-14.756,9.404-17.756
		C61.435,27.486,51.564,26.841,45,26.439z"/>
	<path d="M44,38.929V19C43.497,17.873,30.402,7.354,28.948,6.995L21,7v43h7.973C30.576,49.619,43.234,40.286,44,38.929z"/>
	<rect x="5" y="17" width="12" height="3"/>
	<rect x="5" y="37" width="12" height="3"/>
	<polygon points="20,41 20,36 20,21 20,16 20,6 18,6 18,8 18,48 18,51 20,51 	"/>
</g>
</svg>
