<?xml version="1.0" encoding="utf-8"?>
<!-- Generator: Adobe Illustrator 16.0.4, SVG Export Plug-In . SVG Version: 6.00 Build 0)  -->
<!DOCTYPE svg PUBLIC "-//W3C//DTD SVG 1.1//EN" "http://www.w3.org/Graphics/SVG/1.1/DTD/svg11.dtd">
<svg version="1.1" id="Capa_1" xmlns="http://www.w3.org/2000/svg" xmlns:xlink="http://www.w3.org/1999/xlink" x="0px" y="0px"
	 width="64px" height="64px" viewBox="0 0 64 64" enable-background="new 0 0 64 64" xml:space="preserve">
<g>
	<path d="M28.565,32.2c0.083-8.401-0.439-13.664,8.873-14.376V7.591c-14.414,0-16.357,12.575-16.357,24.875
		c0,12.301,1.943,24.875,16.357,24.875V47.189C27.947,46.402,28.484,40.533,28.565,32.2z"/>
	<path d="M39.77,47.24c-0.334-0.062-0.712-0.098-1.148-0.098v0.119v10.143c3.652,0,3.454-2.297,3.454-5.131
		C42.075,49.778,42.226,47.701,39.77,47.24z"/>
	<path d="M39.77,17.744c2.266-0.487,2.125-2.562,2.125-5.048c0-2.848,0.187-5.157-3.273-5.157v10.219v0.095
		C39.061,17.853,39.439,17.815,39.77,17.744z"/>
	<path d="M46.001,9.833c0.146,0,0.294-0.032,0.435-0.1l5.167-2.5c0.497-0.241,0.705-0.839,0.465-1.336
		c-0.24-0.496-0.835-0.705-1.336-0.465l-5.167,2.5c-0.497,0.241-0.705,0.839-0.465,1.336C45.272,9.625,45.629,9.833,46.001,9.833z"
		/>
	<path d="M53,12h-7c-0.553,0-1,0.448-1,1s0.447,1,1,1h7c0.553,0,1-0.448,1-1S53.553,12,53,12z"/>
	<path d="M51.41,18.474l-4.418-2.232c-0.493-0.25-1.095-0.051-1.344,0.441c-0.249,0.493-0.052,1.095,0.441,1.344l4.418,2.232
		c0.145,0.073,0.299,0.107,0.45,0.107c0.365,0,0.718-0.201,0.894-0.549C52.101,19.324,51.903,18.723,51.41,18.474z"/>
</g>
</svg>
