<?xml version="1.0" encoding="utf-8"?>
<!-- Generator: Adobe Illustrator 16.0.4, SVG Export Plug-In . SVG Version: 6.00 Build 0)  -->
<!DOCTYPE svg PUBLIC "-//W3C//DTD SVG 1.1//EN" "http://www.w3.org/Graphics/SVG/1.1/DTD/svg11.dtd">
<svg version="1.1" id="Capa_1" xmlns="http://www.w3.org/2000/svg" xmlns:xlink="http://www.w3.org/1999/xlink" x="0px" y="0px"
	 width="64px" height="64px" viewBox="0 0 64 64" enable-background="new 0 0 64 64" xml:space="preserve">
<g>
	<path d="M32.143,30.5c7.811,0,13.7-1.72,13.7-4c0-4.972,0-10.605-1.739-14.965c-1.969-4.935-5.881-7.334-11.96-7.334
		c-13.701,0-13.701,12.364-13.701,22.299C18.442,28.78,24.332,30.5,32.143,30.5z"/>
	<rect x="30" y="32" width="5" height="1"/>
	<rect x="30" y="34" width="5" height="1"/>
	<rect x="30" y="36" width="5" height="1"/>
	<path d="M43.482,37.622c-1.21,0-2.631,0.143-4.277,0.307c-2.049,0.205-4.371,0.437-6.832,0.437c-2.613,0-5.053-0.328-7.206-0.617
		c-1.668-0.224-3.109-0.417-4.302-0.417c-2.371,0-3.252,0.778-3.252,2.872c0,1.38,5.615,3.306,14.76,3.306
		c9.145,0,14.76-1.926,14.76-3.306C47.133,38.322,46.144,37.622,43.482,37.622z"/>
	<ellipse cx="20.177" cy="56.288" rx="1.626" ry="1.657"/>
	<path d="M44.05,53.631c0.307,0,0.597,0.063,0.871,0.162c-0.438-5.505-6.555-6.181-9.921-6.129c-0.369,0.005-0.708,0.019-1,0.036
		v-3.214c-0.541,0.014-1.084,0.022-1.627,0.022c-0.458,0-0.916-0.006-1.373-0.017v3.27c-0.243-0.024-0.583-0.053-1-0.073
		c-3.088-0.155-10.219,0.146-10.694,6.104c0.274-0.099,0.564-0.162,0.871-0.162c0.465,0,0.895,0.133,1.274,0.349
		c0.066-1.539,1.226-4.312,8.549-4.671c0.321-0.017,0.655-0.027,1-0.033v0.449v1.883v2.479c0.435-0.286,0.951-0.456,1.508-0.456
		c0.55,0,1.061,0.167,1.492,0.447v-2.471v-1.883v-0.428c0.347,0.015,0.68,0.034,1,0.059c6.634,0.511,7.712,3.14,7.776,4.623
		C43.155,53.764,43.585,53.631,44.05,53.631z"/>
	<ellipse cx="44.05" cy="56.288" rx="1.626" ry="1.657"/>
	<ellipse cx="32.508" cy="56.442" rx="1.778" ry="1.811"/>
</g>
</svg>
