<?xml version="1.0" encoding="iso-8859-1"?>
<!-- Generator: Adobe Illustrator 17.0.0, SVG Export Plug-In . SVG Version: 6.00 Build 0)  -->
<!DOCTYPE svg PUBLIC "-//W3C//DTD SVG 1.1//EN" "http://www.w3.org/Graphics/SVG/1.1/DTD/svg11.dtd">
<svg version="1.1" id="Capa_1" xmlns="http://www.w3.org/2000/svg" xmlns:xlink="http://www.w3.org/1999/xlink" x="0px" y="0px"
	 width="64px" height="64px" viewBox="0 0 64 64" style="enable-background:new 0 0 64 64;" xml:space="preserve">
<g>
	<path d="M50.83,1.761H14.353c-6.627,0-12,5.373-12,12v36.477c0,6.627,5.373,12,12,12H50.83c6.627,0,12-5.373,12-12V13.761
		C62.83,7.134,57.458,1.761,50.83,1.761z M55.342,56.07H7.967c-0.828,0-1.5-0.672-1.5-1.5s0.672-1.5,1.5-1.5h2.125V25.007
		c0-2.485,2.243-4.507,5-4.507h13.75c0.434,0,0.848,0.066,1.25,0.16v-7.291c0-3.029,2.243-5.494,5-5.494h13.75
		c2.757,0,5,2.465,5,5.494V53.07h1.5c0.828,0,1.5,0.672,1.5,1.5S56.17,56.07,55.342,56.07z"/>
	<path d="M48.842,11.875h-13.75c-0.473,0-1,0.613-1,1.494V53.07h15.75V13.369C49.842,12.488,49.314,11.875,48.842,11.875z
		 M40.984,45.487c0,0.799-0.648,1.448-1.448,1.448h-2.473c-0.799,0-1.448-0.648-1.448-1.448v-2.473c0-0.799,0.648-1.448,1.448-1.448
		h2.473c0.799,0,1.448,0.648,1.448,1.448V45.487z M40.984,38.487c0,0.799-0.648,1.448-1.448,1.448h-2.473
		c-0.799,0-1.448-0.648-1.448-1.448v-2.473c0-0.799,0.648-1.448,1.448-1.448h2.473c0.799,0,1.448,0.648,1.448,1.448V38.487z
		 M40.984,31.487c0,0.799-0.648,1.448-1.448,1.448h-2.473c-0.799,0-1.448-0.648-1.448-1.448v-2.473c0-0.799,0.648-1.448,1.448-1.448
		h2.473c0.799,0,1.448,0.648,1.448,1.448V31.487z M40.984,24.487c0,0.799-0.648,1.448-1.448,1.448h-2.473
		c-0.799,0-1.448-0.648-1.448-1.448v-2.473c0-0.799,0.648-1.448,1.448-1.448h2.473c0.799,0,1.448,0.648,1.448,1.448V24.487z
		 M40.984,17.487c0,0.799-0.648,1.448-1.448,1.448h-2.473c-0.799,0-1.448-0.648-1.448-1.448v-2.473c0-0.799,0.648-1.448,1.448-1.448
		h2.473c0.799,0,1.448,0.648,1.448,1.448V17.487z M48.318,45.487c0,0.799-0.648,1.448-1.448,1.448h-2.473
		c-0.799,0-1.448-0.648-1.448-1.448v-2.473c0-0.799,0.648-1.448,1.448-1.448h2.473c0.799,0,1.448,0.648,1.448,1.448V45.487z
		 M48.318,38.487c0,0.799-0.648,1.448-1.448,1.448h-2.473c-0.799,0-1.448-0.648-1.448-1.448v-2.473c0-0.799,0.648-1.448,1.448-1.448
		h2.473c0.799,0,1.448,0.648,1.448,1.448V38.487z M48.318,31.487c0,0.799-0.648,1.448-1.448,1.448h-2.473
		c-0.799,0-1.448-0.648-1.448-1.448v-2.473c0-0.799,0.648-1.448,1.448-1.448h2.473c0.799,0,1.448,0.648,1.448,1.448V31.487z
		 M48.318,24.487c0,0.799-0.648,1.448-1.448,1.448h-2.473c-0.799,0-1.448-0.648-1.448-1.448v-2.473c0-0.799,0.648-1.448,1.448-1.448
		h2.473c0.799,0,1.448,0.648,1.448,1.448V24.487z M48.318,17.487c0,0.799-0.648,1.448-1.448,1.448h-2.473
		c-0.799,0-1.448-0.648-1.448-1.448v-2.473c0-0.799,0.648-1.448,1.448-1.448h2.473c0.799,0,1.448,0.648,1.448,1.448V17.487z"/>
	<path d="M28.842,24.5h-13.75c-0.649,0-1,0.359-1,0.507V53.07h15.75V25.007C29.842,24.859,29.491,24.5,28.842,24.5z M20.984,45.487
		c0,0.799-0.648,1.448-1.448,1.448h-2.473c-0.799,0-1.448-0.648-1.448-1.448v-2.473c0-0.799,0.648-1.448,1.448-1.448h2.473
		c0.799,0,1.448,0.648,1.448,1.448V45.487z M20.984,38.487c0,0.799-0.648,1.448-1.448,1.448h-2.473
		c-0.799,0-1.448-0.648-1.448-1.448v-2.473c0-0.799,0.648-1.448,1.448-1.448h2.473c0.799,0,1.448,0.648,1.448,1.448V38.487z
		 M20.984,31.487c0,0.799-0.648,1.448-1.448,1.448h-2.473c-0.799,0-1.448-0.648-1.448-1.448v-2.473c0-0.799,0.648-1.448,1.448-1.448
		h2.473c0.799,0,1.448,0.648,1.448,1.448V31.487z M28.318,45.487c0,0.799-0.648,1.448-1.448,1.448h-2.473
		c-0.799,0-1.448-0.648-1.448-1.448v-2.473c0-0.799,0.648-1.448,1.448-1.448h2.473c0.799,0,1.448,0.648,1.448,1.448V45.487z
		 M28.318,38.487c0,0.799-0.648,1.448-1.448,1.448h-2.473c-0.799,0-1.448-0.648-1.448-1.448v-2.473c0-0.799,0.648-1.448,1.448-1.448
		h2.473c0.799,0,1.448,0.648,1.448,1.448V38.487z M28.318,31.487c0,0.799-0.648,1.448-1.448,1.448h-2.473
		c-0.799,0-1.448-0.648-1.448-1.448v-2.473c0-0.799,0.648-1.448,1.448-1.448h2.473c0.799,0,1.448,0.648,1.448,1.448V31.487z"/>
</g>
</svg>
