<?xml version="1.0" encoding="utf-8"?>
<!-- Generator: Adobe Illustrator 16.0.4, SVG Export Plug-In . SVG Version: 6.00 Build 0)  -->
<!DOCTYPE svg PUBLIC "-//W3C//DTD SVG 1.1//EN" "http://www.w3.org/Graphics/SVG/1.1/DTD/svg11.dtd">
<svg version="1.1" id="Capa_1" xmlns="http://www.w3.org/2000/svg" xmlns:xlink="http://www.w3.org/1999/xlink" x="0px" y="0px"
	 width="64px" height="64px" viewBox="0 0 64 64" enable-background="new 0 0 64 64" xml:space="preserve">
<g>
	<rect x="21" y="26" width="11" height="2"/>
	<path d="M54.5,5h-43C10.122,5,9,6.122,9,7.5v15c0,1.378,1.122,2.5,2.5,2.5h28c1.93,0,3.5,1.57,3.5,3.5V38v10.5V59h11.5
		c1.379,0,2.5-1.121,2.5-2.5v-49C57,6.122,55.879,5,54.5,5z M33.062,15.25c-1.502,0-2.788-0.876-3.41-2.138l-0.732,0.126
		c-0.057,0.01-0.114,0.015-0.17,0.015c-0.478,0-0.901-0.344-0.984-0.831c-0.094-0.544,0.271-1.062,0.816-1.155l0.698-0.12
		c0.151-1.967,1.777-3.521,3.783-3.521c2.105,0,3.812,1.707,3.812,3.812S35.168,15.25,33.062,15.25z"/>
	<path d="M11.5,52C10.122,52,9,53.121,9,54.5v2c0,1.379,1.122,2.5,2.5,2.5H42v-8.059C41.364,51.593,40.479,52,39.5,52H11.5z"/>
	<polygon points="20,32 27.764,32 28.194,33 28.347,33.356 30.427,33.351 30.548,33 30.894,32 33,32 33,29 20,29 	"/>
	<path d="M19,29.625L5.844,28.312c0,0-1.635,1.812-0.135,4.312L19,31.375V29.625z"/>
	<path d="M20.482,48.929c-2.413,0.185-3.982,0.479-3.982,0.81c0,0.559,4.435,1.012,9.906,1.012c5.471,0,9.906-0.453,9.906-1.012
		c0-0.331-1.569-0.625-3.983-0.81c1.081-0.834,1.87-1.913,2.443-3.136c4.395-0.197,5.868-2.088,5.868-4.395
		c0-2.015-1.128-3.712-4.343-4.24c0.014-0.753,0.015-1.48,0.015-2.158H16.5C16.5,39.427,16.505,45.857,20.482,48.929z
		 M38.091,41.443c-0.022,1.25-0.081,2.098-2.599,2.396c0.431-1.529,0.635-3.169,0.731-4.762
		C38.041,39.48,38.111,40.336,38.091,41.443z"/>
</g>
</svg>
