<?xml version="1.0" encoding="iso-8859-1"?>
<!-- Generator: Adobe Illustrator 17.0.0, SVG Export Plug-In . SVG Version: 6.00 Build 0)  -->
<!DOCTYPE svg PUBLIC "-//W3C//DTD SVG 1.1//EN" "http://www.w3.org/Graphics/SVG/1.1/DTD/svg11.dtd">
<svg version="1.1" id="Capa_1" xmlns="http://www.w3.org/2000/svg" xmlns:xlink="http://www.w3.org/1999/xlink" x="0px" y="0px"
	 width="64px" height="64px" viewBox="0 0 64 64" style="enable-background:new 0 0 64 64;" xml:space="preserve">
<g>
	<path d="M55.75,53.07h-1.5V13.369c0-3.029-2.243-5.494-5-5.494H35.5c-2.757,0-5,2.465-5,5.494v7.291
		c-0.402-0.094-0.816-0.16-1.25-0.16H15.5c-2.757,0-5,2.021-5,4.507V53.07H8.375c-0.828,0-1.5,0.672-1.5,1.5s0.672,1.5,1.5,1.5
		H55.75c0.828,0,1.5-0.672,1.5-1.5S56.578,53.07,55.75,53.07z M14.5,25.007c0-0.147,0.351-0.507,1-0.507h13.75
		c0.649,0,1,0.359,1,0.507V53.07H14.5V25.007z M34.5,13.369c0-0.881,0.527-1.494,1-1.494h13.75c0.473,0,1,0.613,1,1.494V53.07H34.5
		V13.369z"/>
	<path d="M39.945,13.566h-2.473c-0.799,0-1.448,0.648-1.448,1.448v2.473c0,0.799,0.648,1.448,1.448,1.448h2.473
		c0.799,0,1.448-0.648,1.448-1.448v-2.473C41.393,14.214,40.744,13.566,39.945,13.566z"/>
	<path d="M39.945,20.566h-2.473c-0.799,0-1.448,0.648-1.448,1.448v2.473c0,0.799,0.648,1.448,1.448,1.448h2.473
		c0.799,0,1.448-0.648,1.448-1.448v-2.473C41.393,21.214,40.744,20.566,39.945,20.566z"/>
	<path d="M39.945,27.566h-2.473c-0.799,0-1.448,0.648-1.448,1.448v2.473c0,0.799,0.648,1.448,1.448,1.448h2.473
		c0.799,0,1.448-0.648,1.448-1.448v-2.473C41.393,28.214,40.744,27.566,39.945,27.566z"/>
	<path d="M47.278,13.566h-2.473c-0.799,0-1.448,0.648-1.448,1.448v2.473c0,0.799,0.648,1.448,1.448,1.448h2.473
		c0.799,0,1.448-0.648,1.448-1.448v-2.473C48.726,14.214,48.078,13.566,47.278,13.566z"/>
	<path d="M47.278,20.566h-2.473c-0.799,0-1.448,0.648-1.448,1.448v2.473c0,0.799,0.648,1.448,1.448,1.448h2.473
		c0.799,0,1.448-0.648,1.448-1.448v-2.473C48.726,21.214,48.078,20.566,47.278,20.566z"/>
	<path d="M47.278,27.566h-2.473c-0.799,0-1.448,0.648-1.448,1.448v2.473c0,0.799,0.648,1.448,1.448,1.448h2.473
		c0.799,0,1.448-0.648,1.448-1.448v-2.473C48.726,28.214,48.078,27.566,47.278,27.566z"/>
	<path d="M39.945,34.566h-2.473c-0.799,0-1.448,0.648-1.448,1.448v2.473c0,0.799,0.648,1.448,1.448,1.448h2.473
		c0.799,0,1.448-0.648,1.448-1.448v-2.473C41.393,35.214,40.744,34.566,39.945,34.566z"/>
	<path d="M39.945,41.566h-2.473c-0.799,0-1.448,0.648-1.448,1.448v2.473c0,0.799,0.648,1.448,1.448,1.448h2.473
		c0.799,0,1.448-0.648,1.448-1.448v-2.473C41.393,42.214,40.744,41.566,39.945,41.566z"/>
	<path d="M47.278,34.566h-2.473c-0.799,0-1.448,0.648-1.448,1.448v2.473c0,0.799,0.648,1.448,1.448,1.448h2.473
		c0.799,0,1.448-0.648,1.448-1.448v-2.473C48.726,35.214,48.078,34.566,47.278,34.566z"/>
	<path d="M47.278,41.566h-2.473c-0.799,0-1.448,0.648-1.448,1.448v2.473c0,0.799,0.648,1.448,1.448,1.448h2.473
		c0.799,0,1.448-0.648,1.448-1.448v-2.473C48.726,42.214,48.078,41.566,47.278,41.566z"/>
	<path d="M19.945,27.566h-2.473c-0.799,0-1.448,0.648-1.448,1.448v2.473c0,0.799,0.648,1.448,1.448,1.448h2.473
		c0.799,0,1.448-0.648,1.448-1.448v-2.473C21.393,28.214,20.744,27.566,19.945,27.566z"/>
	<path d="M27.278,27.566h-2.473c-0.799,0-1.448,0.648-1.448,1.448v2.473c0,0.799,0.648,1.448,1.448,1.448h2.473
		c0.799,0,1.448-0.648,1.448-1.448v-2.473C28.726,28.214,28.078,27.566,27.278,27.566z"/>
	<path d="M19.945,34.566h-2.473c-0.799,0-1.448,0.648-1.448,1.448v2.473c0,0.799,0.648,1.448,1.448,1.448h2.473
		c0.799,0,1.448-0.648,1.448-1.448v-2.473C21.393,35.214,20.744,34.566,19.945,34.566z"/>
	<path d="M19.945,41.566h-2.473c-0.799,0-1.448,0.648-1.448,1.448v2.473c0,0.799,0.648,1.448,1.448,1.448h2.473
		c0.799,0,1.448-0.648,1.448-1.448v-2.473C21.393,42.214,20.744,41.566,19.945,41.566z"/>
	<path d="M27.278,34.566h-2.473c-0.799,0-1.448,0.648-1.448,1.448v2.473c0,0.799,0.648,1.448,1.448,1.448h2.473
		c0.799,0,1.448-0.648,1.448-1.448v-2.473C28.726,35.214,28.078,34.566,27.278,34.566z"/>
	<path d="M27.278,41.566h-2.473c-0.799,0-1.448,0.648-1.448,1.448v2.473c0,0.799,0.648,1.448,1.448,1.448h2.473
		c0.799,0,1.448-0.648,1.448-1.448v-2.473C28.726,42.214,28.078,41.566,27.278,41.566z"/>
</g>
</svg>
