<?xml version="1.0" encoding="utf-8"?>
<!-- Generator: Adobe Illustrator 16.0.4, SVG Export Plug-In . SVG Version: 6.00 Build 0)  -->
<!DOCTYPE svg PUBLIC "-//W3C//DTD SVG 1.1//EN" "http://www.w3.org/Graphics/SVG/1.1/DTD/svg11.dtd">
<svg version="1.1" id="Capa_1" xmlns="http://www.w3.org/2000/svg" xmlns:xlink="http://www.w3.org/1999/xlink" x="0px" y="0px"
	 width="64px" height="64px" viewBox="0 0 64 64" enable-background="new 0 0 64 64" xml:space="preserve">
<g>
	<path d="M58.562,21h-8.125c-0.539,0-1.033,0.181-1.438,0.479v1.996C49.312,23.003,49.866,23,50.637,23h7.909
		c1.248,0,1.751,0,1.751,2H49v4h11v1H49v3h11v1H49v7.926c0,0.894-0.39,1.692-1,2.254v5.383C48,50.908,49.092,52,50.438,52h8.125
		C59.908,52,61,50.908,61,49.562V23.438C61,22.092,59.908,21,58.562,21z M58.546,50h-7.909c-1.248,0-1.932-1-1.932-2h11.592
		C60.297,49,59.794,50,58.546,50z"/>
	<path d="M48,23.438v-2.364C48,19.931,47.069,19,45.926,19H5.074C3.931,19,3,19.931,3,21.074v20.852C3,43.069,3.931,44,5.074,44
		h40.852C47.069,44,48,43.069,48,41.926V23.438z M45,41H6V22h39V41z"/>
	<polygon points="21.352,49 29.932,49 29.074,45 22.21,45 	"/>
	<rect x="20" y="50" width="11" height="1"/>
</g>
</svg>
