<?xml version="1.0" encoding="utf-8"?>
<!-- Generator: Adobe Illustrator 16.0.4, SVG Export Plug-In . SVG Version: 6.00 Build 0)  -->
<!DOCTYPE svg PUBLIC "-//W3C//DTD SVG 1.1//EN" "http://www.w3.org/Graphics/SVG/1.1/DTD/svg11.dtd">
<svg version="1.1" id="Capa_1" xmlns="http://www.w3.org/2000/svg" xmlns:xlink="http://www.w3.org/1999/xlink" x="0px" y="0px"
	 width="64px" height="64px" viewBox="0 0 64 64" enable-background="new 0 0 64 64" xml:space="preserve">
<g>
	<path d="M20.823,41.699c-2.029,0-7.106-0.069-10.285-0.699H8.742l0.771,6.598c2.917,1.758,7.429-0.251,9.869-2.026
		c-0.001-0.022-0.007-0.044-0.007-0.066c0-1.038,0.842-1.88,1.88-1.88c1.039,0,1.88,0.842,1.88,1.88s-0.841,1.88-1.88,1.88
		c-0.165,0-0.323-0.028-0.475-0.068c-0.062,0.074-0.127,0.146-0.214,0.209c-2.821,2.066-7.213,3.715-10.751,2.654L10.729,58h0.044
		c0.443,0.841,4.698,1.5,9.889,1.5s9.446-0.659,9.889-1.5h0.042l1.987-17h-1.473C27.93,41.63,22.852,41.699,20.823,41.699z"/>
	<path d="M30.018,37.924L50.793,4.589c0.438-0.703,0.223-1.628-0.48-2.066c-0.699-0.437-1.626-0.225-2.066,0.479L26.691,37.591
		l-0.234,0.376c-0.118,0.189-0.185,0.396-0.211,0.604c-1.569-0.1-3.386-0.16-5.422-0.16c-6.53,0-10.813,0.625-11.849,1.144
		c1.036,0.519,5.319,1.145,11.849,1.145c6.53,0,10.812-0.626,11.849-1.145c-0.462-0.231-1.574-0.483-3.239-0.692L30.018,37.924z"/>
	<path d="M60.266,53.786c-1.17-0.327-2.293-0.646-3.439-0.897c0.265-0.591-0.303-1.359-0.951-1.389
		c-4.803-0.223-11.301-0.538-15.16,2.908c-0.111-0.016-0.229-0.024-0.355,0.003c-1.254,0.261-2.422,0.56-3.625,1
		c-0.754,0.276-1.069,1.396-0.239,1.828c2.14,1.11,4.583,1.719,7.134,1.985c0.717,0.832,2.128,0.715,3.756,0.161
		c3.829-0.06,7.697-0.725,11.006-1.546c0.598-0.148,0.823-0.77,0.661-1.279c0.492-0.299,0.976-0.608,1.453-0.945
		C61.189,55.13,61.152,54.034,60.266,53.786z"/>
	<path d="M37.016,53.09c0.055-0.013,0.109-0.01,0.164-0.02c0.019,0.009,0.035,0.019,0.053,0.025
		c1.105,0.439,2.556,0.116,3.522-0.481c0.874-0.541,0.478-1.804-0.505-1.864c-0.212-0.014-0.423-0.005-0.634-0.007
		c-0.314-0.37-0.804-0.429-1.246-0.232c0.185-0.081-0.21,0.037-0.253,0.046c-0.18,0.037-0.315,0.047-0.498,0.066
		c-0.42,0.044-0.848,0.07-1.26,0.163c-0.213,0.047-0.368,0.151-0.483,0.282c-0.214,0.031-0.428,0.062-0.642,0.093
		c-1.272,0.185-0.729,2.11,0.531,1.929c0.187-0.027,0.371-0.052,0.555-0.078C36.512,53.116,36.744,53.157,37.016,53.09z"/>
</g>
</svg>
