<?xml version="1.0" encoding="utf-8"?>
<!-- Generator: Adobe Illustrator 16.0.4, SVG Export Plug-In . SVG Version: 6.00 Build 0)  -->
<!DOCTYPE svg PUBLIC "-//W3C//DTD SVG 1.1//EN" "http://www.w3.org/Graphics/SVG/1.1/DTD/svg11.dtd">
<svg version="1.1" id="Capa_1" xmlns="http://www.w3.org/2000/svg" xmlns:xlink="http://www.w3.org/1999/xlink" x="0px" y="0px"
	 width="64px" height="64px" viewBox="0 0 64 64" enable-background="new 0 0 64 64" xml:space="preserve">
<g>
	<path fill="#120A05" d="M44.181,45.079c8.159-0.328,11.785-4.041,11.785-8.585c0-3.947-2.739-7.268-8.806-8.288
		c0.027-1.468,0.029-2.884,0.029-4.206H8.5c0,8.644,0.01,21.2,7.776,27.197C11.563,51.559,8.5,52.132,8.5,52.779
		c0,1.093,8.661,1.978,19.345,1.978s19.344-0.885,19.344-1.978c0-0.647-3.063-1.221-7.775-1.582
		C41.521,49.57,43.062,47.464,44.181,45.079z M47.016,31.965c3.404,0.789,4.012,2.458,3.973,4.619
		c-0.044,2.454-0.755,4.115-5.403,4.687C46.428,38.283,46.826,35.077,47.016,31.965z M13.17,27h6.048
		c-2.711,8,1.863,20.658,1.862,20.658C11.192,40.079,13.17,27,13.17,27z"/>
	<path fill="#120A05" d="M31.01,18.786c0.769-6.968,16.153-3.482,12.947-12.528c-0.49-1.383-2.705-0.787-2.21,0.609
		c1.405,3.966-3.937,4.449-6.656,5.358c-3.267,1.092-5.971,2.918-6.373,6.561C28.556,20.254,30.85,20.238,31.01,18.786z"/>
	<path fill="#120A05" d="M41.93,13.909c-3,0.707-5.742,1.992-6.677,5.146c-0.421,1.421,1.791,2.023,2.21,0.609
		c1.032-3.483,5.607-3.541,8.528-4.389c3.137-0.911,4.932-3.084,4.501-6.42c-0.188-1.445-2.48-1.463-2.292,0
		C48.721,12.889,45.009,13.183,41.93,13.909z"/>
</g>
</svg>
