<?xml version="1.0" encoding="utf-8"?>
<!-- Generator: Adobe Illustrator 16.0.4, SVG Export Plug-In . SVG Version: 6.00 Build 0)  -->
<!DOCTYPE svg PUBLIC "-//W3C//DTD SVG 1.1//EN" "http://www.w3.org/Graphics/SVG/1.1/DTD/svg11.dtd">
<svg version="1.1" id="Capa_1" xmlns="http://www.w3.org/2000/svg" xmlns:xlink="http://www.w3.org/1999/xlink" x="0px" y="0px"
	 width="64px" height="64px" viewBox="0 0 64 64" enable-background="new 0 0 64 64" xml:space="preserve">
<g>
	<path d="M52.938,33H11.063C9.371,33,8,34.371,8,36.062v19.875C8,57.629,9.371,59,11.063,59H26V46.266C26,44.34,28.635,43,31.295,43
		h0.235c2.66,0,4.47,1.34,4.47,3.266V59h16.938C54.629,59,56,57.629,56,55.938V36.062C56,34.371,54.629,33,52.938,33z"/>
	<path d="M56.682,28.593L33.945,4.712c-1.172-1.22-3.049-1.144-4.194,0.101L8.044,28.52C6.899,29.765,7.342,31,9.033,31h46.705
		C57.432,31,57.852,29.813,56.682,28.593z"/>
</g>
</svg>
