<?xml version="1.0" encoding="utf-8"?>
<!-- Generator: Adobe Illustrator 16.0.4, SVG Export Plug-In . SVG Version: 6.00 Build 0)  -->
<!DOCTYPE svg PUBLIC "-//W3C//DTD SVG 1.1//EN" "http://www.w3.org/Graphics/SVG/1.1/DTD/svg11.dtd">
<svg version="1.1" id="Capa_1" xmlns="http://www.w3.org/2000/svg" xmlns:xlink="http://www.w3.org/1999/xlink" x="0px" y="0px"
	 width="64px" height="64px" viewBox="0 0 64 64" enable-background="new 0 0 64 64" xml:space="preserve">
<g>
	<path d="M9,25.5v5.696C9,31.64,9.36,32,9.804,32h13.392C23.64,32,24,31.64,24,31.196v-6.392C24,24.36,23.64,24,23.196,24H10.5
		C9.673,24,9,24.673,9,25.5z M13,27c0-0.276,0.224-0.5,0.5-0.5S14,26.724,14,27h5c0-0.276,0.224-0.5,0.5-0.5S20,26.724,20,27v1
		c0,0.276-0.224,0.5-0.5,0.5S19,28.276,19,28h-5c0,0.276-0.224,0.5-0.5,0.5S13,28.276,13,28V27z"/>
	<path d="M57.5,19h-52C4.673,19,4,19.673,4,20.5v25C4,46.327,4.673,47,5.5,47h1C7.327,47,8,46.327,8,45.5v-1.512
		C8.04,43.991,8.078,44,8.118,44H9h15.007c0.361,0,0.696-0.093,0.993-0.243v1.17C25,46.072,25.895,47,27,47s2-0.928,2-2.073V24
		v-0.843c0-0.054-0.011-0.104-0.015-0.157H52.5c1.379,0,2.5,1.122,2.5,2.5v20c0,0.827,0.673,1.5,1.5,1.5h1
		c0.827,0,1.5-0.673,1.5-1.5v-25C59,19.673,58.327,19,57.5,19z M25,23.157V24v16.244C24.702,40.094,24.367,40,24.006,40H9H8.118
		C8.078,40,8.04,40.009,8,40.012V25.5c0-1.378,1.122-2.5,2.5-2.5h14.515C25.011,23.053,25,23.104,25,23.157z"/>
</g>
</svg>
