<?xml version="1.0" encoding="iso-8859-1"?>
<!-- Generator: Adobe Illustrator 17.0.0, SVG Export Plug-In . SVG Version: 6.00 Build 0)  -->
<!DOCTYPE svg PUBLIC "-//W3C//DTD SVG 1.1//EN" "http://www.w3.org/Graphics/SVG/1.1/DTD/svg11.dtd">
<svg version="1.1" id="Capa_1" xmlns="http://www.w3.org/2000/svg" xmlns:xlink="http://www.w3.org/1999/xlink" x="0px" y="0px"
	 width="64px" height="64px" viewBox="0 0 64 64" style="enable-background:new 0 0 64 64;" xml:space="preserve">
<g>
	<path d="M9.257,33.093l0.967,1.436l11.079-5.725l10.25,16.921l19.8-11.2c1.923-1.087,2.544-3.495,1.388-5.377l-9.776-15.911
		l-1.746,0.928c-0.488,0.259-0.883,0.887-0.883,1.402c0,0.274,0,0.594,0,0.934c0,1.031-1.57,2.728-3.508,3.789l-6.819,3.736
		c-1.938,1.062-3.508,1.034-3.508-0.061c0,0,0-0.444,0-0.992c0-0.548-0.396-0.782-0.883-0.522l-1.941,1.031v-1.06
		c0-0.552-0.4-1.2-0.894-1.447l-2.29-1.146c-0.494-0.247-1.3-0.258-1.801-0.025l-4.034,1.876c-0.501,0.233-0.907,0.87-0.907,1.422
		v5.653c0,0-1.223,0.649-2.731,1.451C9.513,31.007,8.723,32.299,9.257,33.093z"/>
	<path d="M32.239,11.608c-0.897-0.243-1.271-0.436-1.297-0.761c-0.023-0.284,0.166-0.595,0.825-0.649
		c0.73-0.06,1.225,0.135,1.488,0.235l0.21-1.171c-0.367-0.133-0.836-0.248-1.507-0.214l-0.073-0.891l-0.993,0.081l0.078,0.963
		c-1.067,0.292-1.638,1.042-1.564,1.944c0.08,0.983,0.862,1.43,1.977,1.706c0.78,0.192,1.125,0.408,1.156,0.793
		c0.032,0.396-0.344,0.662-0.932,0.71c-0.659,0.053-1.275-0.111-1.719-0.308l-0.207,1.21c0.403,0.182,1.077,0.321,1.759,0.295
		l0.079,0.963l1.003-0.081l-0.086-1.044c1.15-0.288,1.715-1.11,1.642-2.012C34.002,12.454,33.481,11.935,32.239,11.608z"/>
	<path d="M30.645,1.948c0,0-7.814,0.258-7.687,11.188c0.104,8.954,7.644,8.142,7.644,8.142s8.099-0.037,7.419-13.042
		C37.621,0.581,30.645,1.948,30.645,1.948z M25.067,12.635c-0.001,0-0.002,0-0.003,0c-0.137,0-0.249-0.11-0.25-0.247
		c-0.099-8.496,6.052-8.798,6.114-8.8c0.155-0.013,0.253,0.104,0.258,0.241c0.005,0.138-0.103,0.253-0.241,0.259
		c-0.234,0.008-5.724,0.301-5.631,8.294C25.315,12.52,25.205,12.633,25.067,12.635z M30.889,18.912c0,0-4.137,0.218-4.056-5.87
		c0.091-6.752,5.125-7.622,5.125-7.622s4.519-0.87,4.425,4.341C36.205,19.635,30.889,18.912,30.889,18.912z"/>
	<path d="M25.651,60.355c1.915,1.103,5.013,1.094,6.921-0.02l16.615-9.701c1.908-1.114,3.455-3.808,3.455-6.017V37.06L30.885,49.298
		L20.55,32.028l-8.431,4.215v12.318c0,2.209,1.552,4.894,3.466,5.997l0.9,0.518V44.342l5.599,3.488v10.471L25.651,60.355z"/>
</g>
</svg>
