<?xml version="1.0" encoding="utf-8"?>
<!-- Generator: Adobe Illustrator 16.0.4, SVG Export Plug-In . SVG Version: 6.00 Build 0)  -->
<!DOCTYPE svg PUBLIC "-//W3C//DTD SVG 1.1//EN" "http://www.w3.org/Graphics/SVG/1.1/DTD/svg11.dtd">
<svg version="1.1" id="Capa_1" xmlns="http://www.w3.org/2000/svg" xmlns:xlink="http://www.w3.org/1999/xlink" x="0px" y="0px"
	 width="64px" height="64px" viewBox="0 0 64 64" enable-background="new 0 0 64 64" xml:space="preserve">
<g>
	<path d="M2,16.821v5.181C2.613,22.571,5.664,24.7,6.245,25H10V15l-3.848,0C5.843,15.082,2.755,16.375,2,16.821z"/>
	<path d="M13.495,15L11,15v10h2.478c0.163-0.125,0.481-0.52,0.532-0.669L14,15.488C13.959,15.435,13.65,15.101,13.495,15z"/>
	<path d="M51.493,41.266c0.558-5.08-1.474-5.659-1.495-5.665l-2.356-0.498l0.124,0.227c1.924,0.94,1.76,4.243,1.613,5.545
		L51.493,41.266z"/>
	<path d="M58.979,14h-6.5c-0.79-0.571-1.45-1-1.621-1H41.8c-0.172,0-1.027,0.429-2.072,1h-2.812c-1.289-0.985-2.748-2-3.018-2H24.84
		c-0.259,0-1.821,0.94-3.264,1.89c-5.096-0.154-5.209,1.418-5.209,1.418c0.022,0.689,0.076,1.342,0.152,1.966L15,18.347v2.888
		l2.607,0.374c2.124,5.336,6.211,6.893,6.434,6.974l0.028,0.089l19.374,2.731l1.559,0.22c0.604,0.707,1.185,1.522,1.601,2.237
		l3.611,0.764c0.124,0.025,3.105,0.715,2.206,7.297l-0.07,0.52l-1.15-0.213c-0.043,0.405-0.097,0.829-0.168,1.283
		c-0.289,1.846-0.474,3.577-0.636,5.104c-0.401,3.771-0.666,6.261-2.065,7.06c-0.407,0.232-0.568,0.371-0.632,0.441
		c0.055,0.054,0.178,0.152,0.443,0.294l1.57,0.834c0.386,0.205,1.118,0.332,1.909,0.332c0,0,0,0,0.001,0
		c1.084,0,2.042-0.236,2.384-0.588c2.585-2.659,6.192-11.546,5.534-25.124c-0.006-0.107-0.045-0.205-0.104-0.296l-0.022-1.271
		L59.211,19.11c0.363-1.764,1.557-1.824,1.557-1.824l1.649-2.261C62.188,13.896,58.979,14,58.979,14z M32.243,25.263
		c-2.319-1.5-6.624-4.256-6.157-6.219c0.467-1.963,4.441-2.699,7.127-2.06C33.214,16.984,33.667,26.185,32.243,25.263z M52.6,16.954
		c0.969,0.548,2.36,2.136,3.277,6.655c0.329,1.623,0.053,2.978-0.469,2.978c-0.52,0-0.924-1.371-1.096-3.037
		c-0.211-2.034-0.709-4.594-1.869-6.042C51.984,16.937,52.023,16.629,52.6,16.954z M48.208,16.954
		c0.968,0.552,2.36,2.149,3.276,6.693c0.33,1.632,0.053,2.994-0.469,2.994c-0.52,0-0.923-1.379-1.096-3.054
		c-0.211-2.045-0.708-4.62-1.869-6.076C47.593,16.936,47.632,16.627,48.208,16.954z M43.659,17.516
		c-0.458-0.578-0.419-0.889,0.157-0.56c0.968,0.553,2.359,2.16,3.276,6.729c0.329,1.641,0.052,3.011-0.469,3.011
		s-0.923-1.386-1.097-3.071C45.316,21.569,44.82,18.979,43.659,17.516z M56.338,42.632c-0.729,0-1.318-0.591-1.318-1.319
		s0.59-1.318,1.318-1.318s1.319,0.59,1.319,1.318S57.066,42.632,56.338,42.632z"/>
</g>
</svg>
