<?xml version="1.0" encoding="utf-8"?>
<!-- Generator: Adobe Illustrator 16.0.4, SVG Export Plug-In . SVG Version: 6.00 Build 0)  -->
<!DOCTYPE svg PUBLIC "-//W3C//DTD SVG 1.1//EN" "http://www.w3.org/Graphics/SVG/1.1/DTD/svg11.dtd">
<svg version="1.1" id="Capa_1" xmlns="http://www.w3.org/2000/svg" xmlns:xlink="http://www.w3.org/1999/xlink" x="0px" y="0px"
	 width="64px" height="64px" viewBox="0 0 64 64" enable-background="new 0 0 64 64" xml:space="preserve">
<g>
	<path d="M20.935,38c0.027-1.653,0.408-3.533,1.065-5.405V13h-9.958C11.056,15.099,10,35.01,10,37.327v0.76
		C10.235,38.031,10.514,38,10.84,38H20.935z"/>
	<path d="M55.617,19.857c0-1.546-0.369-2.837-1.536-3.258c-0.257-0.093-0.539-0.158-0.88-0.158c-0.053,0-0.086,0.013-0.136,0.016
		C52.902,14.726,52.72,13.458,52.52,13H23v17.197c2.011-4.125,5.294-7.635,9.012-7.635c6.123,0,9.95,4.963,9.95,11.086
		c0,5.801-2.422,10.553-7.88,11.038C33.731,44.876,33.298,45,32.811,45H17v-6h-2v6h-4.16c-0.326,0-0.604-0.056-0.84-0.149v8.378
		C10,54.188,10.843,55,11.84,55h40.889C53.779,55,54,54.037,54,53.229l0.001-15.901c0-1.605-0.17-8.16-0.476-14.089
		c0.392-0.043,0.719-0.156,0.984-0.335C55.339,22.343,55.617,21.196,55.617,19.857z M47.105,17.491c1.207,0,2.186,0.978,2.186,2.185
		c0,1.207-0.979,2.185-2.186,2.185c-1.206,0-2.185-0.978-2.185-2.185C44.921,18.469,45.899,17.491,47.105,17.491z M47.201,32.273
		c-1.887,0-3.416-1.529-3.416-3.416s1.529-3.416,3.416-3.416s3.416,1.529,3.416,3.416S49.088,32.273,47.201,32.273z"/>
</g>
</svg>
