<?xml version="1.0" encoding="utf-8"?>
<!-- Generator: Adobe Illustrator 16.0.4, SVG Export Plug-In . SVG Version: 6.00 Build 0)  -->
<!DOCTYPE svg PUBLIC "-//W3C//DTD SVG 1.1//EN" "http://www.w3.org/Graphics/SVG/1.1/DTD/svg11.dtd">
<svg version="1.1" id="Capa_1" xmlns="http://www.w3.org/2000/svg" xmlns:xlink="http://www.w3.org/1999/xlink" x="0px" y="0px"
	 width="64px" height="64px" viewBox="0 0 64 64" enable-background="new 0 0 64 64" xml:space="preserve">
<g>
	<path d="M38,17.917v6.607c3.926,2.298,6.575,6.549,6.575,11.417c0,7.298-5.937,13.233-13.233,13.233s-13.233-5.936-13.233-13.233
		c0-5,2.789-9.359,6.891-11.609v-6.531c-7.501,2.623-12.891,9.744-12.891,18.14c0,10.623,8.611,19.233,19.233,19.233
		c10.622,0,19.233-8.61,19.233-19.233C50.575,27.664,45.336,20.629,38,17.917z"/>
	<path d="M29,32.146C29,33.41,29.926,34,31.19,34h0.589C33.043,34,34,33.41,34,32.146V12.364C34,11.1,33.043,10,31.779,10H31.19
		C29.926,10,29,11.1,29,12.364V32.146z"/>
</g>
</svg>
