<?xml version="1.0" encoding="utf-8"?>
<!-- Generator: Adobe Illustrator 16.0.4, SVG Export Plug-In . SVG Version: 6.00 Build 0)  -->
<!DOCTYPE svg PUBLIC "-//W3C//DTD SVG 1.1//EN" "http://www.w3.org/Graphics/SVG/1.1/DTD/svg11.dtd">
<svg version="1.1" id="Capa_1" xmlns="http://www.w3.org/2000/svg" xmlns:xlink="http://www.w3.org/1999/xlink" x="0px" y="0px"
	 width="64px" height="64px" viewBox="0 0 64 64" enable-background="new 0 0 64 64" xml:space="preserve">
<g>
	<path d="M9.552,36c-1.318-3.001-2.055-6.312-2.055-9.795c0-0.744,0.039-1.478,0.104-2.205H6v12h0.816H9.552z"/>
	<path d="M54.33,36H57V24h-0.72c0.065,0.727,0.104,1.461,0.104,2.205C56.385,29.688,55.647,32.999,54.33,36z"/>
	<path d="M57.414,57l-1.205-20h-2.345c-3.994,8.078-12.318,13.648-21.923,13.648S14.011,45.078,10.017,37H7.758L6.551,57H12v-3h40v3
		H57.414z"/>
	<path d="M31.941,49.648c12.927,0,23.444-10.517,23.444-23.443c0-12.927-10.517-23.444-23.444-23.444
		c-12.927,0-23.444,10.517-23.444,23.444C8.497,39.132,19.014,49.648,31.941,49.648z M31.837,4.551
		c11.901,0,21.55,9.648,21.55,21.55S43.738,47.65,31.837,47.65c-11.902,0-21.55-9.647-21.55-21.549S19.935,4.551,31.837,4.551z"/>
	<path d="M29.665,20.859L17.222,12.26c-2.265,1.872-2.845,4.718-2.845,4.718l11.796,8.786
		C26.265,23.531,27.685,21.639,29.665,20.859z"/>
	<path d="M29.365,30.989l0.444,14.852c2.785,0.733,5.361-0.427,5.361-0.427l0.083-15.232c-0.964,0.823-2.211,1.323-3.575,1.323
		C30.852,31.505,30.069,31.317,29.365,30.989z"/>
	<path d="M37.169,25.509l12.153-9.292c-1.03-2.69-3.475-4.105-3.475-4.105l-12.264,8.707C35.544,21.545,36.981,23.348,37.169,25.509
		z"/>
	<path d="M27.162,25.989c0,2.49,2.026,4.516,4.516,4.516c2.49,0,4.515-2.026,4.515-4.516c0-2.49-2.025-4.516-4.515-4.516
		C29.188,21.473,27.162,23.499,27.162,25.989z"/>
</g>
</svg>
