<?xml version="1.0" encoding="utf-8"?>
<!-- Generator: Adobe Illustrator 16.0.4, SVG Export Plug-In . SVG Version: 6.00 Build 0)  -->
<!DOCTYPE svg PUBLIC "-//W3C//DTD SVG 1.1//EN" "http://www.w3.org/Graphics/SVG/1.1/DTD/svg11.dtd">
<svg version="1.1" id="Capa_1" xmlns="http://www.w3.org/2000/svg" xmlns:xlink="http://www.w3.org/1999/xlink" x="0px" y="0px"
	 width="64px" height="64px" viewBox="0 0 64 64" enable-background="new 0 0 64 64" xml:space="preserve">
<g>
	<path d="M46.14,23c1.143,1.187,1.86,2.796,1.86,4.54v14.037c0,1.714-0.682,3.27-1.784,4.423h3.852
		c0.221,0.756,0.911,1.312,1.739,1.312s1.519-0.557,1.74-1.312H56V23H46.14z M51.842,32.467c-1.224,0-2.216-0.992-2.216-2.216
		s0.992-2.216,2.216-2.216c1.225,0,2.217,0.992,2.217,2.216S53.066,32.467,51.842,32.467z"/>
	<path d="M41.551,23H19H8v23h2.762c0.221,0.756,0.912,1.312,1.74,1.312s1.519-0.557,1.74-1.312H19h22.551
		C44.004,46,46,44.016,46,41.577V27.54C46,25.079,43.963,23,41.551,23z M39,43H11V26h28V43z M44,41.189
		C44,41.637,43.637,42,43.189,42h-0.379C42.363,42,42,41.637,42,41.189V26.81c0-0.447,0.363-0.81,0.811-0.81h0.379
		C43.637,26,44,26.363,44,26.81V41.189z"/>
</g>
</svg>
