<?xml version="1.0" encoding="utf-8"?>
<!-- Generator: Adobe Illustrator 16.0.4, SVG Export Plug-In . SVG Version: 6.00 Build 0)  -->
<!DOCTYPE svg PUBLIC "-//W3C//DTD SVG 1.1//EN" "http://www.w3.org/Graphics/SVG/1.1/DTD/svg11.dtd">
<svg version="1.1" id="Capa_1" xmlns="http://www.w3.org/2000/svg" xmlns:xlink="http://www.w3.org/1999/xlink" x="0px" y="0px"
	 width="64px" height="64px" viewBox="0 0 64 64" enable-background="new 0 0 64 64" xml:space="preserve">
<g>
	<path d="M51.724,15.1c-2.699,3.859-10.69,6.665-20.106,6.665c-9.596,0-17.195-2.804-19.429-6.823L14.495,51h0.011
		c-0.001,0.037-0.01,0.072-0.01,0.109c0,4.393,6.097,8.168,17.121,8.168c11.023,0,17.81-3.775,17.81-8.168
		c0-0.037-0.01-0.072-0.011-0.109h0.011L51.724,15.1z M45.663,43.474c-1.621,0.645-3.307,1.137-5.019,1.501l0.243-4.806
		c1.695-0.292,3.373-0.685,5.003-1.191L45.663,43.474z M46.107,34.685c-1.604,0.59-3.289,1.037-5.013,1.371l0.227-4.471
		c1.63-0.421,3.307-0.952,5.025-1.615L46.107,34.685z M35,36.803c-2.047,0.119-4.068,0.119-6,0.047v-3.943
		c0.542,0.021,1.079,0.048,1.643,0.048c1.391,0,2.846-0.069,4.357-0.226V36.803z M22.804,36.367c-1.964-0.23-3.668-0.498-4.98-0.732
		l-0.234-4.631c1.406,0.404,3.083,0.83,5.003,1.187L22.804,36.367z M18.275,44.578l-0.244-4.833c1.39,0.237,3.077,0.486,4.979,0.695
		l0.25,4.944C21.24,45.132,19.529,44.83,18.275,44.578z M29,40.876c0.803,0.027,1.616,0.047,2.447,0.047
		c1.165,0,2.355-0.042,3.553-0.109v4.947c-2.06,0.149-4.083,0.166-6,0.094V40.876z M46.74,22.179l-0.171,3.373
		c-1.722,0.744-3.402,1.345-5.035,1.817l0.174-3.449L46.74,22.179z M35,25v3.681c-2.124,0.241-4.133,0.295-6,0.217V25H35z
		 M22.175,23.92l0.21,4.153c-2-0.412-3.687-0.899-5.009-1.302l-0.232-4.592L22.175,23.92z M18.708,53.139l-0.224-4.432
		c1.36,0.257,3.049,0.532,4.982,0.758l0.274,5.414L18.708,53.139z M29,55v-5.117c0.701,0.023,1.411,0.041,2.138,0.041
		c1.258,0,2.553-0.049,3.862-0.14V55H29z M45.175,53.139l-5.03,1.74l0.292-5.775c1.687-0.316,3.363-0.75,5.008-1.302L45.175,53.139z
		"/>
	<path d="M28.293,5.877c0.341,0.136,0.667,0.298,0.968,0.477c-0.033-0.355,0-0.709,0.1-1.055c0.159-0.545,0.49-1.067,0.978-1.567
		c-1.001,0.032-1.984,0.099-2.942,0.202C27.798,4.567,28.09,5.256,28.293,5.877z"/>
	<path d="M42.211,7.045c1.78-0.418,3.242-0.546,4.403-0.405c-1.383-0.665-2.997-1.239-4.786-1.701
		C42.044,5.671,42.164,6.403,42.211,7.045z"/>
	<path d="M31.617,20.764c10.887,0,20.085-3.907,20.085-8.531c0-1.369-0.822-2.671-2.239-3.831c0.821,1.711-0.16,3.939-0.206,4.04
		c-0.1,0.248-2.813,6.549-17.04,6.549H32.1c-14.303-0.036-17.509-6.272-17.638-6.538c-0.765-1.476-0.477-2.527-0.1-3.146
		c0.231-0.381,0.651-0.799,0.977-0.937l-0.002-0.005c0.679-0.296,1.334-0.491,1.964-0.607c0.128-0.42,0.311-0.851,0.54-1.286
		c-3.283,1.581-5.34,3.699-5.34,5.995C12.5,17.119,20.897,20.764,31.617,20.764z"/>
	<path d="M18.396,7.638c0.026,0,0.053-0.005,0.079-0.005c1.735,0,2.934,0.768,3.722,1.596c0.107-1.745,1.101-3.02,2.854-3.586
		c0.663-0.213,1.366-0.222,2.051-0.103c-0.525-1.278-1.432-2.607-2.93-2.607c-0.722,0-1.548,0.298-2.458,0.887
		C19.857,5.022,18.882,6.379,18.396,7.638z"/>
	<path d="M30.322,5.579c-0.169,0.58-0.046,1.188,0.364,1.81c0.801,0.688,1.298,1.301,1.32,1.327l2.044,2.531l-2.71-1.8
		c-0.033-0.022-0.809-0.543-1.403-1.382c-0.893-0.749-2.228-1.619-3.615-1.619c-0.331,0-0.656,0.05-0.965,0.15
		c-2.566,0.828-2.323,3.167-1.949,4.488c0.206,0.462,0.231,0.664,0.096,0.871l-0.148,0.226l-0.271,0
		c-0.373,0-0.484-0.336-0.538-0.497c-0.033-0.099-0.067-0.209-0.101-0.328c-0.262-0.59-1.391-2.723-3.971-2.723
		c-0.825,0-1.739,0.214-2.717,0.638c-0.197,0.115-1.357,0.89-0.403,2.732c0.034,0.068,3.138,5.954,16.748,5.987h0.115
		c13.477,0,16.098-5.888,16.124-5.948c0.017-0.038,0.955-2.138,0.133-3.414c-0.783-1.216-3.089-1.383-6.613-0.467l-0.625,0.163
		l-0.001-0.646c0-0.239-0.059-5.857-4.173-5.857c-0.852,0-1.837,0.236-2.928,0.702C31.951,3.456,30.633,4.512,30.322,5.579z"/>
</g>
</svg>
