<?xml version="1.0" encoding="utf-8"?>
<!-- Generator: Adobe Illustrator 16.0.4, SVG Export Plug-In . SVG Version: 6.00 Build 0)  -->
<!DOCTYPE svg PUBLIC "-//W3C//DTD SVG 1.1//EN" "http://www.w3.org/Graphics/SVG/1.1/DTD/svg11.dtd">
<svg version="1.1" id="Capa_1" xmlns="http://www.w3.org/2000/svg" xmlns:xlink="http://www.w3.org/1999/xlink" x="0px" y="0px"
	 width="64px" height="64px" viewBox="0 0 64 64" enable-background="new 0 0 64 64" xml:space="preserve">
<g>
	<polygon points="50.5,60 50.395,58 14.605,58 14.5,60 	"/>
	<path d="M47.5,3h-30l-2.842,54h35.684L47.5,3z M25.054,47.417C24.912,45.492,23.978,44,22.833,44s-2.079,1.492-2.221,3.417
		c-0.012-0.165-0.029-0.329-0.029-0.5c0-2.163,1.007-3.917,2.25-3.917s2.25,1.754,2.25,3.917
		C25.083,47.088,25.066,47.252,25.054,47.417z M25.054,40.417C24.912,38.492,23.978,37,22.833,37s-2.079,1.492-2.221,3.417
		c-0.012-0.165-0.029-0.329-0.029-0.5c0-2.163,1.007-3.917,2.25-3.917s2.25,1.754,2.25,3.917
		C25.083,40.088,25.066,40.252,25.054,40.417z M25.054,33.417C24.912,31.493,23.978,30,22.833,30s-2.079,1.493-2.221,3.417
		c-0.012-0.165-0.029-0.329-0.029-0.5c0-2.163,1.007-3.917,2.25-3.917s2.25,1.754,2.25,3.917
		C25.083,33.088,25.066,33.252,25.054,33.417z M30.054,26.417C29.912,24.493,28.978,23,27.833,23s-2.079,1.493-2.221,3.417
		c-0.012-0.166-0.029-0.329-0.029-0.5c0-2.163,1.007-3.917,2.25-3.917s2.25,1.754,2.25,3.917
		C30.083,26.088,30.066,26.251,30.054,26.417z M35.054,47.417C34.912,45.492,33.978,44,32.833,44s-2.079,1.492-2.221,3.417
		c-0.012-0.165-0.029-0.329-0.029-0.5c0-2.163,1.007-3.917,2.25-3.917c1.243,0,2.25,1.754,2.25,3.917
		C35.083,47.088,35.066,47.252,35.054,47.417z M35.054,40.417C34.912,38.492,33.978,37,32.833,37s-2.079,1.492-2.221,3.417
		c-0.012-0.165-0.029-0.329-0.029-0.5c0-2.163,1.007-3.917,2.25-3.917c1.243,0,2.25,1.754,2.25,3.917
		C35.083,40.088,35.066,40.252,35.054,40.417z M35.054,33.417C34.912,31.493,33.978,30,32.833,30s-2.079,1.493-2.221,3.417
		c-0.012-0.165-0.029-0.329-0.029-0.5c0-2.163,1.007-3.917,2.25-3.917c1.243,0,2.25,1.754,2.25,3.917
		C35.083,33.088,35.066,33.252,35.054,33.417z M40.054,26.417C39.912,24.493,38.978,23,37.833,23s-2.079,1.493-2.221,3.417
		c-0.013-0.166-0.029-0.329-0.029-0.5c0-2.163,1.007-3.917,2.25-3.917s2.25,1.754,2.25,3.917
		C40.083,26.088,40.066,26.251,40.054,26.417z M45.054,47.417C44.912,45.492,43.978,44,42.833,44s-2.079,1.492-2.221,3.417
		c-0.013-0.165-0.029-0.329-0.029-0.5c0-2.163,1.007-3.917,2.25-3.917s2.25,1.754,2.25,3.917
		C45.083,47.088,45.066,47.252,45.054,47.417z M45.054,40.417C44.912,38.492,43.978,37,42.833,37s-2.079,1.492-2.221,3.417
		c-0.013-0.165-0.029-0.329-0.029-0.5c0-2.163,1.007-3.917,2.25-3.917s2.25,1.754,2.25,3.917
		C45.083,40.088,45.066,40.252,45.054,40.417z M45.054,33.417C44.912,31.493,43.978,30,42.833,30s-2.079,1.493-2.221,3.417
		c-0.013-0.165-0.029-0.329-0.029-0.5c0-2.163,1.007-3.917,2.25-3.917s2.25,1.754,2.25,3.917
		C45.083,33.088,45.066,33.252,45.054,33.417z M19,17l0.5-12h26.188l0.375,12H19z"/>
</g>
</svg>
