<?xml version="1.0" encoding="iso-8859-1"?>
<!-- Generator: Adobe Illustrator 17.0.0, SVG Export Plug-In . SVG Version: 6.00 Build 0)  -->
<!DOCTYPE svg PUBLIC "-//W3C//DTD SVG 1.1//EN" "http://www.w3.org/Graphics/SVG/1.1/DTD/svg11.dtd">
<svg version="1.1" id="Capa_1" xmlns="http://www.w3.org/2000/svg" xmlns:xlink="http://www.w3.org/1999/xlink" x="0px" y="0px"
	 width="64px" height="64px" viewBox="0 0 64 64" style="enable-background:new 0 0 64 64;" xml:space="preserve">
<g>
	<path d="M50.592,1.761H14.114c-6.627,0-12,5.373-12,12v36.477c0,6.627,5.373,12,12,12h36.477c6.627,0,12-5.373,12-12V13.761
		C62.592,7.134,57.219,1.761,50.592,1.761z M52.784,54.562H37.446c-0.642,0-1.286-0.463-1.437-1.034l-1.673-6.308
		c-0.151-0.571-0.793-1.074-1.433-1.123l-11.437-0.884c-0.64-0.049-1.565-0.387-2.066-0.755l-7.433-5.449
		c-0.501-0.367-0.983-1.136-1.074-1.718c-0.15-0.963-0.37-2.381-0.519-3.344c-0.09-0.582-0.163-1.53-0.163-2.118v-3.013
		c0-1.652,1.714-2.991,3.828-2.991s3.828,1.339,3.828,2.991v3.013c0,0.587,0.355,1.413,0.791,1.844
		c0.063,0.062,0.136,0.135,0.204,0.202c1.066,1.056,2.736,2.712,3.718,3.686c0.435,0.432,1.309,0.782,1.951,0.782h5.937h11.039
		c0.642,0,1.06-0.467,0.934-1.043l-0.261-1.189c-0.127-0.576-0.604-1.38-0.955-1.872c-1.591-2.233-1.417-5.316-1.417-5.316
		c0-2.033,1.595-3.65,3.824-3.658c0.005,0,0.01-0.001,0.015-0.001c1.96,0,2.477,3.267,4.342,5.125
		c0.434,0.433,1.02,1.15,1.191,1.716l0.605,2.003c0.171,0.566,0.28,1.025,0.244,1.025h0c-0.004,0-0.008,0-0.011,0
		c-0.023,0-0.012,0.001,0.029,0.002c0.046,0.002,0.283,0.443,0.529,0.985l2.635,5.805c0.246,0.542,0.41,1.457,0.366,2.043
		l-0.181,2.415l0.629,7.118C53.983,54.087,53.426,54.562,52.784,54.562z M19.646,16.396V8.833h4.5v3.744l7.075-6.003l17.515,14.863
		l-5.103-0.007v2.337c-2.974,0.008-5.304,2.25-5.324,5.121c-0.018,0.452-0.085,3.725,1.695,6.223
		c0.375,0.527,0.662,1.097,0.711,1.324l0.09,0.41h-5.682V26.75h-7.75v10.094h-2.841c-0.263,0-0.75-0.203-0.895-0.347l-3.923-3.889
		c-0.162-0.16-0.344-0.601-0.346-0.779v-3.013c0-0.673-0.189-1.306-0.505-1.88v-5.539l-5.103-0.007L19.646,16.396z"/>
</g>
</svg>
