<?xml version="1.0" encoding="iso-8859-1"?>
<!-- Generator: Adobe Illustrator 17.0.0, SVG Export Plug-In . SVG Version: 6.00 Build 0)  -->
<!DOCTYPE svg PUBLIC "-//W3C//DTD SVG 1.1//EN" "http://www.w3.org/Graphics/SVG/1.1/DTD/svg11.dtd">
<svg version="1.1" id="Capa_1" xmlns="http://www.w3.org/2000/svg" xmlns:xlink="http://www.w3.org/1999/xlink" x="0px" y="0px"
	 width="64px" height="64px" viewBox="0 0 64 64" style="enable-background:new 0 0 64 64;" xml:space="preserve">
<g>
	<rect x="32.156" y="22.364" width="1.919" height="1.919"/>
	<rect x="41.872" y="22.364" width="1.919" height="1.919"/>
	<path d="M37.102,29.999c0.776,0.066,1.736,0.151,2.651,0.401v-4.291h-3.539v3.82C36.511,29.952,36.809,29.975,37.102,29.999z"/>
	<path d="M47.64,29.682v-8.501h1.38l-1.439-8.734H28.387l-1.439,8.734h1.38v7.791c0.824,0.193,1.734,0.378,2.759,0.508
		c0.037,0.005,0.082,0.009,0.12,0.014v-8.312h13.555v9.338C45.69,30.247,46.685,29.958,47.64,29.682z"/>
	<path d="M18.75,46.094l-1.312-1.218c3.312-2.267,6.823-2.599,9.889-2.71c0.611-0.023,6.558-0.023,12.05,0.638
		c1.103,0.076,2.049-0.516,2.049-0.516c8.239-5.267,15.265-8.152,15.265-8.152c1.667-0.627,2.157-1.374,2.132-1.948
		c-0.049-1.043-0.638-1.401-0.644-1.408c-0.567-0.643-2.175-0.846-3.467-0.649c-0.642,0.099-10.031,2.865-10.031,2.865
		c0.267,0.837,0.706,2.363-0.884,3.928c-1.086,0.948-2.758,1.231-4.93,1.188c-2.169-0.041-4.518-0.381-6.329-0.606
		c-0.588-0.072-2.22-0.288-2.22-0.288s1.149-0.53,2.706-0.583c1.944-0.065,3.475-0.051,4.356,0c0.966,0.055,2.352,0.176,2.934,0.197
		c2.65,0.099,3.281-1.603,3.294-2.278c0.033-1.911-1.047-2.545-4.397-2.824c-2.154-0.18-4.468-0.323-6.079-0.526
		c-3.107-0.393-5.341-1.268-6.479-1.377c-0.783-0.075-2.814-0.455-4.744,1.142c-3.544,2.932-8.817,5.198-12.426,6.532L8,36.125
		l-4.315,4.272L14.25,50.25L18.75,46.094z M13,45.875c0-0.553,0.447-1,1-1c0.553,0,1,0.447,1,1c0,0.553-0.447,1-1,1
		C13.447,46.875,13,46.428,13,45.875z"/>
</g>
</svg>
