<?xml version="1.0" encoding="utf-8"?>
<!-- Generator: Adobe Illustrator 16.0.4, SVG Export Plug-In . SVG Version: 6.00 Build 0)  -->
<!DOCTYPE svg PUBLIC "-//W3C//DTD SVG 1.1//EN" "http://www.w3.org/Graphics/SVG/1.1/DTD/svg11.dtd">
<svg version="1.1" id="Capa_1" xmlns="http://www.w3.org/2000/svg" xmlns:xlink="http://www.w3.org/1999/xlink" x="0px" y="0px"
	 width="64px" height="64px" viewBox="0 0 64 64" enable-background="new 0 0 64 64" xml:space="preserve">
<path fill="#120F08" d="M36.455,34.484c-1.067-2.377-1.988-4.81-4.045-5.22c-0.274-3.541,3.633-4.783,4.852-7.755
	c1.053-2.562-0.135-4.757-2.419-6.076c-5.118-2.955-13.59,0.624-9.171,7.016c0.597,0.863,2.014,0.038,1.411-0.834
	c-4.701-6.798,8.862-7.515,8.972-1.833c0.039,2.02-2.557,3.741-3.771,5.091c-1.158,1.285-1.687,2.786-1.51,4.483
	c-2.257,0.68-3.014,3.608-4.426,5.994L2.31,52.092l4.655-0.023l2.08-1.448l46.039-0.241l2.108,1.438l4.654-0.022L36.455,34.484z
	 M11.938,48.604l20.053-13.966l20.18,13.756L11.938,48.604z"/>
</svg>
