<?xml version="1.0" encoding="utf-8"?>
<!-- Generator: Adobe Illustrator 16.0.4, SVG Export Plug-In . SVG Version: 6.00 Build 0)  -->
<!DOCTYPE svg PUBLIC "-//W3C//DTD SVG 1.1//EN" "http://www.w3.org/Graphics/SVG/1.1/DTD/svg11.dtd">
<svg version="1.1" id="Capa_1" xmlns="http://www.w3.org/2000/svg" xmlns:xlink="http://www.w3.org/1999/xlink" x="0px" y="0px"
	 width="64px" height="64px" viewBox="0 0 64 64" enable-background="new 0 0 64 64" xml:space="preserve">
<g>
	<path d="M15.169,46.239l-0.073-1.005c-1.279,0.025-1.51-0.452-1.577-1.237c-0.066-0.779,0.108-1.343,1.377-1.511l-0.073-0.996
		c-1.699,0.124-2.324,1.238-2.228,2.55C12.691,45.352,13.47,46.363,15.169,46.239z"/>
	<path d="M21,51.25V50H5v4h17.22C21.475,53.314,21,52.34,21,51.25z"/>
	<path d="M17.54,20h-0.131C15.413,20,14,21.248,14,23.057v8.694c0,1.158,0.564,2.17,1.565,2.752
		c0.089,0.808,0.547,1.557,1.435,1.771V38c0,0.276,0.224,0.5,0.5,0.5S18,38.276,18,38v-1.712c0.912-0.197,1.346-0.962,1.436-1.785
		c0.998-0.581,1.561-1.589,1.564-2.744v-8.711C20.994,21.244,19.533,20,17.54,20z"/>
	<path d="M17.949,48.744c1.161,0,2.196,0.089,2.311-0.869l0.633-6.999C21.009,39.917,20.161,40,19,40h-2.103
		c-1.161,0-2.008-0.083-1.893,0.876l0.633,7.005C15.753,48.839,16.788,48.744,17.949,48.744z"/>
	<path d="M57.25,9h-32.5C23.233,9,22,10.233,22,11.75v39.5c0,1.517,1.233,2.75,2.75,2.75H27h30.25c1.517,0,2.75-1.233,2.75-2.75
		v-39.5C60,10.233,58.767,9,57.25,9z M42.124,29.25c0.087,1.288-1.914,1.28-2,0c-0.312-4.637,1.472-9.228-0.214-13.734
		c-0.452-1.211,1.48-1.729,1.929-0.532C43.602,19.694,41.799,24.412,42.124,29.25z M47.124,29.25c0.087,1.288-1.914,1.28-2,0
		c-0.312-4.637,1.472-9.228-0.214-13.734c-0.452-1.211,1.48-1.729,1.929-0.532C48.602,19.694,46.799,24.412,47.124,29.25z
		 M52.124,29.25c0.087,1.288-1.914,1.28-2,0c-0.312-4.637,1.472-9.228-0.214-13.734c-0.452-1.211,1.48-1.729,1.929-0.532
		C53.602,19.694,51.799,24.412,52.124,29.25z"/>
</g>
</svg>
