<?xml version="1.0" encoding="iso-8859-1"?>
<!-- Generator: Adobe Illustrator 17.0.0, SVG Export Plug-In . SVG Version: 6.00 Build 0)  -->
<!DOCTYPE svg PUBLIC "-//W3C//DTD SVG 1.1//EN" "http://www.w3.org/Graphics/SVG/1.1/DTD/svg11.dtd">
<svg version="1.1" id="Capa_1" xmlns="http://www.w3.org/2000/svg" xmlns:xlink="http://www.w3.org/1999/xlink" x="0px" y="0px"
	 width="64px" height="64px" viewBox="0 0 64 64" style="enable-background:new 0 0 64 64;" xml:space="preserve">
<g>
	<path d="M11.263,22.025l2.539,2.335l6.347-6.896h23.824l6.181,6.871l2.563-2.306c1.012-0.91,1.095-2.468,0.185-3.479l-6.294-6.998
		h-4.314V6.955h-5.296v4.598H17.554l-6.435,6.992C10.198,19.545,10.262,21.103,11.263,22.025z"/>
	<path d="M48.491,24.875l-4.844-5.419H20.802l-5.317,6.075v20.692c0,1.359,1.102,2.463,2.462,2.463h11.851
		c1.128,1.445,3.344,3.646,7.74,6.791c0.737,0.525,1.939,0.516,2.66-0.033c2.166-1.648,6.379-5.072,7.83-7.795
		c0.225-0.314,0.372-0.684,0.428-1.084c0.009-0.037,0.027-0.08,0.035-0.119h-0.022c0.006-0.074,0.022-0.147,0.022-0.223V24.875z
		 M38.627,38.959h-13.28V25.68h13.28V38.959z"/>
</g>
</svg>
