<?xml version="1.0" encoding="iso-8859-1"?>
<!-- Generator: Adobe Illustrator 17.0.0, SVG Export Plug-In . SVG Version: 6.00 Build 0)  -->
<!DOCTYPE svg PUBLIC "-//W3C//DTD SVG 1.1//EN" "http://www.w3.org/Graphics/SVG/1.1/DTD/svg11.dtd">
<svg version="1.1" id="Capa_1" xmlns="http://www.w3.org/2000/svg" xmlns:xlink="http://www.w3.org/1999/xlink" x="0px" y="0px"
	 width="64px" height="64px" viewBox="0 0 64 64" style="enable-background:new 0 0 64 64;" xml:space="preserve">
<g>
	<polygon points="17.134,33.896 14.705,31.533 6.574,28.62 7.831,30.42 	"/>
	<polygon points="25.275,9.277 18.952,9.277 16.477,9.734 16.477,12.705 18.876,12.382 25.275,12.382 	"/>
	<polygon points="17.059,13.467 17.059,21.286 19.104,21.286 24.704,16.21 24.704,13.276 18.876,13.276 	"/>
	<circle cx="40.273" cy="38.732" r="2.914"/>
	<path d="M51.09,29.438L37.96,16.412L17.543,35.19l-4.189-1.418v16.121l8.836,7.693l28.899-4.971V29.438z M23.904,53.987
		c-0.474,0-0.857-0.384-0.857-0.857c0-0.473,0.384-0.857,0.857-0.857c0.473,0,0.856,0.384,0.856,0.857
		C24.761,53.603,24.377,53.987,23.904,53.987z M23.904,50.959c-0.474,0-0.857-0.384-0.857-0.857c0-0.474,0.384-0.857,0.857-0.857
		c0.473,0,0.856,0.384,0.856,0.857C24.761,50.575,24.377,50.959,23.904,50.959z M23.904,47.931c-0.474,0-0.857-0.384-0.857-0.857
		c0-0.474,0.384-0.857,0.857-0.857c0.473,0,0.856,0.384,0.856,0.857C24.761,47.547,24.377,47.931,23.904,47.931z M23.904,44.903
		c-0.474,0-0.857-0.385-0.857-0.857c0-0.474,0.384-0.857,0.857-0.857c0.473,0,0.856,0.384,0.856,0.857
		C24.761,44.519,24.377,44.903,23.904,44.903z M23.904,41.875c-0.474,0-0.857-0.384-0.857-0.857c0-0.473,0.384-0.857,0.857-0.857
		c0.473,0,0.856,0.384,0.856,0.857C24.761,41.491,24.377,41.875,23.904,41.875z M23.904,38.847c-0.474,0-0.857-0.384-0.857-0.857
		c0-0.473,0.384-0.856,0.857-0.856c0.473,0,0.856,0.384,0.856,0.856C24.761,38.463,24.377,38.847,23.904,38.847z M23.904,35.818
		c-0.474,0-0.857-0.384-0.857-0.856c0-0.474,0.384-0.857,0.857-0.857c0.473,0,0.856,0.384,0.856,0.857
		C24.761,35.435,24.377,35.818,23.904,35.818z M23.904,32.79c-0.474,0-0.857-0.384-0.857-0.856c0-0.474,0.384-0.857,0.857-0.857
		c0.473,0,0.856,0.384,0.856,0.857C24.761,32.406,24.377,32.79,23.904,32.79z M37.359,46.217c-4.149,0-7.514-3.76-7.514-8.398
		c0-4.639,3.364-8.398,7.514-8.398c4.149,0,7.513,3.76,7.513,8.398C44.872,42.457,41.509,46.217,37.359,46.217z M48.929,50.302
		c-0.474,0-0.857-0.384-0.857-0.856c0-0.474,0.384-0.857,0.857-0.857c0.473,0,0.857,0.384,0.857,0.857
		C49.785,49.918,49.401,50.302,48.929,50.302z M48.929,47.274c-0.474,0-0.857-0.385-0.857-0.857c0-0.474,0.384-0.857,0.857-0.857
		c0.473,0,0.857,0.384,0.857,0.857C49.785,46.89,49.401,47.274,48.929,47.274z M48.929,44.246c-0.474,0-0.857-0.384-0.857-0.857
		c0-0.473,0.384-0.857,0.857-0.857c0.473,0,0.857,0.384,0.857,0.857C49.785,43.862,49.401,44.246,48.929,44.246z M48.929,41.218
		c-0.474,0-0.857-0.384-0.857-0.857c0-0.473,0.384-0.857,0.857-0.857c0.473,0,0.857,0.384,0.857,0.857
		C49.785,40.834,49.401,41.218,48.929,41.218z M48.929,38.19c-0.474,0-0.857-0.384-0.857-0.857c0-0.474,0.384-0.857,0.857-0.857
		c0.473,0,0.857,0.384,0.857,0.857C49.785,37.806,49.401,38.19,48.929,38.19z M48.929,35.161c-0.474,0-0.857-0.384-0.857-0.856
		c0-0.474,0.384-0.857,0.857-0.857c0.473,0,0.857,0.384,0.857,0.857C49.785,34.777,49.401,35.161,48.929,35.161z M48.929,32.134
		c-0.474,0-0.857-0.384-0.857-0.857c0-0.473,0.384-0.857,0.857-0.857c0.473,0,0.857,0.384,0.857,0.857
		C49.785,31.75,49.401,32.134,48.929,32.134z"/>
	<path d="M37.359,30.715c-3.544,0-6.427,3.187-6.427,7.104c0,3.917,2.883,7.104,6.427,7.104c1.518,0,2.992-0.596,4.149-1.679
		c0.277-0.258,0.291-0.692,0.033-0.969c-0.26-0.277-0.693-0.291-0.97-0.032c-0.902,0.844-2.043,1.309-3.213,1.309
		c-2.788,0-5.056-2.572-5.056-5.732c0-3.161,2.268-5.732,5.056-5.732c2.024,0,3.849,1.365,4.648,3.478
		c0.134,0.354,0.53,0.53,0.884,0.398c0.354-0.135,0.532-0.53,0.398-0.884C42.287,32.428,39.959,30.715,37.359,30.715z"/>
	<path d="M36.873,38.732c0-1.858,1.513-3.371,3.371-3.371c0.135,0,0.268,0.011,0.398,0.026l-0.979-0.852
		c-0.19-0.166-0.546-0.262-0.786-0.186c-1.868,0.582-3.224,2.324-3.224,4.383c0,0.798,0.203,1.548,0.562,2.201
		c0.121,0.222,0.416,0.495,0.651,0.586c0.398,0.153,1.073,0.332,1.969,0.271C37.68,41.257,36.873,40.088,36.873,38.732z"/>
	<path d="M17.509,33.772l20.413-19.447l16.907,17.049l2.597-2.575L37.995,9.205l-0.035,0.01l-11.924,1.456v2.576l-0.571,0.003v3.466
		l-6.019,5.458h-2.997v-3.404l-9.874,9.338l8.413,3.017L17.509,33.772z M53.898,27.794l0.94-0.249l0.684,0.69l-0.253,0.937
		l-0.94,0.249l-0.684-0.689L53.898,27.794z M50.404,24.278l0.94-0.249l0.684,0.688l-0.253,0.937l-0.94,0.249l-0.684-0.688
		L50.404,24.278z M46.448,20.197l0.94-0.249l0.683,0.69l-0.253,0.936l-0.94,0.249l-0.684-0.689L46.448,20.197z M42.186,15.886
		l0.941-0.249l0.683,0.69l-0.254,0.935l-0.939,0.249l-0.684-0.688L42.186,15.886z M37.54,11.543l0.94-0.249l0.684,0.69L38.91,12.92
		l-0.94,0.249l-0.684-0.689L37.54,11.543z M32.857,15.322l0.94-0.25l0.683,0.689l-0.253,0.937l-0.939,0.249l-0.684-0.689
		L32.857,15.322z M27.753,20.197l0.941-0.249l0.684,0.69l-0.253,0.936l-0.94,0.249L27.5,21.134L27.753,20.197z M22.764,24.925
		l0.94-0.249l0.684,0.689l-0.253,0.937l-0.94,0.249l-0.684-0.69L22.764,24.925z M17.279,29.752l0.94-0.249l0.684,0.69l-0.254,0.937
		l-0.939,0.249l-0.684-0.689L17.279,29.752z"/>
</g>
</svg>
