<?xml version="1.0" encoding="iso-8859-1"?>
<!-- Generator: Adobe Illustrator 17.0.0, SVG Export Plug-In . SVG Version: 6.00 Build 0)  -->
<!DOCTYPE svg PUBLIC "-//W3C//DTD SVG 1.1//EN" "http://www.w3.org/Graphics/SVG/1.1/DTD/svg11.dtd">
<svg version="1.1" id="Capa_1" xmlns="http://www.w3.org/2000/svg" xmlns:xlink="http://www.w3.org/1999/xlink" x="0px" y="0px"
	 width="64px" height="64px" viewBox="0 0 64 64" style="enable-background:new 0 0 64 64;" xml:space="preserve">
<g>
	<path d="M34.552,7.17C33.796,6.415,32.765,5.99,31.7,6c-1.068,0.007-2.09,0.44-2.836,1.205l-7.623,7.803v-4.235h1.147
		c0.552,0,1-0.447,1-1c0,0,0-0.558,0-1.245c0-0.688-0.895-1.246-2-1.246h-4.521c-1.104,0-2,0.558-2,1.246v1.245c0,0.553,0.448,1,1,1
		h1.147v8.562L6.998,29.589c-1.544,1.58-1.514,4.112,0.067,5.656c0.778,0.76,1.787,1.139,2.794,1.139
		c1.039,0,2.078-0.402,2.862-1.205l0.538-0.55v10.672c0,5.522,2.609,8.757,6.895,10c4.286,1.243,6.895,2,6.895,2V44.909
		c0-2.762,2.217-5,4.952-5c2.735,0,4.952,2.238,4.952,5v12.392c0,0,2.881,0,6.749-2c3.312-1.712,6.749-4.478,6.749-10v-10.95
		l0.864,0.863c1.561,1.562,4.095,1.559,5.656-0.004c1.561-1.562,1.56-4.096-0.004-5.656L34.552,7.17z M31,34.698h-1.976
		c-1.091,0-1.976-0.885-1.976-1.977c0-1.092,0-1.977,0-1.977H31V34.698z M31,28.744h-3.952v-1.977c0-1.091,0.885-1.976,1.976-1.976
		c1.091,0,1.976,0,1.976,0V28.744z M36.952,32.721c0,1.093-0.885,1.977-1.975,1.977c-1.092,0-1.977,0-1.977,0v-3.954h3.952V32.721z
		 M36.952,28.744H33v-3.952h1.977c1.091,0,1.975,0.885,1.975,1.976C36.952,27.859,36.952,28.744,36.952,28.744z"/>
</g>
</svg>
