<?xml version="1.0" encoding="iso-8859-1"?>
<!-- Generator: Adobe Illustrator 17.0.0, SVG Export Plug-In . SVG Version: 6.00 Build 0)  -->
<!DOCTYPE svg PUBLIC "-//W3C//DTD SVG 1.1//EN" "http://www.w3.org/Graphics/SVG/1.1/DTD/svg11.dtd">
<svg version="1.1" id="Capa_1" xmlns="http://www.w3.org/2000/svg" xmlns:xlink="http://www.w3.org/1999/xlink" x="0px" y="0px"
	 width="64px" height="64px" viewBox="0 0 64 64" style="enable-background:new 0 0 64 64;" xml:space="preserve">
<g>
	<path d="M53.987,46.969c0.044-0.586-0.12-1.501-0.366-2.043l-2.635-5.805c-0.246-0.542-0.483-0.983-0.529-0.985
		c-0.041-0.001-0.052-0.002-0.029-0.002c0.003,0,0.007,0,0.011,0h0c0.036,0-0.073-0.459-0.244-1.025l-0.605-2.003
		c-0.171-0.566-0.756-1.284-1.191-1.716c-1.865-1.858-2.382-5.125-4.342-5.125c-0.005,0-0.01,0.001-0.015,0.001
		c-2.229,0.007-3.824,1.625-3.824,3.658c0,0-0.174,3.083,1.417,5.316c0.351,0.492,0.828,1.297,0.955,1.872l0.261,1.189
		c0.127,0.576-0.292,1.043-0.934,1.043H30.876h-5.937c-0.642,0-1.516-0.35-1.951-0.782c-0.982-0.974-2.651-2.63-3.718-3.686
		c-0.068-0.067-0.141-0.14-0.204-0.202c-0.436-0.432-0.791-1.257-0.791-1.844v-3.013c0-1.652-1.714-2.991-3.828-2.991
		s-3.828,1.339-3.828,2.991v3.013c0,0.587,0.073,1.536,0.163,2.118c0.149,0.964,0.369,2.381,0.519,3.344
		c0.091,0.581,0.573,1.35,1.074,1.718l7.433,5.449c0.501,0.367,1.426,0.705,2.066,0.755l11.437,0.884
		c0.64,0.049,1.282,0.552,1.433,1.123l1.673,6.308c0.151,0.571,0.795,1.034,1.437,1.034h15.338c0.642,0,1.199-0.475,1.243-1.061
		l-0.629-7.118L53.987,46.969z"/>
	<path d="M20.054,11.833v7.562l-5.886,4.995l5.103,0.007v5.539c0.316,0.574,0.505,1.207,0.505,1.88v3.013
		c0.002,0.178,0.185,0.619,0.346,0.779l3.923,3.889c0.144,0.143,0.631,0.347,0.895,0.347h2.841V29.75h7.75v10.094h5.682l-0.09-0.41
		c-0.05-0.226-0.336-0.797-0.711-1.324c-1.78-2.498-1.714-5.771-1.695-6.223c0.02-2.87,2.35-5.113,5.324-5.121V24.43l5.103,0.007
		L31.629,9.574l-7.075,6.003v-3.744H20.054z"/>
</g>
</svg>
