<?xml version="1.0" encoding="iso-8859-1"?>
<!-- Generator: Adobe Illustrator 17.0.0, SVG Export Plug-In . SVG Version: 6.00 Build 0)  -->
<!DOCTYPE svg PUBLIC "-//W3C//DTD SVG 1.1//EN" "http://www.w3.org/Graphics/SVG/1.1/DTD/svg11.dtd">
<svg version="1.1" id="Capa_1" xmlns="http://www.w3.org/2000/svg" xmlns:xlink="http://www.w3.org/1999/xlink" x="0px" y="0px"
	 width="64px" height="64px" viewBox="0 0 64 64" style="enable-background:new 0 0 64 64;" xml:space="preserve">
<g>
	<path d="M39.138,55.418c-1.207,0.287-3.684,0.769-6.703,0.769c-3.019,0-5.495-0.482-6.703-0.769
		c-2.264-0.539-3.039-1.015-3.306-1.418h-3.085c0,1.458,5.783,3.438,12.917,3.438S45.175,55.458,45.175,54h-2.731
		C42.177,54.404,41.402,54.88,39.138,55.418z"/>
	<path d="M63.144,13.528c0-6.627-5.373-12-12-12H14.667c-6.627,0-12,5.373-12,12v36.477c0,6.627,5.373,12,12,12h36.477
		c6.627,0,12-5.373,12-12V13.528z M55.811,27.023c-0.342,0.33-0.873,0.495-1.314,0.495c-0.462,0-1.102-0.182-1.449-0.54
		l-0.441-0.416L52.592,52.75c0,1.104-0.184,1.25-1.289,1.25h-3.128c0,3.424-4.477,4.721-5.949,5.147
		c-2.873,0.832-6.413,1.29-9.968,1.29c-3.556,0-7.096-0.458-9.968-1.29c-1.471-0.426-5.949-1.723-5.949-5.147h-2.039
		c-1.104,0-1.711-0.146-1.711-1.25V27.203c0,0.473-2.375,1.001-3.031-0.046c-0.518-0.826-0.241-1.957,0.446-2.648L30.145,4.171
		c0.778-0.778,1.703-1.24,2.771-1.307C34.086,2.8,35,3.2,35.812,4.013l3.78,4.289l0.015-3.755c0-1.104,0.713-1.512,1.817-1.512
		L49.303,3c1.104,0,1.289,0.646,1.289,1.75v14.5c0,0.138,0.157,0.271,0.296,0.4l4.836,4.878
		C56.4,25.229,56.513,26.347,55.811,27.023z"/>
	<polygon points="46.592,6 43.592,6 43.592,11.422 46.592,14.422 	"/>
	<path d="M31.259,31.535v-2.597h-2.598C29.013,30.198,29.999,31.184,31.259,31.535z"/>
	<path d="M24.392,54c1.551,0.531,4.571,1.188,8.044,1.188s6.493-0.657,8.044-1.188h-2.176h-11H24.392z"/>
	<path d="M33.259,24.34v2.597h2.597C35.504,25.678,34.519,24.692,33.259,24.34z"/>
	<rect x="28.592" y="43" width="7" height="8"/>
	<path d="M28.661,26.938h2.598V24.34C29.999,24.691,29.013,25.677,28.661,26.938z"/>
	<path d="M33.223,6.388c-0.202,0.013-0.506,0.115-0.665,0.274L15.886,23.281C15.79,23.422,15.883,51,15.883,51h3.458h5.25v-9.25
		c0-1.104,1.021-1.75,2.125-1.75h11.188c1.104,0,1.688,0.646,1.688,1.75V51h5.583h3.417V22.371L33.604,6.486
		C33.594,6.476,33.458,6.37,33.223,6.388z M39.508,27.938c0,3.998-3.252,7.25-7.25,7.25s-7.25-3.252-7.25-7.25s3.252-7.25,7.25-7.25
		S39.508,23.939,39.508,27.938z"/>
	<path d="M35.856,28.938h-2.597v2.597C34.519,31.183,35.504,30.197,35.856,28.938z"/>
</g>
</svg>
