<?xml version="1.0" encoding="iso-8859-1"?>
<!-- Generator: Adobe Illustrator 17.0.0, SVG Export Plug-In . SVG Version: 6.00 Build 0)  -->
<!DOCTYPE svg PUBLIC "-//W3C//DTD SVG 1.1//EN" "http://www.w3.org/Graphics/SVG/1.1/DTD/svg11.dtd">
<svg version="1.1" id="Capa_1" xmlns="http://www.w3.org/2000/svg" xmlns:xlink="http://www.w3.org/1999/xlink" x="0px" y="0px"
	 width="64px" height="64px" viewBox="0 0 64 64" style="enable-background:new 0 0 64 64;" xml:space="preserve">
<g>
	<path d="M50.83,1.761H14.353c-6.627,0-12,5.373-12,12v36.477c0,6.627,5.373,12,12,12H50.83c6.627,0,12-5.373,12-12V13.761
		C62.83,7.134,57.458,1.761,50.83,1.761z M12.3,41.535c0-0.407,0.188-0.766,0.478-1.008c0.125-0.595,0.322-1.129,0.635-1.216
		c0.757-0.21,2.922-1.214,2.922-1.214V38.1c1.032-2.347,3.111-2.719,5.507-2.719c3.076,0,5.627,0.613,6.115,5.23
		c0.235,0.238,0.38,0.564,0.38,0.925c0,0.694-0.539,1.257-1.22,1.308c-0.001-0.174-0.023-0.342-0.06-0.505
		c-0.233-1.008-1.135-1.76-2.214-1.76s-1.981,0.752-2.214,1.76c-0.038,0.166-0.061,0.337-0.061,0.514h-4.353
		c0-0.177-0.022-0.349-0.061-0.514c-0.204-0.882-0.92-1.566-1.819-1.724c-0.129-0.023-0.26-0.037-0.395-0.037
		c-0.072,0-0.143,0.004-0.213,0.011c-0.984,0.091-1.784,0.809-2.002,1.75c-0.038,0.166-0.061,0.337-0.061,0.514h-0.048
		c-0.424,0-0.797-0.204-1.038-0.514h-0.007c0,0,0-0.003,0-0.008C12.404,42.109,12.3,41.836,12.3,41.535z M56.175,33.375h-20.5
		h-2.417h-3.539l3.083-3.083l0.456-0.456l7.419-7.419l4.039-4.039l4.039,4.039l7.419,7.419l3.539,3.539H56.175z M56.175,22.417
		v6.005l-6.005-6.005H56.175z M33.258,22.417h6.005l-6.005,6.005V22.417z M59.092,46.333h-53v-1.896h1.5V33.708H4.258l3-3.417h24.13
		l-3.417,3.417H9.592v10.729h5.615c-0.599-0.279-1.017-0.882-1.017-1.584c0-0.179,0.027-0.352,0.077-0.514
		c0.196-0.635,0.744-1.116,1.416-1.216c0.085-0.013,0.17-0.021,0.258-0.021c0.136,0,0.268,0.017,0.395,0.047
		c0.608,0.141,1.096,0.599,1.279,1.19c0.05,0.163,0.077,0.335,0.077,0.514c0,0.703-0.418,1.306-1.017,1.584h7.435
		c-0.599-0.279-1.017-0.882-1.017-1.584c0-0.179,0.027-0.352,0.077-0.514c0.22-0.715,0.887-1.237,1.674-1.237
		s1.453,0.521,1.674,1.237c0.05,0.163,0.077,0.335,0.077,0.514c0,0.703-0.418,1.306-1.017,1.584h7.681V34.375h22.917v10.062h2.917
		V46.333z"/>
	<path d="M25.648,42.339c-0.17-0.265-0.466-0.442-0.805-0.442c-0.339,0-0.635,0.177-0.805,0.442
		c-0.095,0.149-0.152,0.325-0.152,0.514c0,0.528,0.428,0.957,0.957,0.957c0.528,0,0.957-0.428,0.957-0.957
		C25.801,42.663,25.744,42.487,25.648,42.339z"/>
	<path d="M16.745,42.339c-0.099-0.155-0.241-0.278-0.409-0.355c-0.121-0.055-0.254-0.087-0.395-0.087
		c-0.103,0-0.201,0.021-0.294,0.051c-0.212,0.069-0.392,0.207-0.51,0.391c-0.095,0.149-0.152,0.325-0.152,0.514
		c0,0.528,0.428,0.957,0.957,0.957c0.528,0,0.957-0.428,0.957-0.957C16.898,42.663,16.841,42.487,16.745,42.339z"/>
	<polygon points="41.381,44.438 41.381,44.604 48.052,44.604 48.052,44.438 48.052,37.933 41.381,37.933 	"/>
</g>
</svg>
