<?xml version="1.0" encoding="utf-8"?>
<!-- Generator: Adobe Illustrator 17.0.0, SVG Export Plug-In . SVG Version: 6.00 Build 0)  -->
<!DOCTYPE svg PUBLIC "-//W3C//DTD SVG 1.1//EN" "http://www.w3.org/Graphics/SVG/1.1/DTD/svg11.dtd">
<svg version="1.1" id="Capa_1" xmlns="http://www.w3.org/2000/svg" xmlns:xlink="http://www.w3.org/1999/xlink" x="0px" y="0px"
	 width="64px" height="64px" viewBox="0 0 64 64" enable-background="new 0 0 64 64" xml:space="preserve">
<g>
	<path d="M10,36v10.86C10,52.898,15.337,58,21.654,58H26c1.657,0,3-1.343,3-3V36h7.022l0.145,19.023
		c0.013,1.648,1.352,2.977,3,2.977h3.606C48.964,58,54,53.002,54,46.86V36h3.567c1.213,0,2.308-0.731,2.771-1.852
		c0.465-1.121,0.208-2.411-0.65-3.269l-23.7-23.704c-1.133-1.133-2.64-1.757-4.241-1.757c-1.604,0-3.11,0.625-4.244,1.758
		l-9.531,9.531C17.826,14.639,16.119,13,14.013,13h-0.025C11.785,13,10,14.785,10,16.987v7.025c0,0.218,0.03,0.412,0.064,0.604
		l-6.263,6.263c-0.858,0.858-1.115,2.148-0.65,3.269C3.615,35.269,4.71,36,5.923,36H10z"/>
</g>
</svg>
