<?xml version="1.0" encoding="iso-8859-1"?>
<!-- Generator: Adobe Illustrator 17.0.0, SVG Export Plug-In . SVG Version: 6.00 Build 0)  -->
<!DOCTYPE svg PUBLIC "-//W3C//DTD SVG 1.1//EN" "http://www.w3.org/Graphics/SVG/1.1/DTD/svg11.dtd">
<svg version="1.1" id="Capa_1" xmlns="http://www.w3.org/2000/svg" xmlns:xlink="http://www.w3.org/1999/xlink" x="0px" y="0px"
	 width="64px" height="64px" viewBox="0 0 64 64" style="enable-background:new 0 0 64 64;" xml:space="preserve">
<g>
	<path d="M14.278,17.247h26.165l6.787,7.546l2.815-2.533c1.111-0.999,1.202-2.71,0.203-3.82l-6.913-7.685h-4.737v-5.05h-5.816v5.05
		H11.43l-7.067,7.679c-1.012,1.099-0.941,2.811,0.157,3.823l2.788,2.565L14.278,17.247z"/>
	<path d="M14.996,19.434l-5.84,6.673v22.724c0,1.494,1.211,2.705,2.705,2.705h15.556l-0.499-0.869
		c-0.473-0.821-0.517-1.994-0.107-2.85l1.535-3.215c0.279-0.587,0.839-1.33,1.328-1.764l0.286-0.199l5.479-2.941l7.015-14.691
		c0.323-0.677,0.783-1.17,1.323-1.442l-3.691-4.13H14.996z"/>
	<path d="M45.372,34.048l0.505-0.186c0.426-0.157,0.902-0.56,1.064-0.898l0.293-0.614c0.522-1.093,0.486-2.848-0.079-3.919
		l-1.169-2.215c-0.565-1.071-1.447-1.053-1.97,0.04L36.79,41.39l-5.912,3.173c-0.34,0.301-0.774,0.878-0.97,1.288l-1.536,3.217
		c-0.196,0.41-0.172,1.062,0.055,1.455l3.447,6.004c0.227,0.394,0.77,0.641,1.216,0.552l7.025-1.402
		c0.445-0.089,0.965-0.493,1.161-0.903l1.358-2.845c0.196-0.41,0.366-1.111,0.379-1.565l-1.234-6.592l0.796-1.667l-0.436-1.288
		c-0.146-0.431,0.081-0.906,0.508-1.063l0.415-0.153c0.427-0.157,0.654-0.634,0.508-1.064l-0.142-0.42
		c-0.146-0.431,0.082-0.906,0.509-1.064l0.504-0.185c0.426-0.158,0.791-0.326,0.815-0.376c0.024-0.051-0.074-0.44-0.219-0.871
		l-0.173-0.509C44.718,34.681,44.945,34.206,45.372,34.048z M37.848,53.904l-3.861,1.179c-0.434,0.132-0.939-0.095-1.129-0.508
		l-1.799-3.943c-0.188-0.414-0.01-0.59,0.4-0.394l6.433,3.072C38.303,53.506,38.281,53.772,37.848,53.904z M44.726,28.608l-5.75,12
		c-0.043,0.09-0.133,0.142-0.226,0.142c-0.036,0-0.073-0.008-0.108-0.024c-0.124-0.06-0.177-0.209-0.117-0.333l5.75-12
		c0.06-0.125,0.209-0.176,0.334-0.118C44.732,28.334,44.785,28.483,44.726,28.608z"/>
</g>
</svg>
