<?xml version="1.0" encoding="utf-8"?>
<!-- Generator: Adobe Illustrator 16.0.0, SVG Export Plug-In . SVG Version: 6.00 Build 0)  -->
<!DOCTYPE svg PUBLIC "-//W3C//DTD SVG 1.1//EN" "http://www.w3.org/Graphics/SVG/1.1/DTD/svg11.dtd">
<svg version="1.1" id="Layer_1" xmlns="http://www.w3.org/2000/svg" xmlns:xlink="http://www.w3.org/1999/xlink" x="0px" y="0px"
	 width="50px" height="50px" viewBox="0 0 50 50" enable-background="new 0 0 50 50" xml:space="preserve">
<g>
	<path d="M40.228,24.5l-5.025-4.455v-6.567c0-0.512-0.414-0.926-0.925-0.926h-3.702c-0.511,0-0.925,0.414-0.925,0.926v1.645
		l-4.037-3.578c-0.351-0.311-0.876-0.311-1.228,0L9.772,24.5c-0.288,0.255-0.387,0.662-0.251,1.021
		c0.137,0.36,0.481,0.597,0.865,0.597h4.627v11.645c0,0.512,0.414,0.926,0.925,0.926c0.512,0,0.926-0.414,0.926-0.926v-12.57
		c0-0.511-0.414-0.925-0.926-0.925h-3.113L25,13.473l4.962,4.398c0.273,0.243,0.66,0.301,0.993,0.152
		c0.333-0.149,0.546-0.479,0.546-0.844v-2.776h1.851v6.059c0,0.265,0.113,0.517,0.312,0.692l3.511,3.113h-3.113
		c-0.512,0-0.926,0.414-0.926,0.925v12.57c0,0.512,0.414,0.926,0.926,0.926c0.511,0,0.925-0.414,0.925-0.926V26.118h4.626
		c0.384,0,0.729-0.237,0.865-0.597C40.615,25.162,40.515,24.755,40.228,24.5z"/>
	<path d="M29.225,29.813l0.74-4.407c0-0.565-0.464-1.03-1.032-1.03h-7.865c-0.568,0-1.033,0.465-1.033,1.03l0.74,4.407
		c0.948,0.113,1.689,0.913,1.689,1.891c0,0.552-0.239,1.048-0.615,1.397h6.303c-0.376-0.349-0.615-0.845-0.615-1.397
		C27.536,30.725,28.277,29.925,29.225,29.813z"/>
	<path d="M20.358,35.377c0,0.569,0.464,1.033,1.032,1.033v2.278h0.557V36.41h6.106v2.278h0.557V36.41
		c0.568,0,1.032-0.464,1.032-1.033v-1.761h-9.284V35.377z"/>
	<path d="M29.449,30.307c-0.771,0-1.396,0.625-1.396,1.397c0,0.771,0.625,1.397,1.396,1.397c0.771,0,1.396-0.625,1.396-1.397
		C30.845,30.932,30.22,30.307,29.449,30.307z M29.862,32.467l0.103-0.613c0-0.48-0.117-0.868-0.271-0.981
		c0.364,0.108,0.636,0.433,0.636,0.831C30.33,32.038,30.136,32.318,29.862,32.467z"/>
	<path d="M21.947,31.704c0-0.772-0.625-1.397-1.396-1.397c-0.771,0-1.396,0.625-1.396,1.397c0,0.771,0.625,1.397,1.396,1.397
		C21.322,33.101,21.947,32.475,21.947,31.704z M20.138,32.467c-0.274-0.149-0.468-0.429-0.468-0.764
		c0-0.398,0.272-0.722,0.636-0.831c-0.154,0.113-0.271,0.501-0.271,0.981L20.138,32.467z"/>
</g>
<g id="Ribbon_6">
	<g id="Regal_Vector_Pack_02">
	</g>
</g>
</svg>
