<?xml version="1.0" encoding="utf-8"?>
<!-- Generator: Adobe Illustrator 17.0.0, SVG Export Plug-In . SVG Version: 6.00 Build 0)  -->
<!DOCTYPE svg PUBLIC "-//W3C//DTD SVG 1.1//EN" "http://www.w3.org/Graphics/SVG/1.1/DTD/svg11.dtd">
<svg version="1.1" id="Capa_1" xmlns="http://www.w3.org/2000/svg" xmlns:xlink="http://www.w3.org/1999/xlink" x="0px" y="0px"
	 width="64px" height="64px" viewBox="0 0 64 64" enable-background="new 0 0 64 64" xml:space="preserve">
<g>
	<path d="M12,60h4.947H47.03H52v-4.991V36h0.692c2.41,0,4.518-1.169,5.37-3.309c0.852-2.141,0.271-4.487-1.48-6.143l-0.062-0.005
		l-0.064-0.03L35.337,7.806l-3.521-3.108l-3.521,3.122L7.175,26.539l-0.064,0.057l-0.062,0.059c-1.751,1.656-2.332,3.895-1.48,6.035
		C6.421,34.831,8.528,36,10.938,36H12v19.009V60z M10.938,31c-0.489,0-0.597-0.212-0.242-0.548l21.119-18.66l21.119,18.66
		C53.289,30.788,53.181,31,52.692,31H47v24h-8V31H25v24h-8V31H10.938z"/>
</g>
</svg>
