<?xml version="1.0" encoding="utf-8"?>
<!-- Generator: Adobe Illustrator 16.0.0, SVG Export Plug-In . SVG Version: 6.00 Build 0)  -->
<!DOCTYPE svg PUBLIC "-//W3C//DTD SVG 1.1//EN" "http://www.w3.org/Graphics/SVG/1.1/DTD/svg11.dtd">
<svg version="1.1" id="Layer_1" xmlns="http://www.w3.org/2000/svg" xmlns:xlink="http://www.w3.org/1999/xlink" x="0px" y="0px"
	 width="50px" height="50px" viewBox="0 0 50 50" enable-background="new 0 0 50 50" xml:space="preserve">
<path d="M40.228,24.5l-5.025-4.455v-6.567c0-0.512-0.414-0.926-0.925-0.926h-3.702c-0.511,0-0.925,0.414-0.925,0.926v1.645
	l-4.037-3.578c-0.351-0.311-0.876-0.311-1.228,0L9.772,24.5c-0.288,0.255-0.387,0.662-0.251,1.021
	c0.137,0.36,0.481,0.597,0.865,0.597h4.627v11.645c0,0.417,0.279,0.755,0.657,0.872c0.074,0.043,0.155,0.075,0.247,0.075H25
	c0.276,0,0.5-0.224,0.5-0.5s-0.224-0.5-0.5-0.5h-8.136v-1H21c0.276,0,0.5-0.224,0.5-0.5s-0.224-0.5-0.5-0.5h-4.136v-1H21
	c0.276,0,0.5-0.224,0.5-0.5s-0.224-0.5-0.5-0.5h-4.136v-1H25c0.276,0,0.5-0.224,0.5-0.5s-0.224-0.5-0.5-0.5h-8.136v-1H21
	c0.276,0,0.5-0.224,0.5-0.5s-0.224-0.5-0.5-0.5h-4.136v-1H21c0.276,0,0.5-0.224,0.5-0.5s-0.224-0.5-0.5-0.5h-4.136v-1H25
	c0.276,0,0.5-0.224,0.5-0.5s-0.224-0.5-0.5-0.5h-8.136v-0.516c0-0.511-0.414-0.925-0.926-0.925h-3.113L25,13.473l4.962,4.398
	c0.273,0.243,0.66,0.301,0.993,0.152c0.333-0.149,0.546-0.479,0.546-0.844v-2.776h1.851v6.059c0,0.265,0.113,0.517,0.312,0.692
	l3.511,3.113h-3.113c-0.512,0-0.926,0.414-0.926,0.925v12.57c0,0.512,0.414,0.926,0.926,0.926c0.511,0,0.925-0.414,0.925-0.926
	V26.118h4.626c0.384,0,0.729-0.237,0.865-0.597C40.615,25.162,40.515,24.755,40.228,24.5z"/>
<g id="Ribbon_6">
	<g id="Regal_Vector_Pack_02">
	</g>
</g>
</svg>
