<?xml version="1.0" encoding="iso-8859-1"?>
<!-- Generator: Adobe Illustrator 17.0.0, SVG Export Plug-In . SVG Version: 6.00 Build 0)  -->
<!DOCTYPE svg PUBLIC "-//W3C//DTD SVG 1.1//EN" "http://www.w3.org/Graphics/SVG/1.1/DTD/svg11.dtd">
<svg version="1.1" id="Capa_1" xmlns="http://www.w3.org/2000/svg" xmlns:xlink="http://www.w3.org/1999/xlink" x="0px" y="0px"
	 width="64px" height="64px" viewBox="0 0 64 64" style="enable-background:new 0 0 64 64;" xml:space="preserve">
<g>
	<path d="M6.624,22.923l2.788,2.565l6.971-7.574h26.165l6.787,7.546l2.815-2.533c1.111-0.999,1.202-2.71,0.203-3.82l-6.913-7.685
		h-4.737v-5.05h-5.816v5.05H13.534l-7.067,7.679C5.455,20.2,5.525,21.912,6.624,22.923z"/>
	<path d="M17.101,20.101l-5.84,6.673v22.724c0,1.493,1.211,2.705,2.705,2.705h13.465l-1.112-4.226h-2.732
		c-0.941,0-1.443-0.621-1.587-1.152c-0.144-0.532-0.024-1.321,0.789-1.795l19.864-11.531c0.369-0.216,0.89-0.356,1.323-0.356h3.535
		v-7.09l-5.319-5.952H17.101z"/>
	<path d="M51.923,41.06c0.145-0.087,0.227-0.289,0.183-0.451l-1.521-5.672c-0.044-0.164-0.216-0.295-0.385-0.295h-6.337
		c-0.169,0-0.425,0.068-0.57,0.153L23.432,46.325c-0.146,0.085-0.127,0.152,0.042,0.152h6.949c0.169,0,0.335,0.135,0.373,0.299
		l0.055,0.244c0.038,0.165,0.188,0.366,0.333,0.449l4.853,2.752c0.147,0.084,0.383,0.081,0.528-0.006L51.923,41.06z"/>
	<path d="M35.998,50.718l-5.12-2.905c-0.146-0.082-0.307-0.28-0.357-0.442l-0.045-0.142c-0.051-0.162-0.228-0.291-0.397-0.291
		h-2.292c-0.169,0-0.271,0.132-0.227,0.295l1.372,5.213c0.042,0.163,0.214,0.302,0.383,0.311l5.041,0.273
		c0.168,0.01,0.433-0.031,0.591-0.091l1.26-0.472c0.158-0.06,0.266-0.243,0.24-0.41l-0.136-0.885
		C36.285,51.005,36.146,50.803,35.998,50.718z"/>
	<path d="M53.437,53.398c-1.233-0.316-1.225,1.228-1.225,1.228l-0.002,0.805c-2.555-0.622-2.455-5.276-2.455-5.276
		c0.378-0.062,0.567-0.315,0.567-0.315c1.001-0.718,0.381-4.431,0.143-5.664l0.426-0.251c0.145-0.086,0.263-0.292,0.263-0.461
		v-1.069c0-0.17-0.117-0.234-0.261-0.146l-13.987,8.475c-0.144,0.087-0.238,0.293-0.209,0.459l0.126,0.734
		c0.028,0.167,0.169,0.232,0.315,0.146l7.754-4.588c-0.097,1.693,0.456,2.555,0.456,2.555c0.378,0.756,0.944,0.694,0.944,0.694
		c0.398,6.867,4.294,8.106,5.912,8.325l0,0.491c0,0,0.04,1.575,1.119,1.511c1.078-0.061,1.032-2.927,1.032-2.927
		S54.6,53.694,53.437,53.398z"/>
</g>
</svg>
