<?xml version="1.0" encoding="iso-8859-1"?>
<!-- Generator: Adobe Illustrator 17.0.0, SVG Export Plug-In . SVG Version: 6.00 Build 0)  -->
<!DOCTYPE svg PUBLIC "-//W3C//DTD SVG 1.1//EN" "http://www.w3.org/Graphics/SVG/1.1/DTD/svg11.dtd">
<svg version="1.1" id="Capa_1" xmlns="http://www.w3.org/2000/svg" xmlns:xlink="http://www.w3.org/1999/xlink" x="0px" y="0px"
	 width="64px" height="64px" viewBox="0 0 64 64" style="enable-background:new 0 0 64 64;" xml:space="preserve">
<g>
	<path d="M13.983,17.655h26.165l6.787,7.546l2.815-2.533c1.111-0.999,1.202-2.71,0.203-3.82l-6.913-7.685h-4.737v-5.05h-5.816v5.05
		H11.135l-7.067,7.679c-1.012,1.099-0.941,2.811,0.157,3.823l2.788,2.564L13.983,17.655z"/>
	<path d="M38.643,29.542c2.219,0,4.359,0.732,6.107,2.054c0.117-0.089,0.24-0.168,0.361-0.251v-5.552l-5.319-5.952H14.701
		l-5.84,6.673v22.724c0,1.494,1.211,2.705,2.705,2.705H34.31c-5.147-5.405-5.646-10.1-5.69-10.762
		c-0.08-0.526-0.119-1.017-0.119-1.497C28.5,34.093,33.05,29.542,38.643,29.542z"/>
	<path d="M51.219,31.876c-2.436,0-4.615,1.075-6.108,2.77c-1.492-1.694-3.672-2.77-6.107-2.77c-4.497,0-8.143,3.646-8.143,8.143
		c0,0.46,0.047,0.908,0.12,1.347h-0.007c0,0,0.359,8.696,14.137,16.221c13.56-6.871,14.137-16.221,14.137-16.221h-0.007
		c0.073-0.439,0.12-0.887,0.12-1.347C59.361,35.522,55.716,31.876,51.219,31.876z M38.75,35.574c-2.648,0-4.801,2.154-4.801,4.801
		c0,0.138-0.112,0.25-0.25,0.25s-0.25-0.112-0.25-0.25c0-2.923,2.378-5.301,5.301-5.301c0.138,0,0.25,0.112,0.25,0.25
		C39,35.462,38.888,35.574,38.75,35.574z"/>
</g>
</svg>
