<?xml version="1.0" encoding="iso-8859-1"?>
<!-- Generator: Adobe Illustrator 17.0.0, SVG Export Plug-In . SVG Version: 6.00 Build 0)  -->
<!DOCTYPE svg PUBLIC "-//W3C//DTD SVG 1.1//EN" "http://www.w3.org/Graphics/SVG/1.1/DTD/svg11.dtd">
<svg version="1.1" id="Capa_1" xmlns="http://www.w3.org/2000/svg" xmlns:xlink="http://www.w3.org/1999/xlink" x="0px" y="0px"
	 width="64px" height="64px" viewBox="0 0 64 64" style="enable-background:new 0 0 64 64;" xml:space="preserve">
<g>
	<path d="M52.84,50.482V27.215l-20.233-9.358L12.3,27.721v22.762c0,2.794,1.149,5.059,2.566,5.059h2.567V40.102c0-0.552,0.448-1,1-1
		h8.875c0.552,0,1,0.448,1,1v15.439h19.474C50.576,55.541,52.84,53.276,52.84,50.482z M40.576,48.961c0,0.552-0.448,1-1,1h-2.759
		c-0.552,0-1-0.448-1-1v-2.759c0-0.552,0.448-1,1-1h2.759c0.552,0,1,0.448,1,1V48.961z M40.576,42.96c0,0.552-0.448,1-1,1h-2.759
		c-0.552,0-1-0.448-1-1v-2.759c0-0.552,0.448-1,1-1h2.759c0.552,0,1,0.448,1,1V42.96z M46.597,48.961c0,0.552-0.448,1-1,1h-2.759
		c-0.552,0-1-0.448-1-1v-2.759c0-0.552,0.448-1,1-1h2.759c0.552,0,1,0.448,1,1V48.961z M46.597,42.96c0,0.552-0.448,1-1,1h-2.759
		c-0.552,0-1-0.448-1-1v-2.759c0-0.552,0.448-1,1-1h2.759c0.552,0,1,0.448,1,1V42.96z"/>
	<path d="M60.2,21.59l-7.36-3.484v-2.571c0-1.914-1.343-3.465-3-3.465c-1.58,0-2.861,1.416-2.977,3.206L34.098,9.233
		c-0.827-0.391-1.787-0.384-2.606,0.019L6.344,21.609c-1.487,0.73-2.101,2.528-1.37,4.015c0.73,1.487,2.528,2.1,4.015,1.37
		l23.85-11.718l24.794,11.737c0.415,0.196,0.852,0.289,1.282,0.289c1.124,0,2.201-0.634,2.713-1.717
		C62.337,24.087,61.698,22.299,60.2,21.59z"/>
</g>
</svg>
