<?xml version="1.0" encoding="utf-8"?>
<!-- Generator: Adobe Illustrator 16.0.4, SVG Export Plug-In . SVG Version: 6.00 Build 0)  -->
<!DOCTYPE svg PUBLIC "-//W3C//DTD SVG 1.1//EN" "http://www.w3.org/Graphics/SVG/1.1/DTD/svg11.dtd">
<svg version="1.1" id="Capa_1" xmlns="http://www.w3.org/2000/svg" xmlns:xlink="http://www.w3.org/1999/xlink" x="0px" y="0px"
	 width="216px" height="146px" viewBox="0 0 216 146" enable-background="new 0 0 216 146" xml:space="preserve">
<g>
	<path d="M108,41.836L61.154,80.455c0,0.055-0.014,0.136-0.041,0.244c-0.027,0.109-0.041,0.188-0.041,0.244v39.106
		c0,1.412,0.516,2.636,1.548,3.666c1.032,1.032,2.254,1.55,3.666,1.55h31.285V93.979h20.859v31.287h31.284
		c1.412,0,2.636-0.518,3.666-1.55c1.032-1.03,1.55-2.254,1.55-3.666V80.943c0-0.217-0.029-0.381-0.082-0.488L108,41.836z"/>
	<path d="M172.77,71.656l-17.842-14.828V23.587c0-0.76-0.244-1.385-0.734-1.874c-0.487-0.489-1.112-0.733-1.873-0.733h-15.643
		c-0.761,0-1.386,0.244-1.875,0.733c-0.488,0.489-0.732,1.114-0.732,1.874v15.887l-19.879-16.621
		c-1.737-1.412-3.801-2.118-6.191-2.118c-2.39,0-4.454,0.706-6.192,2.118L43.229,71.656c-0.543,0.434-0.841,1.018-0.896,1.751
		s0.135,1.373,0.57,1.916l5.051,6.029c0.435,0.488,1.005,0.787,1.711,0.896c0.652,0.055,1.304-0.135,1.956-0.57L108,34.667
		l56.379,47.011c0.436,0.379,1.005,0.569,1.711,0.569h0.245c0.705-0.108,1.274-0.408,1.711-0.896l5.052-6.029
		c0.434-0.543,0.625-1.182,0.568-1.916C173.611,72.675,173.312,72.091,172.77,71.656z"/>
</g>
</svg>
