<?xml version="1.0" encoding="utf-8"?>
<!-- Generator: Adobe Illustrator 17.0.0, SVG Export Plug-In . SVG Version: 6.00 Build 0)  -->
<!DOCTYPE svg PUBLIC "-//W3C//DTD SVG 1.1//EN" "http://www.w3.org/Graphics/SVG/1.1/DTD/svg11.dtd">
<svg version="1.1" id="Capa_1" xmlns="http://www.w3.org/2000/svg" xmlns:xlink="http://www.w3.org/1999/xlink" x="0px" y="0px"
	 width="64px" height="64px" viewBox="0 0 64 64" enable-background="new 0 0 64 64" xml:space="preserve">
<g>
	<path d="M10,60h19h12h12V27h6v-6h-6v-6h-6v6H16v-6h-6v6H4v6h6V60z M47,27v27h-6V39H29v15H16V27H47z"/>
	<rect x="16" y="9" width="6" height="6"/>
	<rect x="22" y="33" width="6" height="6"/>
	<polygon points="35,9 37,9 41,9 41,3 37,3 35,3 28,3 22,3 22,9 28,9 	"/>
	<rect x="41" y="9" width="6" height="6"/>
</g>
</svg>
