<?xml version="1.0" encoding="iso-8859-1"?>
<!-- Generator: Adobe Illustrator 17.0.0, SVG Export Plug-In . SVG Version: 6.00 Build 0)  -->
<!DOCTYPE svg PUBLIC "-//W3C//DTD SVG 1.1//EN" "http://www.w3.org/Graphics/SVG/1.1/DTD/svg11.dtd">
<svg version="1.1" id="Capa_1" xmlns="http://www.w3.org/2000/svg" xmlns:xlink="http://www.w3.org/1999/xlink" x="0px" y="0px"
	 width="64px" height="64px" viewBox="0 0 64 64" style="enable-background:new 0 0 64 64;" xml:space="preserve">
<g>
	<path d="M46.093,14.854v-1.772c0-0.56-0.454-1.013-1.012-1.013h-3.123c-0.559,0-1.013,0.453-1.013,1.013v1.772H32h-8.945v-1.772
		c0-0.56-0.454-1.013-1.013-1.013h-3.123c-0.558,0-1.012,0.453-1.012,1.013v1.772h-6.835l-5.907,6.329v1.267h1.054v31.814
		c0,0.56,0.453,1.013,1.013,1.013H32h24.768c0.56,0,1.013-0.453,1.013-1.013V22.45h1.054v-1.267l-5.906-6.329H46.093z M16.81,48.715
		h-3.544v-3.924h3.544V48.715z M16.81,31.5h-3.544v-3.923h3.544V31.5z M35.608,53.273H32h-3.608V40.678
		C29.531,39.475,32,39.285,32,39.285s2.469,0.189,3.608,1.393V53.273z M36.557,32.196H32h-4.557v-6.898
		C29.277,24.032,32,24.032,32,24.032s2.723,0,4.557,1.265V32.196z M37.57,22.028H32h-5.57c-0.558,0-0.665-0.293-0.24-0.654
		l5.037-4.262c0.427-0.361,1.119-0.361,1.546,0l5.037,4.262C38.235,21.735,38.128,22.028,37.57,22.028z M50.734,48.715H47.19v-3.924
		h3.544V48.715z M50.734,31.5H47.19v-3.923h3.544V31.5z"/>
</g>
</svg>
