<?xml version="1.0" encoding="utf-8"?>
<!-- Generator: Adobe Illustrator 17.0.0, SVG Export Plug-In . SVG Version: 6.00 Build 0)  -->
<!DOCTYPE svg PUBLIC "-//W3C//DTD SVG 1.1//EN" "http://www.w3.org/Graphics/SVG/1.1/DTD/svg11.dtd">
<svg version="1.1" id="Capa_1" xmlns="http://www.w3.org/2000/svg" xmlns:xlink="http://www.w3.org/1999/xlink" x="0px" y="0px"
	 width="64px" height="64px" viewBox="0 0 64 64" enable-background="new 0 0 64 64" xml:space="preserve">
<g>
	<path d="M55,22.962V7H39.2c-0.325-0.547-0.699-1.065-1.156-1.521c-1.505-1.506-3.556-2.3-5.706-2.232
		c-2.154-0.067-4.199,0.726-5.705,2.232C26.176,5.935,25.803,6.453,25.477,7H10v15.639l-4.237,4.237c-3,3.001-3,7.883,0,10.883
		c1.165,1.165,2.64,1.902,4.236,2.152V60h19.541l0.029-16H36v16h19V39.862c1.473-0.295,2.827-1.016,3.914-2.103
		c3-3,3-7.882,0-10.883L55,22.962z M55,33.038c-0.081,0.173-0.186,0.336-0.329,0.479c-0.641,0.641-1.756,0.642-2.398,0L49,30.243
		L32.338,13.582L16,29.92l-3.596,3.596c-0.64,0.641-1.756,0.641-2.398,0c-0.002-0.002-0.004-0.005-0.006-0.007
		c-0.652-0.659-0.652-1.725,0-2.384c0.002-0.002,0.004-0.005,0.006-0.007L16,25.124L28.124,13l2.15-2.15l0.229-0.567
		c0.084-0.21,0.21-0.399,0.373-0.562c0.396-0.396,0.866-0.479,1.189-0.479l0.273,0.013l0.273-0.013c0.324,0,0.794,0.083,1.19,0.479
		c0.163,0.163,0.288,0.352,0.373,0.562l0.229,0.567l2.15,2.15L49,25.447l5.671,5.671c0.142,0.142,0.248,0.307,0.329,0.479
		C55.214,32.054,55.214,32.582,55,33.038z M49,13v3.962L45.038,13H49z M16,13h3.639L16,16.639V13z M49,54h-7V38H23.581l-0.029,16H16
		V38.332c0.224-0.179,0.441-0.368,0.646-0.573l15.692-15.691L48.03,37.759c0.302,0.302,0.629,0.569,0.97,0.813V54z"/>
</g>
</svg>
