<?xml version="1.0" encoding="iso-8859-1"?>
<!-- Generator: Adobe Illustrator 17.0.0, SVG Export Plug-In . SVG Version: 6.00 Build 0)  -->
<!DOCTYPE svg PUBLIC "-//W3C//DTD SVG 1.1//EN" "http://www.w3.org/Graphics/SVG/1.1/DTD/svg11.dtd">
<svg version="1.1" id="Capa_1" xmlns="http://www.w3.org/2000/svg" xmlns:xlink="http://www.w3.org/1999/xlink" x="0px" y="0px"
	 width="64px" height="64px" viewBox="0 0 64 64" style="enable-background:new 0 0 64 64;" xml:space="preserve">
<g>
	<path d="M12.013,25.201l6.971-7.574h26.165l6.787,7.546l2.815-2.533c1.111-0.999,1.202-2.71,0.203-3.82l-6.913-7.686h-4.737v-5.05
		h-5.816v5.05H16.135l-7.067,7.679c-1.012,1.099-0.941,2.811,0.157,3.823L12.013,25.201z"/>
	<path d="M19.701,19.814l-5.84,6.673V49.21c0,1.494,1.211,2.705,2.705,2.705h18.518v-6.29c0-1.823,1.069-3.387,2.604-4.14v-4.766
		c0-4.267,4.157-8.01,8.896-8.01c1.237,0,2.433,0.26,3.527,0.713v-3.656l-5.319-5.952H19.701z"/>
	<path d="M54.646,42.175v-4.636c0-3.407-3.525-6.51-7.396-6.51s-7.396,3.103-7.396,6.51v4.636h2.5v-4.636
		c0-1.816,2.184-4.01,4.896-4.01c2.713,0,4.896,2.194,4.896,4.01v4.636H54.646z"/>
	<path d="M40.375,43.32c-1.727,0-3.125,1.399-3.125,3.125v9.792c0,1.726,1.398,3.125,3.125,3.125h13.75
		c1.727,0,3.125-1.399,3.125-3.125v-9.792c0-1.726-1.398-3.125-3.125-3.125H40.375z M48.5,51.533v3.246c0,0.69-0.56,1.25-1.25,1.25
		c-0.69,0-1.25-0.56-1.25-1.25v-3.246c-0.597-0.402-0.989-1.085-0.989-1.858c0-1.237,1.003-2.24,2.239-2.24
		c1.237,0,2.24,1.003,2.24,2.24C49.49,50.449,49.097,51.131,48.5,51.533z"/>
</g>
</svg>
