<?xml version="1.0" encoding="utf-8"?>
<!-- Generator: Adobe Illustrator 16.0.0, SVG Export Plug-In . SVG Version: 6.00 Build 0)  -->
<!DOCTYPE svg PUBLIC "-//W3C//DTD SVG 1.1//EN" "http://www.w3.org/Graphics/SVG/1.1/DTD/svg11.dtd">
<svg version="1.1" id="Layer_1" xmlns="http://www.w3.org/2000/svg" xmlns:xlink="http://www.w3.org/1999/xlink" x="0px" y="0px"
	 width="512px" height="512px" viewBox="0 0 512 512" enable-background="new 0 0 512 512" xml:space="preserve">
<path d="M502.618,233.375l-54.625-54.625V32h-64v82.75L278.618,9.375c-12.5-12.5-32.75-12.5-45.25,0l-224,224
	c-9.156,9.156-11.875,22.906-6.938,34.875C7.368,280.188,19.056,288,31.993,288h32l64,224h256l64-224h32
	c12.938,0,24.625-7.813,29.563-19.75C514.524,256.281,511.774,242.531,502.618,233.375z M255.993,448c-44.188,0-80-35.813-80-80
	s35.813-80,80-80c44.219,0,80,35.813,80,80S300.212,448,255.993,448z"/>
</svg>
