<?xml version="1.0" encoding="iso-8859-1"?>
<!-- Generator: Adobe Illustrator 17.0.0, SVG Export Plug-In . SVG Version: 6.00 Build 0)  -->
<!DOCTYPE svg PUBLIC "-//W3C//DTD SVG 1.1//EN" "http://www.w3.org/Graphics/SVG/1.1/DTD/svg11.dtd">
<svg version="1.1" id="Capa_1" xmlns="http://www.w3.org/2000/svg" xmlns:xlink="http://www.w3.org/1999/xlink" x="0px" y="0px"
	 width="64px" height="64px" viewBox="0 0 64 64" style="enable-background:new 0 0 64 64;" xml:space="preserve">
<g>
	<path d="M12.003,36.807L14.4,57.19h35.132l2.758-20.383L32.026,20.919L12.003,36.807z M31.307,52.214h-7.313l-0.461-7.674h7.774
		V52.214z M31.307,43.101h-7.86l-0.532-8.872h8.393V43.101z M32.746,34.228h8.393l-0.592,8.872h-7.801V34.228z M32.746,44.54h7.705
		l-0.512,7.674h-7.193V44.54z"/>
	<polygon points="59.483,40.523 52.17,23.018 32.252,6.111 28.44,9.279 28.093,13.605 28.069,17.493 17.177,26.025 16.472,19.225 
		11.763,23.138 4.568,40.523 32.252,18.701 	"/>
	<polygon points="17.758,24.468 27.351,16.953 27.351,13.677 16.639,13.677 	"/>
	<path d="M27.71,8.68h-9.512l-1.56,4.496h10.712L27.71,8.68z M25.852,12.217h-7.067l0.84-2.578h6.527L25.852,12.217z"/>
</g>
</svg>
