<?xml version="1.0" encoding="utf-8"?>
<!-- Generator: Adobe Illustrator 16.0.4, SVG Export Plug-In . SVG Version: 6.00 Build 0)  -->
<!DOCTYPE svg PUBLIC "-//W3C//DTD SVG 1.1//EN" "http://www.w3.org/Graphics/SVG/1.1/DTD/svg11.dtd">
<svg version="1.1" id="Capa_1" xmlns="http://www.w3.org/2000/svg" xmlns:xlink="http://www.w3.org/1999/xlink" x="0px" y="0px"
	 width="64px" height="64px" viewBox="0 0 64 64" enable-background="new 0 0 64 64" xml:space="preserve">
<g>
	<path d="M31.309,54.253c-5.605,0-11.189-1.425-15.731-3.942c-0.323,0.469-0.512,0.94-0.512,1.4c0,2.819,6.652,4.789,16.176,4.789
		s16.176-1.97,16.176-4.789c0-0.443-0.176-0.897-0.477-1.349C42.417,52.847,36.874,54.253,31.309,54.253z"/>
	<path d="M56.725,35.11c-1.179,0.229-3.169,0.452-6.581,0.662c-5.041,0.311-11.743,0.481-18.873,0.481s-13.832-0.171-18.873-0.481
		c-3.338-0.206-5.315-0.424-6.503-0.647c0.948,9.067,9.783,18.128,25.414,18.128C46.948,53.253,55.784,44.182,56.725,35.11z
		 M40.008,50.033c0.001,0,10.698-11.033,7.45-12.033h5.729C53.188,38,53.506,45.749,40.008,50.033z"/>
	<path fill="#120A05" d="M40.01,30.786c0.77-6.968,16.153-3.482,12.947-12.528c-0.49-1.383-2.705-0.787-2.21,0.609
		c1.405,3.966-3.937,4.449-6.656,5.358c-3.267,1.092-5.971,2.918-6.373,6.561C37.557,32.254,39.85,32.238,40.01,30.786z"/>
	<path fill="#120A05" d="M46.463,31.664c1.032-3.483,5.607-3.541,8.528-4.389c3.137-0.911,4.932-3.084,4.501-6.42
		c-0.188-1.445-2.48-1.463-2.292,0c0.521,4.034-3.191,4.328-6.271,5.054c-3,0.707-5.742,1.992-6.677,5.146
		c-0.147,0.497,0.03,0.89,0.338,1.136c0.5,0.018,1.004,0.035,1.486,0.055C46.248,32.115,46.386,31.924,46.463,31.664z"/>
	<path fill="#120D08" d="M31.271,32.97c-13.594,0-22.572,0.6-25.375,1.142c2.803,0.543,11.78,1.143,25.375,1.143
		s22.573-0.6,25.375-1.143C53.843,33.569,44.865,32.97,31.271,32.97z"/>
</g>
</svg>
