<?xml version="1.0" encoding="iso-8859-1"?>
<!-- Generator: Adobe Illustrator 17.0.0, SVG Export Plug-In . SVG Version: 6.00 Build 0)  -->
<!DOCTYPE svg PUBLIC "-//W3C//DTD SVG 1.1//EN" "http://www.w3.org/Graphics/SVG/1.1/DTD/svg11.dtd">
<svg version="1.1" id="Capa_1" xmlns="http://www.w3.org/2000/svg" xmlns:xlink="http://www.w3.org/1999/xlink" x="0px" y="0px"
	 width="64px" height="64px" viewBox="0 0 64 64" style="enable-background:new 0 0 64 64;" xml:space="preserve">
<g>
	<path d="M46.604,48.059l-1.68-3.338c-0.326-0.645-1.172-1.131-1.891-1.089l-2.206,0.127V43.32c0.04-0.02,0.084-0.028,0.124-0.05
		c0.552-0.306,0.951-0.808,1.123-1.412c0.2-0.705,0.069-1.448-0.364-2.042c-0.106-0.145-0.31-0.176-0.455-0.071
		c-0.145,0.107-0.179,0.312-0.071,0.458c0.312,0.428,0.408,0.966,0.264,1.475c-0.125,0.44-0.413,0.801-0.812,1.021
		c-0.397,0.222-0.856,0.273-1.297,0.15c-0.437-0.125-0.801-0.413-1.021-0.812c-0.221-0.398-0.272-0.857-0.147-1.297
		c0.103-0.365,0.326-0.674,0.627-0.894c0.217,0.585,0.505,0.973,0.884,0.973c0.517,0,0.891-0.634,1.169-1.994
		c0.246-1.205,0.382-2.82,0.382-4.553c0-2.003-0.181-3.848-0.5-5.062c-0.047-0.174-0.223-0.276-0.399-0.232
		c-0.174,0.046-0.278,0.224-0.231,0.398c0.299,1.145,0.479,2.975,0.479,4.896c0,1.689-0.132,3.258-0.37,4.421
		c-0.016,0.071-0.029,0.132-0.045,0.196c-0.321-0.049-0.644-0.033-0.957,0.049c-0.228-0.999-0.424-2.579-0.424-4.666
		c0-3.63,0.591-5.738,0.897-5.894c0.181,0,0.328-0.145,0.328-0.326c0-0.181-0.148-0.326-0.328-0.326
		c-1.53,0-1.549,6.278-1.549,6.546c0,0.179,0.009,3.037,0.474,4.918c-0.52,0.308-0.897,0.79-1.062,1.373
		c-0.174,0.606-0.101,1.242,0.205,1.791c0.306,0.552,0.808,0.951,1.413,1.123c0.146,0.043,0.295,0.05,0.443,0.064v0.218
		l-2.815,0.141c-0.721,0.036-1.509,0.611-1.761,1.288l-1.413,3.793c-0.252,0.676,0.127,1.183,0.846,1.134l11.43-0.797
		C46.609,49.267,46.931,48.704,46.604,48.059z M39.995,39.521c-0.147,0.452-0.27,0.624-0.288,0.651
		c-0.096-0.045-0.209-0.255-0.327-0.607C39.58,39.514,39.788,39.495,39.995,39.521z"/>
	<path d="M44.699,50.227l-9.218,0.648c-0.721,0.049-1.296,0.676-1.288,1.396l0.061,5.302c0.009,0.721,0.595,1.241,1.314,1.16
		l9.22-1.028c0.719-0.08,1.292-0.729,1.283-1.45l-0.056-4.813C46.007,50.72,45.418,50.179,44.699,50.227z M35.598,51.847
		l1.008-0.065l0.01,0.834l-1.009,0.076L35.598,51.847z M35.622,54.051l-0.009-0.705l1.011-0.075l0.007,0.7L35.622,54.051z
		 M37.258,51.739l1.028-0.066l0.011,0.814l-1.03,0.078L37.258,51.739z M37.282,53.917l-0.007-0.698l1.028-0.078l0.009,0.694
		L37.282,53.917z M39.107,57.22c0,0-0.009-0.768-0.021-1.714c-0.011-0.946,0.533-1.749,1.217-1.796
		c0.683-0.045,1.245,0.66,1.256,1.577l0.018,1.658L39.107,57.22z M42.282,51.418l0.986-0.065l0.007,0.698l-0.986,0.076
		L42.282,51.418z M42.307,53.62l-0.009-0.839l0.986-0.075l0.009,0.834L42.307,53.62z M43.92,51.311l1.054-0.067l0.007,0.679
		l-1.052,0.08L43.92,51.311z M43.944,53.489l-0.009-0.833l1.054-0.08l0.009,0.83L43.944,53.489z"/>
	<path d="M10.558,23.252c-0.224,1.12,0.136,2.22,0.869,2.988c0.642,0.672,0.916,1.206,0.533,1.802
		c-0.227,0.351-0.389,0.748-0.473,1.184c-0.35,1.827,0.848,3.589,2.673,3.938l10.75,2.058c0.212,0.04,0.424,0.059,0.634,0.059
		c0.96,0,1.888-0.41,2.533-1.148l5.237-5.984c0.54-0.617,0.812-1.376,0.83-2.136c0.002-0.151,0.005-0.313,0.005-0.481l-7.471,3.451
		c-0.765,0.354-1.863,0.561-2.825,0.561c-0.303,0-0.594-0.02-0.854-0.063l-5.35-0.884c-0.458-0.076-0.77-0.508-0.692-0.967
		c0.074-0.458,0.504-0.768,0.966-0.692l5.351,0.883c0.752,0.124,2.01-0.047,2.698-0.365l8.167-3.772
		c0-0.271,0.002-0.528,0.007-0.748c0.013-0.492-0.081-0.994-0.297-1.473c-0.156-0.347-0.366-0.652-0.614-0.913
		c-3.911,0.883-7.131,1.168-9.641,1.168c-4.282,0-6.518-0.82-6.667-0.878c-0.435-0.165-0.651-0.65-0.486-1.086
		c0.165-0.433,0.649-0.65,1.082-0.487c0.058,0.021,5.806,2.087,16.789-0.705c0.549-0.732,0.797-1.678,0.618-2.633
		c-1.743-0.615-3.794-1.375-5.688-2.168c-4.264-1.787-11.904-1.48-11.98-1.478c-0.466,0.013-0.857-0.34-0.877-0.805
		c-0.02-0.464,0.342-0.857,0.806-0.877c0.328-0.013,8.093-0.325,12.703,1.606c1.691,0.71,3.512,1.392,5.118,1.964
		c0.139,0,0.293,0.007,0.476,0.031l3.488,0.448l-0.25,4.722c0,0-0.84,0.231-1.877,0.517c-1.037,0.286-1.877,1.413-1.877,2.517v1.548
		c0,1.104,0.785,2.43,1.754,2.961l1.988,1.089c0.239-0.372,0.529-0.603,0.894-0.603c0.362,0,0.652,0.292,0.652,0.653
		c0,0.17-0.069,0.322-0.179,0.439l3.021-1.274c1.018-0.429,1.931-1.669,2.039-2.768l0.151-1.541c0.108-1.099-0.617-2.303-1.62-2.689
		l-1.816-0.698l0.131-2.916c-0.06-0.019-0.129-0.036-0.178-0.055c-0.362-0.147-0.649-0.732-0.649-1.205
		c0-0.234,0.078-0.476,0.205-0.69c1.236-0.368,2.208-1.423,2.383-2.785c0.164-1.277-0.419-2.467-1.401-3.164l0.006-0.138
		c-0.051-0.056-0.101-0.116-0.156-0.157c-0.372-0.271-0.466-0.436-0.388-0.582c0.082-0.153,0.296-0.194,0.296-0.194
		c0.065-0.021,0.17-0.016,0.288,0.006c0,0,0.015-0.325,0.034-0.726c0.018-0.401-0.3-1.065-0.712-1.483
		c-0.412-0.417-1.09-0.45-1.515-0.072c-0.408,0.363-0.782,1.483-0.864,2.548L27.992,5.047c-1.607-0.405-4.252-0.723-5.909-0.709
		l-5.487,0.045c-1.818-0.377-3.601,0.793-3.977,2.613c-0.076,0.369-0.088,0.736-0.045,1.09c0.075,0.6,0.483,1.787,0.47,2.718
		c-0.006,0.507-0.07,0.946-0.164,1.318c-0.226,0.902-1.283,1.81-1.735,2.421c-0.267,0.361-0.464,0.78-0.57,1.245
		c-0.152,0.668-0.093,1.334,0.131,1.931c0.329,0.869,1.157,1.857,1.158,2.495c0.001,0.638-0.59,1.456-0.907,1.99
		C10.771,22.521,10.634,22.872,10.558,23.252z M42.218,25.031c0.719,0.036,0.812,0.382,0.205,0.772l-1.475,0.952
		c-0.607,0.39-1.568,0.357-2.146-0.073l-1.575-1.174c-0.58-0.431-0.465-0.75,0.254-0.714L42.218,25.031z"/>
</g>
</svg>
