<?xml version="1.0" encoding="utf-8"?>
<!-- Generator: Adobe Illustrator 17.0.0, SVG Export Plug-In . SVG Version: 6.00 Build 0)  -->
<!DOCTYPE svg PUBLIC "-//W3C//DTD SVG 1.1//EN" "http://www.w3.org/Graphics/SVG/1.1/DTD/svg11.dtd">
<svg version="1.1" id="Capa_1" xmlns="http://www.w3.org/2000/svg" xmlns:xlink="http://www.w3.org/1999/xlink" x="0px" y="0px"
	 width="64px" height="64px" viewBox="0 0 64 64" enable-background="new 0 0 64 64" xml:space="preserve">
<g>
	<path d="M9.683,42.699c0.797,0,1.576-0.117,2.317-0.342V58c0,1.657,1.343,3,3,3h12h11h12c1.657,0,3-1.343,3-3V42.614
		c0.364,0.051,0.732,0.085,1.106,0.085c2.119,0,4.112-0.825,5.611-2.324c3.094-3.094,3.094-8.128,0-11.222L39.25,8.686
		c-0.377-0.747-0.869-1.425-1.467-2.022c-1.554-1.554-3.661-2.38-5.889-2.3c-2.215-0.083-4.335,0.747-5.889,2.3
		c-0.598,0.598-1.09,1.276-1.467,2.022L4.071,29.153c-1.499,1.499-2.324,3.492-2.324,5.611s0.825,4.113,2.324,5.611
		S7.563,42.699,9.683,42.699z M8.313,33.396L12,29.709l3.638-3.638l13.956-13.955l0.229-0.567c0.098-0.242,0.241-0.458,0.426-0.643
		c0.453-0.454,0.989-0.549,1.358-0.549l0.288,0.013l0.288-0.013c0.369,0,0.905,0.095,1.358,0.549
		c0.185,0.185,0.328,0.401,0.426,0.643l0.229,0.567l14.302,14.302L53,30.921l2.475,2.475c0.755,0.755,0.755,1.982,0.001,2.737
		c-0.649,0.651-1.73,0.719-2.476,0.211c-0.092-0.063-0.181-0.131-0.262-0.211L47,30.394L31.895,15.289L18,29.183l-6,6l-0.95,0.95
		c-0.729,0.731-2.006,0.731-2.736,0c-0.365-0.365-0.566-0.852-0.566-1.368S7.948,33.761,8.313,33.396z M30,55V44h5v11H30z M47,55h-6
		V41c0-1.657-1.343-3-3-3H27c-1.657,0-3,1.343-3,3v14h-6V37.669l13.895-13.894L47,38.88V55z"/>
</g>
</svg>
