<?xml version="1.0" encoding="iso-8859-1"?>
<!-- Generator: Adobe Illustrator 17.0.0, SVG Export Plug-In . SVG Version: 6.00 Build 0)  -->
<!DOCTYPE svg PUBLIC "-//W3C//DTD SVG 1.1//EN" "http://www.w3.org/Graphics/SVG/1.1/DTD/svg11.dtd">
<svg version="1.1" id="Capa_1" xmlns="http://www.w3.org/2000/svg" xmlns:xlink="http://www.w3.org/1999/xlink" x="0px" y="0px"
	 width="64px" height="64px" viewBox="0 0 64 64" style="enable-background:new 0 0 64 64;" xml:space="preserve">
<g>
	<path d="M59.023,21.346l-7.359-3.483v-2.57c0-1.914-1.344-3.465-3-3.465c-1.58,0-2.861,1.415-2.979,3.205L32.922,8.99
		c-0.826-0.391-1.787-0.383-2.607,0.02L5.166,21.365c-1.486,0.731-2.1,2.528-1.369,4.016c0.73,1.488,2.531,2.099,4.016,1.369
		l23.85-11.717l24.795,11.736c0.414,0.196,0.85,0.289,1.281,0.289c1.123,0,2.201-0.635,2.713-1.718
		C61.16,23.844,60.521,22.055,59.023,21.346z"/>
	<path d="M46.605,55.298c2.795,0,5.059-2.265,5.059-5.059V26.972l-20.232-9.357l-20.309,9.863v22.762
		c0,2.794,1.15,5.059,2.567,5.059h2.568v-15.44c0-0.553,0.447-1,1-1h8.875c0.551,0,1,0.447,1,1v15.44H46.605z M40.164,38.292h5.5
		v12.215h-5.5V38.292z M32.115,38.292h5.5v12.215h-5.5V38.292z"/>
</g>
</svg>
