<?xml version="1.0" encoding="iso-8859-1"?>
<!-- Generator: Adobe Illustrator 17.0.0, SVG Export Plug-In . SVG Version: 6.00 Build 0)  -->
<!DOCTYPE svg PUBLIC "-//W3C//DTD SVG 1.1//EN" "http://www.w3.org/Graphics/SVG/1.1/DTD/svg11.dtd">
<svg version="1.1" id="Capa_1" xmlns="http://www.w3.org/2000/svg" xmlns:xlink="http://www.w3.org/1999/xlink" x="0px" y="0px"
	 width="64px" height="64px" viewBox="0 0 64 64" style="enable-background:new 0 0 64 64;" xml:space="preserve">
<g>
	<path d="M14.353,62.239H50.83c6.627,0,12-5.373,12-12V13.761c0-6.627-5.373-12-12-12H14.353c-6.627,0-12,5.373-12,12v36.477
		C2.353,56.866,7.726,62.239,14.353,62.239z M8.714,48.975l7.329-7.329c0.032-0.032,0.073-0.049,0.11-0.073l-1.695-1.706
		c-0.26-0.262-0.174-0.434,0.191-0.385l8.869,1.197c0.02-0.026,0.035-0.051,0.056-0.077c1.394-1.802,3.55-3.728,6.072-5.424
		c0.99-0.666,1.986-1.256,2.961-1.772l-0.705-1.242c-0.291-0.521-0.291-1.315,0-1.836l3.463-6.294
		C35.656,23.512,36.376,23,36.973,23H38.4l-0.013-2.93l-2.146-2.146c-0.422-0.422-0.422-1.107,0-1.529l2.12-2.12l-0.003-0.722
		l-2.117-2.117c-0.422-0.422-0.422-1.107,0-1.529l2.091-2.091l-0.004-0.938C38.323,5.773,39.215,5,40.319,5c0.003,0,0.006,0,0.009,0
		c1.101,0,1.995,0.659,2,1.761L42.399,23h1.446c0.597,0,1.317,0.538,1.608,1.06l3.463,6.262c0.291,0.521,0.291,1.396,0,1.917
		l-3.463,6.011C45.162,38.771,44.442,39,43.845,39h-4.033c1.1-1.091,1.932-2.402,2.468-3.96c0.198-0.124,0.388-0.266,0.559-0.44
		c1.16-1.187,1.137-3.09-0.05-4.249c-0.362-0.354-0.794-0.584-1.247-0.718c-0.665-0.197-1.381-0.171-2.024,0.1
		c-0.357,0.151-0.691,0.373-0.978,0.667c-0.286,0.293-0.499,0.63-0.641,0.988c0.542-0.106,1.057-0.177,1.51-0.177
		c1.095,0,1.862,0.316,2.282,0.94c1.062,1.581-0.644,4.285-3.363,6.849c-0.69,0.65-1.443,1.292-2.235,1.904
		c-0.567,0.438-1.153,0.861-1.747,1.261c-1.199,0.806-2.405,1.5-3.574,2.084c-0.94,0.469-1.85,0.861-2.709,1.162
		c-0.894,0.313-1.735,0.537-2.482,0.644c-0.353,0.05-0.688,0.079-0.998,0.079c-0.84,0-1.483-0.19-1.929-0.559
		c-0.135-0.112-0.255-0.236-0.353-0.38c-0.263-0.391-0.361-0.864-0.3-1.406c-0.481,0.409-0.793,1.011-0.793,1.692
		c0,1.231,0.998,2.229,2.229,2.229c0.695,0,1.307-0.324,1.716-0.823c1.06-0.095,2.064-0.34,2.988-0.751l0.846,7.766
		c0.04,0.367-0.138,0.452-0.398,0.19L26.9,52.39c-0.017,0.022-0.025,0.048-0.045,0.068l-7.329,7.328
		c-0.261,0.261-0.684,0.261-0.945,0L8.714,49.92C8.454,49.659,8.454,49.236,8.714,48.975z"/>
	<path d="M23.13,44.635c0.276,0.412,0.942,0.498,1.451,0.498c0.314,0,0.667-0.04,1.038-0.101c0.697-0.115,1.485-0.338,2.331-0.647
		c1.13-0.413,2.356-0.984,3.611-1.688c0.74-0.415,1.486-0.865,2.226-1.362c0.549-0.37,1.064-0.743,1.557-1.117
		c0.541-0.411,1.046-0.821,1.515-1.228c3.162-2.743,4.662-5.3,4.002-6.281c-0.277-0.412-0.942-0.498-1.452-0.498
		c-0.499,0-1.083,0.088-1.716,0.238c-0.013,0.798,0.282,1.599,0.898,2.2c0.147,0.143,0.305,0.268,0.471,0.375
		c-0.692,1.401-1.795,2.417-3.212,3.222c-0.118,0.067-0.216,0.144-0.304,0.225c-0.064-0.066-0.135-0.127-0.18-0.207l-2.262-3.985
		c-0.957,0.505-1.934,1.08-2.899,1.729c-2.259,1.519-4.198,3.217-5.529,4.827l2.269,0.306c0.366,0.049,0.695,0.387,0.735,0.754
		l0.157,1.444c-0.77,0.483-1.661,0.745-2.582,0.856c-0.404-0.571-1.066-0.946-1.818-0.946c-0.099,0-0.194,0.017-0.289,0.029
		c-0.186,0.519-0.206,0.941-0.066,1.243C23.098,44.559,23.107,44.602,23.13,44.635z"/>
</g>
</svg>
