<?xml version="1.0" encoding="iso-8859-1"?>
<!-- Generator: Adobe Illustrator 17.0.0, SVG Export Plug-In . SVG Version: 6.00 Build 0)  -->
<!DOCTYPE svg PUBLIC "-//W3C//DTD SVG 1.1//EN" "http://www.w3.org/Graphics/SVG/1.1/DTD/svg11.dtd">
<svg version="1.1" id="Capa_1" xmlns="http://www.w3.org/2000/svg" xmlns:xlink="http://www.w3.org/1999/xlink" x="0px" y="0px"
	 width="64px" height="64px" viewBox="0 0 64 64" style="enable-background:new 0 0 64 64;" xml:space="preserve">
<g>
	<path d="M58.556,36.562c-0.768,0-1.668-0.293-2.253-0.879l-1.711-1.447v20.19c0,0.038-0.005,0.072-0.005,0.11
		C60.391,48.994,64,41.041,64,31.601C64,14.405,50.059,0.464,32.862,0.464S1.725,14.405,1.725,31.601
		c0,8.976,3.384,16.719,8.867,22.273V33.727L8.9,35.683c-0.146,0.146-0.04,0.275-0.206,0.385c-0.499,0.33-1.075,0.494-1.651,0.494
		s-1.152-0.165-1.651-0.494c-0.166-0.11-0.325-0.238-0.471-0.385c-1.172-1.171-1.173-3.071-0.001-4.242L28.619,7.74
		c0.147-0.147,0.31-0.257,0.468-0.385c2.354-1.918,5.812-1.807,8.005,0.385l23.685,23.702c1.172,1.171,1.139,3.071-0.033,4.242
		C60.158,36.269,59.324,36.562,58.556,36.562z"/>
	<path d="M16.592,27.727v28.7c0,1.233,0.646,2.28,1.627,3.062c0.968,0.501,1.967,0.949,2.992,1.348
		C21.726,60.941,22.252,61,22.774,61h21.119c0.132,0,0.249-0.022,0.376-0.029c1.111-0.414,2.193-0.885,3.238-1.418
		c0.689-0.777,1.084-1.83,1.084-3.126v-28.19L32.337,11.982L16.592,27.727z M41.278,54.833H23.906V37.461h17.372V54.833z
		 M39.688,30.022v5.98h-3v-5.98c0-0.586-0.477-1.063-1.062-1.063H29.36c-0.586,0-1.063,0.478-1.063,1.063v5.98h-3v-5.98
		c0-2.24,1.823-4.063,4.063-4.063h6.266C37.866,25.959,39.688,27.782,39.688,30.022z"/>
</g>
</svg>
