<?xml version="1.0" encoding="iso-8859-1"?>
<!-- Generator: Adobe Illustrator 17.0.0, SVG Export Plug-In . SVG Version: 6.00 Build 0)  -->
<!DOCTYPE svg PUBLIC "-//W3C//DTD SVG 1.1//EN" "http://www.w3.org/Graphics/SVG/1.1/DTD/svg11.dtd">
<svg version="1.1" id="Capa_1" xmlns="http://www.w3.org/2000/svg" xmlns:xlink="http://www.w3.org/1999/xlink" x="0px" y="0px"
	 width="64px" height="64px" viewBox="0 0 64 64" style="enable-background:new 0 0 64 64;" xml:space="preserve">
<g>
	<path d="M16.592,27.26v19.7c0,2.738,3.135,5.04,6.147,5.04h21.119c2.882,0,4.734-2.206,4.734-5.04v-19.19L32.337,11.515
		L16.592,27.26z M37.574,27.353c3.808,0,6.896,3.087,6.896,6.896c0,0.224-0.012,0.447-0.034,0.668
		c-0.038,0.394-0.115,0.776-0.216,1.148c-0.017,0.063-0.03,0.127-0.049,0.19c-0.015,0.049-0.032,0.096-0.048,0.144
		c-1.92,6.149-11.294,10.957-11.294,10.957s-9.374-4.809-11.294-10.957c-0.016-0.048-0.033-0.095-0.048-0.144
		c-0.018-0.063-0.032-0.126-0.049-0.19c-0.101-0.372-0.178-0.754-0.216-1.148c-0.022-0.221-0.034-0.444-0.034-0.668
		c0-3.808,3.087-6.896,6.896-6.896c1.84,0,3.507,0.725,4.744,1.9C34.067,28.078,35.734,27.353,37.574,27.353z"/>
	<path d="M51.069,2H14.592c-6.627,0-12,5.373-12,12v36.477c0,6.627,5.373,12,12,12h36.477c6.627,0,12-5.373,12-12V14
		C63.069,7.373,57.696,2,51.069,2z M60.712,35.216c-0.585,0.586-1.415,0.879-2.183,0.879s-1.659-0.293-2.244-0.879l-1.693-1.447
		v13.19c0,6.143-4.543,11.04-10.734,11.04H22.739c-6.317,0-12.147-5.002-12.147-11.04v-13.7l-1.709,1.956
		c-0.146,0.146-0.208,0.257-0.374,0.367c-0.499,0.33-0.925,0.512-1.501,0.512s-1.152-0.165-1.651-0.494
		c-0.166-0.11-0.325-0.238-0.471-0.385c-1.172-1.171-1.173-3.071-0.001-4.242L28.584,7.273c0.147-0.147,0.31-0.257,0.468-0.385
		c2.354-1.918,5.813-1.807,8.005,0.385l23.686,23.702C61.915,32.145,61.884,34.045,60.712,35.216z"/>
</g>
</svg>
