<?xml version="1.0" encoding="iso-8859-1"?>
<!-- Generator: Adobe Illustrator 17.0.0, SVG Export Plug-In . SVG Version: 6.00 Build 0)  -->
<!DOCTYPE svg PUBLIC "-//W3C//DTD SVG 1.1//EN" "http://www.w3.org/Graphics/SVG/1.1/DTD/svg11.dtd">
<svg version="1.1" id="Capa_1" xmlns="http://www.w3.org/2000/svg" xmlns:xlink="http://www.w3.org/1999/xlink" x="0px" y="0px"
	 width="64px" height="64px" viewBox="0 0 64 64" style="enable-background:new 0 0 64 64;" xml:space="preserve">
<g>
	<polygon points="33.667,17.417 33.667,23.422 39.672,17.417 	"/>
	<polygon points="56.583,17.417 50.578,17.417 56.583,23.422 	"/>
	<path d="M56.583,29.375H33.667v10.062h-7.681c0.599-0.279,1.017-0.882,1.017-1.584c0-0.179-0.027-0.352-0.077-0.514
		c-0.22-0.715-0.887-1.237-1.674-1.237s-1.453,0.521-1.674,1.237c-0.05,0.163-0.077,0.335-0.077,0.514
		c0,0.703,0.418,1.306,1.017,1.584h-7.435c0.599-0.279,1.017-0.882,1.017-1.584c0-0.179-0.027-0.352-0.077-0.514
		c-0.182-0.592-0.67-1.049-1.279-1.19c-0.127-0.029-0.259-0.047-0.395-0.047c-0.088,0-0.174,0.009-0.258,0.021
		c-0.671,0.1-1.22,0.58-1.416,1.216c-0.05,0.163-0.077,0.335-0.077,0.514c0,0.703,0.418,1.306,1.017,1.584H10V28.708h18.38
		l3.417-3.417H7.667l-3,3.417H8v10.729H6.5v1.896h53v-1.896h-2.917V29.375z M24.295,37.853c0-0.19,0.057-0.366,0.152-0.514
		c0.17-0.265,0.466-0.442,0.805-0.442c0.339,0,0.635,0.177,0.805,0.442c0.095,0.149,0.152,0.325,0.152,0.514
		c0,0.528-0.428,0.957-0.957,0.957C24.724,38.81,24.295,38.381,24.295,37.853z M15.392,37.853c0-0.19,0.057-0.366,0.152-0.514
		c0.118-0.184,0.298-0.322,0.51-0.391c0.093-0.03,0.191-0.051,0.294-0.051c0.141,0,0.274,0.032,0.395,0.087
		c0.169,0.077,0.31,0.2,0.409,0.355c0.095,0.149,0.152,0.325,0.152,0.514c0,0.528-0.428,0.957-0.957,0.957
		C15.821,38.81,15.392,38.381,15.392,37.853z M48.461,39.604h-6.671v-0.167v-6.505h6.671v6.505V39.604z"/>
	<polygon points="49.164,17.417 45.125,13.377 41.086,17.417 33.667,24.836 33.211,25.292 30.127,28.375 33.667,28.375 
		36.083,28.375 56.583,28.375 60.123,28.375 56.583,24.836 	"/>
	<path d="M12.988,37.339c0.241,0.311,0.614,0.514,1.038,0.514h0.048c0-0.177,0.022-0.349,0.061-0.514
		c0.218-0.941,1.018-1.658,2.002-1.75c0.07-0.007,0.141-0.011,0.213-0.011c0.135,0,0.267,0.014,0.395,0.037
		c0.899,0.158,1.615,0.842,1.819,1.724c0.038,0.166,0.061,0.337,0.061,0.514h4.353c0-0.177,0.022-0.349,0.061-0.514
		c0.233-1.008,1.135-1.76,2.214-1.76s1.981,0.752,2.214,1.76c0.038,0.162,0.059,0.331,0.06,0.505c0.681-0.051,1.22-0.613,1.22-1.308
		c0-0.361-0.146-0.687-0.38-0.925c-0.488-4.617-3.04-5.23-6.115-5.23c-2.396,0-4.474,0.372-5.507,2.719v-0.003
		c0,0-2.166,1.004-2.922,1.214c-0.313,0.087-0.511,0.621-0.635,1.216c-0.29,0.242-0.478,0.601-0.478,1.008
		c0,0.3,0.104,0.573,0.273,0.795c0,0.005,0,0.008,0,0.008H12.988z"/>
</g>
</svg>
