<?xml version="1.0" encoding="iso-8859-1"?>
<!-- Generator: Adobe Illustrator 17.0.0, SVG Export Plug-In . SVG Version: 6.00 Build 0)  -->
<!DOCTYPE svg PUBLIC "-//W3C//DTD SVG 1.1//EN" "http://www.w3.org/Graphics/SVG/1.1/DTD/svg11.dtd">
<svg version="1.1" id="Capa_1" xmlns="http://www.w3.org/2000/svg" xmlns:xlink="http://www.w3.org/1999/xlink" x="0px" y="0px"
	 width="64px" height="64px" viewBox="0 0 64 64" style="enable-background:new 0 0 64 64;" xml:space="preserve">
<g>
	<path d="M15.144,24.992h8.764v-6.388l7.628-7.181l8.273,7.289v6.334l8.9-0.02c1.81-0.004,2.993-1.447,2.646-3.222l-1.934-9.869
		c-0.348-1.775-2.097-3.215-3.906-3.215L19.321,8.775c-1.809,0-3.642,1.42-4.093,3.172l-2.543,9.871
		C12.234,23.571,13.335,24.992,15.144,24.992z"/>
	<path d="M46.256,55.28c1.809,0,3.275-1.467,3.275-3.276V26.486H38.25v-6.503l-6.503-6.004l-6.504,6.004v6.503H13.962v25.518
		c0,1.809,1.466,3.276,3.275,3.276h7.793v-16.38h13.433v16.38H46.256z M31.746,24.853c-1.438,0-2.602-1.165-2.602-2.603
		s1.164-2.603,2.602-2.603c1.438,0,2.604,1.166,2.604,2.603S33.185,24.853,31.746,24.853z"/>
</g>
</svg>
