<?xml version="1.0" encoding="iso-8859-1"?>
<!-- Generator: Adobe Illustrator 17.0.0, SVG Export Plug-In . SVG Version: 6.00 Build 0)  -->
<!DOCTYPE svg PUBLIC "-//W3C//DTD SVG 1.1//EN" "http://www.w3.org/Graphics/SVG/1.1/DTD/svg11.dtd">
<svg version="1.1" id="Capa_1" xmlns="http://www.w3.org/2000/svg" xmlns:xlink="http://www.w3.org/1999/xlink" x="0px" y="0px"
	 width="64px" height="64px" viewBox="0 0 64 64" style="enable-background:new 0 0 64 64;" xml:space="preserve">
<g>
	<path d="M35.027,37.5v17.541h23.484V37.5L47.208,25.318L35.027,37.5z M43.344,48.513c0,0-0.87,0-1.943,0
		c-1.072,0-1.942-0.896-1.942-2v-5.462c0-1.104,0.87-2,1.942-2h1.943V48.513z M50.009,48.513h-5.628v-9.462h5.628V48.513z
		 M50.865,39.051c0,0,0.87,0,1.943,0c1.072,0,1.942,0.896,1.942,2v5.462c0,1.104-0.87,2-1.942,2h-1.943V39.051z M50.009,33.837
		v3.273h-5.628c0,0,0-1.465,0-3.273c0-1.808,1.26-3.273,2.813-3.273C48.749,30.563,50.009,32.029,50.009,33.837z"/>
	<path d="M34.637,13.969L11.347,37.5v15.202H8.911V36.806l24.166-25.007l-1.676-1.631L6.572,35.855v19.185h12.667v-8.743
		c0-1.657,1.343-3,3-3h1.455c1.657,0,3,1.343,3,3v8.743h6.871V37.5l12.757-13.21L34.637,13.969z M31.226,35.576h-6.505
		c0,0,0-1.898,0-4.239c0-2.341,1.456-4.239,3.252-4.239c1.797,0,3.253,1.898,3.253,4.239V35.576z"/>
</g>
</svg>
