<?xml version="1.0" encoding="utf-8"?>
<!-- Generator: Adobe Illustrator 17.0.0, SVG Export Plug-In . SVG Version: 6.00 Build 0)  -->
<!DOCTYPE svg PUBLIC "-//W3C//DTD SVG 1.1//EN" "http://www.w3.org/Graphics/SVG/1.1/DTD/svg11.dtd">
<svg version="1.1" id="Capa_1" xmlns="http://www.w3.org/2000/svg" xmlns:xlink="http://www.w3.org/1999/xlink" x="0px" y="0px"
	 width="64px" height="64px" viewBox="0 0 64 64" enable-background="new 0 0 64 64" xml:space="preserve">
<g>
	<path d="M60.779,26.252c-0.193-0.506-0.501-0.973-0.922-1.352L36.985,4.279c-1.071-0.92-2.474-1.426-3.952-1.426
		c-1.645,0-3.312,0.621-4.59,1.719L5.14,24.86c-0.817,0.711-1.24,1.743-1.196,2.786c-0.189,0.582-0.295,1.197-0.299,1.835L3.481,60
		H13v-3v-4v-9c0-2.761,2.239-5,5-5h6c2.761,0,5,2.239,5,5v9v4v3h32.895l-0.163-30.519C61.726,28.305,61.376,27.204,60.779,26.252z
		 M37,39h17v14H37V39z"/>
</g>
</svg>
