<?xml version="1.0" encoding="iso-8859-1"?>
<!-- Generator: Adobe Illustrator 17.0.0, SVG Export Plug-In . SVG Version: 6.00 Build 0)  -->
<!DOCTYPE svg PUBLIC "-//W3C//DTD SVG 1.1//EN" "http://www.w3.org/Graphics/SVG/1.1/DTD/svg11.dtd">
<svg version="1.1" id="Capa_1" xmlns="http://www.w3.org/2000/svg" xmlns:xlink="http://www.w3.org/1999/xlink" x="0px" y="0px"
	 width="64px" height="64px" viewBox="0 0 64 64" style="enable-background:new 0 0 64 64;" xml:space="preserve">
<g>
	<path d="M56.04,8H8.17L6.063,22.635c-0.205,1.426,0.149,2.582,0.792,2.582h1.163v26.609c0,2.305,1.869,4.174,4.174,4.174h39.565
		c2.305,0,4.174-1.869,4.174-4.174V25.217c0,0,0.521,0,1.163,0c0.642,0,1.013-1.158,0.83-2.587L56.04,8z M20.352,52.695h-7.652
		V42.607h7.652V52.695z M20.352,39.565h-7.652V29.477h7.652V39.565z M35.801,54.347h-7.652v-8.608c0-1.44,1.168-2.608,2.609-2.608
		h2.435c1.441,0,2.609,1.168,2.609,2.608V54.347z M35.801,39.565h-7.652V29.477h7.652V39.565z M29.366,22.521v-5.217h5.217v5.217
		H29.366z M41.909,20.822c-0.503,0.517-1.329,0.526-1.844,0.024l-7.943-7.738l-8.253,7.755c-0.252,0.236-0.573,0.354-0.894,0.354
		c-0.347,0-0.694-0.138-0.951-0.411c-0.493-0.525-0.467-1.351,0.058-1.844l8.402-7.894c0.937-0.88,2.392-0.867,3.312,0.029
		l8.089,7.881C42.4,19.481,42.411,20.307,41.909,20.822z M51.373,52.695h-7.652V42.607h7.652V52.695z M51.373,39.565h-7.652V29.477
		h7.652V39.565z"/>
</g>
</svg>
