<?xml version="1.0" encoding="utf-8"?>
<!-- Generator: Adobe Illustrator 17.0.0, SVG Export Plug-In . SVG Version: 6.00 Build 0)  -->
<!DOCTYPE svg PUBLIC "-//W3C//DTD SVG 1.1//EN" "http://www.w3.org/Graphics/SVG/1.1/DTD/svg11.dtd">
<svg version="1.1" id="Capa_1" xmlns="http://www.w3.org/2000/svg" xmlns:xlink="http://www.w3.org/1999/xlink" x="0px" y="0px"
	 width="64px" height="64px" viewBox="0 0 64 64" enable-background="new 0 0 64 64" xml:space="preserve">
<g>
	<path d="M30.362,62h4.101c2.99,0,5.785-1.628,7.569-4H57V37.549c-0.252,0.033-0.506,0.056-0.765,0.056
		c-1.169,0-2.286-0.343-3.235-0.98c-0.314-0.211-0.61-0.453-0.883-0.727L33.361,17.142c-0.64-0.64-1.754-0.639-2.392,0L13,35.111
		l-0.786,0.786C11.58,36.532,10.823,36.996,10,37.28V58h12.905C24.638,60.372,27.372,62,30.362,62z M25.713,55
		C25.264,54.189,25,53.284,25,52.374V51v-6.828C25,41.341,27.531,39,30.362,39H34h0.463C37.294,39,40,41.341,40,44.172V51v1.374
		c0,0.91-0.282,1.815-0.756,2.626c-0.999,1.712-2.86,3-4.781,3h-4.101C28.441,58,26.661,56.712,25.713,55z"/>
	<path d="M59.584,27.618L35.149,3.182c-0.495-0.496-1.093-0.816-1.722-0.996c-0.654-0.188-1.339-0.213-2-0.061
		c-0.703,0.161-1.373,0.505-1.921,1.051C29.503,3.178,29.5,3.18,29.497,3.182l-1.871,1.871L5.434,27.246
		c-0.308,0.308-0.537,0.661-0.724,1.029c-0.759,1.5-0.529,3.371,0.724,4.623c0.78,0.781,1.803,1.171,2.826,1.171
		c0.598,0,1.191-0.15,1.741-0.417c0.39-0.19,0.762-0.43,1.085-0.754l18.87-18.87c1.307-1.307,3.427-1.307,4.735,0L53.932,33.27
		c0.841,0.842,1.965,1.214,3.068,1.148c0.941-0.057,1.866-0.429,2.584-1.148c0.933-0.932,1.296-2.21,1.114-3.421
		C60.576,29.033,60.213,28.246,59.584,27.618z"/>
</g>
</svg>
