<?xml version="1.0" encoding="iso-8859-1"?>
<!-- Generator: Adobe Illustrator 17.0.0, SVG Export Plug-In . SVG Version: 6.00 Build 0)  -->
<!DOCTYPE svg PUBLIC "-//W3C//DTD SVG 1.1//EN" "http://www.w3.org/Graphics/SVG/1.1/DTD/svg11.dtd">
<svg version="1.1" id="Capa_1" xmlns="http://www.w3.org/2000/svg" xmlns:xlink="http://www.w3.org/1999/xlink" x="0px" y="0px"
	 width="64px" height="64px" viewBox="0 0 64 64" style="enable-background:new 0 0 64 64;" xml:space="preserve">
<g>
	<path d="M51.325,30.322l-3.463-6.262C47.571,23.538,46.85,23,46.253,23h-1.446L44.736,6.761C44.731,5.659,43.837,5,42.736,5
		c-0.003,0-0.006,0-0.009,0c-1.104,0-1.996,0.773-1.991,1.878l0.004,0.938l-2.091,2.091c-0.422,0.422-0.422,1.107,0,1.529
		l2.117,2.117l0.003,0.722l-2.12,2.12c-0.422,0.422-0.422,1.107,0,1.529l2.146,2.146L40.808,23h-1.426
		c-0.597,0-1.317,0.512-1.608,1.034l-3.463,6.294c-0.291,0.521-0.291,1.315,0,1.836l0.705,1.242
		c-0.976,0.517-1.971,1.107-2.961,1.772c-2.522,1.696-4.679,3.623-6.072,5.424c-0.02,0.026-0.036,0.051-0.056,0.077l-8.869-1.197
		c-0.366-0.049-0.451,0.123-0.191,0.385l1.695,1.706c-0.037,0.024-0.078,0.041-0.11,0.073l-7.329,7.329
		c-0.261,0.261-0.261,0.684,0,0.945l9.867,9.867c0.261,0.261,0.684,0.261,0.945,0l7.329-7.328c0.02-0.02,0.028-0.046,0.045-0.068
		l1.688,1.699c0.26,0.262,0.438,0.177,0.398-0.19l-0.846-7.766c-0.925,0.411-1.928,0.656-2.988,0.751
		c-0.409,0.498-1.021,0.823-1.716,0.823c-1.231,0-2.229-0.998-2.229-2.229c0-0.681,0.312-1.283,0.793-1.692
		c-0.061,0.543,0.037,1.015,0.3,1.406c0.097,0.145,0.218,0.269,0.353,0.38c0.445,0.369,1.089,0.559,1.929,0.559
		c0.31,0,0.645-0.028,0.998-0.079c0.747-0.106,1.588-0.331,2.482-0.644c0.859-0.301,1.769-0.693,2.709-1.162
		c1.169-0.584,2.375-1.278,3.574-2.084c0.595-0.4,1.18-0.823,1.747-1.261c0.792-0.612,1.545-1.253,2.235-1.904
		c2.72-2.564,4.426-5.268,3.363-6.849c-0.42-0.624-1.188-0.94-2.282-0.94c-0.453,0-0.968,0.072-1.51,0.177
		c0.143-0.358,0.355-0.695,0.641-0.988c0.288-0.295,0.621-0.517,0.978-0.667c0.643-0.272,1.359-0.297,2.024-0.1
		c0.454,0.134,0.885,0.364,1.247,0.718c1.187,1.16,1.209,3.062,0.05,4.249c-0.171,0.175-0.361,0.316-0.559,0.44
		c-0.536,1.559-1.368,2.87-2.468,3.96h4.033c0.597,0,1.317-0.229,1.608-0.75l3.463-6.011C51.616,31.718,51.616,30.843,51.325,30.322
		z M41.816,32.21c0.51,0,1.175,0.086,1.452,0.498c0.66,0.982-0.84,3.538-4.002,6.281c-0.469,0.407-0.974,0.817-1.515,1.228
		c-0.492,0.374-1.007,0.747-1.557,1.117c-0.739,0.497-1.486,0.948-2.226,1.362c-1.255,0.703-2.481,1.274-3.611,1.688
		c-0.845,0.309-1.633,0.532-2.331,0.647c-0.371,0.061-0.724,0.101-1.038,0.101c-0.509,0-1.175-0.086-1.451-0.498
		c-0.022-0.033-0.032-0.076-0.049-0.113c-0.14-0.302-0.12-0.724,0.066-1.243c0.096-0.013,0.19-0.029,0.289-0.029
		c0.752,0,1.414,0.375,1.818,0.946c0.921-0.111,1.812-0.372,2.582-0.856l-0.157-1.444c-0.04-0.367-0.369-0.704-0.735-0.754
		l-2.269-0.306c1.332-1.61,3.27-3.308,5.529-4.827c0.965-0.649,1.941-1.224,2.899-1.729l2.262,3.985
		c0.045,0.081,0.116,0.141,0.18,0.207c0.087-0.081,0.186-0.158,0.304-0.225c1.416-0.805,2.52-1.821,3.212-3.222
		c-0.166-0.107-0.324-0.232-0.471-0.375c-0.616-0.602-0.911-1.403-0.898-2.2C40.734,32.298,41.317,32.21,41.816,32.21z"/>
</g>
</svg>
