<?xml version="1.0" encoding="iso-8859-1"?>
<!-- Generator: Adobe Illustrator 17.0.0, SVG Export Plug-In . SVG Version: 6.00 Build 0)  -->
<!DOCTYPE svg PUBLIC "-//W3C//DTD SVG 1.1//EN" "http://www.w3.org/Graphics/SVG/1.1/DTD/svg11.dtd">
<svg version="1.1" id="Capa_1" xmlns="http://www.w3.org/2000/svg" xmlns:xlink="http://www.w3.org/1999/xlink" x="0px" y="0px"
	 width="64px" height="64px" viewBox="0 0 64 64" style="enable-background:new 0 0 64 64;" xml:space="preserve">
<g>
	<path d="M28.951,48.113L9.642,49.69c-0.55,0.045-0.712,0.427-0.362,0.853l1.023,1.247c0.35,0.427,1.081,0.742,1.632,0.704
		l19.067-1.301c0.551-0.038,1.087-0.507,1.197-1.048l2.562-12.565l-2.978-2.291L28.951,48.113z"/>
	<path d="M35.536,35.159H32.68l2.59,2.033h1.227c0.553,0,0.69-0.322,0.306-0.72L35.536,35.159z"/>
	<path d="M28.176,47.169l2.712-12.688h3.648c0.553,0,0.721-0.35,0.377-0.782l-9.999-12.541c-0.075,0.196-0.191,0.373-0.344,0.511
		c0.089,0.177,0.143,0.373,0.143,0.584c0,0.385-0.169,0.726-0.434,0.966c0.088,0.176,0.144,0.372,0.144,0.584
		c0,0.384-0.17,0.727-0.435,0.967c0.089,0.176,0.144,0.373,0.144,0.583c0,0.722-0.587,1.308-1.308,1.308
		c-0.72,0-1.307-0.586-1.307-1.308c0-0.384,0.169-0.728,0.434-0.967c-0.088-0.176-0.144-0.372-0.144-0.583
		c0-0.385,0.169-0.727,0.434-0.966c-0.088-0.177-0.144-0.373-0.144-0.584c0-0.06,0.012-0.116,0.02-0.175L19.3,24.812
		c0,0,0.057-0.34,0.127-0.76c0.071-0.419-0.316-0.703-0.864-0.635l-2.277,0.285c-0.548,0.068-1.101,0.559-1.235,1.094l-1.367,5.467
		l-5.422,5.264c-0.396,0.385-0.27,0.696,0.282,0.696h2.293L8.696,47.833c-0.101,0.543,0.265,0.946,0.815,0.899L28.176,47.169z
		 M20.352,28.269c0.31-0.953,1.281-1.493,2.167-1.205c0.887,0.288,1.355,1.294,1.046,2.248c-0.309,0.955-1.28,1.494-2.167,1.206
		C20.512,30.229,20.044,29.224,20.352,28.269z"/>
	<path d="M56.735,48.406l-2.579,1.09l-0.89-1.404l-2.898,1.423l-0.199-0.356l3.263-1.591l0.871,1.417l2.601-1.086
		c0.51-0.212,0.692-0.768,0.407-1.241l-0.259-0.43c-0.285-0.473-0.784-0.747-1.114-0.612l-0.6,0.245l-0.69-0.998
		c0,0,0.305-0.122,0.681-0.273c0.377-0.15,0.43-0.643,0.119-1.099s-0.888-0.717-1.289-0.581l-0.727,0.245l-0.817-1.126
		c0,0,0.361-0.143,0.808-0.318c0.447-0.175,0.565-0.693,0.265-1.156l-0.184-0.283c-0.301-0.463-0.963-0.682-1.48-0.489L50.3,40.427
		c-0.518,0.192-0.773,0.658-0.573,1.04l0.363,0.69l-3.142,1.198L32.396,17.121l1.69-1.603c0.802-0.76,1.29-2.016,1.091-2.806
		l-0.359-1.43l-3.649,3.625l-0.218-0.394l3.594-3.595l-2.74-3.847C31.432,6.55,30.61,6.15,29.969,6.179l-5.396,0.245
		c-0.642,0.029-1.543,0.406-2.016,0.84l-3.649,3.365c-0.472,0.436-0.594,1.239-0.273,1.794l2.324,4.017l2.361-0.102
		c-0.022-0.093-0.036-0.188-0.036-0.286c0-0.722,0.587-1.309,1.307-1.309c0.721,0,1.308,0.587,1.308,1.309
		c0,0.061-0.012,0.118-0.02,0.176l1.336-0.057l0.224,0.402l-1.692,0.071c-0.072,0.14-0.166,0.268-0.283,0.373
		c0.089,0.177,0.144,0.373,0.144,0.584c0,0.384-0.169,0.727-0.434,0.966c0.088,0.177,0.143,0.373,0.143,0.583
		c0,0.226-0.063,0.434-0.166,0.619l0.166,0.048l3.407-0.928l21.838,39.361c0.371,0.67,1.064,1.048,1.779,1.048
		c0.334,0,0.674-0.081,0.986-0.255c0.981-0.545,1.336-1.783,0.791-2.766l-2.248-4.053l2.358-1.087c0,0,0.087,0.162,0.195,0.362
		c0.107,0.201,0.617,0.215,1.138,0.032l1.149-0.402c0.521-0.183,0.943-0.778,0.943-1.331c0,0,0-0.399,0-0.893
		C57.656,48.416,57.244,48.191,56.735,48.406z M28.218,12.897c-0.136,0.04-0.27,0.095-0.4,0.167
		c-0.02,0.011-0.036,0.027-0.056,0.039c-0.339,0.141-0.698,0.268-1.077,0.371c-2.535,0.696-4.883,0.197-5.242-1.113
		c-0.361-1.31,1.403-2.936,3.94-3.633c2.534-0.695,4.884-0.197,5.242,1.113C30.908,10.866,29.888,12.082,28.218,12.897z"/>
	<path d="M18.394,12.73c-0.318-0.557-0.387-0.524-0.153,0.074l1.446,3.699c0.402,1.028,1.243,2.015,1.878,2.203l1.149,0.34
		c0.029-0.34,0.184-0.645,0.423-0.86c-0.089-0.177-0.143-0.373-0.143-0.584c0-0.331,0.13-0.626,0.333-0.855l-2.579,0.108
		L18.394,12.73z"/>
	<circle cx="22.781" cy="25.399" r="0.727"/>
	<circle cx="23.072" cy="23.851" r="0.726"/>
	<circle cx="23.363" cy="22.301" r="0.727"/>
	<circle cx="23.653" cy="20.751" r="0.727"/>
	<circle cx="23.943" cy="19.201" r="0.726"/>
	<circle cx="24.234" cy="17.65" r="0.727"/>
	<circle cx="24.524" cy="16.101" r="0.727"/>
	<path d="M9.901,37.625l0.139-0.703H8.381c0,0,0.309,0.314,0.69,0.703C9.453,38.013,9.824,38.013,9.901,37.625z"/>
</g>
</svg>
