<?xml version="1.0" encoding="iso-8859-1"?>
<!-- Generator: Adobe Illustrator 17.0.0, SVG Export Plug-In . SVG Version: 6.00 Build 0)  -->
<!DOCTYPE svg PUBLIC "-//W3C//DTD SVG 1.1//EN" "http://www.w3.org/Graphics/SVG/1.1/DTD/svg11.dtd">
<svg version="1.1" id="Capa_1" xmlns="http://www.w3.org/2000/svg" xmlns:xlink="http://www.w3.org/1999/xlink" x="0px" y="0px"
	 width="64px" height="64px" viewBox="0 0 64 64" style="enable-background:new 0 0 64 64;" xml:space="preserve">
<g>
	<path d="M61.735,27.436L44.22,12.574l-7.075,6.003v-2.744h-4.5v6.562l-5.886,4.995l5.103,0.007V43.75H3.217v17.5h15.251
		c0.039-4.918,1.879-9.23,6.879-11.333c2.431-1.023,5.024-1.366,7.594-1.877c3.259-0.648,5.072-1.444,6.849-3.696
		c0.146-0.185,0.295-0.388,0.442-0.594c0.047-0.066,0.094-0.136,0.141-0.204V34.75h7.948v9v0.594v0.906h-0.019
		c-0.05,0.569-0.245,1.165-0.631,1.769c-3.481,5.44-7.235,7.748-13.56,8.916c-1.989,0.367-4.594,0.522-6.338,1.631
		c-1.241,0.79-1.472,2.229-1.421,3.684l-4.73,0h40.114v-17.5h-5.103V27.43L61.735,27.436z"/>
	<path d="M18.33,7.536c0.21-0.447,0.333-0.988,0.333-1.572c0,0-0.847-2.778-1.893-2.778h-0.049c-1.045,0-1.893,2.778-1.893,2.778
		c0,0.584,0.123,1.125,0.333,1.572c0.511-0.11,1.041-0.171,1.584-0.171C17.289,7.365,17.818,7.426,18.33,7.536z"/>
	<path d="M5.044,14.863v0.049c0,1.045,2.778,1.893,2.778,1.893c0.584,0,1.125-0.123,1.572-0.333
		c-0.11-0.511-0.171-1.041-0.171-1.584c0-0.544,0.061-1.073,0.171-1.584c-0.447-0.21-0.988-0.333-1.572-0.333
		C7.822,12.97,5.044,13.818,5.044,14.863z"/>
	<path d="M15.161,22.239c-0.21,0.447-0.333,0.988-0.333,1.572c0,0,0.847,2.778,1.893,2.778h0.049c1.045,0,1.893-2.778,1.893-2.778
		c0-0.584-0.123-1.125-0.333-1.572c-0.511,0.11-1.041,0.171-1.584,0.171C16.201,22.41,15.672,22.349,15.161,22.239z"/>
	<path d="M20.528,21.379c0.146,0.474,0.42,0.959,0.816,1.393c0,0,2.498,1.481,3.271,0.776l0.036-0.033
		c0.772-0.705-0.474-3.328-0.474-3.328c-0.396-0.434-0.854-0.751-1.313-0.94C22.245,20.113,21.449,20.84,20.528,21.379z"/>
	<path d="M24.614,6.227c-0.772-0.705-3.271,0.776-3.271,0.776c-0.396,0.433-0.67,0.919-0.816,1.393
		c0.921,0.539,1.717,1.266,2.336,2.132c0.459-0.189,0.917-0.506,1.313-0.94c0,0,1.246-2.623,0.474-3.328L24.614,6.227z"/>
	<path d="M8.876,6.227L8.84,6.26C8.068,6.965,9.314,9.588,9.314,9.588c0.396,0.434,0.854,0.751,1.313,0.94
		c0.619-0.865,1.414-1.593,2.336-2.132c-0.146-0.474-0.42-0.959-0.816-1.393C12.147,7.003,9.649,5.522,8.876,6.227z"/>
	<path d="M10.627,19.247c-0.459,0.189-0.917,0.506-1.313,0.94c0,0-1.246,2.623-0.474,3.328l0.036,0.033
		c0.772,0.705,3.271-0.776,3.271-0.776c0.395-0.433,0.67-0.919,0.816-1.393C12.041,20.84,11.245,20.113,10.627,19.247z"/>
	<path d="M28.447,14.912v-0.049c0-1.045-2.778-1.893-2.778-1.893c-0.584,0-1.125,0.123-1.572,0.333
		c0.11,0.511,0.171,1.041,0.171,1.584c0,0.544-0.061,1.073-0.171,1.584c0.447,0.21,0.988,0.333,1.572,0.333
		C25.669,16.805,28.447,15.957,28.447,14.912z"/>
	<path d="M11.457,10.724c-0.688,0.873-1.161,1.919-1.35,3.064c-0.059,0.359-0.097,0.724-0.097,1.099
		c0,0.375,0.038,0.741,0.097,1.099c0.188,1.144,0.662,2.191,1.35,3.064c0.457,0.58,1.006,1.082,1.626,1.486
		c0.762,0.495,1.63,0.836,2.563,0.99c0.359,0.059,0.724,0.097,1.099,0.097s0.741-0.038,1.099-0.097
		c0.933-0.154,1.801-0.495,2.563-0.99c0.621-0.403,1.169-0.906,1.626-1.486c0.688-0.873,1.161-1.919,1.35-3.064
		c0.059-0.359,0.097-0.724,0.097-1.099c0-0.375-0.038-0.741-0.097-1.099c-0.188-1.144-0.662-2.191-1.35-3.064
		c-0.457-0.58-1.006-1.082-1.626-1.485c-0.762-0.495-1.63-0.836-2.563-0.99c-0.359-0.059-0.724-0.097-1.099-0.097
		s-0.741,0.038-1.099,0.097c-0.933,0.154-1.801,0.495-2.563,0.99C12.462,9.642,11.914,10.145,11.457,10.724z"/>
</g>
</svg>
