<?xml version="1.0" encoding="utf-8"?>
<!-- Generator: Adobe Illustrator 17.0.0, SVG Export Plug-In . SVG Version: 6.00 Build 0)  -->
<!DOCTYPE svg PUBLIC "-//W3C//DTD SVG 1.1//EN" "http://www.w3.org/Graphics/SVG/1.1/DTD/svg11.dtd">
<svg version="1.1" id="Capa_1" xmlns="http://www.w3.org/2000/svg" xmlns:xlink="http://www.w3.org/1999/xlink" x="0px" y="0px"
	 width="64px" height="64px" viewBox="0 0 64 64" enable-background="new 0 0 64 64" xml:space="preserve">
<g>
	<path d="M44.957,60h7.117C53.138,60,54,59.138,54,58.074V30.926C54,29.862,53.138,29,52.074,29H13.926
		C12.862,29,12,29.862,12,30.926v27.149C12,59.138,12.862,60,13.926,60h8.117C22.025,59.859,22,59.72,22,59.574V48.426
		C22,46.537,23.537,45,25.426,45h16.148C43.463,45,45,46.537,45,48.426v11.148C45,59.72,44.975,59.859,44.957,60z"/>
	<path d="M25.426,48C25.191,48,25,48.191,25,48.426v11.148C25,59.809,25.191,60,25.426,60h16.148C41.809,60,42,59.809,42,59.574
		V48.426C42,48.191,41.809,48,41.574,48H25.426z"/>
	<path d="M11.476,26.145l43.141-0.069c1.199-0.002,1.484-0.689,0.638-1.536L34.616,3.902c-0.846-0.846-2.22-0.844-3.069,0.005
		L10.842,24.611C9.993,25.46,10.277,26.147,11.476,26.145z"/>
</g>
</svg>
