<?xml version="1.0" encoding="utf-8"?>
<!-- Generator: Adobe Illustrator 17.0.0, SVG Export Plug-In . SVG Version: 6.00 Build 0)  -->
<!DOCTYPE svg PUBLIC "-//W3C//DTD SVG 1.1//EN" "http://www.w3.org/Graphics/SVG/1.1/DTD/svg11.dtd">
<svg version="1.1" id="Capa_1" xmlns="http://www.w3.org/2000/svg" xmlns:xlink="http://www.w3.org/1999/xlink" x="0px" y="0px"
	 width="64px" height="64px" viewBox="0 0 64 64" enable-background="new 0 0 64 64" xml:space="preserve">
<g>
	<path d="M56.232,27.096c-0.137-0.433-0.369-0.838-0.697-1.178L35.911,5.562c-0.975-0.975-2.28-1.512-3.674-1.512
		c-1.467,0-2.915,0.607-3.979,1.673L8.247,25.887c-0.631,0.635-0.931,1.506-0.857,2.369c-0.169,0.548-0.263,1.129-0.266,1.731
		L6.986,60H21h22h14.13l-0.138-30.014C56.988,28.938,56.711,27.954,56.232,27.096z M32.157,10.312L45.352,24H18.573L32.157,10.312z
		 M27,54V44h10v10H27z M43,54V38H21v16h-7.985l0.117-23h37.865l0.106,23H43z"/>
</g>
</svg>
