<?xml version="1.0" encoding="iso-8859-1"?>
<!-- Generator: Adobe Illustrator 17.0.0, SVG Export Plug-In . SVG Version: 6.00 Build 0)  -->
<!DOCTYPE svg PUBLIC "-//W3C//DTD SVG 1.1//EN" "http://www.w3.org/Graphics/SVG/1.1/DTD/svg11.dtd">
<svg version="1.1" id="Capa_1" xmlns="http://www.w3.org/2000/svg" xmlns:xlink="http://www.w3.org/1999/xlink" x="0px" y="0px"
	 width="64px" height="64px" viewBox="0 0 64 64" style="enable-background:new 0 0 64 64;" xml:space="preserve">
<g>
	<polygon points="30.677,6.041 29.098,8.293 29.098,7.309 25.117,8.421 22.434,7.602 22.434,17.803 12.021,32.66 14.599,32.66 
		32.845,6.041 	"/>
	<polygon points="16.724,33.491 16.724,57.836 20.14,58.538 20.14,33.084 17.349,33.416 	"/>
	<path d="M45.6,43.508c-0.577,0-1.158-0.071-1.727-0.213c-1.256-0.312-2.334-1.164-3.033-2.395c-0.784-1.383-1.015-3.092-0.66-4.781
		l-4.524-1.488v8.333l-3.513,0.938v-9.68c-0.722-0.604-1.171-1.648-1.109-2.815c0.097-1.776,1.34-3.152,2.78-3.075
		c0.795,0.041,1.481,0.521,1.922,1.239l6.615,1.924c0.5-0.732,1.613-2.112,3.317-2.954v-1.385l5.386-0.938L33.723,6.431
		L15.457,32.893l5.327-0.576v26.572l24.883-6.557v-8.826C45.645,43.506,45.622,43.508,45.6,43.508L45.6,43.508z"/>
	<path d="M49.383,28.667c-4.332-0.431-6.636,3.753-6.636,3.753l-9.093-2.641c0,0-0.749,0.17-0.983,1.304
		c-0.22,1.059,0.24,1.98,0.24,1.98l8.198,2.698c-0.976,3.209,0.507,6.331,3.02,6.956c2.77,0.689,6.036-0.391,8.612-4.567
		C55.316,33.976,53.716,29.096,49.383,28.667z M49.388,36.51c-1.051,1.881-2.802,2.903-3.914,2.285
		c-1.11-0.621-1.158-2.649-0.108-4.529c1.051-1.883,2.803-2.904,3.914-2.284C50.391,32.601,50.438,34.629,49.388,36.51z"/>
	<polygon points="28.938,6.942 25.772,6.431 22.717,7.279 25.137,7.997 	"/>
</g>
</svg>
