<?xml version="1.0" encoding="iso-8859-1"?>
<!-- Generator: Adobe Illustrator 17.0.0, SVG Export Plug-In . SVG Version: 6.00 Build 0)  -->
<!DOCTYPE svg PUBLIC "-//W3C//DTD SVG 1.1//EN" "http://www.w3.org/Graphics/SVG/1.1/DTD/svg11.dtd">
<svg version="1.1" id="Capa_1" xmlns="http://www.w3.org/2000/svg" xmlns:xlink="http://www.w3.org/1999/xlink" x="0px" y="0px"
	 width="64px" height="64px" viewBox="0 0 64 64" style="enable-background:new 0 0 64 64;" xml:space="preserve">
<g>
	<path d="M14.701,62.239h36.477c6.627,0,12-5.373,12-12V13.761c0-6.627-5.373-12-12-12H14.701c-6.627,0-12,5.373-12,12v36.477
		C2.701,56.866,8.074,62.239,14.701,62.239z M3.562,28.869c-0.088-0.264-0.204-0.948,0.643-1.593l16.49-12.569
		c0.828-0.631,2.18-0.614,2.991,0.038L28,18.211V7.875h19.529v18.557l13.168,6.402c0.984,0.479,0.999,1.125,0.92,1.467
		c-0.079,0.342-0.373,0.916-1.46,0.916h-0.014l-1.192-0.005c0.003,0.043,0.013,0.083,0.013,0.126v11.963
		c0,1.167-0.95,2.117-2.117,2.117h-2.632h-6.687h-9.179h-4.824h-0.073H28h-2h-8.414h-7.454c-1.167,0-2.117-0.95-2.117-2.117V29.98
		c0-0.075,0.015-0.146,0.022-0.22l-3.002-0.01C3.973,29.748,3.651,29.133,3.562,28.869z"/>
	<path d="M35.571,47.302c0,0.04-0.01,0.077-0.012,0.117h2.792V35.222h-2.78V47.302z"/>
	<circle cx="37.765" cy="17.125" r="2.952"/>
	<path d="M40.31,24.849c0.71-0.713,2.028-0.939,2.938-0.498l2.281,1.109V9.875H30v9.943l8.512,6.839L40.31,24.849z M32.813,17.125
		c0-2.73,2.221-4.952,4.952-4.952s4.952,2.222,4.952,4.952s-2.222,4.952-4.952,4.952S32.813,19.855,32.813,17.125z"/>
	<path d="M54.216,35.222v12.197h2.632c0.064,0,0.117-0.052,0.117-0.117V35.339c0-0.065-0.051-0.117-0.117-0.117H54.216z"/>
	<path d="M30,27.832l6.806,0.023L30,22.385l-2-1.607l-5.566-4.474c-0.084-0.068-0.435-0.077-0.526-0.007L6.876,27.754L28,27.825
		L30,27.832z"/>
	<path d="M42.373,26.15c-0.024-0.012-0.09-0.038-0.206-0.038c-0.193,0-0.367,0.074-0.44,0.147l-1.77,1.78l-1.81,1.82l-2.577,2.591
		v0.666l9.958,0.041l2,0.008l9.354,0.038l-9.354-4.547l-2-0.972L42.373,26.15z"/>
	<polygon points="60.158,34.216 60.158,33.684 60.158,33.243 60.152,33.246 60.154,33.682 	"/>
	<path d="M33.454,29.864H30h-2H10.133c-0.064,0-0.117,0.052-0.117,0.117v17.322c0,0.064,0.052,0.117,0.117,0.117h7.454V40.32H26
		v7.099h2h2h1.421h2.032c0.014,0,0.024-0.01,0.036-0.015c0.045-0.016,0.08-0.051,0.08-0.102v-12.08v-0.117V34.1v-0.878v-0.179
		v-1.418V29.98C33.571,29.916,33.518,29.864,33.454,29.864z M19.018,38.502h-7.036v-7.036h7.036V38.502z M31.575,38.502H31.41H30h-2
		h-3.461v-7.036H28h2h1.575v3.055V38.502z"/>
	<rect x="19.586" y="42.32" width="4.414" height="5.099"/>
	<rect x="13.982" y="33.466" width="3.036" height="3.036"/>
	<polygon points="26.539,33.466 26.539,36.502 28,36.502 29.575,36.502 29.575,33.466 28,33.466 	"/>
	<polygon points="45.529,37.947 40.351,37.947 40.351,40.632 45.529,40.632 47.529,40.632 52.216,40.632 52.216,37.947 
		47.529,37.947 	"/>
	<polygon points="45.529,42.132 40.351,42.132 40.351,44.818 45.529,44.818 47.529,44.818 52.216,44.818 52.216,42.132 
		47.529,42.132 	"/>
	<polygon points="45.529,46.318 40.351,46.318 40.351,47.419 45.529,47.419 47.529,47.419 52.216,47.419 52.216,46.318 
		47.529,46.318 	"/>
	<polygon points="45.529,35.275 40.351,35.275 40.351,36.447 45.529,36.447 47.529,36.447 52.216,36.447 52.216,35.275 
		47.529,35.275 	"/>
</g>
</svg>
