<?xml version="1.0" encoding="iso-8859-1"?>
<!-- Generator: Adobe Illustrator 17.0.0, SVG Export Plug-In . SVG Version: 6.00 Build 0)  -->
<!DOCTYPE svg PUBLIC "-//W3C//DTD SVG 1.1//EN" "http://www.w3.org/Graphics/SVG/1.1/DTD/svg11.dtd">
<svg version="1.1" id="Capa_1" xmlns="http://www.w3.org/2000/svg" xmlns:xlink="http://www.w3.org/1999/xlink" x="0px" y="0px"
	 width="64px" height="64px" viewBox="0 0 64 64" style="enable-background:new 0 0 64 64;" xml:space="preserve">
<g>
	<path d="M33.051,5.745C30.858,3.552,27.4,3.442,25.046,5.36c-0.158,0.128-0.321,0.239-0.468,0.385L0.878,29.446
		c-1.172,1.171-1.171,3.071,0.001,4.242c0.146,0.146,0.305,0.275,0.471,0.385c0.499,0.33,1.075,0.494,1.651,0.494
		s1.002-0.182,1.501-0.512c0.166-0.11,0.228-0.221,0.374-0.367l1.709-1.956v13.7c0,6.039,5.83,11.04,12.147,11.04h21.119
		c6.19,0,10.734-4.898,10.734-11.04v-13.19l1.693,1.447c0.585,0.586,1.477,0.879,2.244,0.879s1.597-0.293,2.183-0.879
		c1.172-1.171,1.203-3.071,0.031-4.242L33.051,5.745z M44.585,45.432c0,2.834-1.851,5.04-4.734,5.04H18.732
		c-3.012,0-6.147-2.302-6.147-5.04v-19.7L28.331,9.987l16.254,16.254V45.432z"/>
	<path d="M17.184,32.721c0,0.224,0.012,0.447,0.034,0.668c0.038,0.394,0.115,0.776,0.216,1.148c0.017,0.063,0.03,0.127,0.049,0.19
		c0.015,0.049,0.032,0.096,0.048,0.144c1.92,6.149,11.294,10.957,11.294,10.957s9.374-4.809,11.294-10.957
		c0.016-0.048,0.033-0.095,0.048-0.144c0.018-0.063,0.032-0.126,0.049-0.19c0.101-0.372,0.178-0.754,0.216-1.148
		c0.022-0.221,0.034-0.444,0.034-0.668c0-3.808-3.087-6.896-6.896-6.896c-1.84,0-3.507,0.725-4.744,1.9
		c-1.237-1.174-2.904-1.9-4.744-1.9C20.272,25.825,17.184,28.912,17.184,32.721z"/>
</g>
</svg>
