<?xml version="1.0" encoding="iso-8859-1"?>
<!-- Generator: Adobe Illustrator 17.0.0, SVG Export Plug-In . SVG Version: 6.00 Build 0)  -->
<!DOCTYPE svg PUBLIC "-//W3C//DTD SVG 1.1//EN" "http://www.w3.org/Graphics/SVG/1.1/DTD/svg11.dtd">
<svg version="1.1" id="Capa_1" xmlns="http://www.w3.org/2000/svg" xmlns:xlink="http://www.w3.org/1999/xlink" x="0px" y="0px"
	 width="64px" height="64px" viewBox="0 0 64 64" style="enable-background:new 0 0 64 64;" xml:space="preserve">
<g>
	<path d="M51.069,1.761H14.592c-6.627,0-12,5.373-12,12v36.477c0,6.627,5.373,12,12,12h36.477c6.627,0,12-5.373,12-12V13.761
		C63.069,7.134,57.696,1.761,51.069,1.761z M56.592,24v33H30.753h-2.82h-6.731h-2.67h-8.94V24H7.141l1.341-13.466
		C8.528,7.973,10.839,6,13.66,6h39.23c2.821,0,5.132,1.973,5.178,4.534L59.408,24H56.592z"/>
	<path d="M13.592,54h3.167v-5.292c0-1.484,1.203-2.688,2.688-2.688s2.688,1.203,2.688,2.688V54h4.315l0.032-8h12.111v8h5.167v-5.292
		c0-1.484,1.203-2.688,2.688-2.688s2.688,1.203,2.688,2.688V54h3.458V24h-39V54z M43.103,32.833h0.656v-2.958
		c0-1.484,1.203-2.688,2.688-2.688s2.688,1.203,2.688,2.688v2.958h0.656v1.125h-6.688V32.833z M43.103,41.833h0.656v-2.958
		c0-1.484,1.203-2.688,2.688-2.688s2.688,1.203,2.688,2.688v2.958h0.656v1.125h-6.688V41.833z M34.103,32.833h0.656v-2.958
		c0-1.484,1.203-2.688,2.688-2.688s2.688,1.203,2.688,2.688v2.958h0.656v1.125h-6.688V32.833z M34.103,41.833h0.656v-2.958
		c0-1.484,1.203-2.688,2.688-2.688s2.688,1.203,2.688,2.688v2.958h0.656v1.125h-6.688V41.833z M25.103,32.833h0.656v-2.958
		c0-1.484,1.203-2.688,2.688-2.688s2.688,1.203,2.688,2.688v2.958h0.656v1.125h-6.688V32.833z M25.103,41.833h0.656v-2.958
		c0-1.484,1.203-2.688,2.688-2.688s2.688,1.203,2.688,2.688v2.958h0.656v1.125h-6.688V41.833z M16.103,32.833h0.656v-2.958
		c0-1.484,1.203-2.688,2.688-2.688s2.688,1.203,2.688,2.688v2.958h0.656v1.125h-6.688V32.833z M16.103,41.833h0.656v-2.958
		c0-1.484,1.203-2.688,2.688-2.688s2.688,1.203,2.688,2.688v2.958h0.656v1.125h-6.688V41.833z"/>
	<path d="M52.89,9H13.66c-0.833,0-1.416,0.682-1.418,1.132L11.122,20h44.306l-1.12-9.89C54.305,9.66,53.722,9,52.89,9z"/>
</g>
</svg>
