<?xml version="1.0" encoding="utf-8"?>
<!-- Generator: Adobe Illustrator 16.0.4, SVG Export Plug-In . SVG Version: 6.00 Build 0)  -->
<!DOCTYPE svg PUBLIC "-//W3C//DTD SVG 1.1//EN" "http://www.w3.org/Graphics/SVG/1.1/DTD/svg11.dtd">
<svg version="1.1" id="Capa_1" xmlns="http://www.w3.org/2000/svg" xmlns:xlink="http://www.w3.org/1999/xlink" x="0px" y="0px"
	 width="64px" height="64px" viewBox="0 0 64 64" enable-background="new 0 0 64 64" xml:space="preserve">
<path d="M46.393,51H3l1.033-2h43.393L46.393,51z M59.449,11.735c-3.062,4.672-9.258,5.676-12.137,10.509
	c-0.688,0.154-1.059,0.731-1.114,1.345c-1.12,0.007-2.423,0.099-3.938,0.099C29.136,23.687,5.066,40,5.066,47h42.36
	c0-6,5.182-3.743,5.206-5.359c0.218-14.55,1.072-17.423-3.454-17.92c-0.005-0.142-0.031-0.297-0.07-0.433
	c2.814-4.69,9.062-5.826,12.125-10.501C61.966,11.668,60.176,10.625,59.449,11.735z M36.482,39.509
	c0.77,0.629,1.242,1.349,1.242,1.999c0,1.599-2.444,1.599-5.033,1.599H30.52c-1.255,0-2.455-0.013-3.323-0.168
	c-1.077-0.192-1.632-0.645-1.688-1.327c-2.499-0.104-4.247-0.788-4.63-2.027c-0.756-2.439,4.048-6.096,10.73-8.167
	c6.683-2.071,12.712-1.772,13.468,0.667C45.751,34.255,42.018,37.386,36.482,39.509z M25.988,41.508
	c0,1.178,2.515,1.098,5.618,1.098s5.619,0.08,5.619-1.098c0-1.177-2.516-3.164-5.619-3.164S25.988,40.331,25.988,41.508z"/>
</svg>
