<?xml version="1.0" encoding="utf-8"?>
<!-- Generator: Adobe Illustrator 16.0.4, SVG Export Plug-In . SVG Version: 6.00 Build 0)  -->
<!DOCTYPE svg PUBLIC "-//W3C//DTD SVG 1.1//EN" "http://www.w3.org/Graphics/SVG/1.1/DTD/svg11.dtd">
<svg version="1.1" id="Capa_1" xmlns="http://www.w3.org/2000/svg" xmlns:xlink="http://www.w3.org/1999/xlink" x="0px" y="0px"
	 width="64px" height="64px" viewBox="0 0 64 64" enable-background="new 0 0 64 64" xml:space="preserve">
<g>
	<path d="M49.806,10.051l-3.834,0.791c-0.004,0.035,0,0.072-0.006,0.106L45.45,15.57c1.025-0.531,2.096-0.448,2.713,0.253
		c0.595,0.675,0.791,1.849,0.583,3.489c-0.554,4.369-0.745,7.376-0.747,7.406c-0.114,3.419-0.65,4.951-1.734,4.951
		c-0.325,0-0.621-0.163-0.87-0.377l-0.369,2.622l4.426-0.612l4.257-18.518L49.806,10.051z"/>
	<rect x="21" y="35" width="20" height="4"/>
	<path d="M41.782,40H20.509c-0.285,0-0.602,0.172-0.667,0.555l-2.528,16.656c-0.042,0.25,0.028,0.544,0.167,0.708
		C17.502,57.943,17.554,58,17.6,58l0.212,0.047L24.111,61h14.356l6.107-3h0.116c0.021,0,0.088,0,0.163-0.09
		c0.11-0.131,0.159-0.349,0.123-0.557l-2.53-16.934C42.4,40.145,42.176,40,41.782,40z"/>
	<path d="M30.823,11.699c-2.806,0-11.444-0.132-12.819-1.699H17.6c-0.021,0-0.088,0-0.163,0.089
		c-0.002,0.003-0.002,0.008-0.005,0.011l-1.13,0.322l-4.177,1.192c0,0,2.031,4.062,5.032,6.72c0.355,0.314,0.721,0.61,1.102,0.876
		l1.588,14.39c0.044,0.256,0.269,0.4,0.663,0.4h21.274c0.285,0,0.602-0.172,0.667-0.556l2.525-22.636
		c0.024-0.147,0.009-0.296-0.027-0.433C41.811,11.681,31.344,11.699,30.823,11.699z"/>
	<path d="M44.642,9.508c-1.023-0.618-4.983-1.681-9.954-2L33.07,9h-2.938l-1.757-1.455c-4.789,0.369-8.531,1.409-9.425,1.997
		c0.992,0.521,5.291,1.157,11.874,1.157C37.281,10.699,43.24,10.079,44.642,9.508z"/>
	<polygon points="32.68,8 34,6.781 34,3.465 31.633,2.534 29,3.477 29,6.765 30.492,8 	"/>
</g>
</svg>
