<?xml version="1.0" encoding="utf-8"?>
<!-- Generator: Adobe Illustrator 16.0.4, SVG Export Plug-In . SVG Version: 6.00 Build 0)  -->
<!DOCTYPE svg PUBLIC "-//W3C//DTD SVG 1.1//EN" "http://www.w3.org/Graphics/SVG/1.1/DTD/svg11.dtd">
<svg version="1.1" id="Capa_1" xmlns="http://www.w3.org/2000/svg" xmlns:xlink="http://www.w3.org/1999/xlink" x="0px" y="0px"
	 width="64px" height="64px" viewBox="0 0 64 64" enable-background="new 0 0 64 64" xml:space="preserve">
<g>
	<path d="M56.177,19.366l-2.685-3.037c-0.421-0.476-2.653-0.999-4.265-0.999c-0.223,0-0.413,0.011-0.555,0.039l-0.952,0.183
		l0.044-1.027l0.195-4.587c-3.285,2.034-16.088,2.062-16.236,2.062c-4.661,0-12.624-0.412-15.674-1.816l1.886,44.313
		c-0.111,0.287-0.186,0.579-0.186,0.879c0,3.145,6.352,6,14.187,6c7.834,0,14.187-2.855,14.187-6c0-0.195-0.025-0.389-0.073-0.579
		l0.46-10.801l0.043-1.006l3.785-0.361c0.875-0.113,1.809-0.947,2.023-1.819l4.549-18.454
		C57.137,21.439,56.801,20.071,56.177,19.366z M27,55.861l-4.381-1.087l-0.611-39.73L27,15.46V55.861z M50.673,27.299l-0.087,0.654
		c-0.498,4.017-0.678,6.661-0.68,6.688c-0.164,4.515-2.065,5.712-3.048,5.712l-0.106-0.005c-0.031-0.003-0.055-0.007-0.086-0.01
		l0.043-1.002l0.725-17.017l0.042-1.002c1.649,0.191,3.258,1.002,3.431,2.541C51.014,24.817,50.825,26.193,50.673,27.299z"/>
	<path d="M47.729,8.877C47.725,6.96,47.715,6.818,35,6.808V8h-6V6.808C15.81,6.815,15.807,6.935,15.807,8.903
		c0.3,0.737,5.879,2.096,15.917,2.096C40.965,10.999,47.375,9.742,47.729,8.877z"/>
	<rect x="30" y="4" width="4" height="3"/>
</g>
</svg>
