<?xml version="1.0" encoding="utf-8"?>
<!-- Generator: Adobe Illustrator 16.0.4, SVG Export Plug-In . SVG Version: 6.00 Build 0)  -->
<!DOCTYPE svg PUBLIC "-//W3C//DTD SVG 1.1//EN" "http://www.w3.org/Graphics/SVG/1.1/DTD/svg11.dtd">
<svg version="1.1" id="Capa_1" xmlns="http://www.w3.org/2000/svg" xmlns:xlink="http://www.w3.org/1999/xlink" x="0px" y="0px"
	 width="64px" height="64px" viewBox="0 0 64 64" enable-background="new 0 0 64 64" xml:space="preserve">
<g>
	<path d="M59.157,14.358L50.17,5.371c-0.781-0.781-2.275-1.17-3.338-0.869L34.188,8.087c-1.062,0.302-2.168,1.407-2.47,2.47
		l-3.585,12.644c-0.301,1.063,0.088,2.557,0.869,3.338l0.96,0.96L7.315,50.347l7.084,7.021l-0.029,0.03l4.76-0.596l-0.3-3.868
		l0.835-0.843l-0.295,0.307l4.76-0.596l-0.304-3.909l0.372-0.375l4.939-0.616l-0.313-4.05l8.209-8.282l0.955,0.955
		c0.781,0.781,2.275,1.17,3.339,0.869l12.644-3.584c1.063-0.303,2.17-1.408,2.471-2.471l3.584-12.644
		C60.327,16.634,59.938,15.139,59.157,14.358z M45.637,24.449c-3.069,0-5.558-2.489-5.558-5.558c0-3.07,2.488-5.558,5.558-5.558
		c3.07,0,5.559,2.488,5.559,5.558C51.195,21.96,48.707,24.449,45.637,24.449z"/>
</g>
</svg>
