<?xml version="1.0" encoding="iso-8859-1"?>
<!-- Generator: Adobe Illustrator 17.0.0, SVG Export Plug-In . SVG Version: 6.00 Build 0)  -->
<!DOCTYPE svg PUBLIC "-//W3C//DTD SVG 1.1//EN" "http://www.w3.org/Graphics/SVG/1.1/DTD/svg11.dtd">
<svg version="1.1" id="Capa_1" xmlns="http://www.w3.org/2000/svg" xmlns:xlink="http://www.w3.org/1999/xlink" x="0px" y="0px"
	 width="64px" height="64px" viewBox="0 0 64 64" style="enable-background:new 0 0 64 64;" xml:space="preserve">
<g>
	<path d="M36.731,7.739c-2.193-2.192-5.655-2.303-8.009-0.385c-0.158,0.128-0.323,0.239-0.47,0.385l-23.7,23.701
		c-1.172,1.171-1.171,3.071,0,4.242c0.146,0.146,0.305,0.275,0.471,0.385c0.499,0.33,1.075,0.494,1.651,0.494
		s1.152-0.165,1.651-0.494c0.166-0.11,0.199-0.238,0.345-0.385l1.831-1.956v13.7C10.5,53.465,16.088,58,22.404,58h21.119
		c6.19,0,10.976-4.431,10.976-10.573v-13.19l1.572,1.447c0.585,0.586,1.416,0.879,2.184,0.879s1.567-0.293,2.152-0.879
		c1.172-1.171,1.188-3.071,0.016-4.242L36.731,7.739z M48.5,47.427c0,2.834-2.094,4.573-4.976,4.573H22.404
		c-3.012,0-5.904-1.835-5.904-4.573v-19.7l15.746-15.745L48.5,28.236V47.427z"/>
	<path d="M28.407,24.378v10.756H26.94c-1.901,0-3.442,1.541-3.442,3.442v7.171c0,1.901,1.541,3.442,3.442,3.442h10.756
		c1.901,0,3.442-1.541,3.442-3.442v-7.171c0-1.901-1.541-3.442-3.442-3.442H36.23v-4.589h2.184c1.505,0,2.725-1.22,2.725-2.725
		s-1.22-2.725-2.725-2.725H36.23v-0.717c0-1.901-1.541-3.442-3.442-3.442h-0.939C29.948,20.936,28.407,22.477,28.407,24.378z
		 M37.538,40.039v4.244c0,1.125-0.912,2.037-2.037,2.037h-6.366c-1.125,0-2.037-0.912-2.037-2.037v-4.244
		c0-0.867,0.545-1.603,1.309-1.897c0.227-0.087,0.471-0.14,0.728-0.14h6.366c0.258,0,0.502,0.053,0.728,0.14
		C36.994,38.436,37.538,39.172,37.538,40.039z"/>
</g>
</svg>
