<?xml version="1.0" encoding="iso-8859-1"?>
<!-- Generator: Adobe Illustrator 17.0.0, SVG Export Plug-In . SVG Version: 6.00 Build 0)  -->
<!DOCTYPE svg PUBLIC "-//W3C//DTD SVG 1.1//EN" "http://www.w3.org/Graphics/SVG/1.1/DTD/svg11.dtd">
<svg version="1.1" id="Capa_1" xmlns="http://www.w3.org/2000/svg" xmlns:xlink="http://www.w3.org/1999/xlink" x="0px" y="0px"
	 width="64px" height="64px" viewBox="0 0 64 64" style="enable-background:new 0 0 64 64;" xml:space="preserve">
<g>
	<path d="M22.496,52h21.119c2.882,0,4.976-1.739,4.976-4.573v-19.19L32.337,11.982L16.592,27.727v19.7
		C16.592,50.165,19.484,52,22.496,52z M23.59,38.576c0-1.901,1.541-3.442,3.442-3.442h1.467V24.378c0-1.901,1.541-3.442,3.442-3.442
		h0.939c1.901,0,3.442,1.541,3.442,3.442v0.717h2.184c1.505,0,2.725,1.22,2.725,2.725s-1.22,2.725-2.725,2.725h-2.184v4.589h1.467
		c1.901,0,3.442,1.541,3.442,3.442v7.171c0,1.901-1.541,3.442-3.442,3.442H27.032c-1.901,0-3.442-1.541-3.442-3.442V38.576z"/>
	<path d="M14.171,62.239h36.477c6.627,0,12-5.373,12-12V13.761c0-6.627-5.373-12-12-12H14.171c-6.627,0-12,5.373-12,12v36.477
		C2.171,56.866,7.544,62.239,14.171,62.239z M4.644,35.683c-1.172-1.171-1.172-3.071,0-4.242l23.7-23.701
		c0.147-0.147,0.312-0.257,0.47-0.385c2.354-1.918,5.817-1.807,8.009,0.385l23.693,23.702c1.172,1.171,1.156,3.071-0.016,4.242
		c-0.585,0.586-1.385,0.879-2.152,0.879s-1.598-0.293-2.184-0.879l-1.572-1.447v13.19C54.592,53.569,49.806,58,43.615,58H22.496
		c-6.317,0-11.904-4.535-11.904-10.573v-13.7l-1.831,1.956c-0.146,0.146-0.179,0.275-0.345,0.385
		c-0.499,0.33-1.075,0.494-1.651,0.494s-1.152-0.165-1.651-0.494C4.948,35.958,4.79,35.83,4.644,35.683z"/>
	<path d="M29.227,46.32h6.366c1.125,0,2.037-0.912,2.037-2.037v-4.244c0-0.867-0.545-1.603-1.309-1.897
		c-0.227-0.087-0.471-0.14-0.728-0.14h-6.366c-0.258,0-0.502,0.053-0.728,0.14c-0.764,0.294-1.309,1.03-1.309,1.897v4.244
		C27.19,45.408,28.102,46.32,29.227,46.32z"/>
</g>
</svg>
