<?xml version="1.0" encoding="utf-8"?>
<!-- Generator: Adobe Illustrator 16.0.4, SVG Export Plug-In . SVG Version: 6.00 Build 0)  -->
<!DOCTYPE svg PUBLIC "-//W3C//DTD SVG 1.1//EN" "http://www.w3.org/Graphics/SVG/1.1/DTD/svg11.dtd">
<svg version="1.1" id="Capa_1" xmlns="http://www.w3.org/2000/svg" xmlns:xlink="http://www.w3.org/1999/xlink" x="0px" y="0px"
	 width="64px" height="64px" viewBox="0 0 64 64" enable-background="new 0 0 64 64" xml:space="preserve">
<g>
	<path d="M4.939,54.561c0.741,2.972,5.294,5.262,10.816,5.262c5.141,0,9.44-1.985,10.609-4.656
		c-2.009,2.036-5.89,3.389-10.448,3.389C10.919,58.555,6.733,56.93,4.939,54.561z"/>
	<path d="M17.909,47.722C17.962,47.918,18,48.12,18,48.333v3.334C18,52.955,16.955,54,15.667,54h-0.333
		C14.045,54,13,52.955,13,51.667v-3.333c0-0.187,0.027-0.365,0.069-0.539c-4.025,0.57-7.165,2.381-8.016,4.666
		c0.528,2.811,5.286,5.094,10.864,5.094c5.198,0,9.686-1.983,10.7-4.527C26.087,50.376,22.524,48.236,17.909,47.722z"/>
	<path d="M43.523,8.568l-4.748,2.876c-0.064-0.111-0.118-0.227-0.213-0.321l-5.734-5.751l-19.166,8.677l0.144,31.391l0.004,1.006
		l0,0.133l0.022,4.762c0.004,0.826,0.675,1.493,1.5,1.493c0.002,0,0.004,0,0.007,0c0.829-0.004,1.497-0.679,1.493-1.507
		l-0.027-5.968l-0.134-29.379l15.5-7.017l4.028,4.041l-5.096,3.086l3.83,18.111l0.438-0.035
		c14.907-1.172,23.298-13.931,23.381-14.06l0.258-0.399L43.523,8.568z M48.164,27.375c-0.119,0.105-2.973,2.59-7.693,3.939
		l-0.458,0.13l-5.286-15.507l3.055-1.745l10.747,12.86L48.164,27.375z"/>
</g>
</svg>
