<?xml version="1.0" encoding="utf-8"?>
<!-- Generator: Adobe Illustrator 16.0.4, SVG Export Plug-In . SVG Version: 6.00 Build 0)  -->
<!DOCTYPE svg PUBLIC "-//W3C//DTD SVG 1.1//EN" "http://www.w3.org/Graphics/SVG/1.1/DTD/svg11.dtd">
<svg version="1.1" id="Capa_1" xmlns="http://www.w3.org/2000/svg" xmlns:xlink="http://www.w3.org/1999/xlink" x="0px" y="0px"
	 width="64px" height="64px" viewBox="0 0 64 64" enable-background="new 0 0 64 64" xml:space="preserve">
<g>
	<path d="M42,6h-0.024C41.721,3.218,38.314,1.083,34,1.083S26.28,3.218,26.025,6H26v39h0.037C26.015,45.164,26,45.331,26,45.5
		c0,1.936,1.524,3.59,3.839,4.5H27v9h14v-9h-2.839C40.477,49.09,42,47.436,42,45.5c0-0.169-0.015-0.336-0.037-0.5H42V6z M34,3.083
		c3.196,0,6,1.519,6,3.25s-2.804,3.25-6,3.25s-6-1.519-6-3.25S30.804,3.083,34,3.083z M38.667,53.125
		c0,1.999-2.094,3.625-4.667,3.625s-4.667-1.626-4.667-3.625c0-1.105,0.653-2.084,1.66-2.749c0.002,0,0.005,0.001,0.007,0.001v1.247
		c-0.417,0.426-0.667,0.942-0.667,1.501c0,1.447,1.645,2.625,3.667,2.625c2.022,0,3.667-1.178,3.667-2.625
		c0-0.559-0.249-1.075-0.667-1.501v-1.247c0.002,0,0.005-0.001,0.007-0.001C38.014,51.041,38.667,52.02,38.667,53.125z M40,46
		h-0.086c-0.474,1.513-3.03,2.75-5.914,2.75c-2.883,0-5.44-1.237-5.914-2.75H28v-1v-2v-1v-8v-1.133
		c0.69,1.105,1.526,2.115,2.542,2.965c0.983,0.82,2.406-0.586,1.415-1.414c-1.825-1.525-3.004-3.568-3.743-5.809
		c-0.05-0.152-0.124-0.276-0.214-0.375V15.559c2.181,3.484,1.446,8.465,3.262,12.196c0.564,1.159,2.289,0.145,1.726-1.01
		c-2.218-4.555-0.776-10.164-4.656-13.952c-0.105-0.103-0.218-0.168-0.332-0.214V9.832c1.455,1.078,3.583,1.751,6,1.751
		c2.417,0,4.545-0.673,6-1.751v5.177c-0.002,0.001-0.003,0.002-0.005,0.003c-9.243,6.451,1.241,20.941-9.375,25.75
		c-1.173,0.532-0.156,2.256,1.009,1.728C42.744,37.452,33.072,24.106,40,17.567V34v8v1v2V46z"/>
	<rect x="27" y="60" width="14" height="2"/>
</g>
</svg>
