<?xml version="1.0" encoding="iso-8859-1"?>
<!-- Generator: Adobe Illustrator 17.0.0, SVG Export Plug-In . SVG Version: 6.00 Build 0)  -->
<!DOCTYPE svg PUBLIC "-//W3C//DTD SVG 1.1//EN" "http://www.w3.org/Graphics/SVG/1.1/DTD/svg11.dtd">
<svg version="1.1" id="Capa_1" xmlns="http://www.w3.org/2000/svg" xmlns:xlink="http://www.w3.org/1999/xlink" x="0px" y="0px"
	 width="64px" height="64px" viewBox="0 0 64 64" style="enable-background:new 0 0 64 64;" xml:space="preserve">
<g>
	<path d="M35.813,38.158c3.191,0,5.787-2.596,5.787-5.788c0-3.191-2.596-5.787-5.787-5.787c-3.191,0-5.788,2.596-5.788,5.787
		C30.025,35.562,32.622,38.158,35.813,38.158z"/>
	<path d="M22.496,52h21.119c2.882,0,4.976-2.106,4.976-4.94v-19.19L32.337,11.615L16.592,27.36v19.7
		C16.592,49.798,19.484,52,22.496,52z M20.37,44.438l7.528-7.665c0.066-0.067,0.142-0.119,0.213-0.177
		c-0.691-1.255-1.086-2.694-1.086-4.225c0-4.845,3.942-8.787,8.788-8.787c4.845,0,8.787,3.942,8.787,8.787
		c0,4.846-3.942,8.788-8.787,8.788c-1.519,0-2.949-0.388-4.197-1.069c-0.051,0.062-0.093,0.129-0.15,0.188l-7.528,7.665
		c-0.49,0.498-1.137,0.748-1.784,0.748c-0.632,0-1.265-0.238-1.752-0.716C19.417,47.005,19.403,45.423,20.37,44.438z"/>
	<path d="M14.171,62.477h36.477c6.627,0,12-5.373,12-12V14c0-6.627-5.373-12-12-12H14.171c-6.627,0-12,5.373-12,12v36.477
		C2.171,57.105,7.544,62.477,14.171,62.477z M4.644,35.316c-1.172-1.171-1.172-3.071,0-4.242l23.7-23.701
		c0.147-0.147,0.312-0.257,0.47-0.385c2.354-1.918,5.817-1.807,8.009,0.385l23.693,23.702c1.172,1.171,1.156,3.071-0.016,4.242
		c-0.585,0.586-1.385,0.879-2.152,0.879s-1.598-0.293-2.184-0.879l-1.572-1.447v13.19c0,6.143-4.786,10.94-10.976,10.94H22.496
		c-6.317,0-11.904-4.902-11.904-10.94v-13.7l-1.831,1.956c-0.146,0.146-0.179,0.275-0.345,0.385
		c-0.499,0.33-1.075,0.494-1.651,0.494s-1.152-0.165-1.651-0.494C4.948,35.591,4.79,35.463,4.644,35.316z"/>
</g>
</svg>
