<?xml version="1.0" encoding="utf-8"?>
<!-- Generator: Adobe Illustrator 16.0.4, SVG Export Plug-In . SVG Version: 6.00 Build 0)  -->
<!DOCTYPE svg PUBLIC "-//W3C//DTD SVG 1.1//EN" "http://www.w3.org/Graphics/SVG/1.1/DTD/svg11.dtd">
<svg version="1.1" id="Capa_1" xmlns="http://www.w3.org/2000/svg" xmlns:xlink="http://www.w3.org/1999/xlink" x="0px" y="0px"
	 width="64px" height="64px" viewBox="0 0 64 64" enable-background="new 0 0 64 64" xml:space="preserve">
<g>
	<path d="M17,29.288v6.124l13.816-1.409L35.061,34L48,35.396v-6.108c0-2.968,2.652-5.475,5.792-5.475
		c0.07,0,0.139,0.008,0.208,0.011v-2.156C54,14.12,47.881,8,40.331,8H25.668C18.12,8,12,14.12,12,21.668v2.16
		C14.858,23.907,17,26.221,17,29.288z M37.771,16.042c0.609,0,1.104,0.494,1.104,1.104s-0.494,1.104-1.104,1.104
		c-0.61,0-1.104-0.494-1.104-1.104S37.161,16.042,37.771,16.042z M37.771,26.042c0.609,0,1.104,0.494,1.104,1.104
		s-0.494,1.104-1.104,1.104c-0.61,0-1.104-0.494-1.104-1.104S37.161,26.042,37.771,26.042z M27.771,16.042
		c0.61,0,1.104,0.494,1.104,1.104s-0.494,1.104-1.104,1.104s-1.104-0.494-1.104-1.104S27.161,16.042,27.771,16.042z M27.771,26.042
		c0.61,0,1.104,0.494,1.104,1.104s-0.494,1.104-1.104,1.104s-1.104-0.494-1.104-1.104S27.161,26.042,27.771,26.042z"/>
	<path d="M13.608,41h37.785c0.969,0,1.866,0.304,2.608,0.815V33.74l0.433-0.059c3.11-0.421,3.764-2.621,3.764-4.394
		c-0.002-2.509-1.937-4.475-4.405-4.475c-2.553,0-4.792,2.091-4.792,4.475v7.222l-13.993-1.513L30.867,35L16,36.52v-7.231
		c0-2.551-1.783-4.475-4.147-4.475c-2.409,0-4.226,1.924-4.226,4.475c0,2.454,1.437,4.055,3.941,4.394l0.433,0.059v7.564
		C12.503,41.117,13.041,41,13.608,41z"/>
	<path d="M14.886,51.189l2.362,4.543c0.162,0.312,0.344,0.72,0.489,0.72c0.071,0,0.141-0.052,0.195-0.156L20.663,51h-5.875
		C14.822,51.064,14.855,51.13,14.886,51.189z"/>
	<path d="M46.224,51c0.034,0.064,0.067,0.13,0.099,0.189l2.361,4.543c0.162,0.312,0.344,0.72,0.489,0.72
		c0.071,0,0.142-0.052,0.195-0.156l2.77-5.371C51.894,50.965,51.647,51,51.393,51H46.224z"/>
	<path d="M51.393,42H13.608C11.619,42,10,43.618,10,45.607v0.785C10,48.382,11.619,50,13.608,50h12.06h14.664h11.061
		C53.382,50,55,48.382,55,46.393v-0.785C55,43.618,53.382,42,51.393,42z"/>
</g>
</svg>
