<?xml version="1.0" encoding="utf-8"?>
<!-- Generator: Adobe Illustrator 16.0.4, SVG Export Plug-In . SVG Version: 6.00 Build 0)  -->
<!DOCTYPE svg PUBLIC "-//W3C//DTD SVG 1.1//EN" "http://www.w3.org/Graphics/SVG/1.1/DTD/svg11.dtd">
<svg version="1.1" id="Capa_1" xmlns="http://www.w3.org/2000/svg" xmlns:xlink="http://www.w3.org/1999/xlink" x="0px" y="0px"
	 width="64px" height="64px" viewBox="0 0 64 64" enable-background="new 0 0 64 64" xml:space="preserve">
<g>
	<path d="M46.422,50.825l0.217-2.539c2.492-0.238,3.389-1.844,3.389-3.812c0-1.788-0.74-3.277-2.745-3.715l0.174-2.041
		c-1.526,0.781-4.51,1.024-6.507,1.024c-2.08,0-5.235-0.261-6.696-1.122l1.036,12.149L35.309,51h0.07
		c-0.042,0.064-0.07,0.13-0.07,0.197c0,0.719,2.484,1.303,5.549,1.303c3.065,0,5.55-0.584,5.55-1.303
		c0-0.067-0.028-0.133-0.07-0.197h0.07L46.422,50.825z M47.146,42.343c1.781,0.284,1.623,1.059,1.609,2.134
		c-0.014,1.152,0.188,1.946-1.977,2.171L47.146,42.343z"/>
	<path d="M53.898,15C52.001,10.872,47.84,8,43,8H20C13.373,8,8,13.373,8,20v5h5.25c3.875,0,2.812,4,2.812,4
		c-1.777,14.215-4.355,20.351-6.329,23H7.829C6.267,52,5,53.122,5,54.096v0.141C5,55.21,6.267,56,7.829,56h45.342
		C54.732,56,56,55.21,56,54.236v-0.141C56,53.122,54.732,52,53.17,52h-5.344c0,0.005,0.003,0.011,0.003,0.016
		c0,1.1-3.155,1.99-7.046,1.99c-3.892,0-7.047-0.891-7.047-1.99c0-0.005,0.003-0.011,0.003-0.016h-4.626
		c-9.981-6.46-3.809-26.409-3.624-27H30h25v-5h2.947c-0.278-0.656-0.447-1.419-0.447-2.253c0-1.056,0.266-2,0.695-2.747H53.898z
		 M27.448,21.75c-1.074,0-1.948-0.874-1.948-1.948s0.874-1.948,1.948-1.948s1.948,0.874,1.948,1.948S28.522,21.75,27.448,21.75z
		 M22,21v-2h2.625c-0.073,0.257-0.125,0.522-0.125,0.802c0,0.427,0.096,0.831,0.26,1.198H22z M46,21H30.136
		c0.165-0.367,0.26-0.771,0.26-1.198c0-0.28-0.052-0.545-0.125-0.802H46V21z"/>
	<path d="M59.5,15h-0.084c-0.549,0.617-0.916,1.627-0.916,2.747c0,0.86,0.221,1.65,0.568,2.253H59.5c1.381,0,2.5-1.119,2.5-2.5
		S60.881,15,59.5,15z"/>
	<path d="M51.526,26H30.54c0.544,2.102,3.53,3.817,7.491,4.404C38.019,30.509,38,30.612,38,30.72v1.36c0,1.208,0.742,2.22,2,2.574
		v0.688v1.005c-3.387,0.115-5.4,0.812-5.542,1.204c0.154,0.394,2.521,1.192,6.491,1.192c3.97,0,6.336-0.799,6.49-1.228
		C47.3,37.158,45.326,36.475,42,36.35v-1.005v-0.69c1.258-0.354,2-1.366,2-2.574v-1.36c0-0.105-0.019-0.206-0.029-0.308
		C47.963,29.835,50.979,28.113,51.526,26z"/>
</g>
</svg>
