<?xml version="1.0" encoding="iso-8859-1"?>
<!-- Generator: Adobe Illustrator 17.0.0, SVG Export Plug-In . SVG Version: 6.00 Build 0)  -->
<!DOCTYPE svg PUBLIC "-//W3C//DTD SVG 1.1//EN" "http://www.w3.org/Graphics/SVG/1.1/DTD/svg11.dtd">
<svg version="1.1" id="Capa_1" xmlns="http://www.w3.org/2000/svg" xmlns:xlink="http://www.w3.org/1999/xlink" x="0px" y="0px"
	 width="64px" height="64px" viewBox="0 0 64 64" style="enable-background:new 0 0 64 64;" xml:space="preserve">
<g>
	<path d="M10,59.5h8.94h2.67h6.731h2.82H57v-33h2.817l-1.341-13.466C58.43,10.473,56.119,8.5,53.298,8.5h-39.23
		c-2.821,0-5.132,1.973-5.178,4.534L7.549,26.5H10V59.5z M53,56.5h-3.458v-5.292c0-1.484-1.203-2.688-2.688-2.688
		s-2.688,1.203-2.688,2.688V56.5H39v-8H26.889l-0.032,8h-4.315v-5.292c0-1.484-1.203-2.688-2.688-2.688s-2.688,1.203-2.688,2.688
		V56.5H14v-30h39V56.5z M12.65,12.632c0.003-0.45,0.586-1.132,1.418-1.132h39.23c0.833,0,1.416,0.66,1.418,1.11l1.12,9.89H11.53
		L12.65,12.632z"/>
	<path d="M23.199,35.333h-0.656v-2.958c0-1.484-1.203-2.688-2.688-2.688s-2.688,1.203-2.688,2.688v2.958h-0.656v1.125h6.688V35.333z
		"/>
	<path d="M32.199,35.333h-0.656v-2.958c0-1.484-1.203-2.688-2.688-2.688s-2.688,1.203-2.688,2.688v2.958h-0.656v1.125h6.688V35.333z
		"/>
	<path d="M41.199,35.333h-0.656v-2.958c0-1.484-1.203-2.688-2.688-2.688s-2.688,1.203-2.688,2.688v2.958h-0.656v1.125h6.688V35.333z
		"/>
	<path d="M50.199,35.333h-0.656v-2.958c0-1.484-1.203-2.688-2.688-2.688s-2.688,1.203-2.688,2.688v2.958h-0.656v1.125h6.688V35.333z
		"/>
	<path d="M23.199,44.333h-0.656v-2.958c0-1.484-1.203-2.688-2.688-2.688s-2.688,1.203-2.688,2.688v2.958h-0.656v1.125h6.688V44.333z
		"/>
	<path d="M32.199,44.333h-0.656v-2.958c0-1.484-1.203-2.688-2.688-2.688s-2.688,1.203-2.688,2.688v2.958h-0.656v1.125h6.688V44.333z
		"/>
	<path d="M41.199,44.333h-0.656v-2.958c0-1.484-1.203-2.688-2.688-2.688s-2.688,1.203-2.688,2.688v2.958h-0.656v1.125h6.688V44.333z
		"/>
	<path d="M50.199,44.333h-0.656v-2.958c0-1.484-1.203-2.688-2.688-2.688s-2.688,1.203-2.688,2.688v2.958h-0.656v1.125h6.688V44.333z
		"/>
</g>
</svg>
