<?xml version="1.0" encoding="utf-8"?>
<!-- Generator: Adobe Illustrator 16.0.4, SVG Export Plug-In . SVG Version: 6.00 Build 0)  -->
<!DOCTYPE svg PUBLIC "-//W3C//DTD SVG 1.1//EN" "http://www.w3.org/Graphics/SVG/1.1/DTD/svg11.dtd">
<svg version="1.1" id="Capa_1" xmlns="http://www.w3.org/2000/svg" xmlns:xlink="http://www.w3.org/1999/xlink" x="0px" y="0px"
	 width="64px" height="64px" viewBox="0 0 64 64" enable-background="new 0 0 64 64" xml:space="preserve">
<g>
	<path d="M53.035,22.437c0.394-0.389,1.025-0.385,1.414,0.008l3.438,3.478c1.319-1.969,1.095-4.655-0.667-6.363l-3.725-3.613
		l1.063-1.057c1.958-1.947,1.968-5.113,0.021-7.071c-1.948-1.959-5.113-1.968-7.071-0.021L21.246,33.906
		c-0.089,0.088-0.152,0.19-0.233,0.284c-0.118-0.131-0.222-0.272-0.347-0.397c-1.893-1.893-4.411-2.936-7.088-2.936
		c-2.677,0-5.195,1.043-7.088,2.936c-1.893,1.893-2.936,4.411-2.936,7.088c0,2.678,1.043,5.195,2.936,7.088
		c1.294,1.295,2.893,2.196,4.659,2.633c0.438,1.767,1.34,3.366,2.633,4.659c1.893,1.894,4.411,2.937,7.088,2.937
		c2.677,0,5.195-1.043,7.088-2.937c1.893-1.893,2.936-4.411,2.936-7.088c0-2.629-1.01-5.099-2.838-6.979
		c0.078-0.069,0.165-0.121,0.24-0.195l18.106-18l3.854,3.739c0.972,0.942,2.227,1.411,3.481,1.411c0.953,0,1.902-0.278,2.729-0.818
		l-3.439-3.479C52.639,23.458,52.643,22.825,53.035,22.437z M13.9,46.871c-0.089,0.005-0.176,0.007-0.263,0.007
		c-0.512,0-1.021-0.065-1.514-0.192c-1.036-0.27-1.98-0.809-2.73-1.559c-1.134-1.134-1.759-2.643-1.759-4.246
		s0.625-3.111,1.759-4.246c1.134-1.134,2.642-1.759,4.246-1.759s3.112,0.625,4.246,1.759c0.762,0.762,1.305,1.723,1.57,2.779
		c0.141,0.564,0.201,1.145,0.176,1.727l-0.047,1.088l1.089-0.047c0.087-0.004,0.173-0.006,0.26-0.006
		c0.475,0,0.951,0.057,1.413,0.168c1.078,0.26,2.057,0.807,2.833,1.583c2.341,2.341,2.341,6.15,0,8.491
		c-1.134,1.134-2.642,1.759-4.246,1.759s-3.112-0.625-4.246-1.759c-0.763-0.764-1.306-1.727-1.571-2.784
		c-0.141-0.562-0.199-1.142-0.174-1.721l0.047-1.089L13.9,46.871z"/>
</g>
</svg>
