<?xml version="1.0" encoding="utf-8"?>
<!-- Generator: Adobe Illustrator 16.0.4, SVG Export Plug-In . SVG Version: 6.00 Build 0)  -->
<!DOCTYPE svg PUBLIC "-//W3C//DTD SVG 1.1//EN" "http://www.w3.org/Graphics/SVG/1.1/DTD/svg11.dtd">
<svg version="1.1" id="Capa_1" xmlns="http://www.w3.org/2000/svg" xmlns:xlink="http://www.w3.org/1999/xlink" x="0px" y="0px"
	 width="64px" height="64px" viewBox="0 0 64 64" enable-background="new 0 0 64 64" xml:space="preserve">
<g>
	<path d="M45.214,56h-26.4c-0.128,0-0.251-0.021-0.369-0.057l-0.461,3.736c-0.017,0.139,0.083,0.303,0.137,0.321H23v-2.286
		C23,57.32,23.32,57,23.715,57h16.57C40.68,57,41,57.32,41,57.715V60h4.988c0.052-0.017,0.148-0.171,0.131-0.302l-0.456-3.785
		C45.521,55.965,45.373,56,45.214,56z"/>
	<path d="M32.25,3.25c-3.803,0-9.804,0.783-11.108,1.75h21.925C41.896,4.209,37.424,3.25,32.25,3.25z"/>
	<path d="M44.997,20.612c-0.03,3.093-0.062,5.619-2.586,6.598l-0.301,4.115c3.798-0.709,5.52-4.127,5.52-10.837
		c0-5.717-1.252-9.041-3.969-10.341l-0.304,4.153C45.045,15.621,45.021,18.065,44.997,20.612z"/>
	<path d="M18.814,55h0.014h26.386C45.566,55,46,54.311,46,53.75v-5.939c-0.166-0.812-4.54-8.062-5.492-8.811H23.52
		c-0.956,0.746-5.352,8-5.523,8.854L18,53.75C18,54.299,18.457,55,18.814,55z M31.812,42.376c1.221,0,2.295,0.584,2.994,1.477
		l-1.356,0.668c-0.496,0.244-0.699,0.844-0.456,1.339c0.174,0.354,0.529,0.559,0.898,0.559c0.148,0,0.299-0.033,0.44-0.103
		l1.243-0.612c0.021,0.16,0.049,0.318,0.049,0.484c0,2.105-1.706,3.812-3.812,3.812C29.707,50,28,48.293,28,46.188
		S29.707,42.376,31.812,42.376z"/>
	<polygon points="40.613,38 40.618,38 42.962,6 21.041,6 23.545,38 	"/>
</g>
</svg>
