<?xml version="1.0" encoding="utf-8"?>
<!-- Generator: Adobe Illustrator 16.0.4, SVG Export Plug-In . SVG Version: 6.00 Build 0)  -->
<!DOCTYPE svg PUBLIC "-//W3C//DTD SVG 1.1//EN" "http://www.w3.org/Graphics/SVG/1.1/DTD/svg11.dtd">
<svg version="1.1" id="Capa_1" xmlns="http://www.w3.org/2000/svg" xmlns:xlink="http://www.w3.org/1999/xlink" x="0px" y="0px"
	 width="64px" height="64px" viewBox="0 0 64 64" enable-background="new 0 0 64 64" xml:space="preserve">
<g>
	<path d="M41.836,49H36v-1h-9v1h-5.613C20.792,49,20,48.682,20,48.979S20,51,20,51h23v-2.021C43,48.682,42.43,49,41.836,49z"/>
	<path d="M4,14v33h56V14H4z M56,45h-2c-0.276,0-0.5-0.224-0.5-0.5S53.724,44,54,44h2c0.276,0,0.5,0.224,0.5,0.5S56.276,45,56,45z
		 M57,41H7V17h50V41z"/>
</g>
</svg>
