<?xml version="1.0" encoding="iso-8859-1"?>
<!-- Generator: Adobe Illustrator 17.0.0, SVG Export Plug-In . SVG Version: 6.00 Build 0)  -->
<!DOCTYPE svg PUBLIC "-//W3C//DTD SVG 1.1//EN" "http://www.w3.org/Graphics/SVG/1.1/DTD/svg11.dtd">
<svg version="1.1" id="Capa_1" xmlns="http://www.w3.org/2000/svg" xmlns:xlink="http://www.w3.org/1999/xlink" x="0px" y="0px"
	 width="64px" height="64px" viewBox="0 0 64 64" style="enable-background:new 0 0 64 64;" xml:space="preserve">
<g>
	<path d="M42.625,19.625c0-2.73-2.222-4.952-4.952-4.952s-4.952,2.222-4.952,4.952s2.221,4.952,4.952,4.952
		S42.625,22.355,42.625,19.625z M37.673,22.577c-1.627,0-2.952-1.324-2.952-2.952s1.324-2.952,2.952-2.952
		c1.628,0,2.952,1.324,2.952,2.952S39.301,22.577,37.673,22.577z"/>
	<path d="M60.605,35.334l-13.168-6.402V10.375H27.909v10.336l-4.314-3.466c-0.811-0.652-2.163-0.669-2.991-0.038L4.114,29.775
		c-0.847,0.645-0.731,1.329-0.643,1.593c0.089,0.264,0.41,0.879,1.474,0.882l3.002,0.01c-0.008,0.073-0.022,0.144-0.022,0.22v17.322
		c0,1.167,0.95,2.117,2.117,2.117h7.454h8.414h2h5.454h0.073h4.824h9.179h6.687h2.632c1.167,0,2.117-0.95,2.117-2.117V37.839
		c0-0.043-0.01-0.084-0.013-0.126l1.192,0.005h0.014c1.087,0,1.381-0.574,1.46-0.916C61.604,36.459,61.59,35.813,60.605,35.334z
		 M47.437,49.919h-2h-5.179v-1.101h5.179h2h4.687v1.101H47.437z M29.909,49.919h-2h-2V42.82h-8.414v7.099h-7.454
		c-0.064,0-0.117-0.052-0.117-0.117V32.48c0-0.064,0.052-0.117,0.117-0.117h17.868h2h3.454c0.064,0,0.117,0.052,0.117,0.117v1.645
		v1.418v0.179V36.6v1.006v0.117v12.08c0,0.05-0.036,0.085-0.08,0.102c-0.013,0.005-0.022,0.015-0.036,0.015H31.33H29.909z
		 M19.495,49.919V44.82h4.414v5.099H19.495z M22.342,18.804l5.566,4.474l2,1.607l6.806,5.469l-6.806-0.023l-2-0.007L6.785,30.254
		l15.031-11.457C21.908,18.728,22.258,18.736,22.342,18.804z M52.124,47.318h-4.687h-2h-5.179v-2.686h5.179h2h4.687V47.318z
		 M52.124,43.132h-4.687h-2h-5.179v-2.686h5.179h2h4.687V43.132z M52.124,38.947h-4.687h-2h-5.179v-1.171h5.179h2h4.687V38.947z
		 M47.437,35.665l-2-0.008l-9.958-0.041V34.95l2.577-2.591l1.81-1.82l1.77-1.78c0.073-0.073,0.247-0.147,0.44-0.147
		c0.115,0,0.182,0.026,0.206,0.038l3.156,1.534l2,0.972l9.354,4.547L47.437,35.665z M29.909,12.375h15.529V27.96l-2.281-1.109
		c-0.91-0.441-2.228-0.215-2.938,0.498l-1.798,1.807l-8.512-6.839V12.375z M35.467,49.919c0.002-0.039,0.012-0.077,0.012-0.117
		v-12.08h2.78v12.197H35.467z M56.873,49.802c0,0.064-0.052,0.117-0.117,0.117h-2.632V37.722h2.632c0.065,0,0.117,0.051,0.117,0.117
		V49.802z M60.063,36.182l-0.003-0.436c0.002-0.001,0.004-0.002,0.006-0.003v0.441v0.532L60.063,36.182z"/>
	<path d="M11.89,41.002h7.036v-7.036H11.89V41.002z M13.89,35.966h3.036v3.036H13.89V35.966z"/>
	<path d="M27.909,33.966h-3.461v7.036h3.461h2h1.41h0.165v-3.981v-3.055h-1.575H27.909z M29.483,39.002h-1.575h-1.461v-3.036h1.461
		h1.575V39.002z"/>
</g>
</svg>
