<?xml version="1.0" encoding="utf-8"?>
<!-- Generator: Adobe Illustrator 16.0.4, SVG Export Plug-In . SVG Version: 6.00 Build 0)  -->
<!DOCTYPE svg PUBLIC "-//W3C//DTD SVG 1.1//EN" "http://www.w3.org/Graphics/SVG/1.1/DTD/svg11.dtd">
<svg version="1.1" id="Capa_1" xmlns="http://www.w3.org/2000/svg" xmlns:xlink="http://www.w3.org/1999/xlink" x="0px" y="0px"
	 width="64px" height="64px" viewBox="0 0 64 64" enable-background="new 0 0 64 64" xml:space="preserve">
<path d="M44.729,1C35.504,1,28,8.504,28,17.728c0,2.829,0.711,5.492,1.956,7.831L5.747,49.979c-1.944,1.962-1.93,5.127,0.031,7.071
	c0.975,0.967,2.248,1.449,3.52,1.449c1.287,0,2.573-0.494,3.551-1.479l2.831-2.855l6.148,6.147l3.662-3.662l-2.951-3.027
	l2.148-2.094l2.924,3l2.702-2.701l-6.185-6.186l12.945-13.059c2.297,1.188,4.896,1.872,7.656,1.872
	c9.224,0,16.728-7.504,16.728-16.728S53.952,1,44.729,1z M44.729,28.456C38.812,28.456,34,23.644,34,17.728S38.812,7,44.729,7
	c5.915,0,10.728,4.812,10.728,10.728S50.644,28.456,44.729,28.456z"/>
</svg>
