<?xml version="1.0" encoding="utf-8"?>
<!-- Generator: Adobe Illustrator 16.0.4, SVG Export Plug-In . SVG Version: 6.00 Build 0)  -->
<!DOCTYPE svg PUBLIC "-//W3C//DTD SVG 1.1//EN" "http://www.w3.org/Graphics/SVG/1.1/DTD/svg11.dtd">
<svg version="1.1" id="Capa_1" xmlns="http://www.w3.org/2000/svg" xmlns:xlink="http://www.w3.org/1999/xlink" x="0px" y="0px"
	 width="64px" height="64px" viewBox="0 0 64 64" enable-background="new 0 0 64 64" xml:space="preserve">
<g>
	<rect x="52" y="58" width="3" height="3"/>
	<rect x="7" y="58" width="3" height="3"/>
	<path d="M52,57h3V12h-3.659c-0.177-0.529-0.726-0.988-1.502-1.314l5.919-4.689c0.315,0.257,0.713,0.417,1.151,0.417
		c1.012,0,1.832-0.82,1.832-1.832s-0.82-1.832-1.832-1.832s-1.832,0.82-1.832,1.832c0,0.209,0.042,0.406,0.106,0.593l-6.51,5.157
		c-0.479-0.094-0.992-0.151-1.535-0.151c-0.048,0-0.092,0.006-0.139,0.007V6.053c0.452-0.333,0.749-0.866,0.749-1.471
		c0-1.012-0.82-1.832-1.832-1.832s-1.832,0.82-1.832,1.832s0.82,1.832,1.832,1.832c0.028,0,0.055-0.007,0.083-0.008v3.864
		c-1.578,0.224-2.784,0.892-3.064,1.73H7v45h3H52z M40,49h-1c-0.276,0-0.5-0.224-0.5-0.5S38.724,48,39,48h1
		c0.276,0,0.5,0.224,0.5,0.5S40.276,49,40,49z M44,49h-2c-0.276,0-0.5-0.224-0.5-0.5S41.724,48,42,48h2c0.276,0,0.5,0.224,0.5,0.5
		S44.276,49,44,49z M48,49h-1c-0.276,0-0.5-0.224-0.5-0.5S46.724,48,47,48h1c0.276,0,0.5,0.224,0.5,0.5S48.276,49,48,49z M51,49h-1
		c-0.276,0-0.5-0.224-0.5-0.5S49.724,48,50,48h1c0.276,0,0.5,0.224,0.5,0.5S51.276,49,51,49z M14,17h35v28H14V17z"/>
</g>
</svg>
