<?xml version="1.0" encoding="iso-8859-1"?>
<!-- Generator: Adobe Illustrator 17.0.0, SVG Export Plug-In . SVG Version: 6.00 Build 0)  -->
<!DOCTYPE svg PUBLIC "-//W3C//DTD SVG 1.1//EN" "http://www.w3.org/Graphics/SVG/1.1/DTD/svg11.dtd">
<svg version="1.1" id="Capa_1" xmlns="http://www.w3.org/2000/svg" xmlns:xlink="http://www.w3.org/1999/xlink" x="0px" y="0px"
	 width="64px" height="64px" viewBox="0 0 64 64" style="enable-background:new 0 0 64 64;" xml:space="preserve">
<g>
	<path d="M31.117,46.235l-1.398-0.023c-1.167-2.393-2.721-6.048-3.091-9.209c-0.202-1.722-1.399-2.504-1.826-2.84
		c-0.621-0.49-2.156-1.12-3.898-2.41c-0.902-0.669-2.128-1.704-3.292-2.643c-1.809-1.463-2.652-1.663-3.55-0.692
		c-0.316,0.344-0.815,1.497,0.558,2.715c0.301,0.267,1.052,0.87,1.561,1.305c0.465,0.396,1.236,1.121,2.178,2.082
		c0.754,0.772,1.074,1.586,1.074,1.586s-0.919-0.672-1.248-0.917c-1.012-0.753-2.35-1.707-3.453-2.725
		c-1.107-1.017-1.809-1.957-1.898-2.951c-0.047-1.542,0.902-2.096,1.438-2.387c0,0-3.373-5.875-3.646-6.232
		c-0.553-0.715-1.453-1.383-2.044-1.333c-0.007,0.001-0.474-0.102-0.997,0.397c-0.286,0.274-0.398,0.882,0.136,1.993
		c0,0,2.134,4.803,3.733,11.377c0,0,0.191,0.749,0.779,1.238c3.062,2.296,6.035,5.141,6.33,5.443
		c1.479,1.523,3.076,3.368,3.65,6.085l-1.24-0.018l0.264,4.23l9.995,0.126L31.117,46.235z M23.953,48.72
		c-0.265,0.275-0.701,0.286-0.978,0.021c-0.276-0.264-0.285-0.701-0.022-0.979c0.265-0.275,0.702-0.285,0.978-0.021
		C24.208,48.005,24.218,48.442,23.953,48.72z"/>
	<path d="M51.767,34.568c0.588-0.489,0.778-1.238,0.778-1.238c1.601-6.574,3.734-11.377,3.734-11.377
		c0.533-1.111,0.422-1.719,0.135-1.993c-0.523-0.499-0.99-0.396-0.996-0.397c-0.591-0.05-1.492,0.618-2.044,1.333
		c-0.273,0.357-3.647,6.232-3.647,6.232c0.536,0.291,1.484,0.845,1.438,2.387c-0.09,0.994-0.79,1.935-1.897,2.951
		c-1.104,1.018-2.442,1.972-3.454,2.725c-0.328,0.245-1.247,0.917-1.247,0.917s0.32-0.813,1.074-1.586
		c0.94-0.961,1.713-1.687,2.178-2.082c0.51-0.435,1.261-1.038,1.56-1.305c1.374-1.218,0.875-2.371,0.558-2.715
		c-0.897-0.972-1.74-0.771-3.55,0.692c-1.163,0.939-2.389,1.975-3.292,2.643c-1.742,1.29-3.276,1.92-3.898,2.41
		c-0.428,0.336-1.625,1.118-1.827,2.84c-0.37,3.161-1.923,6.816-3.09,9.209l-1.398,0.023l-0.114,4.2l9.995-0.126l0.263-4.23
		l-1.239,0.018c0.573-2.717,2.171-4.562,3.649-6.085C45.73,39.709,48.704,36.864,51.767,34.568z M41.024,48.74
		c-0.277,0.266-0.715,0.255-0.979-0.021c-0.265-0.277-0.255-0.715,0.021-0.979c0.276-0.264,0.713-0.254,0.979,0.021
		C41.31,48.039,41.301,48.477,41.024,48.74z"/>
	<path d="M35.012,6.074v2.773H23.287l-3.88,4.217c-0.556,0.602-0.517,1.543,0.087,2.099l1.53,1.408l3.827-4.158h14.367l3.727,4.144
		l1.546-1.391c0.61-0.549,0.66-1.488,0.111-2.098l-3.796-4.221h-2.602V6.074H35.012z"/>
	<path d="M33.375,19.555h6.25v11.685h0.834c0.819,0,1.484-0.666,1.484-1.485V16.881l-2.92-3.269H25.246l-3.207,3.664v12.478
		c0,0.819,0.666,1.485,1.486,1.485h9.85V19.555z M27.122,28.457h-2.325v-2.325h2.325V28.457z M27.195,24.751h-2.326v-2.325h2.326
		V24.751z M31.191,28.457h-2.326v-2.325h2.326V28.457z M31.264,24.751h-2.325v-2.325h2.325V24.751z"/>
</g>
</svg>
