<?xml version="1.0" encoding="utf-8"?>
<!-- Generator: Adobe Illustrator 16.0.4, SVG Export Plug-In . SVG Version: 6.00 Build 0)  -->
<!DOCTYPE svg PUBLIC "-//W3C//DTD SVG 1.1//EN" "http://www.w3.org/Graphics/SVG/1.1/DTD/svg11.dtd">
<svg version="1.1" id="Capa_1" xmlns="http://www.w3.org/2000/svg" xmlns:xlink="http://www.w3.org/1999/xlink" x="0px" y="0px"
	 width="64px" height="64px" viewBox="0 0 64 64" enable-background="new 0 0 64 64" xml:space="preserve">
<path d="M16.119,6l0.271,5.781l0.898,6.99c0.625-0.185,1.252-0.302,1.88-0.302c0.318,0,0.638,0.025,0.95,0.075
	c1.588,0.251,3.001,1.119,4.197,2.463l-0.576-6.523c-0.073-0.825,0.537-1.553,1.362-1.626c0.823-0.066,1.553,0.537,1.626,1.362
	l1.435,16.261c0.207,1.335,0.333,2.742,0.372,4.208l1.597,18.095c0.073,0.825-0.537,1.553-1.362,1.626
	c-0.045,0.004-0.089,0.006-0.134,0.006c-0.769,0-1.423-0.588-1.492-1.368l-0.463-5.25c-1.017,3.193-2.389,6.024-3.977,8.288
	c2.195,2.643,7.326,4.62,14.736,4.62c9.265,0,14.97-3.088,15.817-6.707h0.437L58,12V6H16.119z M39,53c0,0.828-0.672,1.5-1.5,1.5
	S36,53.828,36,53V14c0-0.829,0.672-1.5,1.5-1.5S39,13.171,39,14V53z M47.225,53.049c-0.067,0.78-0.724,1.368-1.492,1.368
	c-0.045,0-0.088-0.002-0.133-0.006c-0.826-0.072-1.437-0.802-1.363-1.626l3.402-38.564c0.072-0.826,0.813-1.429,1.627-1.362
	c0.824,0.073,1.436,0.801,1.361,1.626L47.225,53.049z"/>
<path d="M19.962,19.532c-0.261-0.041-0.528-0.062-0.794-0.062c-0.011,0-0.021,0.003-0.032,0.003
	c-0.519-0.313-1.064-0.541-1.647-0.633c-0.111-0.018-0.222-0.024-0.333-0.033c-5.215-0.416-10.861,8.568-12.612,19.65
	c-1.789,11.318,0.978,21.707,6.284,22.546c0.195,0.031,0.392,0.044,0.588,0.049c0.65,0.015,1.306-0.11,1.959-0.366
	c0.028,0.006,0.054,0.019,0.082,0.021c0.264,0.042,0.534,0.062,0.803,0.062c5.412,0,11.159-8.506,12.811-18.959
	C28.836,30.622,25.582,20.42,19.962,19.532z M12.113,44.07c-0.65-0.104-1.102-0.959-1.286-2.152l-2.561-0.494l1.121-5.811
	l2.462,0.475c0.521-0.925,1.151-1.49,1.746-1.396c1.101,0.176,1.649,2.498,1.251,5.018S13.214,44.244,12.113,44.07z M10.179,36.783
	l2.838,0.547l-0.741,3.846L9.438,40.63L10.179,36.783z"/>
</svg>
