<?xml version="1.0" encoding="utf-8"?>
<!-- Generator: Adobe Illustrator 16.0.4, SVG Export Plug-In . SVG Version: 6.00 Build 0)  -->
<!DOCTYPE svg PUBLIC "-//W3C//DTD SVG 1.1//EN" "http://www.w3.org/Graphics/SVG/1.1/DTD/svg11.dtd">
<svg version="1.1" id="Capa_1" xmlns="http://www.w3.org/2000/svg" xmlns:xlink="http://www.w3.org/1999/xlink" x="0px" y="0px"
	 width="64px" height="64px" viewBox="0 0 64 64" enable-background="new 0 0 64 64" xml:space="preserve">
<g>
	<path d="M46.404,51c-0.118,1.27-5.995,1.279-13.242,1.279c-7.247,0-13.123-0.01-13.241-1.279h-9.003
		c-0.315,0-0.623-0.057-0.918-0.144v2.038C10,54.057,10.943,55,12.106,55h41.789C55.057,55,56,54.057,56,52.895v-1.918
		C55.919,50.983,55.845,51,55.758,51H46.404z"/>
	<path d="M53.893,21H12.106C10.943,21,10,21.943,10,23.106v3.817C10.292,26.961,10.608,27,10.918,27h44.84
		c0.089,0,0.161-0.011,0.242-0.016v-3.878C56,21.943,55.057,21,53.893,21z M14.58,25.365c-0.787,0-1.424-0.638-1.424-1.424
		s0.637-1.424,1.424-1.424c0.786,0,1.424,0.637,1.424,1.424S15.366,25.365,14.58,25.365z M27.218,25.365
		c-0.786,0-1.424-0.638-1.424-1.424s0.638-1.424,1.424-1.424c0.787,0,1.424,0.637,1.424,1.424S28.004,25.365,27.218,25.365z
		 M35.645,25.365c-0.787,0-1.424-0.638-1.424-1.424s0.637-1.424,1.424-1.424c0.786,0,1.424,0.637,1.424,1.424
		S36.431,25.365,35.645,25.365z M44.068,25.365c-0.785,0-1.424-0.638-1.424-1.424s0.639-1.424,1.424-1.424
		c0.787,0,1.425,0.637,1.425,1.424S44.855,25.365,44.068,25.365z M52.495,25.365c-0.786,0-1.425-0.638-1.425-1.424
		s0.639-1.424,1.425-1.424s1.424,0.637,1.424,1.424S53.281,25.365,52.495,25.365z"/>
	<path d="M10.918,28c-0.324,0-0.629-0.034-0.918-0.07v21.867C10.275,49.918,10.586,50,10.918,50h11.076
		c2.354-0.349,6.47-0.354,11.169-0.354c4.698,0,8.814,0.005,11.168,0.354h11.427c0.091,0,0.164-0.017,0.242-0.027V27.984
		C55.917,27.989,55.848,28,55.758,28H10.918z M51,44.895C51,46.057,50.057,47,48.895,47H17.106C15.943,47,15,46.057,15,44.895
		V33.105C15,31.943,15.943,31,17.106,31h31.787C50.057,31,51,31.943,51,33.105V44.895z"/>
	<path d="M54.314,15H12.186C11.023,15,10,15.922,10,17.085v2.106C10,20.355,11.023,20,12.186,20h42.128
		C55.477,20,56,20.355,56,19.191v-2.106C56,15.922,55.477,15,54.314,15z"/>
</g>
</svg>
