<?xml version="1.0" encoding="utf-8"?>
<!-- Generator: Adobe Illustrator 16.0.4, SVG Export Plug-In . SVG Version: 6.00 Build 0)  -->
<!DOCTYPE svg PUBLIC "-//W3C//DTD SVG 1.1//EN" "http://www.w3.org/Graphics/SVG/1.1/DTD/svg11.dtd">
<svg version="1.1" id="Capa_1" xmlns="http://www.w3.org/2000/svg" xmlns:xlink="http://www.w3.org/1999/xlink" x="0px" y="0px"
	 width="64px" height="64px" viewBox="0 0 64 64" enable-background="new 0 0 64 64" xml:space="preserve">
<g>
	<path fill="#120B06" d="M59.352,15.5H5.648c-1.186,0-2.148,0.962-2.148,2.148v30.704c0,1.187,0.962,2.148,2.148,2.148H8V53h3v-2.5
		h43V53h3v-2.5h2.352c1.187,0,2.148-0.962,2.148-2.148V17.648C61.5,16.462,60.538,15.5,59.352,15.5z M51,48H8v-3V18h43V48z
		 M56.081,45.42c-1.886,0-3.414-1.528-3.414-3.414c0-1.885,1.528-3.414,3.414-3.414s3.414,1.529,3.414,3.414
		C59.495,43.892,57.967,45.42,56.081,45.42z M56.081,36.42c-1.886,0-3.414-1.528-3.414-3.414c0-1.885,1.528-3.414,3.414-3.414
		s3.414,1.529,3.414,3.414C59.495,34.892,57.967,36.42,56.081,36.42z M56.081,27.42c-1.886,0-3.414-1.528-3.414-3.414
		c0-1.885,1.528-3.414,3.414-3.414s3.414,1.529,3.414,3.414C59.495,25.892,57.967,27.42,56.081,27.42z"/>
	<rect x="9" y="19" fill="#120B06" width="41" height="5"/>
	<path fill="#120B06" d="M50,41c0,1.657-1.343,3-3,3H12c-1.657,0-3-1.343-3-3v6h41V41z"/>
</g>
</svg>
