<?xml version="1.0" encoding="utf-8"?>
<!-- Generator: Adobe Illustrator 16.0.4, SVG Export Plug-In . SVG Version: 6.00 Build 0)  -->
<!DOCTYPE svg PUBLIC "-//W3C//DTD SVG 1.1//EN" "http://www.w3.org/Graphics/SVG/1.1/DTD/svg11.dtd">
<svg version="1.1" id="Capa_1" xmlns="http://www.w3.org/2000/svg" xmlns:xlink="http://www.w3.org/1999/xlink" x="0px" y="0px"
	 width="64px" height="64px" viewBox="0 0 64 64" enable-background="new 0 0 64 64" xml:space="preserve">
<g>
	<path d="M26.428,3.785l-0.19,17.982c0,0.244-0.124,1.233-0.276,1.233h-0.251c-0.153,0-0.276-0.989-0.276-1.233L24.703,4.855
		c-0.195,0-1.863,1.034-2.539,1.321l-0.711,15.688c0,0.244-0.124,1.136-0.276,1.136h-0.251c-0.153,0-0.276-0.989-0.276-1.233
		L20.455,7.225c-2.926,2.045-2.926,7.802-2.926,18.293c0,3.262,0.972,4.603,2.712,5.144c0.582,0.181,1.246,0.276,1.993,0.319
		l-0.661,28.772c0,0.602,1.132,1.246,1.664,1.246h0.876c0.532,0,1.664-0.702,1.664-1.303l-0.659-28.729
		c0.747-0.054,1.412-0.167,1.992-0.371c1.711-0.602,2.666-2.019,2.666-5.252c0-7.97-0.271-17.951-1.408-21.682
		C27.958,2.32,28.372,2.565,26.428,3.785z M23.591,59.812c-0.584,0-1.059-0.475-1.059-1.06s0.474-1.06,1.059-1.06
		c0.585,0,1.059,0.475,1.059,1.06S24.176,59.812,23.591,59.812z"/>
	<path d="M48,30l2-27H37l2,27c0.447,0.247,0.857,0.604,1.232,1.049c0.779,0.925,1.407,2.238,1.914,3.773l-0.573,24.932
		c0,0.602,1.132,1.246,1.663,1.246h0.877c0.531,0,1.664-0.702,1.664-1.303l-0.571-24.887c0.64-2.189,1.357-3.399,1.907-4.057
		C47.633,30.133,48,30,48,30z M46.526,5.985c0.017-0.275,0.235-0.488,0.53-0.468c0.275,0.017,0.484,0.254,0.468,0.53l-1.051,16.968
		c-0.017,0.265-0.236,0.469-0.499,0.469c-0.01,0-0.021,0-0.031-0.001c-0.275-0.017-0.484-0.254-0.468-0.53L46.526,5.985z M43,6
		c0-0.276,0.224-0.5,0.5-0.5S44,5.724,44,6v17c0,0.276-0.224,0.5-0.5,0.5S43,23.276,43,23V6z M39.943,5.517
		c0.295-0.017,0.514,0.193,0.53,0.468l1.051,16.968c0.017,0.275-0.192,0.513-0.468,0.53c-0.011,0-0.021,0.001-0.031,0.001
		c-0.263,0-0.482-0.204-0.499-0.469L39.476,6.047C39.459,5.771,39.668,5.534,39.943,5.517z M43.591,59.812
		c-0.585,0-1.059-0.475-1.059-1.06s0.474-1.06,1.059-1.06s1.06,0.475,1.06,1.06S44.176,59.812,43.591,59.812z"/>
</g>
</svg>
