<?xml version="1.0" encoding="utf-8"?>
<!-- Generator: Adobe Illustrator 16.0.4, SVG Export Plug-In . SVG Version: 6.00 Build 0)  -->
<!DOCTYPE svg PUBLIC "-//W3C//DTD SVG 1.1//EN" "http://www.w3.org/Graphics/SVG/1.1/DTD/svg11.dtd">
<svg version="1.1" id="Capa_1" xmlns="http://www.w3.org/2000/svg" xmlns:xlink="http://www.w3.org/1999/xlink" x="0px" y="0px"
	 width="64px" height="64px" viewBox="0 0 64 64" enable-background="new 0 0 64 64" xml:space="preserve">
<g>
	<path d="M33.27,18.404c8.663,0.085,14.09-0.454,14.823,9.148h10.564c0-14.875-12.973-16.88-25.662-16.88
		c-12.69,0-25.662,2.005-25.662,16.88h10.482C18.626,17.766,24.679,18.319,33.27,18.404z"/>
	<path d="M12.572,32.333c2.573,0,4.714,0.154,5.19-2.377c0.064-0.344,0.101-0.734,0.101-1.185h-0.122H7.281
		C7.281,32.537,9.65,32.333,12.572,32.333z"/>
	<path d="M48.161,28.771h-0.099c0,0.454,0.039,0.845,0.112,1.185c0.502,2.334,2.64,2.189,5.204,2.189
		c2.936,0,5.316,0.193,5.316-3.374H48.161z"/>
	<path d="M43,26.207v-1.496C43,24.042,42.229,24,41.277,24h-1.555C38.771,24,38,24.042,38,24.711V26v1H27v-1v-1.289
		C27,24.042,26.229,24,25.278,24h-1.556C22.771,24,22,24.042,22,24.711v1.496v1.306c-2.506,2.604-10.706,13.689-11.004,15.032
		L11,51.5c0,0.827,0.673,1.5,1.5,1.5h40c0.827,0,1.5-0.673,1.5-1.5v-9c-0.295-1.303-8.493-12.383-11-14.987V26.207z M26.458,43.75
		c-0.805,0-1.458-0.652-1.458-1.458s0.653-1.458,1.458-1.458s1.458,0.652,1.458,1.458S27.263,43.75,26.458,43.75z M26.458,38.75
		c-0.805,0-1.458-0.652-1.458-1.458s0.653-1.458,1.458-1.458s1.458,0.652,1.458,1.458S27.263,38.75,26.458,38.75z M26.458,33.75
		c-0.805,0-1.458-0.652-1.458-1.458c0-0.805,0.653-1.458,1.458-1.458s1.458,0.653,1.458,1.458
		C27.916,33.098,27.263,33.75,26.458,33.75z M32.458,43.75c-0.805,0-1.458-0.652-1.458-1.458s0.653-1.458,1.458-1.458
		c0.806,0,1.458,0.652,1.458,1.458S33.264,43.75,32.458,43.75z M32.458,38.75c-0.805,0-1.458-0.652-1.458-1.458
		s0.653-1.458,1.458-1.458c0.806,0,1.458,0.652,1.458,1.458S33.264,38.75,32.458,38.75z M32.458,33.75
		c-0.805,0-1.458-0.652-1.458-1.458c0-0.805,0.653-1.458,1.458-1.458c0.806,0,1.458,0.653,1.458,1.458
		C33.916,33.098,33.264,33.75,32.458,33.75z M38.458,43.75c-0.806,0-1.458-0.652-1.458-1.458s0.652-1.458,1.458-1.458
		s1.458,0.652,1.458,1.458S39.264,43.75,38.458,43.75z M38.458,38.75c-0.806,0-1.458-0.652-1.458-1.458s0.652-1.458,1.458-1.458
		s1.458,0.652,1.458,1.458S39.264,38.75,38.458,38.75z M38.458,33.75c-0.806,0-1.458-0.652-1.458-1.458
		c0-0.805,0.652-1.458,1.458-1.458s1.458,0.653,1.458,1.458C39.916,33.098,39.264,33.75,38.458,33.75z"/>
</g>
</svg>
