<?xml version="1.0" encoding="utf-8"?>
<!-- Generator: Adobe Illustrator 16.0.4, SVG Export Plug-In . SVG Version: 6.00 Build 0)  -->
<!DOCTYPE svg PUBLIC "-//W3C//DTD SVG 1.1//EN" "http://www.w3.org/Graphics/SVG/1.1/DTD/svg11.dtd">
<svg version="1.1" id="Capa_1" xmlns="http://www.w3.org/2000/svg" xmlns:xlink="http://www.w3.org/1999/xlink" x="0px" y="0px"
	 width="64px" height="64px" viewBox="0 0 64 64" enable-background="new 0 0 64 64" xml:space="preserve">
<g>
	<path fill="#1D1D1B" d="M29,47.543v8.242C29,56.944,29.991,58,31.079,58h3.869C36.041,58,37,56.965,37,55.785v-8.273
		c-1.327,0.263-2.691,0.405-4.083,0.405C31.583,47.917,30.275,47.784,29,47.543z"/>
	<path fill="#1D1D1B" d="M27,11c0-1.105-0.895-2-2-2h-2c-1.105,0-2,0.895-2,2v14h6V11z"/>
	<path fill="#1D1D1B" d="M45,11c0-1.105-0.895-2-2-2h-2c-1.105,0-2,0.895-2,2v14h6V11z"/>
	<path fill="#1D1D1B" d="M13.026,27c0.542,10.354,9.43,18.917,19.891,18.917c10.461,0,19.349-8.563,19.89-18.917H13.026z"/>
</g>
</svg>
