<?xml version="1.0" encoding="utf-8"?>
<!-- Generator: Adobe Illustrator 16.0.4, SVG Export Plug-In . SVG Version: 6.00 Build 0)  -->
<!DOCTYPE svg PUBLIC "-//W3C//DTD SVG 1.1//EN" "http://www.w3.org/Graphics/SVG/1.1/DTD/svg11.dtd">
<svg version="1.1" id="Capa_1" xmlns="http://www.w3.org/2000/svg" xmlns:xlink="http://www.w3.org/1999/xlink" x="0px" y="0px"
	 width="64px" height="64px" viewBox="0 0 64 64" enable-background="new 0 0 64 64" xml:space="preserve">
<g>
	<path d="M31.5,26.5c15.101,0,23-2.007,23-3.083c0-0.896-5.489-2.432-16.027-2.923c0.624,0.561,1.256,0.963,2.248,1.017
		c1.056,0.058,1.604,0.903,1.582,1.669c-0.02,0.724-0.551,1.457-1.527,1.457l-0.109-0.003c-1.862-0.101-3.369-0.757-4.741-2.067
		c-0.201-0.191-0.374-0.365-0.532-0.523c-0.89-0.89-1.222-1.223-3.456-1.586c-0.006-0.001-0.011-0.003-0.018-0.004
		c-0.086,0.013-0.172,0.024-0.267,0.024c-0.064,0-0.131-0.003-0.199-0.01c-1.706-0.165-2.495,0.595-3.622,1.695l-0.417,0.404
		c-1.371,1.309-2.877,1.966-4.741,2.067l-0.109,0.003c-0.977,0-1.508-0.733-1.528-1.457c-0.021-0.766,0.526-1.611,1.583-1.669
		c1.001-0.055,1.634-0.463,2.265-1.033C14.114,20.952,8.5,22.512,8.5,23.417C8.5,24.493,16.399,26.5,31.5,26.5z"/>
	<path d="M22.037,23.152c0.004,0.146,0.063,0.484,0.528,0.484v0.5l0.055-0.501c1.634-0.089,2.9-0.642,4.105-1.792l0.409-0.396
		c0.878-0.857,1.662-1.615,2.863-1.889c0.01-0.001,0.019,0.002,0.029,0.001c0.667-0.106,1.474-0.113,2.25-0.056
		c2.29,0.391,2.82,0.829,3.824,1.834c0.153,0.153,0.321,0.321,0.516,0.506c1.206,1.151,2.472,1.704,4.105,1.792l0.055,0.502v-0.5
		c0.465,0,0.524-0.338,0.528-0.484c0.006-0.226-0.121-0.615-0.638-0.644c-1.68-0.091-2.6-0.995-3.49-1.869
		c-0.274-0.27-0.556-0.547-0.87-0.81c-0.961-0.804-2.031-1.22-3.242-1.305c-0.87-0.098-1.806-0.092-2.666-0.007
		c0-0.001,0-0.002,0-0.003c-0.07,0.003-0.135,0.02-0.205,0.026c-0.157,0.015-0.316,0.028-0.461,0.051
		c-0.011,0.002-0.017,0.008-0.027,0.01c-0.978,0.163-1.865,0.554-2.671,1.228c-0.314,0.262-0.596,0.54-0.87,0.809
		c-0.89,0.874-1.811,1.778-3.49,1.869C22.158,22.538,22.03,22.927,22.037,23.152z"/>
	<path d="M60.75,28.375c-0.082-1.927-3.082-1.935-3,0c0.04,0.941,0.048,2.066-0.852,2.611c-0.531,0.323-1.218,0.339-1.898,0.24
		v-6.871c-2.72,2.46-16.069,3.146-23.5,3.146S10.72,26.814,8,24.354v6.894c-0.62,0.07-1.233,0.032-1.718-0.263
		c-0.899-0.545-0.891-1.67-0.851-2.611c0.082-1.935-2.918-1.927-3,0c-0.082,1.935,0.443,4.241,2.336,5.202
		C5.8,34.102,6.897,34.254,8,34.196v9.53C8,49.953,13.19,55,19.591,55h24.15C50.143,55,55,49.953,55,43.727v-9.541
		c1.164,0.086,2.324-0.056,3.414-0.608C60.307,32.616,60.832,30.31,60.75,28.375z"/>
</g>
</svg>
