<?xml version="1.0" encoding="utf-8"?>
<!-- Generator: Adobe Illustrator 16.0.4, SVG Export Plug-In . SVG Version: 6.00 Build 0)  -->
<!DOCTYPE svg PUBLIC "-//W3C//DTD SVG 1.1//EN" "http://www.w3.org/Graphics/SVG/1.1/DTD/svg11.dtd">
<svg version="1.1" id="Capa_1" xmlns="http://www.w3.org/2000/svg" xmlns:xlink="http://www.w3.org/1999/xlink" x="0px" y="0px"
	 width="64px" height="64px" viewBox="0 0 64 64" enable-background="new 0 0 64 64" xml:space="preserve">
<g>
	<path fill="none" d="M21.5,36c-0.276,0-0.5,0.448-0.5,1v10c0,0.552,0.224,1,0.5,1s0.5-0.448,0.5-1V37C22,36.448,21.776,36,21.5,36z
		"/>
	<path fill="none" d="M24.5,36c-0.276,0-0.5,0.448-0.5,1v10c0,0.552,0.224,1,0.5,1s0.5-0.448,0.5-1V37C25,36.448,24.776,36,24.5,36z
		"/>
	<path fill="none" d="M12.5,36c-0.276,0-0.5,0.448-0.5,1v10c0,0.552,0.224,1,0.5,1s0.5-0.448,0.5-1V37C13,36.448,12.776,36,12.5,36z
		"/>
	<path fill="none" d="M27.5,36c-0.276,0-0.5,0.448-0.5,1v10c0,0.552,0.224,1,0.5,1s0.5-0.448,0.5-1V37C28,36.448,27.776,36,27.5,36z
		"/>
	<path fill="none" d="M15.5,36c-0.276,0-0.5,0.448-0.5,1v10c0,0.552,0.224,1,0.5,1s0.5-0.448,0.5-1V37C16,36.448,15.776,36,15.5,36z
		"/>
	<path fill="none" d="M18.5,36c-0.276,0-0.5,0.448-0.5,1v10c0,0.552,0.224,1,0.5,1s0.5-0.448,0.5-1V37C19,36.448,18.776,36,18.5,36z
		"/>
	<path fill="none" d="M30.5,36c-0.276,0-0.5,0.448-0.5,1v10c0,0.552,0.224,1,0.5,1s0.5-0.448,0.5-1V37C31,36.448,30.776,36,30.5,36z
		"/>
	<circle fill="none" cx="46.812" cy="29.188" r="3.812"/>
	<path fill="none" d="M32,23H14c-1.105,0-2,0.895-2,2v6c0,1.105,0.895,2,2,2h18c1.105,0,2-0.895,2-2v-6C34,23.895,33.105,23,32,23z
		 M32.957,28.417l-15.106-0.032l-0.018,3.368l-1-0.006l0.018-3.364l-3.81-0.008l0.002-1l3.813,0.008l0.019-3.386l1,0.006
		l-0.019,3.382l15.103,0.032L32.957,28.417z"/>
	<path fill="none" d="M33.5,36c-0.275,0-0.5,0.448-0.5,1v10c0,0.552,0.225,1,0.5,1s0.5-0.448,0.5-1V37C34,36.448,33.775,36,33.5,36z
		"/>
	<path d="M15,10.5c0.788,0,1.483-0.372,1.941-0.942l-0.076,0.283l27.937,7.526c0.454-0.649,1.112-1.185,1.915-1.556L17.494,7.938
		C17.46,6.587,16.36,5.5,15,5.5c-1.381,0-2.5,1.119-2.5,2.5S13.619,10.5,15,10.5z"/>
	<path d="M45.175,19h8.15c-0.248-1.545-1.971-2.75-4.075-2.75S45.423,17.455,45.175,19z"/>
	<path d="M55.662,20h-45.54C8.915,20,7,24.408,7,26.142v17.594C7,45.643,8.971,51,10.122,51h45.54C56.341,51,58,47.123,58,43.736
		V26.142C58,24.262,56.802,20,55.662,20z M13,47c0,0.552-0.224,1-0.5,1S12,47.552,12,47V37c0-0.552,0.224-1,0.5-1s0.5,0.448,0.5,1
		V47z M16,47c0,0.552-0.224,1-0.5,1S15,47.552,15,47V37c0-0.552,0.224-1,0.5-1s0.5,0.448,0.5,1V47z M19,47c0,0.552-0.224,1-0.5,1
		S18,47.552,18,47V37c0-0.552,0.224-1,0.5-1s0.5,0.448,0.5,1V47z M22,47c0,0.552-0.224,1-0.5,1S21,47.552,21,47V37
		c0-0.552,0.224-1,0.5-1s0.5,0.448,0.5,1V47z M25,47c0,0.552-0.224,1-0.5,1S24,47.552,24,47V37c0-0.552,0.224-1,0.5-1
		s0.5,0.448,0.5,1V47z M28,47c0,0.552-0.224,1-0.5,1S27,47.552,27,47V37c0-0.552,0.224-1,0.5-1s0.5,0.448,0.5,1V47z M31,47
		c0,0.552-0.224,1-0.5,1S30,47.552,30,47V37c0-0.552,0.224-1,0.5-1s0.5,0.448,0.5,1V47z M34,47c0,0.552-0.225,1-0.5,1
		S33,47.552,33,47V37c0-0.552,0.225-1,0.5-1s0.5,0.448,0.5,1V47z M34,31c0,1.105-0.895,2-2,2H14c-1.105,0-2-0.895-2-2v-6
		c0-1.105,0.895-2,2-2h18c1.105,0,2,0.895,2,2V31z M46.812,33C44.707,33,43,31.293,43,29.188s1.707-3.812,3.812-3.812
		s3.812,1.707,3.812,3.812S48.918,33,46.812,33z"/>
	<polygon points="17.875,24.003 16.875,23.997 16.856,27.383 13.043,27.375 13.041,28.375 16.851,28.383 16.833,31.747 
		17.833,31.753 17.851,28.385 32.957,28.417 32.959,27.417 17.856,27.385 	"/>
</g>
</svg>
