<?xml version="1.0" encoding="utf-8"?>
<!-- Generator: Adobe Illustrator 16.0.4, SVG Export Plug-In . SVG Version: 6.00 Build 0)  -->
<!DOCTYPE svg PUBLIC "-//W3C//DTD SVG 1.1//EN" "http://www.w3.org/Graphics/SVG/1.1/DTD/svg11.dtd">
<svg version="1.1" id="Capa_1" xmlns="http://www.w3.org/2000/svg" xmlns:xlink="http://www.w3.org/1999/xlink" x="0px" y="0px"
	 width="64px" height="64px" viewBox="0 0 64 64" enable-background="new 0 0 64 64" xml:space="preserve">
<g>
	<path d="M42.5,56h-19c-0.144,0-0.284-0.019-0.421-0.043C23.273,56.561,23.833,57,24.5,57h17c0.667,0,1.227-0.439,1.421-1.043
		C42.783,55.981,42.645,56,42.5,56z"/>
	<path d="M22,20.513C22.419,20.195,22.935,20,23.5,20h19c0.565,0,1.081,0.195,1.5,0.513V9.5C44,8.673,43.327,8,42.5,8h-19
		C22.673,8,22,8.673,22,9.5V20.513z M24,10.75c0-0.414,0.336-0.75,0.75-0.75h0.5c0.414,0,0.75,0.336,0.75,0.75v6.5
		c0,0.414-0.336,0.75-0.75,0.75h-0.5C24.336,18,24,17.664,24,17.25V10.75z"/>
	<path d="M44,25.5v-3c0-0.827-0.673-1.5-1.5-1.5h-19c-0.827,0-1.5,0.673-1.5,1.5v3v20v8c0,0.827,0.673,1.5,1.5,1.5h19
		c0.827,0,1.5-0.673,1.5-1.5v-8V25.5z M25.215,49h-0.43C24.352,49,24,48.647,24,48.215v-22.43C24,25.352,24.352,25,24.785,25h0.43
		C25.648,25,26,25.352,26,25.785v22.43C26,48.647,25.648,49,25.215,49z"/>
</g>
</svg>
