<?xml version="1.0" encoding="utf-8"?>
<!-- Generator: Adobe Illustrator 17.0.0, SVG Export Plug-In . SVG Version: 6.00 Build 0)  -->
<!DOCTYPE svg PUBLIC "-//W3C//DTD SVG 1.1//EN" "http://www.w3.org/Graphics/SVG/1.1/DTD/svg11.dtd">
<svg version="1.1" id="Capa_1" xmlns="http://www.w3.org/2000/svg" xmlns:xlink="http://www.w3.org/1999/xlink" x="0px" y="0px"
	 width="64px" height="64px" viewBox="0 0 64 64" enable-background="new 0 0 64 64" xml:space="preserve">
<path d="M19,17v29c0,6.627,5.373,12,12,12h1c6.627,0,12-5.373,12-12V7H19"/>
<circle fill="#FFFFFF" cx="31.688" cy="24.062" r="10.188"/>
<circle cx="31.625" cy="24.125" r="4"/>
<path fill="#FFFFFF" d="M25,40h-3c-0.552,0-1-0.448-1-1l0,0c0-0.552,0.448-1,1-1h3c0.552,0,1,0.448,1,1l0,0
	C26,39.552,25.552,40,25,40z"/>
<path fill="#FFFFFF" d="M33,40h-3c-0.552,0-1-0.448-1-1l0,0c0-0.552,0.448-1,1-1h3c0.552,0,1,0.448,1,1l0,0
	C34,39.552,33.552,40,33,40z"/>
<path fill="#FFFFFF" d="M41,40h-3c-0.552,0-1-0.448-1-1l0,0c0-0.552,0.448-1,1-1h3c0.552,0,1,0.448,1,1l0,0
	C42,39.552,41.552,40,41,40z"/>
<path fill="#FFFFFF" d="M41,12h-3c-0.552,0-1-0.448-1-1l0,0c0-0.552,0.448-1,1-1h3c0.552,0,1,0.448,1,1l0,0
	C42,11.552,41.552,12,41,12z"/>
<path fill="#FFFFFF" d="M41,44h-3c-0.552,0-1-0.448-1-1l0,0c0-0.552,0.448-1,1-1h3c0.552,0,1,0.448,1,1l0,0
	C42,43.552,41.552,44,41,44z"/>
<path fill="#FFFFFF" d="M33,44h-3c-0.552,0-1-0.448-1-1l0,0c0-0.552,0.448-1,1-1h3c0.552,0,1,0.448,1,1l0,0
	C34,43.552,33.552,44,33,44z"/>
<path fill="#FFFFFF" d="M25,44h-3c-0.552,0-1-0.448-1-1l0,0c0-0.552,0.448-1,1-1h3c0.552,0,1,0.448,1,1l0,0
	C26,43.552,25.552,44,25,44z"/>
<path fill="#FFFFFF" d="M25,48h-3c-0.552,0-1-0.448-1-1l0,0c0-0.552,0.448-1,1-1h3c0.552,0,1,0.448,1,1l0,0
	C26,47.552,25.552,48,25,48z"/>
<path fill="#FFFFFF" d="M33,48h-3c-0.552,0-1-0.448-1-1l0,0c0-0.552,0.448-1,1-1h3c0.552,0,1,0.448,1,1l0,0
	C34,47.552,33.552,48,33,48z"/>
<path fill="#FFFFFF" d="M41,48h-3c-0.552,0-1-0.448-1-1l0,0c0-0.552,0.448-1,1-1h3c0.552,0,1,0.448,1,1l0,0
	C42,47.552,41.552,48,41,48z"/>
<line fill="none" stroke="#000000" stroke-width="3" stroke-linecap="round" stroke-miterlimit="10" x1="31.5" y1="36" x2="31.5" y2="33"/>
<line fill="none" stroke="#000000" stroke-width="3" stroke-linecap="round" stroke-miterlimit="10" x1="42" y1="23.5" x2="40" y2="23.5"/>
<line fill="none" stroke="#000000" stroke-width="3" stroke-linecap="round" stroke-miterlimit="10" x1="31.5" y1="11" x2="31.5" y2="15"/>
<line fill="none" stroke="#000000" stroke-width="3" stroke-linecap="round" stroke-miterlimit="10" x1="22" y1="24.5" x2="23" y2="24.5"/>
</svg>
