<?xml version="1.0" encoding="utf-8"?>
<!-- Generator: Adobe Illustrator 16.0.4, SVG Export Plug-In . SVG Version: 6.00 Build 0)  -->
<!DOCTYPE svg PUBLIC "-//W3C//DTD SVG 1.1//EN" "http://www.w3.org/Graphics/SVG/1.1/DTD/svg11.dtd">
<svg version="1.1" id="Capa_1" xmlns="http://www.w3.org/2000/svg" xmlns:xlink="http://www.w3.org/1999/xlink" x="0px" y="0px"
	 width="64px" height="64px" viewBox="0 0 64 64" enable-background="new 0 0 64 64" xml:space="preserve">
<path d="M50.887,19.216l-7.447-7.446c0,0,2.367,1.228,8.362-2.628c0.352,0.729,0.937,1.317,1.662,1.675
	C51.503,13.991,50.266,17.069,50.887,19.216z M12.914,42.298c0.003,0.008,1.136,2.448-2.627,8.347
	c0.74,0.355,1.337,0.952,1.696,1.69c2.982-1.768,5.727-2.685,8.376-2.592l0-0.001l30.526-30.526l-7.445-7.446L12.914,42.298
	L12.914,42.298z M8.729,51.279c-1.449,0-2.627,1.179-2.627,2.628c0,1.448,1.178,2.627,2.627,2.627s2.627-1.179,2.627-2.627
	C11.356,52.458,10.178,51.279,8.729,51.279z M55.059,4.949c-1.448,0-2.627,1.178-2.627,2.627s1.179,2.627,2.627,2.627
	s2.627-1.178,2.627-2.627S56.507,4.949,55.059,4.949z"/>
</svg>
