<?xml version="1.0" encoding="utf-8"?>
<!-- Generator: Adobe Illustrator 16.0.4, SVG Export Plug-In . SVG Version: 6.00 Build 0)  -->
<!DOCTYPE svg PUBLIC "-//W3C//DTD SVG 1.1//EN" "http://www.w3.org/Graphics/SVG/1.1/DTD/svg11.dtd">
<svg version="1.1" id="Capa_1" xmlns="http://www.w3.org/2000/svg" xmlns:xlink="http://www.w3.org/1999/xlink" x="0px" y="0px"
	 width="64px" height="64px" viewBox="0 0 64 64" enable-background="new 0 0 64 64" xml:space="preserve">
<path d="M23.38,39.992c-0.611-0.611-2.079-0.797-1.946-0.268c0.11,0.439-0.092,0.771-0.351,1.014c0,0,0,0-0.001,0
	c-0.24-0.036-0.476-0.049-0.707-0.033c-0.001,0-0.003,0-0.004,0c-0.217,0.016-0.427,0.052-0.63,0.109
	c-0.019,0.006-0.039,0.009-0.058,0.014c-0.182,0.057-0.354,0.134-0.52,0.227c-0.033,0.018-0.068,0.027-0.1,0.047
	c-0.189,0.114-0.367,0.248-0.527,0.408L5.982,54.062c-1.207,1.207-1.509,3.707,0.069,5.285l0.258,0.258
	c1.579,1.578,4.259,1.457,5.466,0.25l12.554-12.554c0.16-0.159,0.29-0.34,0.398-0.532c0.018-0.033,0.028-0.07,0.044-0.104
	c0.085-0.17,0.156-0.347,0.205-0.534c0.005-0.02,0.006-0.04,0.01-0.061c0.104-0.438,0.106-0.912,0.016-1.397
	c0.333-0.465,1.074-0.462,1.074-0.462c0.397-0.396,0.128-1.395-0.483-2.006L23.38,39.992z M19.287,48.326
	c-3.391,2.936-6.293,6.392-9.836,9.158c-1.021,0.797-2.473-0.633-1.439-1.439c3.543-2.766,6.445-6.222,9.836-9.158
	C18.835,46.032,20.281,47.465,19.287,48.326z M56.214,44.379c-0.046-0.046-0.104-0.066-0.153-0.104l-1.362,1.363
	c0.034,0.051,0.057,0.107,0.103,0.153l1.225,1.226l-4.301,4.301L30.028,35.589c-0.399-0.29-0.947-0.243-1.294,0.103l-3.862,3.86
	c-0.046,0.046-0.068,0.104-0.103,0.155l1.362,1.361c0.052-0.034,0.109-0.058,0.155-0.104l3.258-3.257l21.694,15.729
	c0.177,0.127,0.383,0.189,0.588,0.189c0.258,0,0.514-0.1,0.707-0.293l5.611-5.611c0.391-0.391,0.391-1.022,0-1.414L56.214,44.379z
	 M23.649,3.316l35.978,35.979l-8.947,8.946L14.702,12.263L23.649,3.316z"/>
</svg>
