<?xml version="1.0" encoding="iso-8859-1"?>
<!-- Generator: Adobe Illustrator 17.0.0, SVG Export Plug-In . SVG Version: 6.00 Build 0)  -->
<!DOCTYPE svg PUBLIC "-//W3C//DTD SVG 1.1//EN" "http://www.w3.org/Graphics/SVG/1.1/DTD/svg11.dtd">
<svg version="1.1" id="Capa_1" xmlns="http://www.w3.org/2000/svg" xmlns:xlink="http://www.w3.org/1999/xlink" x="0px" y="0px"
	 width="64px" height="64px" viewBox="0 0 64 64" style="enable-background:new 0 0 64 64;" xml:space="preserve">
<g>
	<path d="M60.387,23.746L60.387,23.746l-7.481-7.481l-7.481,7.481h-0.038V48h-0.5h-0.5V23.746H27.19H5.592V48h-0.5h-0.5h-2.25v3
		h48.333h4.833h8.083v-3h-3.205V23.746z M53.092,24.583c1.335,0,2.417,1.791,2.417,4c0,2.209-1.082,4-2.417,4s-2.417-1.791-2.417-4
		C50.675,26.374,51.757,24.583,53.092,24.583z M37.092,29.405V43H27.19h-0.598V29.405h0.598H37.092z M12.092,29.405h10.5V43h-10.5
		V29.405z M50.675,48v-4.667c0-1.335,1.082-2.417,2.417-2.417s2.417,1.082,2.417,2.417V48H50.675z"/>
	<polygon points="5.592,21.875 44.387,21.875 49.967,16.266 11.154,16.266 	"/>
</g>
</svg>
