<?xml version="1.0" encoding="utf-8"?>
<!-- Generator: Adobe Illustrator 16.0.4, SVG Export Plug-In . SVG Version: 6.00 Build 0)  -->
<!DOCTYPE svg PUBLIC "-//W3C//DTD SVG 1.1//EN" "http://www.w3.org/Graphics/SVG/1.1/DTD/svg11.dtd">
<svg version="1.1" id="Capa_1" xmlns="http://www.w3.org/2000/svg" xmlns:xlink="http://www.w3.org/1999/xlink" x="0px" y="0px"
	 width="64px" height="64px" viewBox="0 0 64 64" enable-background="new 0 0 64 64" xml:space="preserve">
<g>
	<path d="M4,12v39h56V12H4z M51.292,48.091c-0.176,0.521-0.548,0.821-1.022,0.821c-0.356,0-0.701-0.172-0.9-0.449
		c-0.204-0.283-0.24-0.65-0.103-1.062c0.096-0.286,0.209-0.592,0.331-0.906c0.559-0.219,0.989-0.256,1.283-0.104
		c0.285,0.146,0.501,0.498,0.646,1.049C51.449,47.655,51.361,47.886,51.292,48.091z M49.323,20.634
		c-0.404,0.529-0.518,1.219-0.319,1.945c0.171,0.624,0.348,1.23,0.524,1.825c-1.254-0.472-2.153-1.675-2.153-3.092
		c0-1.827,1.486-3.313,3.312-3.313c1.827,0,3.313,1.486,3.313,3.313c0,0.677-0.206,1.307-0.557,1.832
		c-0.162-0.553-0.323-1.115-0.481-1.693c-0.328-1.2-1.241-1.627-1.986-1.627C50.328,19.824,49.71,20.127,49.323,20.634z M13,48H7v-1
		h6V48z M24.5,48.833c-9.665,0-17.5-7.835-17.5-17.5s7.835-17.5,17.5-17.5S42,21.668,42,31.333S34.165,48.833,24.5,48.833z
		 M51.335,45.5c-0.365-0.187-0.784-0.241-1.269-0.166c0.177-0.423,0.36-0.854,0.551-1.301c1.327-3.102,2.831-6.617,2.528-9.205
		c-0.384-3.277-1.224-6.012-2.111-8.908c-0.357-1.163-0.722-2.35-1.065-3.605c-0.116-0.423-0.064-0.794,0.149-1.074
		c0.199-0.261,0.52-0.417,0.858-0.417c0.233,0,0.802,0.087,1.021,0.891c0.341,1.244,0.694,2.42,1.04,3.571
		c0.874,2.906,1.7,5.65,2.123,8.9c0.381,2.922-1.217,6.996-2.627,10.592c-0.18,0.458-0.35,0.896-0.517,1.331
		C51.828,45.843,51.604,45.637,51.335,45.5z M57,48h-3v-1h3V48z"/>
	<path d="M24.5,15c-9.021,0-16.333,7.312-16.333,16.333S15.479,47.666,24.5,47.666s16.333-7.312,16.333-16.333S33.521,15,24.5,15z
		 M10.875,24.375c2.25-4.875,5.875-6.25,5.875-6.25l3.375,6l-2.75,3L10.875,24.375z M24.5,37.875c-3.728,0-6.75-3.021-6.75-6.75
		c0-3.728,3.022-6.75,6.75-6.75s6.75,3.022,6.75,6.75C31.25,34.854,28.228,37.875,24.5,37.875z"/>
	<circle cx="24.562" cy="30.812" r="1.312"/>
</g>
</svg>
