<?xml version="1.0" encoding="utf-8"?>
<!-- Generator: Adobe Illustrator 16.0.4, SVG Export Plug-In . SVG Version: 6.00 Build 0)  -->
<!DOCTYPE svg PUBLIC "-//W3C//DTD SVG 1.1//EN" "http://www.w3.org/Graphics/SVG/1.1/DTD/svg11.dtd">
<svg version="1.1" id="Capa_1" xmlns="http://www.w3.org/2000/svg" xmlns:xlink="http://www.w3.org/1999/xlink" x="0px" y="0px"
	 width="64px" height="64px" viewBox="0 0 64 64" enable-background="new 0 0 64 64" xml:space="preserve">
<polygon points="56.117,6.502 24.219,38.399 25.549,39.745 57.455,7.84 "/>
<path d="M26.076,41.587l-0.057,0.057l-3.637-3.681c-0.895-0.515-2.242-0.604-2.096-0.031c0.143,0.559-0.119,0.978-0.454,1.287
	c-1.245-0.184-2.445,0.144-3.298,0.979L5.281,52.145c-1.563,1.532-1.955,3.707,0.089,5.713l0.333,0.326
	c2.044,2.006,3.514,2.852,5.077,1.318l13.255-11.947c0.846-0.831,1.113-2.065,0.871-3.34c0.43-0.592,1.391-0.587,1.391-0.587
	C26.709,43.223,26.56,42.327,26.076,41.587z M6.418,55.086c-0.118,0-0.236-0.041-0.331-0.125c-0.207-0.183-0.227-0.499-0.043-0.706
	l10.227-11.578c0.183-0.207,0.5-0.227,0.706-0.044c0.207,0.183,0.227,0.499,0.043,0.706L6.792,54.917
	C6.694,55.029,6.556,55.086,6.418,55.086z M8.998,55.686c-0.128,0-0.256-0.049-0.354-0.146c-0.195-0.195-0.195-0.512,0-0.707
	L19.567,43.91c0.195-0.195,0.512-0.195,0.707,0s0.195,0.512,0,0.707L9.352,55.539C9.254,55.637,9.126,55.686,8.998,55.686z
	 M21.507,47.914L9.929,58.141c-0.095,0.084-0.213,0.125-0.331,0.125c-0.138,0-0.276-0.057-0.375-0.169
	c-0.183-0.207-0.164-0.523,0.043-0.706l11.578-10.227c0.208-0.183,0.523-0.163,0.706,0.044
	C21.733,47.415,21.714,47.731,21.507,47.914z"/>
<polygon points="58.417,4.667 56.117,6.501 57.455,7.839 59.312,5.542 "/>
</svg>
