<?xml version="1.0" encoding="utf-8"?>
<!-- Generator: Adobe Illustrator 16.0.0, SVG Export Plug-In . SVG Version: 6.00 Build 0)  -->
<!DOCTYPE svg PUBLIC "-//W3C//DTD SVG 1.1//EN" "http://www.w3.org/Graphics/SVG/1.1/DTD/svg11.dtd">
<svg version="1.1" id="Layer_1" xmlns="http://www.w3.org/2000/svg" xmlns:xlink="http://www.w3.org/1999/xlink" x="0px" y="0px"
	 width="50px" height="50px" viewBox="0 0 50 50" enable-background="new 0 0 50 50" xml:space="preserve">
<g>
	<path d="M38.665,36.91c0.04-0.535-0.136-1.085-0.547-1.495l-4.505-4.506c-0.399-0.399-0.93-0.578-1.452-0.551l-1.76-1.76
		c3.35-4.247,3.075-10.442-0.844-14.361c-4.224-4.225-11.098-4.224-15.321,0c-4.223,4.223-4.224,11.096,0,15.321
		c3.919,3.918,10.115,4.194,14.362,0.842l1.76,1.761c-0.026,0.522,0.151,1.053,0.551,1.452l4.507,4.506
		c0.409,0.41,0.959,0.586,1.494,0.546c0.501,0.377,1.203,0.36,1.659-0.096C39.025,38.114,39.042,37.41,38.665,36.91z M27.755,27.754
		c-3.23,3.23-8.485,3.23-11.716,0c-3.23-3.229-3.23-8.486,0-11.716s8.485-3.23,11.716,0S30.985,24.525,27.755,27.754z"/>
	<path d="M18.95,21.431v4.492h5.684v-4.492l-2.842-2.382L18.95,21.431z M21.494,24.545h-1.167v-1.166h1.167V24.545z M21.494,22.784
		h-1.167v-1.167h1.167V22.784z M22.089,21.618h1.167v1.167h-1.167V21.618z M22.089,23.379h1.167v1.166h-1.167V23.379z"/>
	<path d="M22.175,16.806c-0.222-0.186-0.545-0.186-0.767,0l-4.261,3.574c-0.252,0.211-0.285,0.587-0.074,0.839
		c0.118,0.141,0.287,0.213,0.457,0.213c0.135,0,0.271-0.045,0.382-0.139l3.88-3.252l3.879,3.252c0.253,0.212,0.629,0.178,0.84-0.074
		s0.178-0.628-0.074-0.839L22.175,16.806z"/>
</g>
</svg>
