<?xml version="1.0" encoding="iso-8859-1"?>
<!-- Generator: Adobe Illustrator 17.0.0, SVG Export Plug-In . SVG Version: 6.00 Build 0)  -->
<!DOCTYPE svg PUBLIC "-//W3C//DTD SVG 1.1//EN" "http://www.w3.org/Graphics/SVG/1.1/DTD/svg11.dtd">
<svg version="1.1" id="Capa_1" xmlns="http://www.w3.org/2000/svg" xmlns:xlink="http://www.w3.org/1999/xlink" x="0px" y="0px"
	 width="64px" height="64px" viewBox="0 0 64 64" style="enable-background:new 0 0 64 64;" xml:space="preserve">
<g>
	<path d="M36.731,5.844c-2.193-2.192-5.655-2.303-8.009-0.385c-0.158,0.128-0.323,0.239-0.47,0.385l-23.7,23.701
		c-1.172,1.171-1.171,3.071,0,4.242c0.146,0.146,0.305,0.275,0.471,0.385c0.499,0.33,1.075,0.494,1.651,0.494
		s1.152-0.165,1.651-0.494c0.166-0.11,0.199-0.238,0.345-0.385l1.831-1.956v13.7c0,6.039,5.588,10.94,11.904,10.94h21.119
		c6.19,0,10.976-4.798,10.976-10.94v-13.19l1.572,1.447c0.585,0.586,1.416,0.879,2.184,0.879s1.567-0.293,2.152-0.879
		c1.172-1.171,1.188-3.071,0.016-4.242L36.731,5.844z M48.5,45.532c0,2.834-2.094,4.94-4.976,4.94H22.404
		c-3.012,0-5.904-2.202-5.904-4.94v-19.7l15.746-15.745L48.5,26.342V45.532z"/>
	<path d="M26.934,30.843c0,1.531,0.395,2.97,1.086,4.225c-0.072,0.058-0.147,0.11-0.213,0.177l-7.528,7.665
		c-0.967,0.985-0.953,2.568,0.032,3.536c0.487,0.478,1.12,0.716,1.752,0.716c0.647,0,1.294-0.25,1.784-0.748l7.528-7.665
		c0.057-0.059,0.1-0.125,0.15-0.188c1.248,0.681,2.678,1.069,4.197,1.069c4.845,0,8.787-3.942,8.787-8.788
		c0-4.845-3.942-8.787-8.787-8.787C30.875,22.056,26.934,25.997,26.934,30.843z M35.721,25.056c3.191,0,5.787,2.596,5.787,5.787
		c0,3.191-2.596,5.788-5.787,5.788c-3.191,0-5.788-2.596-5.788-5.788C29.934,27.652,32.53,25.056,35.721,25.056z"/>
</g>
</svg>
