<?xml version="1.0" encoding="iso-8859-1"?>
<!-- Generator: Adobe Illustrator 16.0.0, SVG Export Plug-In . SVG Version: 6.00 Build 0)  -->
<!DOCTYPE svg PUBLIC "-//W3C//DTD SVG 1.1//EN" "http://www.w3.org/Graphics/SVG/1.1/DTD/svg11.dtd">
<svg version="1.1" id="Capa_1" xmlns="http://www.w3.org/2000/svg" xmlns:xlink="http://www.w3.org/1999/xlink" x="0px" y="0px"
	 width="500px" height="500px" viewBox="0 0 500 500" style="enable-background:new 0 0 500 500;" xml:space="preserve">
<g>
	<polygon points="337.491,8.838 302.496,8.838 302.496,259.951 13.738,259.951 13.738,288.84 337.491,288.84 	"/>
	<path d="M354.99,70.099v209.992l37.191,0.008v42.487c0,8.68-7.061,15.739-15.74,15.739h-39.72c0.47-1.342,0.689-2.084,0.686-2.084
		c3.35-12.178,5.353-25.012,5.353-38.656H13.737c0,146.013,112.35,193.577,112.35,193.577h98.466v-36.623l9.425-18.096l0.158,0.001
		c2.956-0.879,5.983-1.662,8.834-2.746c39.608-15.078,63.93-42.116,77.954-63.894h55.518c26.037,0,47.22-21.183,47.22-47.219
		v-42.479l36.365,0.008l26.236-210.008L354.99,70.099z"/>
	<rect x="354.99" y="35.088" width="131.247" height="26.242"/>
</g>
</svg>
