<?xml version="1.0" encoding="utf-8"?>
<!-- Generator: Adobe Illustrator 16.0.4, SVG Export Plug-In . SVG Version: 6.00 Build 0)  -->
<!DOCTYPE svg PUBLIC "-//W3C//DTD SVG 1.1//EN" "http://www.w3.org/Graphics/SVG/1.1/DTD/svg11.dtd">
<svg version="1.1" id="Capa_1" xmlns="http://www.w3.org/2000/svg" xmlns:xlink="http://www.w3.org/1999/xlink" x="0px" y="0px"
	 width="64px" height="64px" viewBox="0 0 64 64" enable-background="new 0 0 64 64" xml:space="preserve">
<g>
	<path d="M6,5v53h52V5H6z M9,8h45v11H9V8z M9,22h45v11H9V22z M55,54H40h-2H9V36h29h2h15V54z"/>
	<path d="M10,53h28V37H10V53z M33,42c0-0.553,0.447-1,1-1s1,0.447,1,1v6c0,0.553-0.447,1-1,1s-1-0.447-1-1V42z"/>
	<path d="M39,53h15V37H39V53z M42,42c0-0.553,0.447-1,1-1s1,0.447,1,1v6c0,0.553-0.447,1-1,1s-1-0.447-1-1V42z"/>
	<path d="M18.82,17.937c5.955,0,5.956-3.747,5.956-6.937H12.865C12.865,14.19,12.865,17.937,18.82,17.937z"/>
	<path d="M44.82,31.937c5.955,0,5.955-3.747,5.955-6.937h-11.91C38.865,28.19,38.865,31.937,44.82,31.937z"/>
	<path d="M17.771,25.629c-1.419,0-2.295,0.292-2.581,0.478c0.286,0.19,1.17,0.494,2.577,0.5l0.038,0.5v-0.5
		c1.322,0,2.257-0.275,2.561-0.478C20.06,25.92,19.113,25.634,17.771,25.629C17.771,25.629,17.771,25.629,17.771,25.629z"/>
	<path d="M17.805,27.606h-0.042c-0.711-0.003-1.675-0.098-2.436-0.353l0.469,4.232h0.017c0.083,0.471,0.962,0.843,2.046,0.843
		c1.139,0,2.062-0.409,2.062-0.914c0-0.018-0.01-0.035-0.012-0.052l0.413-4.131C19.551,27.506,18.542,27.606,17.805,27.606z"/>
	<path d="M28.805,27.606h-0.042c-0.711-0.003-1.675-0.098-2.436-0.353l0.469,4.232h0.017c0.083,0.471,0.962,0.843,2.046,0.843
		c1.139,0,2.062-0.409,2.062-0.914c0-0.018-0.01-0.035-0.012-0.052l0.413-4.131C30.551,27.506,29.542,27.606,28.805,27.606z"/>
	<path d="M28.771,25.629c-1.419,0-2.295,0.292-2.581,0.478c0.286,0.19,1.17,0.494,2.577,0.5l0.038,0.5v-0.5
		c1.322,0,2.257-0.275,2.561-0.478C31.06,25.92,30.113,25.634,28.771,25.629C28.771,25.629,28.771,25.629,28.771,25.629z"/>
	<path d="M45.311,12.527c0.044-0.583,0.047-1.119,0.047-1.527h-8.584c0,1.534,0.001,4.814,2.319,5.98
		c-1.372,0.09-2.319,0.269-2.319,0.477c0,0.298,1.922,0.54,4.291,0.54c2.371,0,4.293-0.242,4.293-0.54
		c0-0.208-0.946-0.387-2.318-0.477c0.499-0.25,0.886-0.603,1.193-1.011c1.827-0.063,2.644-0.835,2.644-1.789
		C46.876,13.438,46.388,12.803,45.311,12.527z M45.969,14.181c-0.01,0.515,0.015,0.877-1.271,0.998
		c0.279-0.607,0.445-1.272,0.536-1.918C45.979,13.431,45.978,13.754,45.969,14.181z"/>
</g>
</svg>
