<?xml version="1.0" encoding="utf-8"?>
<!-- Generator: Adobe Illustrator 16.0.4, SVG Export Plug-In . SVG Version: 6.00 Build 0)  -->
<!DOCTYPE svg PUBLIC "-//W3C//DTD SVG 1.1//EN" "http://www.w3.org/Graphics/SVG/1.1/DTD/svg11.dtd">
<svg version="1.1" id="Capa_1" xmlns="http://www.w3.org/2000/svg" xmlns:xlink="http://www.w3.org/1999/xlink" x="0px" y="0px"
	 width="64px" height="64px" viewBox="0 0 64 64" enable-background="new 0 0 64 64" xml:space="preserve">
<g>
	<path d="M39.861,32.766c2.228-1.483,4.576-2.457,6.105-2.558l-6.755-8.77l-0.038,0.023c-0.283-0.285-0.696-0.429-1.227-0.423
		c-0.418,0.004-0.898,0.091-1.421,0.249c-2.094-3.602-5.88-8.582-8.397-10.792c-1.8-1.581-4.664-1.128-7.179-0.786
		C19.809,6.93,17.333,5,14.453,5c-3.961,0-7.172,3.644-7.172,8.139c0,4.495,3.211,8.139,7.172,8.139
		c3.185,0,5.881-2.358,6.817-5.618c1.591-0.252,3.353-0.586,4.139,0.185c1.166,1.145,4.25,5.713,5.958,8.59
		c-0.352,0.377-0.63,0.752-0.809,1.112c-0.23,0.464-0.285,0.894-0.164,1.271l-0.056,0.034l4.931,10.298
		c0.169-0.292,0.381-0.607,0.671-0.963C36.876,35.042,38.268,33.826,39.861,32.766z"/>
	<path d="M47.708,32.47c-0.012,0.028-0.02,0.056-0.032,0.084l0.066-0.04L47.708,32.47z"/>
	<path d="M46.884,31.373c-0.077-0.116-0.323-0.185-0.657-0.185c-1.31,0-3.646,0.968-5.811,2.409c-1.491,0.993-2.84,2.167-3.7,3.223
		c-0.936,1.146-0.983,1.748-0.878,1.906c0.076,0.113,0.319,0.182,0.65,0.182c1.318,0,3.668-0.976,5.848-2.426
		C45.752,34.208,47.222,31.882,46.884,31.373z"/>
	<path d="M44.359,44.809L43.2,42.242c-0.228-0.502-0.818-0.728-1.323-0.499c-0.503,0.228-0.727,0.819-0.499,1.323l1.159,2.566
		c0.167,0.369,0.53,0.588,0.912,0.588c0.138,0,0.277-0.028,0.411-0.089C44.363,45.904,44.587,45.312,44.359,44.809z"/>
	<path d="M46.727,53.004c-0.342-0.754-1.234-1.088-1.986-0.744c-0.754,0.343-1.087,1.232-0.744,1.986l3.014,6.625
		c0.251,0.553,0.796,0.879,1.366,0.879c0.208,0,0.419-0.043,0.62-0.135c0.754-0.343,1.087-1.232,0.744-1.986L46.727,53.004z"/>
	<path d="M51.469,45.672c0.169,0.364,0.53,0.578,0.907,0.578c0.141,0,0.284-0.03,0.421-0.094c0.501-0.232,0.718-0.827,0.484-1.328
		l-4.014-8.625c-0.231-0.5-0.825-0.718-1.328-0.484c-0.501,0.232-0.718,0.827-0.484,1.328L51.469,45.672z"/>
	<path d="M53.731,54.61l-5.014-10.625c-0.354-0.75-1.25-1.07-1.996-0.717c-0.75,0.354-1.07,1.247-0.717,1.996l5.014,10.625
		c0.256,0.543,0.795,0.86,1.357,0.86c0.215,0,0.433-0.046,0.639-0.144C53.765,56.253,54.085,55.359,53.731,54.61z"/>
</g>
</svg>
