<?xml version="1.0" encoding="utf-8"?>
<!-- Generator: Adobe Illustrator 17.0.0, SVG Export Plug-In . SVG Version: 6.00 Build 0)  -->
<!DOCTYPE svg PUBLIC "-//W3C//DTD SVG 1.1//EN" "http://www.w3.org/Graphics/SVG/1.1/DTD/svg11.dtd">
<svg version="1.1" id="Capa_1" xmlns="http://www.w3.org/2000/svg" xmlns:xlink="http://www.w3.org/1999/xlink" x="0px" y="0px"
	 width="64px" height="64px" viewBox="0 0 64 64" enable-background="new 0 0 64 64" xml:space="preserve">
<g>
	<path d="M4.272,35.501c0.499,0.33,1.075,0.494,1.651,0.494s1.152-0.165,1.651-0.494c0.166-0.11,0.324-0.238,0.47-0.385L10,33.16
		v13.7C10,52.898,15.337,58,21.654,58h21.119C48.963,58,54,53.002,54,46.86v-13.19l1.447,1.447c0.585,0.586,1.354,0.879,2.121,0.879
		s1.536-0.293,2.121-0.879c1.172-1.171,1.172-3.071,0-4.242L35.988,7.172c-2.193-2.192-5.659-2.303-8.013-0.385
		c-0.158,0.128-0.325,0.239-0.472,0.385L3.802,30.874c-1.172,1.171-1.172,3.071,0,4.242C3.948,35.263,4.106,35.391,4.272,35.501z
		 M48,27.669v19.19c0,2.834-2.345,5.14-5.227,5.14H21.654C18.642,52,16,49.598,16,46.86v-19.7l15.746-15.745L48,27.669z"/>
</g>
</svg>
