<?xml version="1.0" encoding="utf-8"?>
<!-- Generator: Adobe Illustrator 16.0.4, SVG Export Plug-In . SVG Version: 6.00 Build 0)  -->
<!DOCTYPE svg PUBLIC "-//W3C//DTD SVG 1.1//EN" "http://www.w3.org/Graphics/SVG/1.1/DTD/svg11.dtd">
<svg version="1.1" id="Capa_1" xmlns="http://www.w3.org/2000/svg" xmlns:xlink="http://www.w3.org/1999/xlink" x="0px" y="0px"
	 width="64px" height="64px" viewBox="0 0 64 64" enable-background="new 0 0 64 64" xml:space="preserve">
<g>
	<path d="M39,52.5c0,3.032-2.468,5.5-5.5,5.5h-3c-3.033,0-5.5-2.468-5.5-5.5v-3.025c-1.397,1.263-2.25,2.908-2.25,4.715
		c0,3.97,4.09,7.188,9.135,7.188s9.135-3.219,9.135-7.188c0-1.706-0.759-3.271-2.02-4.503V52.5z"/>
	<path d="M56.412,27.933c-2.684-5.773-3.964-8.676-6.403-14.513c-0.034,0.002-0.069,0.004-0.104,0.007l-0.155-0.365l-3.955-0.007
		L35,13.036V13.5c0,0.827-0.673,1.5-1.5,1.5h-3c-0.827,0-1.5-0.673-1.5-1.5v-0.474l-10.444-0.019L14.25,13l-0.177,0.425
		c-0.026-0.002-0.053-0.003-0.08-0.005c-2.44,5.836-3.721,8.74-6.404,14.513C23.816,29.467,40.186,29.467,56.412,27.933z M17.491,16
		h29.352c0.781,2.157,1.527,4.128,2.62,6.947c-11.74,0.722-22.851,0.722-34.592,0C15.964,20.128,16.71,18.157,17.491,16z"/>
	<path d="M7,29v3.083C7,34.246,8.754,36,10.917,36h14.108h1.025C26.032,36.166,26,36.329,26,36.5v16c0,2.481,2.019,4.5,4.5,4.5h3
		c2.481,0,4.5-2.019,4.5-4.5v-16c0-0.171-0.032-0.334-0.051-0.5h1.025h14.108C55.246,36,57,34.246,57,32.083V29
		C44.417,30.583,19.25,30.583,7,29z"/>
	<ellipse cx="32.094" cy="21.25" rx="2.469" ry="1"/>
	<path d="M27.344,10.687c0.569,0,1.07-0.272,1.396-0.687H29h1v3.5c0,0.276,0.224,0.5,0.5,0.5h3c0.275,0,0.5-0.224,0.5-0.5V10h0.948
		c0.017,0.021,0.034,0.042,0.052,0.063c0.327,0.378,0.805,0.624,1.344,0.624c0.984,0,1.781-0.797,1.781-1.781
		c0-0.984-0.797-1.781-1.781-1.781c-0.539,0-1.017,0.245-1.344,0.624C34.933,7.827,34.871,7.911,34.818,8H34V6.67
		c-0.216-0.11-0.807-0.303-2-0.495c-1.194,0.191-1.784,0.385-2,0.495V8h-1h-0.13c-0.311-0.522-0.875-0.875-1.526-0.875
		c-0.983,0-1.781,0.797-1.781,1.781C25.563,9.89,26.36,10.687,27.344,10.687z"/>
</g>
</svg>
