<?xml version="1.0" encoding="iso-8859-1"?>
<!-- Generator: Adobe Illustrator 17.0.0, SVG Export Plug-In . SVG Version: 6.00 Build 0)  -->
<!DOCTYPE svg PUBLIC "-//W3C//DTD SVG 1.1//EN" "http://www.w3.org/Graphics/SVG/1.1/DTD/svg11.dtd">
<svg version="1.1" id="Capa_1" xmlns="http://www.w3.org/2000/svg" xmlns:xlink="http://www.w3.org/1999/xlink" x="0px" y="0px"
	 width="64px" height="64px" viewBox="0 0 64 64" style="enable-background:new 0 0 64 64;" xml:space="preserve">
<g>
	<path d="M36.326,18.69l-0.002-0.071C36.323,18.33,35.949,18,35.414,18h-25.19c-0.535,0-0.909,0.182-0.911,0.47L8.595,31h28.449
		L36.326,18.69z"/>
	<path d="M10.592,47h14V37h7.369l0.021,10h3.61V34h-25V47z M12.592,37h9v8h-9V37z"/>
	<path d="M30.557,42.281c-0.106-0.046-0.223-0.073-0.346-0.073c-0.479,0-0.868,0.388-0.868,0.868s0.388,0.868,0.868,0.868
		c0.125,0,0.242-0.027,0.35-0.075c0.305-0.135,0.518-0.438,0.518-0.793C31.078,42.72,30.864,42.415,30.557,42.281z"/>
	<path d="M50.83,2H14.353c-6.627,0-12,5.373-12,12v36.477c0,6.627,5.373,12,12,12H50.83c6.627,0,12-5.373,12-12V14
		C62.83,7.373,57.458,2,50.83,2z M53.858,8.056c0,0,2.216-1.314,2.901-0.689l0.032,0.029c0.685,0.625-0.42,2.952-0.42,2.952
		c-0.351,0.385-0.758,0.666-1.164,0.833c-0.549-0.768-1.255-1.413-2.072-1.891C53.264,8.871,53.507,8.441,53.858,8.056z
		 M49.757,4.67h0.044c0.927,0,1.679,2.464,1.679,2.464c0,0.518-0.109,0.998-0.295,1.395c-0.454-0.098-0.923-0.152-1.405-0.152
		s-0.952,0.054-1.405,0.152c-0.186-0.397-0.295-0.877-0.295-1.395C48.078,7.134,48.83,4.67,49.757,4.67z M48.804,9.161
		c0.318-0.052,0.642-0.086,0.975-0.086s0.657,0.034,0.975,0.086c0.827,0.136,1.597,0.439,2.273,0.878
		c0.551,0.358,1.037,0.803,1.443,1.318c0.61,0.774,1.03,1.702,1.197,2.718c0.052,0.318,0.086,0.642,0.086,0.975
		c0,0.333-0.034,0.657-0.086,0.975c-0.167,1.015-0.587,1.943-1.197,2.718c-0.405,0.514-0.892,0.96-1.443,1.318
		c-0.676,0.439-1.446,0.742-2.273,0.878c-0.318,0.052-0.642,0.086-0.975,0.086s-0.657-0.034-0.975-0.086
		c-0.827-0.136-1.597-0.439-2.273-0.878c-0.551-0.358-1.037-0.803-1.443-1.318c-0.61-0.774-1.03-1.702-1.197-2.718
		c-0.052-0.318-0.086-0.642-0.086-0.975c0-0.333,0.034-0.657,0.086-0.975c0.167-1.015,0.587-1.943,1.197-2.718
		c0.405-0.514,0.892-0.96,1.443-1.318C47.206,9.6,47.976,9.298,48.804,9.161z M56.371,19.751c0,0,1.106,2.327,0.42,2.952
		l-0.032,0.029c-0.685,0.625-2.901-0.689-2.901-0.689c-0.351-0.384-0.594-0.815-0.724-1.236c0.817-0.478,1.523-1.123,2.072-1.891
		C55.613,19.085,56.02,19.366,56.371,19.751z M51.48,22.966c0,0-0.752,2.464-1.679,2.464h-0.044c-0.927,0-1.679-2.464-1.679-2.464
		c0-0.518,0.109-0.998,0.295-1.395c0.454,0.098,0.923,0.152,1.405,0.152s0.952-0.054,1.405-0.152
		C51.37,21.968,51.48,22.448,51.48,22.966z M46.424,20.808c-0.13,0.42-0.373,0.851-0.724,1.236c0,0-2.216,1.314-2.901,0.689
		l-0.032-0.029c-0.685-0.625,0.42-2.952,0.42-2.952c0.351-0.385,0.758-0.666,1.164-0.833C44.9,19.685,45.606,20.33,46.424,20.808z
		 M42.767,7.397l0.032-0.029C43.484,6.742,45.7,8.056,45.7,8.056c0.351,0.385,0.594,0.815,0.724,1.236
		c-0.817,0.478-1.523,1.123-2.072,1.891c-0.407-0.167-0.814-0.449-1.164-0.833C43.187,10.349,42.082,8.022,42.767,7.397z
		 M39.399,15.028c0-0.927,2.464-1.679,2.464-1.679c0.518,0,0.998,0.109,1.395,0.295c-0.098,0.454-0.152,0.923-0.152,1.405
		s0.054,0.952,0.152,1.405c-0.397,0.186-0.877,0.295-1.395,0.295c0,0-2.464-0.752-2.464-1.679V15.028z M6.9,18.922
		C6.929,17.277,8.413,16,10.224,16h25.19c1.811,0,3.295,1.277,3.325,2.922L39.6,34h-2.008v15h-5.306h-1.714H26.25h-1.811H8.592V34
		H6.039L6.9,18.922z M57.015,54.75h-2.173v5.333h-4.5V54.75h-3.5v5.333h-4.5V54.75h-3.5v5.333h-4.5V54.75h-3.5v5.333h-4.5V54.75
		h-3.5v5.333h-4.5V54.75h-3.5v5.333h-4.5V54.75H8.008v-2h2.333v-2.417h4.5v2.417h3.5v-2.417h4.5v2.417h3.5v-2.417h4.5v2.417h3.5
		v-2.417h4.5v2.417h3.5v-2.417h4.5v2.417h3.5v-2.417h4.5v2.417h2.173V54.75z M60.159,15.028v0.044c0,0.927-2.464,1.679-2.464,1.679
		c-0.518,0-0.998-0.109-1.395-0.295c0.098-0.454,0.152-0.923,0.152-1.405s-0.054-0.952-0.152-1.405
		c0.397-0.186,0.877-0.295,1.395-0.295C57.695,13.349,60.159,14.101,60.159,15.028z"/>
</g>
</svg>
