<?xml version="1.0" encoding="utf-8"?>
<!-- Generator: Adobe Illustrator 17.0.0, SVG Export Plug-In . SVG Version: 6.00 Build 0)  -->
<!DOCTYPE svg PUBLIC "-//W3C//DTD SVG 1.1//EN" "http://www.w3.org/Graphics/SVG/1.1/DTD/svg11.dtd">
<svg version="1.1" id="Capa_1" xmlns="http://www.w3.org/2000/svg" xmlns:xlink="http://www.w3.org/1999/xlink" x="0px" y="0px"
	 width="64px" height="64px" viewBox="0 0 64 64" enable-background="new 0 0 64 64" xml:space="preserve">
<g>
	<path d="M53.549,4H11.817C8.816,4,6.358,6.206,6.31,8.931L4.883,34H8v25h9h2.84H27h3h27V34h3.483L59.057,8.931
		C59.008,6.206,56.55,4,53.549,4z M10.306,9.113l0.003-0.103C10.312,8.532,10.932,8,11.817,8h41.731
		c0.886,0,1.506,0.532,1.509,1.011L56.249,30H9.117L10.306,9.113z M20.438,50.458c-0.206,0-0.402-0.045-0.579-0.124
		C19.353,50.112,19,49.608,19,49.021c0-0.59,0.356-1.095,0.864-1.317c0.176-0.077,0.369-0.121,0.574-0.121
		c0.794,0,1.438,0.644,1.438,1.438S21.231,50.458,20.438,50.458z M53,55H31V39H15.882l-0.034,16H12V34h41V55z"/>
	<rect x="34" y="39" width="16" height="13"/>
</g>
</svg>
