<?xml version="1.0" encoding="utf-8"?>
<!-- Generator: Adobe Illustrator 17.0.0, SVG Export Plug-In . SVG Version: 6.00 Build 0)  -->
<!DOCTYPE svg PUBLIC "-//W3C//DTD SVG 1.1//EN" "http://www.w3.org/Graphics/SVG/1.1/DTD/svg11.dtd">
<svg version="1.1" id="Capa_1" xmlns="http://www.w3.org/2000/svg" xmlns:xlink="http://www.w3.org/1999/xlink" x="0px" y="0px"
	 width="64px" height="64px" viewBox="0 0 64 64" enable-background="new 0 0 64 64" xml:space="preserve">
<g>
	<path d="M9.923,32h0.373C9.472,33.56,9,35.335,9,37.219V53c0,2.757,2.243,5,5,5h9c2.757,0,5-2.243,5-5v-8h7.903l0.078,8.028
		C36.006,55.77,38.258,58,41,58h9c2.757,0,5-2.243,5-5V37.219c0-1.884-0.472-3.658-1.296-5.219h0.574
		c1.494,0,2.748-0.791,3.273-2.063s0.192-2.717-0.867-3.77l-5.733-5.701C50.971,20.318,51,20.177,51,20.013v-7.025
		C51,10.785,49.215,9,47.013,9h-0.025c-2.069,0-3.75,1.582-3.948,3.599l-6.913-6.874c-1.038-1.039-2.426-1.61-3.908-1.61
		c-1.534,0-3.043,0.63-4.13,1.718L7.524,26.164c-1.063,1.052-1.399,2.497-0.875,3.771C7.173,31.208,8.427,32,9.923,32z M49,37.219
		V52h-7.028l-0.078-8.028C41.869,41.23,39.617,39,36.875,39H27c-2.757,0-5,2.243-5,5v8h-7V37.219C15,34.341,17.341,32,20.219,32
		h23.562C46.659,32,49,34.341,49,37.219z M32.161,10.243L48.007,26h-4.226H20.219h-3.995L32.161,10.243z"/>
</g>
</svg>
