<?xml version="1.0" encoding="utf-8"?>
<!-- Generator: Adobe Illustrator 16.0.4, SVG Export Plug-In . SVG Version: 6.00 Build 0)  -->
<!DOCTYPE svg PUBLIC "-//W3C//DTD SVG 1.1//EN" "http://www.w3.org/Graphics/SVG/1.1/DTD/svg11.dtd">
<svg version="1.1" id="Capa_1" xmlns="http://www.w3.org/2000/svg" xmlns:xlink="http://www.w3.org/1999/xlink" x="0px" y="0px"
	 width="64px" height="64px" viewBox="0 0 64 64" enable-background="new 0 0 64 64" xml:space="preserve">
<g>
	<rect x="18" y="46" width="27" height="10"/>
	<path d="M31.625,8.375c-7.819,0-14.675,5.416-18.543,18.642C17.12,27.183,18,28.583,18,29.77V38h27v-8.23
		c0-1.682,2.442-2.471,5.185-2.697C46.32,13.805,39.455,8.375,31.625,8.375z M36.625,26.125c-0.641-0.075-1.267-0.059-1.871,0.047
		c-0.95,0.166-1.846,0.556-2.65,1.182c-0.13,0.102-0.274,0.127-0.408,0.106c-0.042,0.021-0.09,0.025-0.137,0.033
		c-0.059,0.01-0.119,0.001-0.183-0.019c-0.043-0.013-0.084-0.014-0.128-0.042c-0.8-0.526-1.637-0.872-2.511-1.046
		c-0.835-0.167-1.703-0.177-2.604-0.029c-0.631,0.104-0.901-0.859-0.266-0.964c0.673-0.111,1.332-0.143,1.977-0.108
		c0.466,0.025,0.923,0.091,1.373,0.197c-0.596-0.609-0.966-1.44-0.966-2.357c0-1.861,1.514-3.375,3.375-3.375
		c1.861,0,3.375,1.514,3.375,3.375c0,0.82-0.306,1.562-0.794,2.148c0.425-0.104,0.86-0.165,1.307-0.184
		c0.365-0.016,0.734-0.009,1.112,0.035C37.257,25.199,37.266,26.2,36.625,26.125z"/>
	<path d="M12.258,28h-0.291C8.621,28,6,28.777,6,29.77V57h11V46v-8v-8.23C17,28.172,13.684,28,12.258,28z"/>
	<path d="M52.258,28h-0.291C48.621,28,46,28.777,46,29.77V38v8v11h11V29.77C57,28.172,53.684,28,52.258,28z"/>
	<rect x="18" y="39" width="27" height="6"/>
</g>
</svg>
