<?xml version="1.0" encoding="utf-8"?>
<!-- Generator: Adobe Illustrator 16.0.4, SVG Export Plug-In . SVG Version: 6.00 Build 0)  -->
<!DOCTYPE svg PUBLIC "-//W3C//DTD SVG 1.1//EN" "http://www.w3.org/Graphics/SVG/1.1/DTD/svg11.dtd">
<svg version="1.1" id="Capa_1" xmlns="http://www.w3.org/2000/svg" xmlns:xlink="http://www.w3.org/1999/xlink" x="0px" y="0px"
	 width="64px" height="64px" viewBox="0 0 64 64" enable-background="new 0 0 64 64" xml:space="preserve">
<g>
	<path d="M50.79,32.509l-33.458,7.824c-0.019,0.005-0.036,0.014-0.054,0.019c-0.089,0.023-0.175,0.057-0.262,0.09
		c-0.069,0.026-0.139,0.049-0.205,0.08c-0.072,0.035-0.139,0.08-0.208,0.122c-0.072,0.044-0.145,0.086-0.211,0.136
		c-0.056,0.043-0.106,0.094-0.159,0.142c-0.071,0.063-0.141,0.126-0.204,0.197c-0.013,0.015-0.028,0.024-0.04,0.039
		c-0.035,0.042-0.058,0.089-0.09,0.132c-0.054,0.074-0.108,0.147-0.154,0.227c-0.041,0.069-0.072,0.141-0.105,0.213
		c-0.034,0.074-0.068,0.147-0.095,0.226c-0.027,0.077-0.045,0.155-0.064,0.235c-0.019,0.077-0.037,0.154-0.048,0.234
		c-0.011,0.083-0.015,0.165-0.018,0.248c-0.003,0.078-0.007,0.155-0.002,0.234c0.005,0.093,0.021,0.184,0.036,0.275
		c0.009,0.052,0.008,0.104,0.02,0.155c0.005,0.02,0.014,0.038,0.019,0.058c0.017,0.063,0.04,0.125,0.062,0.188
		c0.029,0.084,0.06,0.168,0.098,0.247c0.026,0.057,0.056,0.11,0.087,0.164c0.047,0.084,0.098,0.164,0.154,0.241
		c0.033,0.046,0.067,0.091,0.104,0.135c0.072,0.086,0.15,0.164,0.232,0.239c0.024,0.022,0.043,0.049,0.068,0.07l4.825,4.062
		c0.482,7.42,5.859,10.885,12.435,10.885c6.893,0,12.481-9.195,12.481-17.376L26.25,46.529l-2.924-2.463l28.603-6.688
		c1.345-0.314,2.18-1.659,1.865-3.004C53.48,33.029,52.135,32.2,50.79,32.509z"/>
	<path d="M54.906,23.176c-0.326-1.341-1.676-2.166-3.02-1.839l-36.81,8.942c-1.341,0.326-2.165,1.678-1.839,3.019
		c0.278,1.144,1.3,1.911,2.427,1.911c0.195,0,0.394-0.023,0.592-0.071l36.809-8.942C54.408,25.87,55.231,24.518,54.906,23.176z"/>
	<path d="M14.354,22.116c0.276,1.146,1.3,1.916,2.429,1.916c0.193,0,0.39-0.022,0.587-0.07l27.868-6.707
		c1.343-0.323,2.169-1.673,1.846-3.016c-0.322-1.342-1.674-2.171-3.016-1.846l-27.868,6.707
		C14.857,19.424,14.03,20.774,14.354,22.116z"/>
	<path d="M16.782,13.972c0.19,0,0.383-0.022,0.577-0.067l18.927-4.471c1.344-0.317,2.175-1.664,1.857-3.008
		s-1.664-2.176-3.008-1.858L16.209,9.038c-1.344,0.317-2.176,1.664-1.858,3.008C14.623,13.196,15.649,13.972,16.782,13.972z"/>
</g>
</svg>
