<?xml version="1.0" encoding="utf-8"?>
<!-- Generator: Adobe Illustrator 16.0.4, SVG Export Plug-In . SVG Version: 6.00 Build 0)  -->
<!DOCTYPE svg PUBLIC "-//W3C//DTD SVG 1.1//EN" "http://www.w3.org/Graphics/SVG/1.1/DTD/svg11.dtd">
<svg version="1.1" id="Capa_1" xmlns="http://www.w3.org/2000/svg" xmlns:xlink="http://www.w3.org/1999/xlink" x="0px" y="0px"
	 width="64px" height="64px" viewBox="0 0 64 64" enable-background="new 0 0 64 64" xml:space="preserve">
<g>
	<path d="M45.18,51.83c0.536,0.537,2.114-0.17,2.651-0.707l0.884-0.884c0.537-0.537,1.244-2.115,0.707-2.652L36.131,34.973
		l-3.475,3.662L45.18,51.83z"/>
	<path d="M23.14,22.643c1.729-3.007,0.815-6.652-1.908-9.375c-3.218-3.217-10.165-6.364-13.383-3.146
		c-3.218,3.218-0.071,10.166,3.146,13.383c2.671,2.671,6.23,3.603,9.205,2.004l6.298,6.637l3.327-3.157L23.14,22.643z"/>
	<path d="M39.514,22.55L13.133,47.587c-0.537,0.537,0.17,2.115,0.707,2.652l0.884,0.884c0.402,0.402,1.386,0.898,2.081,0.898
		c0.234,0,0.436-0.057,0.571-0.191l25.129-26.479c0.702,0.345,1.437,0.54,2.181,0.607c2.229,0.204,4.553-0.773,6.422-2.642
		c6.336-6.335,7.472-7.73,5.528-10.171l-7.479,7.168c-0.167,0.167-0.402,0.269-0.639,0.269c-0.213,0-0.409-0.081-0.554-0.227
		l-0.2-0.199c-0.146-0.146-0.226-0.343-0.226-0.555c0.001-0.236,0.102-0.471,0.277-0.646l6.789-7.965
		c-0.16-0.16-0.314-0.313-0.486-0.485c-0.291-0.291-0.562-0.563-0.818-0.822l-7.995,6.82c-0.146,0.148-0.381,0.249-0.617,0.249
		c-0.213,0-0.409-0.081-0.554-0.227l-0.2-0.199c-0.146-0.146-0.226-0.343-0.226-0.555c0.001-0.236,0.102-0.471,0.277-0.646
		l7.131-7.442c-2.3-1.672-3.699-0.278-9.81,5.833c-2.033,2.033-3.01,4.604-2.559,7.003C38.879,21.218,39.131,21.899,39.514,22.55z"
		/>
</g>
</svg>
