<?xml version="1.0" encoding="iso-8859-1"?>
<!-- Generator: Adobe Illustrator 17.0.0, SVG Export Plug-In . SVG Version: 6.00 Build 0)  -->
<!DOCTYPE svg PUBLIC "-//W3C//DTD SVG 1.1//EN" "http://www.w3.org/Graphics/SVG/1.1/DTD/svg11.dtd">
<svg version="1.1" id="Capa_1" xmlns="http://www.w3.org/2000/svg" xmlns:xlink="http://www.w3.org/1999/xlink" x="0px" y="0px"
	 width="64px" height="64px" viewBox="0 0 64 64" style="enable-background:new 0 0 64 64;" xml:space="preserve">
<g>
	<path d="M20.021,28.488l11.756-5.775l12.221,5.785c0.205,0.097,0.419,0.142,0.631,0.142c0.554,0,1.085-0.312,1.338-0.845
		c0.349-0.74,0.034-1.622-0.705-1.971l-3.628-1.718v-1.266c0-0.943-0.662-1.708-1.479-1.708c-0.778,0-1.41,0.697-1.467,1.58
		l-6.293-2.979c-0.407-0.192-0.88-0.19-1.285,0.009l-12.396,6.091c-0.732,0.36-1.034,1.246-0.675,1.979
		C18.402,28.548,19.289,28.849,20.021,28.488z"/>
	<path d="M58.539,35.044c-0.436-0.195-0.964,0.038-1.218,0.518l-2.779-3.243c-0.18-0.21-0.445-0.326-0.721-0.317l-8.468,0.309
		c-0.5,0.018-0.891,0.44-0.873,0.94c0.017,0.502,0.439,0.892,0.939,0.873l8.031-0.292l5.396,6.299
		c0.091,0.106,0.2,0.185,0.318,0.237c0.31,0.14,0.686,0.098,0.961-0.137c0.381-0.327,0.425-0.9,0.099-1.28l-1.602-1.871l0.317-0.709
		C59.175,35.843,58.996,35.248,58.539,35.044z"/>
	<path d="M4.477,40.367c0.119-0.053,0.228-0.131,0.318-0.237l5.396-6.299l8.031,0.292c0.5,0.019,0.922-0.371,0.939-0.873
		c0.018-0.5-0.372-0.922-0.873-0.94l-8.468-0.309c-0.276-0.009-0.542,0.107-0.721,0.317l-2.779,3.243
		c-0.254-0.479-0.782-0.713-1.218-0.518c-0.458,0.204-0.637,0.799-0.401,1.326l0.317,0.709L3.417,38.95
		c-0.327,0.38-0.282,0.953,0.099,1.28C3.791,40.465,4.167,40.507,4.477,40.367z"/>
	<path d="M54.179,46.588c0.186-0.148,0.344-0.336,0.447-0.567l2.871-6.425l-4.431-5.081l-6.824,0.217l-2.809,6.286
		c-0.177,0.396-0.25,0.788-0.228,1.102c-0.733-0.175-1.456-0.329-2.16-0.459c0.363-0.434,0.59-0.984,0.59-1.594v-11.47l-9.973-4.612
		l-10.01,4.861v11.221c0,0.724,0.159,1.369,0.409,1.824c-0.541,0.11-1.097,0.238-1.659,0.374c0.065-0.333,0.013-0.781-0.195-1.248
		l-2.809-6.286l-6.824-0.217l-4.431,5.081l2.872,6.425c0.112,0.251,0.287,0.451,0.494,0.602c-2.658,1.602-5.19,3.645-7.356,6.265
		h31.993c-0.66-1.533-2.223-3.771-5.938-5.263c-3.77-1.514-4.024-6.107-4.025-6.118V34.95c0-0.273,0.22-0.493,0.493-0.493h4.375
		c0.272,0,0.493,0.221,0.493,0.493v5.991c-0.003,0.011-0.484,1.628,5.123,4.393c3.227,1.591,2.558,5.349,1.818,7.554h25.363
		C59.416,50.254,56.816,48.197,54.179,46.588z M10.704,45.353L9.197,41.98l1.518-0.678l1.507,3.371L10.704,45.353z M12.927,44.36
		l-1.508-3.373l1.519-0.679l1.507,3.372L12.927,44.36z M16.041,43.56l-1.534-3.433c-0.068-0.153,0-0.332,0.152-0.4l2.45-1.096
		c0.152-0.067,0.331,0.001,0.399,0.154l1.693,3.788C18.168,42.853,17.11,43.18,16.041,43.56z M34.711,40.198H32v-6.021h2.711V40.198
		z M38.678,40.198h-2.711v-6.021h2.711V40.198z M49.135,40.127l-1.486,3.325c-1.066-0.39-2.12-0.721-3.153-1.003l1.638-3.664
		c0.068-0.153,0.247-0.222,0.399-0.154l2.45,1.096C49.135,39.795,49.203,39.974,49.135,40.127z M49.197,43.681l1.507-3.372
		l1.519,0.679l-1.508,3.373L49.197,43.681z M51.419,44.674l1.507-3.371l1.518,0.678l-1.507,3.373L51.419,44.674z"/>
</g>
</svg>
