<?xml version="1.0" encoding="UTF-8" ?><svg viewBox="0 0 126 126">
  
  
  
  <path fill="#a1a1a1" d="m102.33,48.928-2.449,0,0-11.818c0-0.074-0.012-0.148-0.021-0.223-0.004-0.469-0.154-0.93-0.475-1.295l-19.668-22.465c-0.006-0.006-0.012-0.008-0.016-0.014-0.117-0.131-0.254-0.24-0.398-0.334-0.043-0.029-0.086-0.053-0.131-0.078-0.125-0.068-0.258-0.125-0.395-0.166-0.037-0.01-0.07-0.025-0.107-0.035-0.148-0.035-0.537-0.091-0.693-0.09l-52.119,0.08866s0.02026,1.7397,0.02026,3.9447v32.484h-2.449c-3.157,0-5.6934,0.007-5.6934,0.007l-0.0236,35.44c-0.0021,3.156,2.56,5.717,5.717,5.717h2.449v20.352c0,2.205,1.793,4,4,4h66c2.205,0,4-1.795,4-4v-20.351h2.449c3.157,0,5.717-2.561,5.717-5.717v-29.73c0-3.158-2.56-5.717-5.717-5.717zm-72.449-32.484,46.332,0,0,20.465c0,1.105,0.896,2,2,2h17.668v10.02h-66zm44.754,37.79-10.061,29.868-7.887,0-9.572-29.868,7.401,0,3.633,12.629c1.02,3.545,1.95,6.957,2.659,10.679h0.133c0.752-3.59,1.683-7.134,2.702-10.546l3.812-12.763h7.18zm-50.077,28.494,1.373-5.584c1.817,0.93,4.609,1.861,7.489,1.861,3.102,0,4.742-1.284,4.742-3.234,0-1.861-1.419-2.925-5.009-4.21-4.963-1.728-8.197-4.475-8.197-8.817,0-5.097,4.254-8.996,11.299-8.996,3.368,0,5.85,0.708,7.622,1.506l-1.505,5.451c-1.197-0.577-3.323-1.418-6.249-1.418-2.924,0-4.343,1.33-4.343,2.88,0,1.906,1.683,2.749,5.54,4.21,5.272,1.95,7.754,4.697,7.754,8.906,0,5.008-3.854,9.262-12.054,9.262-3.411,0-6.78-0.886-8.462-1.817zm71.323,26.632-66,0,0-19.268,66,0zm6.539-26.632c-2.082,0.708-6.025,1.685-9.969,1.685-5.451,0-9.395-1.375-12.143-4.032-2.748-2.57-4.253-6.471-4.21-10.857,0.046-9.927,7.269-15.599,17.062-15.599,3.854,0,6.824,0.754,8.286,1.462l-1.419,5.408c-1.64-0.709-3.676-1.287-6.956-1.287-5.629,0-9.882,3.191-9.882,9.661,0,6.16,3.854,9.793,9.395,9.793,1.551,0,2.791-0.178,3.322-0.443v-6.249h-4.606v-5.273h11.12z"/></svg>