<?xml version="1.0" encoding="utf-8"?>
<!-- Generator: Adobe Illustrator 16.0.4, SVG Export Plug-In . SVG Version: 6.00 Build 0)  -->
<!DOCTYPE svg PUBLIC "-//W3C//DTD SVG 1.1//EN" "http://www.w3.org/Graphics/SVG/1.1/DTD/svg11.dtd">
<svg version="1.1" id="Capa_1" xmlns="http://www.w3.org/2000/svg" xmlns:xlink="http://www.w3.org/1999/xlink" x="0px" y="0px"
	 width="64px" height="64px" viewBox="0 0 64 64" enable-background="new 0 0 64 64" xml:space="preserve">
<g>
	<path d="M33.062,59.336c-4.321,0-8.996-0.891-12.633-3.021c-0.355,0.408-0.555,0.818-0.555,1.213c0,2.444,6.609,3.723,13.138,3.723
		c6.529,0,13.139-1.278,13.139-3.723c0-0.382-0.191-0.778-0.524-1.174C41.999,58.456,37.356,59.336,33.062,59.336z"/>
	<path d="M48.961,37.58c-4.532,1.191-10.369,2.243-16.858,2.243c-5.229,0-10.261-0.688-15.058-2.019
		c-1.269,2.343-2.021,4.916-2.021,7.537c0,9.591,9.717,12.994,18.038,12.994c8.32,0,18.037-3.403,18.037-12.994
		C51.1,42.637,50.305,39.981,48.961,37.58z M43.385,54.842l-0.001-0.003c-0.015,0.007-0.028,0.013-0.041,0.017l-0.169-0.514
		l-0.329-0.312c0.05-0.053,4.899-5.329,0.991-13.047l-0.298-0.589l4.836-0.953l0.143,0.412
		C48.557,39.968,52.393,51.42,43.385,54.842z"/>
	<path d="M57.702,33.529L44.467,2.677L19.112,2.739L8.452,33.495c7.224,3.536,15.179,5.328,23.651,5.328
		C45.143,38.823,55.503,34.515,57.702,33.529z"/>
</g>
</svg>
