<?xml version="1.0" encoding="utf-8"?>
<!-- Generator: Adobe Illustrator 16.0.4, SVG Export Plug-In . SVG Version: 6.00 Build 0)  -->
<!DOCTYPE svg PUBLIC "-//W3C//DTD SVG 1.1//EN" "http://www.w3.org/Graphics/SVG/1.1/DTD/svg11.dtd">
<svg version="1.1" id="Capa_1" xmlns="http://www.w3.org/2000/svg" xmlns:xlink="http://www.w3.org/1999/xlink" x="0px" y="0px"
	 width="64px" height="64px" viewBox="0 0 64 64" enable-background="new 0 0 64 64" xml:space="preserve">
<g>
	<rect x="12" y="29" width="38" height="3"/>
	<rect x="16" y="33" width="2" height="10"/>
	<rect x="44" y="33" width="2" height="10"/>
	<path d="M59.593,20h-2.622c0,0,2.836,3.915,0.377,9.776c-0.685,1.633-1.302,3.231-1.314,5.224H48v2v6h2v-6h6.213H57v6h2v-6h0.238
		c0,0-1.135-1.764,1.039-7.082C63.325,22.467,59.593,20,59.593,20z"/>
	<path d="M5.128,29.776C2.67,23.915,5.506,20,5.506,20H2.882c0,0-3.732,2.467-0.685,9.918C4.371,35.236,3,37,3,37v6h2v-6h1.262H12v6
		h2v-6v-2H6.442C6.43,33.007,5.812,31.409,5.128,29.776z"/>
</g>
</svg>
