<?xml version="1.0" encoding="utf-8"?>
<!-- Generator: Adobe Illustrator 16.0.4, SVG Export Plug-In . SVG Version: 6.00 Build 0)  -->
<!DOCTYPE svg PUBLIC "-//W3C//DTD SVG 1.1//EN" "http://www.w3.org/Graphics/SVG/1.1/DTD/svg11.dtd">
<svg version="1.1" id="Capa_1" xmlns="http://www.w3.org/2000/svg" xmlns:xlink="http://www.w3.org/1999/xlink" x="0px" y="0px"
	 width="64px" height="64px" viewBox="0 0 64 64" enable-background="new 0 0 64 64" xml:space="preserve">
<path d="M55,12H7v6h12.523c-0.018,0.119-0.041,0.237-0.041,0.358c0,0.987,0.613,1.642,1.666,2.642h-0.01
	c0,0,0.055,0.097,0.148,0.161c0.114,0.082,0.225,0.194,0.348,0.273c1.261,0.892,4.684,3.454,7.18,6.566H27v28h-5v3h20v-3h-5V28
	h-1.616c1.741-2.325,4.057-4.919,6.911-7h-0.002c0.952-0.766,1.497-1.645,1.497-2.581c0-0.142-0.023-0.28-0.048-0.419H55V12z"/>
</svg>
