<?xml version="1.0" encoding="utf-8"?>
<!-- Generator: Adobe Illustrator 16.0.4, SVG Export Plug-In . SVG Version: 6.00 Build 0)  -->
<!DOCTYPE svg PUBLIC "-//W3C//DTD SVG 1.1//EN" "http://www.w3.org/Graphics/SVG/1.1/DTD/svg11.dtd">
<svg version="1.1" id="Capa_1" xmlns="http://www.w3.org/2000/svg" xmlns:xlink="http://www.w3.org/1999/xlink" x="0px" y="0px"
	 width="64px" height="64px" viewBox="0 0 64 64" enable-background="new 0 0 64 64" xml:space="preserve">
<g>
	<path fill="#060811" d="M54,24.118V17c0-1.105-0.895-2-2-2H6c-1.105,0-2,0.895-2,2v30c0,1.105,0.895,2,2,2h29.79l-1.045-1.214
		L35.09,47H6V17h45v30h-4.724c0.406,0.691,0.766,1.356,1.09,2H52c1.105,0,2-0.895,2-2v-6.203c2.269-3.186,5.157-2.838,5.093-8.124
		C59.023,26.843,55.88,27.85,54,24.118z M56.917,34c-0.599,0-1.083-0.484-1.083-1.083c0-0.598,0.484-1.083,1.083-1.083
		S58,32.319,58,32.917C58,33.516,57.516,34,56.917,34z"/>
	<path fill="#060811" d="M38.293,49h0.33c-0.075-0.021-0.138-0.029-0.187-0.029C38.386,48.971,38.339,48.985,38.293,49z"/>
	<path fill="#060811" d="M33.016,46h2.513l3.64-8.303l0.519,0.569c2.572,2.823,4.515,5.402,5.979,7.733H50V18H7v28h24.252
		l-14.02-17.118c0,0-1.739-4.427-1.029-10.024L37.93,38.253l-2.926,6.881L33.016,46z"/>
	<path fill="#060811" d="M35.913,47.61l1.073,1.247c0.304-0.466,0.781-0.887,1.45-0.887c1.154,0,2.423,1.279,3.881,3.912
		c2.951,5.33,3.64,7.763,2.367,9.677l3.785-0.661c0.456-1.357,2.19-8.815-9.007-21.385L35.913,47.61z M46.939,57.339
		c0.463,0,0.838,0.376,0.838,0.838c0,0.463-0.375,0.839-0.838,0.839s-0.838-0.376-0.838-0.839
		C46.102,57.715,46.477,57.339,46.939,57.339z M44.451,50.332c0.463,0,0.838,0.375,0.838,0.838s-0.375,0.838-0.838,0.838
		s-0.838-0.375-0.838-0.838S43.988,50.332,44.451,50.332z M40.738,44.579c0,0.463-0.375,0.838-0.838,0.838s-0.838-0.375-0.838-0.838
		s0.375-0.838,0.838-0.838S40.738,44.116,40.738,44.579z"/>
</g>
</svg>
