<?xml version="1.0" encoding="utf-8"?>
<!-- Generator: Adobe Illustrator 17.0.0, SVG Export Plug-In . SVG Version: 6.00 Build 0)  -->
<!DOCTYPE svg PUBLIC "-//W3C//DTD SVG 1.1//EN" "http://www.w3.org/Graphics/SVG/1.1/DTD/svg11.dtd">
<svg version="1.1" id="Capa_1" xmlns="http://www.w3.org/2000/svg" xmlns:xlink="http://www.w3.org/1999/xlink" x="0px" y="0px"
	 width="64px" height="64px" viewBox="0 0 64 64" enable-background="new 0 0 64 64" xml:space="preserve">
<g>
	<path d="M49.94,19.9c0.027-0.132,0.06-0.262,0.06-0.4V5c0-1.104-0.896-2-2-2h-7c-1.104,0-2,0.896-2,2v3.552l-4.135-4.289
		C34.052,3.45,32.96,3.05,31.792,3.114c-1.068,0.066-2.083,0.528-2.86,1.307L8.748,24.758c-0.687,0.691-0.683,1.81,0.009,2.496
		c0.613,0.609,1.558,0.671,2.243,0.199V59c0,1.104,0.896,2,2,2h13h11h13c1.104,0,2-0.896,2-2V27.124l0.101,0.105
		c0.347,0.358,0.809,0.54,1.271,0.54c0.441,0,0.883-0.165,1.225-0.495c0.702-0.677,0.722-1.794,0.046-2.495L49.94,19.9z M43,7h3
		v7.672l-3-3V7z M28,57V44h7v13H28z M48,23v34h-9V42c0-1.104-0.896-2-2-2H26c-1.104,0-2,0.896-2,2v15h-9V24
		c0-0.162-0.025-0.318-0.061-0.469L31.433,6.912c0.159-0.159,0.375-0.262,0.576-0.274c0.235-0.018,0.327,0.088,0.337,0.099
		l15.657,16.241C48.002,22.985,48,22.992,48,23z"/>
	<path d="M24.75,28.5c0,3.998,3.252,7.25,7.25,7.25s7.25-3.252,7.25-7.25s-3.252-7.25-7.25-7.25S24.75,24.502,24.75,28.5z
		 M35.75,28.5c0,2.067-1.682,3.75-3.75,3.75s-3.75-1.683-3.75-3.75s1.682-3.75,3.75-3.75S35.75,26.433,35.75,28.5z"/>
</g>
</svg>
