<?xml version="1.0" encoding="utf-8"?>
<!-- Generator: Adobe Illustrator 16.0.4, SVG Export Plug-In . SVG Version: 6.00 Build 0)  -->
<!DOCTYPE svg PUBLIC "-//W3C//DTD SVG 1.1//EN" "http://www.w3.org/Graphics/SVG/1.1/DTD/svg11.dtd">
<svg version="1.1" id="Capa_1" xmlns="http://www.w3.org/2000/svg" xmlns:xlink="http://www.w3.org/1999/xlink" x="0px" y="0px"
	 width="64px" height="64px" viewBox="0 0 64 64" enable-background="new 0 0 64 64" xml:space="preserve">
<g>
	<rect x="5" y="18" width="5" height="20"/>
	<polygon points="55.908,49.429 46.12,50.248 46.036,49.252 55.853,48.43 55.599,43.87 39.957,45.562 40.047,47.182 49.451,46.252 
		49.549,47.248 40.103,48.183 40.358,52.796 56.002,51.104 	"/>
	<path d="M40.769,44.468c-0.005,0.119-0.009,0.189-0.009,0.189l13.608-1.468c0.006-0.066,0.006-0.127,0.011-0.193
		c1.767-21.567-17.072-21.626-19.955-21.509c-0.816-0.939-1.841-1.684-3.039-2.248h0.006c-0.11-0.041-0.206-0.087-0.311-0.13
		c-0.181-0.08-0.359-0.163-0.548-0.234c-2.5-1.19-3.511-2.925-3.91-3.973c-1.066,0.305-2.229,0.307-3.021,0.307
		c-0.805,0-1.991,0-3.069-0.319c-1.372,1.945-6.327,4.35-6.327,4.35h0.008c-1.285,0.606-2.371,1.417-3.213,2.456v12.878
		c2.38,4.045,6.768,6.768,11.8,6.768c4.608,0,8.677-2.284,11.159-5.774C40.818,34.887,40.814,43.122,40.769,44.468z"/>
	<path d="M29.011,12.883l15.373,1.378c0,0,3.812-2.8,0-5.756L28.898,9.431c0.232,0.618,0.365,1.284,0.365,1.981
		C29.263,11.989,29.167,12.468,29.011,12.883z"/>
	<path d="M17.939,11.412c0-0.708,0.136-1.382,0.374-2.007l-15.058-0.9c-3.811,2.956,0,5.756,0,5.756l14.952-1.34
		C18.041,12.498,17.939,12.006,17.939,11.412z"/>
	<path d="M23.601,14.208c3.398,0,4.662-0.758,4.662-2.796c0-2.571-2.092-4.662-4.663-4.662c-2.57,0-4.661,2.091-4.661,4.662
		C18.939,13.45,20.203,14.208,23.601,14.208z"/>
</g>
</svg>
