<?xml version="1.0" encoding="utf-8"?>
<!-- Generator: Adobe Illustrator 16.0.4, SVG Export Plug-In . SVG Version: 6.00 Build 0)  -->
<!DOCTYPE svg PUBLIC "-//W3C//DTD SVG 1.1//EN" "http://www.w3.org/Graphics/SVG/1.1/DTD/svg11.dtd">
<svg version="1.1" id="Capa_1" xmlns="http://www.w3.org/2000/svg" xmlns:xlink="http://www.w3.org/1999/xlink" x="0px" y="0px"
	 width="64px" height="64px" viewBox="0 0 64 64" enable-background="new 0 0 64 64" xml:space="preserve">
<path d="M62.276,23.405l-6.764,5.299l-2.341-2.988l6.764-5.298L62.276,23.405z M61.27,17.278c-2.313-3.23-6.877-4.07-10.107-1.757
	L26.124,32.949c-2.728,1.897-5.633,2.146-7.147,2.122c-0.088,1.416-3.3,1.934-5.474,1.934c-2.204,0-5.482-0.53-5.482-1.991
	c0-0.005,0.002-0.009,0.002-0.014H7.488c-9.232,5-3.957,17-3.957,17h16.306l0.01-0.032c-0.011,0.132-0.016,0.205-0.016,0.205
	L61.27,17.278z M9,31.396v3.021V35h0.051c-0.008,0.012-0.028,0.025-0.033,0.037c0.129,0.299,1.829,0.968,4.485,0.968
	c2.619,0,4.302-0.649,4.472-0.997C17.939,35.003,17.918,35,17.918,35H18v-0.586v-3.031c-1.674,0.359-3.864,0.39-4.515,0.39
	C12.837,31.773,10.672,31.743,9,31.396z M18.987,30H19v-1.326v-4.51c-1.681,0.699-4.911,0.729-5.393,0.729
	c-0.504,0-4.025-0.033-5.607-0.841v4.601V30h0.014c-0.01,0.013-0.03,0.031-0.039,0.042c0.51,0.287,2.412,0.73,5.51,0.73
	c3.139,0,5.047-0.465,5.518-0.756C19,30.012,18.991,30.004,18.987,30z M18.918,23.117c-0.527-0.32-2.447-0.775-5.312-0.775
	c-2.855,0-4.766,0.456-5.285,0.775c0.52,0.319,2.43,0.775,5.285,0.775C16.471,23.892,18.391,23.438,18.918,23.117z"/>
</svg>
