<?xml version="1.0" encoding="utf-8"?>
<!-- Generator: Adobe Illustrator 16.0.4, SVG Export Plug-In . SVG Version: 6.00 Build 0)  -->
<!DOCTYPE svg PUBLIC "-//W3C//DTD SVG 1.1//EN" "http://www.w3.org/Graphics/SVG/1.1/DTD/svg11.dtd">
<svg version="1.1" id="Capa_1" xmlns="http://www.w3.org/2000/svg" xmlns:xlink="http://www.w3.org/1999/xlink" x="0px" y="0px"
	 width="64px" height="64px" viewBox="0 0 64 64" enable-background="new 0 0 64 64" xml:space="preserve">
<g>
	<path d="M11.812,37.155c-1.539-2.351-3.045-5.973-2.229-8.451c0.418-1.268,1.39-2.056,2.537-2.056c0.609,0,1.218,0.23,1.76,0.666
		c0.57,0.457,1,1.126,1.415,1.773c0.178,0.277,0.353,0.546,0.532,0.792c0.986-1.477,2.208-2.857,3.632-4.082
		c-0.868-0.251-1.785-0.653-2.797-1.317c-1.578-1.035-3.568-1.653-5.324-1.653c-1.553,0-4.312,0.503-5.347,3.874
		c-0.907,2.953,0.127,8.864,3.378,13.265c1.136,1.537,2.843,3.252,5.158,4.249c-0.889-1.562-1.417-3.362-1.487-5.409
		C12.619,38.311,12.207,37.759,11.812,37.155z"/>
	<path d="M33.062,52.336c-4.569,0-9.154-0.911-12.785-2.825c-0.253,0.343-0.403,0.686-0.403,1.017c0,2.444,6.609,3.723,13.138,3.723
		c6.529,0,13.139-1.278,13.139-3.723c0-0.319-0.139-0.649-0.375-0.979C42.156,51.437,37.602,52.336,33.062,52.336z"/>
	<path d="M57.986,23.438c-1.141-0.166-3.193-0.392-4.434,0.102c-1.682,0.67-2.42,2.052-3.371,3.222
		c-0.413,0.508-1.056,0.704-1.737,0.744c-0.269,0.016-0.541,0.014-0.812-0.013c-0.193-0.019-0.424-0.025-0.673-0.021
		c-1.291-1.214-2.758-2.27-4.326-3.135c0.163-0.372,0.432-0.672,0.686-0.893c0.323-0.281,0.618-0.435,0.618-0.435
		c0-1.735-2.877-3.009-5.653-3.009H28.232c-2.776,0-6.529,2.033-5.026,2.9c0.098,0.057,0.176,0.114,0.261,0.171
		c0.111,0.074,0.213,0.149,0.303,0.223c0.061,0.021,0.108,0.039,0.171,0.061c0.466,0.175,1.03,0.32,1.626,0.508
		c0.606,0.14,1.25,0.325,1.907,0.441c0.658,0.096,1.314,0.264,1.94,0.291c0.624,0.04,1.21,0.136,1.712,0.118
		c1.009-0.016,1.683-0.027,1.683-0.027s-0.671,0.073-1.679,0.184c-0.506,0.065-1.098,0.024-1.735,0.042
		c-0.64,0.031-1.312-0.076-1.993-0.112c-0.679-0.056-1.349-0.182-1.984-0.269c-0.336-0.072-0.659-0.134-0.966-0.196
		c-0.239-0.048-0.466-0.098-0.677-0.153c-5.436,2.895-9.75,8.083-9.75,14.16c0,8.977,9.562,12.994,19.038,12.994
		c9.476,0,19.037-4.018,19.037-12.994c0-1.105-0.147-2.181-0.414-3.219c0.287-0.333,0.526-0.667,0.7-0.993
		c0.013-0.025,0.031-0.051,0.044-0.075c0.334-0.66,1.982-6.59,3.694-8.503c0.569-0.636,1.194-1.049,1.774-1.318
		C59.016,23.718,59.127,23.605,57.986,23.438z"/>
	<path d="M33.335,16.382c-1.597,0-2.891,0.618-2.891,2.618h5.783C36.227,17,34.932,16.382,33.335,16.382z"/>
	<polygon points="22.225,23.233 22.223,23.233 22.225,23.233 	"/>
</g>
</svg>
