<?xml version="1.0" encoding="utf-8"?>
<!-- Generator: Adobe Illustrator 16.0.4, SVG Export Plug-In . SVG Version: 6.00 Build 0)  -->
<!DOCTYPE svg PUBLIC "-//W3C//DTD SVG 1.1//EN" "http://www.w3.org/Graphics/SVG/1.1/DTD/svg11.dtd">
<svg version="1.1" id="Capa_1" xmlns="http://www.w3.org/2000/svg" xmlns:xlink="http://www.w3.org/1999/xlink" x="0px" y="0px"
	 width="64px" height="64px" viewBox="0 0 64 64" enable-background="new 0 0 64 64" xml:space="preserve">
<g>
	<path d="M25.001,7L25,5.5C24.951,5.356,24.332,5,23.5,5s-1.451,0.356-1.501,0.512l0,1.488H25.001z"/>
	<path d="M55,17H28.203L29,46.486C29,47.879,27.878,49,26.5,49h-13c-1.378,0-2.5-1.121-2.5-2.5L11.797,17H8c-1.657,0-2,1.343-2,3v32
		c0,1.657,1.343,3,3,3h45c1.657,0,3-1.343,3-3V20C57,18.343,56.657,17,55,17z M46,47c0,1.105-0.895,2-2,2h-3c-1.105,0-2-0.895-2-2
		v-5h7V47z M46,40h-7V30c0-1.105,0.895-2,2-2h3c1.105,0,2,0.895,2,2V40z"/>
	<path d="M13.5,48h13c0.827,0,1.5-0.673,1.5-1.5L27,9.514C27,8.673,26.327,8,25.5,8h-11C13.673,8,13,8.673,13,9.5l-1,37.014
		C12,47.327,12.673,48,13.5,48z M20.106,38.408c-0.659,0-1.194-0.535-1.194-1.194s0.535-1.194,1.194-1.194
		c0.66,0,1.194,0.535,1.194,1.194S20.766,38.408,20.106,38.408z M20.106,34.314c-0.659,0-1.194-0.534-1.194-1.193
		c0-0.66,0.535-1.194,1.194-1.194c0.66,0,1.194,0.535,1.194,1.194C21.3,33.78,20.766,34.314,20.106,34.314z M20.106,30.221
		c-0.659,0-1.194-0.535-1.194-1.194c0-0.659,0.535-1.194,1.194-1.194c0.66,0,1.194,0.535,1.194,1.194
		C21.3,29.687,20.766,30.221,20.106,30.221z M25.019,38.408c-0.66,0-1.194-0.535-1.194-1.194s0.534-1.194,1.194-1.194
		c0.659,0,1.194,0.535,1.194,1.194S25.678,38.408,25.019,38.408z M25.019,34.408c-0.66,0-1.194-0.535-1.194-1.194
		s0.534-1.194,1.194-1.194c0.659,0,1.194,0.535,1.194,1.194S25.678,34.408,25.019,34.408z M26.213,29.027
		c0,0.66-0.535,1.194-1.194,1.194c-0.66,0-1.194-0.535-1.194-1.194c0-0.659,0.534-1.194,1.194-1.194
		C25.678,27.833,26.213,28.368,26.213,29.027z M14.621,10.927C14.619,10.34,15.513,10,16.354,10h6.794
		c1.086,0,1.735,0.326,1.735,0.871l0.615,7.014C25.5,18.542,24.584,19,23.765,19h-8.029c-0.819,0-1.735-0.458-1.735-1.072
		L14.621,10.927z M15.194,27.833c0.66,0,1.194,0.535,1.194,1.194c0,0.66-0.535,1.194-1.194,1.194c-0.659,0-1.194-0.535-1.194-1.194
		C14,28.368,14.535,27.833,15.194,27.833z M15.194,31.927c0.66,0,1.194,0.535,1.194,1.194c0,0.659-0.535,1.193-1.194,1.193
		c-0.659,0-1.194-0.534-1.194-1.193C14,32.461,14.535,31.927,15.194,31.927z M15.194,35.927c0.66,0,1.194,0.534,1.194,1.194
		c0,0.659-0.535,1.193-1.194,1.193c-0.659,0-1.194-0.534-1.194-1.193C14,36.461,14.535,35.927,15.194,35.927z"/>
	<path d="M23.765,18c0.33,0,0.6-0.116,0.724-0.2L23.9,11.094C23.765,11.051,23.506,11,23.148,11h-6.794
		c-0.362,0-0.631,0.091-0.751,0.152l-0.589,6.649C15.139,17.885,15.407,18,15.736,18H23.765z"/>
</g>
</svg>
