<?xml version="1.0" encoding="utf-8"?>
<!-- Generator: Adobe Illustrator 16.0.4, SVG Export Plug-In . SVG Version: 6.00 Build 0)  -->
<!DOCTYPE svg PUBLIC "-//W3C//DTD SVG 1.1//EN" "http://www.w3.org/Graphics/SVG/1.1/DTD/svg11.dtd">
<svg version="1.1" id="Capa_1" xmlns="http://www.w3.org/2000/svg" xmlns:xlink="http://www.w3.org/1999/xlink" x="0px" y="0px"
	 width="64px" height="64px" viewBox="0 0 64 64" enable-background="new 0 0 64 64" xml:space="preserve">
<g>
	<path d="M45.5,8h-27C12.159,8,7,13.159,7,19.5v27C7,52.841,12.159,58,18.5,58h27C51.841,58,57,52.841,57,46.5v-27
		C57,13.159,51.841,8,45.5,8z M54,44.162C54,50.138,49.138,55,43.162,55H20.838C14.862,55,10,50.138,10,44.162V21.838
		C10,15.862,14.862,11,20.838,11h22.324C49.138,11,54,15.862,54,21.838V44.162z"/>
	<path d="M43.162,13H20.838C15.965,13,12,16.965,12,21.838v22.324C12,49.035,15.965,53,20.838,53h22.324
		C48.035,53,52,49.035,52,44.162V21.838C52,16.965,48.035,13,43.162,13z M32,15h1v7h-1V15z M21,33h-7v-1h7V33z M33,51h-1v-7h1V51z
		 M46.011,48.562c-0.096,0.084-0.213,0.125-0.331,0.125c-0.139,0-0.276-0.058-0.375-0.169l-12.48-14.145
		c-0.821,0.425-1.128,0.071-1.421-0.222c-0.528-0.528-1.176-1.117,2.725-4.636l11.554-9.649l-9.643,11.56
		c-1.02,1.147-1.787,1.895-2.384,2.377l12.399,14.053C46.237,48.063,46.218,48.38,46.011,48.562z M50,33h-7v-1h7V33z"/>
</g>
</svg>
