<?xml version="1.0" encoding="utf-8"?>
<!-- Generator: Adobe Illustrator 16.0.4, SVG Export Plug-In . SVG Version: 6.00 Build 0)  -->
<!DOCTYPE svg PUBLIC "-//W3C//DTD SVG 1.1//EN" "http://www.w3.org/Graphics/SVG/1.1/DTD/svg11.dtd">
<svg version="1.1" id="Capa_1" xmlns="http://www.w3.org/2000/svg" xmlns:xlink="http://www.w3.org/1999/xlink" x="0px" y="0px"
	 width="64px" height="64px" viewBox="0 0 64 64" enable-background="new 0 0 64 64" xml:space="preserve">
<g>
	<rect x="10" y="51" width="6" height="3"/>
	<rect x="45" y="51" width="6" height="3"/>
	<path d="M15.397,14.873C15.155,15.153,15,15.499,15,15.928V20h31v-4.072c0-0.438-0.148-0.817-0.42-1.121
		c0.23-0.262,0.41-0.554,0.533-0.868c0.117-0.3,0.195-0.614,0.195-0.939c0-1.589-2.652-3-4.529-3H19.138
		c-1.875,0-4.528,1.411-4.528,3c0,0.356,0.086,0.701,0.226,1.025C14.969,14.334,15.161,14.617,15.397,14.873z"/>
	<path d="M58.08,36h-2.16c-0.483,0-0.868,0.377-0.906,0.85C55.012,36.874,55,36.896,55,36.92V38h-0.885l-1.428-15.581
		C52.618,21.65,51.928,21,51.18,21H9.773c-0.779,0-1.443,0.575-1.51,1.308L5.836,48.936c-0.027,0.296,0.042,0.536,0.207,0.716
		C6.248,49.876,6.592,50,7.012,50H10h6h29h6h2.939c0.413,0,0.755-0.125,0.962-0.352c0.169-0.186,0.241-0.433,0.214-0.733L54.299,40
		H55v1.08c0,0.343,0.196,0.63,0.474,0.788C55.608,41.944,55.755,42,55.92,42h2.16c0.508,0,0.92-0.412,0.92-0.92v-4.16
		C59,36.412,58.588,36,58.08,36z"/>
</g>
</svg>
