<?xml version="1.0" encoding="utf-8"?>
<!-- Generator: Adobe Illustrator 16.0.4, SVG Export Plug-In . SVG Version: 6.00 Build 0)  -->
<!DOCTYPE svg PUBLIC "-//W3C//DTD SVG 1.1//EN" "http://www.w3.org/Graphics/SVG/1.1/DTD/svg11.dtd">
<svg version="1.1" id="Capa_1" xmlns="http://www.w3.org/2000/svg" xmlns:xlink="http://www.w3.org/1999/xlink" x="0px" y="0px"
	 width="64px" height="64px" viewBox="0 0 64 64" enable-background="new 0 0 64 64" xml:space="preserve">
<g>
	<path d="M52.593,46c0.139,0,0.274,0.025,0.407,0.061L52.999,35.75c0-2.466-0.461-16.08-1.282-17.75h-38.41
		C12.486,19.669,12,33.377,12,35.75v10.354C12.168,46.04,12.343,46,12.521,46H52.593z M28.14,36H30V22.962
		C30,21.878,30.878,21,31.962,21h0.077C33.122,21,34,21.878,34,22.962V36h1.941c0.443,0,1.476,0.195,1.476,2s-1.032,2-1.476,2H34
		v1.038C34,42.122,33.122,43,32.038,43h-0.077C30.878,43,30,42.122,30,41.038V40h-1.86c-0.443,0-1.475-0.195-1.475-2
		S27.697,36,28.14,36z"/>
	<path d="M53.314,47.654C53.271,47.307,52.934,47,52.593,47H12.521c-0.318,0-0.675,0.361-0.721,0.729l-0.814,6.609
		c-0.022,0.181,0.039,0.377,0.159,0.514C11.205,54.92,11.304,55,11.439,55H19v-3.917C19,50.484,19.485,50,20.083,50h25.834
		C46.516,50,47,50.484,47,51.083V55h6.677c0.133,0,0.23-0.08,0.29-0.147c0.121-0.138,0.185-0.342,0.161-0.521L53.314,47.654z"/>
	<path d="M31,41.02c0,0.541,0.439,0.98,0.981,0.98h0.038C32.561,42,33,41.561,33,41.02V40h-2V41.02z"/>
	<path d="M33,22.981C33,22.439,32.561,22,32.019,22h-0.038C31.439,22,31,22.439,31,22.981V36h2V22.981z"/>
	<path d="M28.14,39h7.801c0.13,0,0.476,0,0.476-1s-0.346-1-0.476-1H28.14c-0.13,0-0.475,0-0.475,1S28.01,39,28.14,39z"/>
	<rect x="20" y="11" width="5" height="5"/>
	<rect x="20" y="7" width="5" height="3"/>
	<rect x="38" y="7" width="5" height="3"/>
	<rect x="38" y="11" width="5" height="5"/>
</g>
</svg>
