<?xml version="1.0" encoding="utf-8"?>
<!-- Generator: Adobe Illustrator 16.0.4, SVG Export Plug-In . SVG Version: 6.00 Build 0)  -->
<!DOCTYPE svg PUBLIC "-//W3C//DTD SVG 1.1//EN" "http://www.w3.org/Graphics/SVG/1.1/DTD/svg11.dtd">
<svg version="1.1" id="Capa_1" xmlns="http://www.w3.org/2000/svg" xmlns:xlink="http://www.w3.org/1999/xlink" x="0px" y="0px"
	 width="64px" height="64px" viewBox="0 0 64 64" enable-background="new 0 0 64 64" xml:space="preserve">
<g>
	<path d="M46,32.212V40h4.323C48.477,38.6,46.938,35.812,46,32.212z"/>
	<path d="M50.424,8H11v0.118C7.788,9.045,5.031,15.796,5.031,24H5v35h40V48V25v-1C45,16.58,47.274,10.275,50.424,8z"/>
	<path d="M53,8.083c-3.794,0-7,7.289-7,15.917c0,8.523,3.271,16,7,16s7-7.477,7-16C60,15.372,56.794,8.083,53,8.083z M53.68,28.667
		c-1.117,0-2.021-2.15-2.021-4.63s0.905-4.606,2.021-4.606s2.02,2.126,2.02,4.606C55.699,26.516,54.794,28.667,53.68,28.667z"/>
</g>
</svg>
