<?xml version="1.0" encoding="utf-8"?>
<!-- Generator: Adobe Illustrator 16.0.4, SVG Export Plug-In . SVG Version: 6.00 Build 0)  -->
<!DOCTYPE svg PUBLIC "-//W3C//DTD SVG 1.1//EN" "http://www.w3.org/Graphics/SVG/1.1/DTD/svg11.dtd">
<svg version="1.1" id="Capa_1" xmlns="http://www.w3.org/2000/svg" xmlns:xlink="http://www.w3.org/1999/xlink" x="0px" y="0px"
	 width="64px" height="64px" viewBox="0 0 64 64" enable-background="new 0 0 64 64" xml:space="preserve">
<g>
	<path d="M8.835,42h11.91c0,0,0.089,1.276-0.011,3h37.514C59.766,45,61,43.766,61,42.248l0.001-26.496
		c0-1.518-1.234-2.752-2.752-2.752H5.752C4.234,13,3,14.234,3,15.752v26.496C3,43.766,4.234,45,5.752,45h3.012
		C8.901,43.996,8.946,42.979,8.835,42z M8,17h48v23H8V17z"/>
	<polygon points="26.691,51 37.529,51 36.445,46 27.775,46 	"/>
	<rect x="25" y="52" width="14" height="2"/>
	<path d="M19.667,43H9.738c0.473,4.562-2.363,10-2.363,10H17.48C20.14,50,19.667,43,19.667,43z M16.492,50.545
		c-2.055-0.391-4.112-1.566-5.826,0.246c-0.444,0.47-1.15-0.239-0.707-0.707c2.026-2.145,4.319-0.975,6.799-0.504
		C17.391,49.701,17.122,50.664,16.492,50.545z M17.258,46.793c-0.889,0.168-1.703,0.068-2.542-0.27
		c-1.028-0.414-1.836-0.787-2.8,0.017c-0.492,0.409-1.203-0.294-0.707-0.707c0.72-0.599,1.546-0.991,2.499-0.737
		c1.124,0.301,2.07,0.963,3.284,0.734C17.622,45.711,17.891,46.675,17.258,46.793z"/>
</g>
</svg>
