<?xml version="1.0" encoding="utf-8"?>
<!-- Generator: Adobe Illustrator 16.0.4, SVG Export Plug-In . SVG Version: 6.00 Build 0)  -->
<!DOCTYPE svg PUBLIC "-//W3C//DTD SVG 1.1//EN" "http://www.w3.org/Graphics/SVG/1.1/DTD/svg11.dtd">
<svg version="1.1" id="Capa_1" xmlns="http://www.w3.org/2000/svg" xmlns:xlink="http://www.w3.org/1999/xlink" x="0px" y="0px"
	 width="64px" height="64px" viewBox="0 0 64 64" enable-background="new 0 0 64 64" xml:space="preserve">
<g>
	<path d="M57.583,15h-0.167C55.529,15,54,16.53,54,18.417V52h7V18.417C61,16.53,59.471,15,57.583,15z M57.438,17h0.125
		c0.64,0,1.176,0.421,1.362,1h-2.85C56.262,17.422,56.798,17,57.438,17z M58.925,19c-0.187,0.579-0.723,1-1.362,1h-0.125
		c-0.64,0-1.176-0.421-1.362-1H58.925z M57.562,47.812c-1.484,0-2.688-1.203-2.688-2.688s1.204-2.688,2.688-2.688
		s2.688,1.203,2.688,2.688S59.047,47.812,57.562,47.812z M57.562,37.812c-1.484,0-2.688-1.203-2.688-2.688s1.204-2.688,2.688-2.688
		s2.688,1.204,2.688,2.688S59.047,37.812,57.562,37.812z M57.562,27.813c-1.484,0-2.688-1.204-2.688-2.688s1.204-2.688,2.688-2.688
		s2.688,1.204,2.688,2.688S59.047,27.813,57.562,27.813z"/>
	<path d="M5.583,15H5.417C3.53,15,2,16.53,2,18.417V52h7V18.417C9,16.53,7.47,15,5.583,15z M5.437,17h0.125
		c0.64,0,1.176,0.421,1.363,1h-2.85C4.261,17.422,4.797,17,5.437,17z M6.925,19c-0.187,0.579-0.723,1-1.363,1H5.437
		c-0.639,0-1.176-0.421-1.362-1H6.925z M5.562,47.812c-1.484,0-2.688-1.203-2.688-2.688s1.204-2.688,2.688-2.688
		s2.688,1.203,2.688,2.688S7.046,47.812,5.562,47.812z M5.562,37.812c-1.484,0-2.688-1.203-2.688-2.688s1.204-2.688,2.688-2.688
		s2.688,1.204,2.688,2.688S7.046,37.812,5.562,37.812z M5.562,27.813c-1.484,0-2.688-1.204-2.688-2.688s1.204-2.688,2.688-2.688
		s2.688,1.204,2.688,2.688S7.046,27.813,5.562,27.813z"/>
	<circle cx="57.562" cy="25.125" r="2"/>
	<circle cx="57.562" cy="35.125" r="2"/>
	<circle cx="57.562" cy="45.125" r="2"/>
	<circle cx="5.562" cy="25.125" r="2"/>
	<circle cx="5.562" cy="35.125" r="2"/>
	<circle cx="5.562" cy="45.125" r="2"/>
	<path d="M40,10.125v-1.25C40,7.839,38.161,8,37.125,8h-11.25C24.839,8,23,7.839,23,8.875v1.25C23,11.161,24.839,12,25.875,12H12v23
		v17h39V35V12H37.125C38.161,12,40,11.161,40,10.125z M16,43h-1c-0.276,0-0.5-0.224-0.5-0.5S14.724,42,15,42h1
		c0.276,0,0.5,0.224,0.5,0.5S16.276,43,16,43z M27,43h-1c-0.276,0-0.5-0.224-0.5-0.5S25.724,42,26,42h1c0.276,0,0.5,0.224,0.5,0.5
		S27.276,43,27,43z M30,43h-1c-0.276,0-0.5-0.224-0.5-0.5S28.724,42,29,42h1c0.276,0,0.5,0.224,0.5,0.5S30.276,43,30,43z M33,43h-1
		c-0.276,0-0.5-0.224-0.5-0.5S31.724,42,32,42h1c0.276,0,0.5,0.224,0.5,0.5S33.276,43,33,43z M36,43h-1c-0.276,0-0.5-0.224-0.5-0.5
		S34.724,42,35,42h1c0.276,0,0.5,0.224,0.5,0.5S36.276,43,36,43z M49,14v16v10H14V30V14H49z"/>
</g>
</svg>
