<?xml version="1.0" encoding="utf-8"?>
<!-- Generator: Adobe Illustrator 16.0.4, SVG Export Plug-In . SVG Version: 6.00 Build 0)  -->
<!DOCTYPE svg PUBLIC "-//W3C//DTD SVG 1.1//EN" "http://www.w3.org/Graphics/SVG/1.1/DTD/svg11.dtd">
<svg version="1.1" id="Capa_1" xmlns="http://www.w3.org/2000/svg" xmlns:xlink="http://www.w3.org/1999/xlink" x="0px" y="0px"
	 width="64px" height="64px" viewBox="0 0 64 64" enable-background="new 0 0 64 64" xml:space="preserve">
<g>
	<rect x="27" y="33" width="8" height="1"/>
	<path d="M7,3v29h49V3H7z M10,6h43v21H10V6z M53,30h-2c-0.276,0-0.5-0.224-0.5-0.5S50.724,29,51,29h2c0.276,0,0.5,0.224,0.5,0.5
		S53.276,30,53,30z"/>
	<path d="M45.746,36H41v2H20v-2h-1.552C12.612,36,8,42.074,8,47.91v7.045c0,2.159,1,4.164,3,5.837v-10.24
		C11,44.716,15.253,40,21.09,40h22.016C48.941,40,54,44.716,54,50.552v10.24c1-1.673,2-3.678,2-5.837V47.91
		C56,42.074,51.582,36,45.746,36z"/>
	<path d="M13,50.102V59h18V43h-9.322C16.887,43,13,45.516,13,50.102z M25,52.174C25,51.525,25.526,51,26.174,51h0.652
		C27.474,51,28,51.525,28,52.174v0.652C28,53.475,27.474,54,26.826,54h-0.652C25.526,54,25,53.475,25,52.826V52.174z"/>
	<path d="M42.854,43H33v16h18v-8.898C51,45.516,47.904,43,42.854,43z M39,52.826C39,53.475,38.475,54,37.826,54h-0.652
		C36.525,54,36,53.475,36,52.826v-0.652C36,51.525,36.525,51,37.174,51h0.652C38.475,51,39,51.525,39,52.174V52.826z"/>
	<path d="M22.311,35c-0.126,0-0.296-0.008-0.482-0.016c-0.28-0.014-0.635-0.023-0.829-0.017V37h19v-1.984
		C39.791,35.008,39.542,35,39.318,35H35h-8H22.311z"/>
</g>
</svg>
