<?xml version="1.0" encoding="utf-8"?>
<!-- Generator: Adobe Illustrator 16.0.4, SVG Export Plug-In . SVG Version: 6.00 Build 0)  -->
<!DOCTYPE svg PUBLIC "-//W3C//DTD SVG 1.1//EN" "http://www.w3.org/Graphics/SVG/1.1/DTD/svg11.dtd">
<svg version="1.1" id="Capa_1" xmlns="http://www.w3.org/2000/svg" xmlns:xlink="http://www.w3.org/1999/xlink" x="0px" y="0px"
	 width="64px" height="64px" viewBox="0 0 64 64" enable-background="new 0 0 64 64" xml:space="preserve">
<g>
	<path d="M14,25h40.842c0.055,0,0.106,0.014,0.158,0.032V22H14V25z"/>
	<path d="M43.719,48.001c1.468,1.453,2.488,3.107,2.73,4.999h4.219c-0.15-1.849-0.717-3.508-1.601-4.999
		c-0.202-0.342-0.424-0.673-0.657-0.997l6.567,0.001c0.75,0,0.982-0.062,1.046-0.114L56,38.407C56,36.221,55.506,27.11,54.721,26
		H13.653c-0.29,0.257-0.698,1.264-1.136,2.588c-0.287-0.2-0.578-0.393-0.855-0.605c-0.046-0.036-0.097-0.066-0.143-0.102
		c-4.73-3.678,0.212-7.368,4.074-9.773C15.477,18.975,15.411,20,15.411,21h38.662c0-15-3.007-15.694-14.089-15.694
		C32.582,5.306,24.112,6,19.298,10H18.68C16.824,10,16,11.056,16,12.463v0.473c0,0.051-0.358,0.118-0.539,0.226
		c-3.891,2.306-9.848,5.737-10.266,10.88c-0.299,3.687,2.348,6.264,5.195,8.168c0.299,0.2,0.6,0.392,0.9,0.577
		c-0.701,2.64-1.266,5.146-1.29,5.628v8.507c0.03,0.064,0.245,0.083,0.604,0.083L11.336,47l31.27,0.004
		C42.999,47.325,43.371,47.657,43.719,48.001z M37.646,8.36c5.881-0.167,10.724,1.764,10.789,3.583
		c0.064,1.819-4.72,1.483-10.601,1.65s-10.648,0.303-10.718-1.637C27.052,10.137,31.766,8.527,37.646,8.36z"/>
	<path d="M54,54H43c-1.121,0-2,1.098-2,2.5s0.879,2.5,2,2.5h11c1.121,0,2-1.098,2-2.5S55.121,54,54,54z"/>
</g>
</svg>
