<?xml version="1.0" encoding="utf-8"?>
<!-- Generator: Adobe Illustrator 16.0.4, SVG Export Plug-In . SVG Version: 6.00 Build 0)  -->
<!DOCTYPE svg PUBLIC "-//W3C//DTD SVG 1.1//EN" "http://www.w3.org/Graphics/SVG/1.1/DTD/svg11.dtd">
<svg version="1.1" id="Capa_1" xmlns="http://www.w3.org/2000/svg" xmlns:xlink="http://www.w3.org/1999/xlink" x="0px" y="0px"
	 width="64px" height="64px" viewBox="0 0 64 64" enable-background="new 0 0 64 64" xml:space="preserve">
<path d="M24.894,16.447C17.251,12.568,9.895,8.063,4.206,9.784l0.176,5.225l3.585,6.161l19.675,17.848l6.764-17.889L24.894,16.447z"
	/>
<path d="M59.957,59.793c-2.367-2.234-6.555-2.75-8.104-5.713c0.346-0.43,0.494-1.006,0.438-1.562
	c0.916-0.349,1.863-0.804,2.854-1.373c0.146-0.084,0.271-0.189,0.411-0.28c-4.152-1.052-13.961-10.634-15.641-13.257
	c-1.01-1.576,0.091-8.189,1.005-12.709c-0.453-0.419-0.857-0.807-1.171-1.14l-4.442-2.187l-6.869,18.167l12.367,11.219
	c0.979,0.621,1.927,1.121,2.861,1.504c0.012-0.089,0.039-0.17,0.1-0.231c0.2-0.203,0.603-0.133,0.898,0.158
	c0.16,0.156,0.25,0.344,0.273,0.517c1.194,0.351,2.379,0.507,3.59,0.444c0.181,0.659,0.662,1.221,1.451,1.363
	c0.651,1.395,1.6,2.456,2.976,3.287c1.874,1.132,3.96,1.668,5.589,3.207C59.48,62.092,60.896,60.68,59.957,59.793z M35.19,43.795
	c-0.2,0.203-0.603,0.132-0.898-0.159c-0.296-0.292-0.374-0.692-0.173-0.896c0.199-0.204,0.602-0.133,0.898,0.158
	C35.312,43.189,35.391,43.591,35.19,43.795z M35.874,42.027c-0.296-0.291-0.374-0.691-0.174-0.896
	c0.2-0.203,0.603-0.132,0.899,0.159c0.295,0.291,0.373,0.692,0.173,0.896C36.572,42.391,36.17,42.319,35.874,42.027z M37.603,46.166
	c-0.2,0.204-0.603,0.133-0.898-0.158s-0.374-0.692-0.173-0.896c0.199-0.203,0.602-0.132,0.898,0.159
	C37.725,45.562,37.803,45.963,37.603,46.166z M38.285,44.4c-0.296-0.291-0.373-0.691-0.174-0.896
	c0.201-0.203,0.604-0.132,0.899,0.159s0.374,0.692,0.173,0.896C38.984,44.764,38.582,44.692,38.285,44.4z M40.014,48.539
	c-0.199,0.204-0.602,0.133-0.898-0.158c-0.296-0.291-0.373-0.692-0.174-0.896c0.201-0.203,0.604-0.132,0.899,0.159
	C40.137,47.936,40.215,48.336,40.014,48.539z M40.697,46.772c-0.297-0.291-0.374-0.692-0.174-0.896
	c0.2-0.204,0.603-0.133,0.898,0.158c0.297,0.291,0.374,0.692,0.174,0.896C41.395,47.135,40.992,47.064,40.697,46.772z
	 M42.426,50.912c-0.199,0.203-0.602,0.133-0.898-0.159c-0.296-0.291-0.373-0.692-0.174-0.896c0.201-0.203,0.604-0.133,0.899,0.158
	S42.627,50.709,42.426,50.912z M44.008,49.304c-0.201,0.204-0.604,0.132-0.898-0.159c-0.297-0.291-0.374-0.691-0.174-0.896
	s0.603-0.132,0.898,0.159C44.131,48.699,44.208,49.1,44.008,49.304z M46.419,51.677c-0.2,0.204-0.603,0.132-0.898-0.159
	s-0.374-0.692-0.174-0.896c0.2-0.204,0.603-0.133,0.899,0.159C46.541,51.072,46.619,51.473,46.419,51.677z"/>
<path d="M41.156,30.497l12.453,11.474c0.826,0.838,1.607,3.025,0.789,3.84c-0.819,0.813-3.153-0.207-3.979-1.045l-8.171-7.148
	c0.558,1.559,1.329,2.847,2.355,3.848c6.045,5.898,10.007,8.216,11.557,8.987c0.454-0.343,0.889-0.705,1.293-1.085
	c4.924-4.631-3.318-12.845-10.34-19.043c0.153-0.631-0.265-1.654-1.11-2.553c-1.045-1.11-2.331-1.598-2.872-1.089
	c-0.034,0.032-0.053,0.076-0.08,0.114c-0.621-0.54-1.188-1.038-1.7-1.502C41.197,27.17,41.129,28.906,41.156,30.497z"/>
</svg>
