<?xml version="1.0" encoding="utf-8"?>
<!-- Generator: Adobe Illustrator 16.0.4, SVG Export Plug-In . SVG Version: 6.00 Build 0)  -->
<!DOCTYPE svg PUBLIC "-//W3C//DTD SVG 1.1//EN" "http://www.w3.org/Graphics/SVG/1.1/DTD/svg11.dtd">
<svg version="1.1" id="Capa_1" xmlns="http://www.w3.org/2000/svg" xmlns:xlink="http://www.w3.org/1999/xlink" x="0px" y="0px"
	 width="64px" height="64px" viewBox="0 0 64 64" enable-background="new 0 0 64 64" xml:space="preserve">
<g>
	<path d="M60.105,4.657h-0.577C59.203,5.013,59,5.481,59,6v2.14C59.356,7.834,61.216,6.125,60.105,4.657z"/>
	<path d="M22.281,21.021c0.251-0.387,0.364-0.864,0.479-1.438c0.01,0.001,0.017,0.006,0.026,0.007
		c5.611,0.43,7.201-4.449,9.048-8.489L58,8.293V6c0-0.485,0.127-0.937,0.332-1.343L36.57,4.653l-6.394-1.206L19.692,7.192
		c-0.52,0.186-0.494,0.392,0.028,0.574c0.62,0.216,1.292,0.604,1.207,1.259l-0.825,6.344c-0.2-0.004-0.409,0.012-0.634,0.077
		c-3.781,1.095-6.498,3.894-7.534,7.656c-0.102,0.226-0.171,0.48-0.184,0.772c-0.281,6.143-0.487,12.515-1.687,18.621
		c-2.499,1.17-4.858,2.573-6.821,4.244c-3.817,3.247-1.183,10.053,4.053,8.885c3.958-0.883,5.483-5.935,6.283-10.239
		c1.774-0.737,3.605-1.361,5.422-1.851v-4.125c-1.535,0.366-3.114,0.822-4.695,1.368c0.826-5.43,1.163-10.917,1.419-16.399
		c0.567-2.184,1.838-3.825,3.819-4.709l-0.249,1.915C19.294,21.583,20.223,24.186,22.281,21.021z M23.49,15.713l2.172-4.83
		c0.26-0.58,1.124-0.767,1.895-0.422c0.1,0.044,0.239,0.102,0.399,0.167c0.729,0.297,1.209,0.515,1.515,0.727l1.129-0.121
		c-1.504,3.474-3.05,7.501-7.617,7.271c0.125-0.535,0.314-1.145,0.603-1.818C23.399,16.371,23.351,16.021,23.49,15.713z
		 M8.432,48.678c-0.298,0.869-1.154,3.494-2.422,2.846c-2.196-1.125,1.475-3.07,2.715-3.756C8.628,48.07,8.535,48.376,8.432,48.678z
		"/>
	<path d="M24.842,16.499c0.137,0.062,0.281,0.095,0.406,0.095c0.112,0,0.169-0.027,0.181-0.036l3.343-4.467
		c-0.325-0.183-0.908-0.421-1.195-0.538c-0.173-0.071-0.324-0.133-0.431-0.181c-0.136-0.062-0.281-0.095-0.406-0.095
		c-0.111,0-0.169,0.026-0.181,0.036l-2.158,4.809C24.411,16.159,24.54,16.363,24.842,16.499z"/>
	<path d="M61.75,56.5c-3.412-0.417-2.066-3.348-1.712-5.762c0.199-1.354,0.137-2.623-0.324-3.781
		c-0.135-0.337-0.307-0.664-0.514-0.981c1.128-1.573,1.8-3.494,1.8-5.573v-1.805C61,32.588,58.16,29,53.402,29H39.598
		c-4.354,0-12.996,3.706-15.738,8H25v9h-0.679c1.087,1.673,2.795,2.906,4.935,3.532l0.65,1.182l1.428,2.591
		c0,0,1.583,0.807,3.083,0.122L35.572,51l0.477-1h12.757l0.477,1l1.155,2.427c1.5,0.685,3.082-0.122,3.082-0.122l1.66-3.013
		l0.804-1.458c0.659-0.359,1.265-0.802,1.818-1.3c0.157,0.341,0.255,0.697,0.311,1.063c0.294,1.943-0.624,4.194-0.664,6.11
		c-0.054,2.569,2.095,3.522,4.302,3.792C63.027,58.656,63.014,56.654,61.75,56.5z M40,33.917C40,32.857,40.857,32,41.917,32h10.167
		C53.143,32,56,32,56,33.5V35H40V33.917z M50.382,41.611c0.117-1.342,0.716-2.325,1.692-3.238c0.787-0.737,1.974,0.443,1.184,1.182
		c-1.429,1.338-1.031,2.379-1.162,4.094c-0.104,1.358-1.066,2.246-2.146,2.943c-0.91,0.588-1.748-0.861-0.845-1.445
		C50.749,44.086,50.24,43.238,50.382,41.611z M41.95,46.592c-0.91,0.588-1.748-0.861-0.845-1.445
		c1.644-1.061,1.135-1.908,1.276-3.535c0.117-1.342,0.716-2.325,1.692-3.238c0.787-0.737,1.974,0.443,1.184,1.182
		c-1.429,1.338-1.031,2.379-1.162,4.094C43.992,45.007,43.029,45.895,41.95,46.592z M45.95,46.592
		c-0.91,0.588-1.748-0.861-0.845-1.445c1.644-1.061,1.135-1.908,1.276-3.535c0.117-1.342,0.716-2.325,1.692-3.238
		c0.787-0.737,1.974,0.443,1.184,1.182c-1.429,1.338-1.031,2.379-1.162,4.094C47.992,45.007,47.029,45.895,45.95,46.592z"/>
	<polygon points="22,39.598 22,41.402 22,42 21,42 21,38 20,38 20,45 24,45 24,38 22,38 	"/>
</g>
</svg>
