<?xml version="1.0" encoding="utf-8"?>
<!-- Generator: Adobe Illustrator 16.0.4, SVG Export Plug-In . SVG Version: 6.00 Build 0)  -->
<!DOCTYPE svg PUBLIC "-//W3C//DTD SVG 1.1//EN" "http://www.w3.org/Graphics/SVG/1.1/DTD/svg11.dtd">
<svg version="1.1" id="Capa_1" xmlns="http://www.w3.org/2000/svg" xmlns:xlink="http://www.w3.org/1999/xlink" x="0px" y="0px"
	 width="64px" height="64px" viewBox="0 0 64 64" enable-background="new 0 0 64 64" xml:space="preserve">
<g>
	<path d="M45.448,32.41c-1.518-7.248-5.129-13.871-13.693-14.206c-0.777-1.279-1.261-2.188-1.391-2.438
		c-2.188-5.041-7.3-8.419-12.759-8.419c-7.642,0-13.859,6.217-13.859,13.858c0,2.071,0.472,4.03,1.292,5.795
		c2.193,4.716,6.96,8,12.49,8H27c1.657,0,3-1.343,3-3c0-1.657-1.343-3-3-3h-9.47c-1.994,0-3.809-0.761-5.187-2
		c-1.589-1.428-2.596-3.493-2.596-5.795c0-4.333,3.525-7.858,7.859-7.858c3.121,0,6.047,1.957,7.281,4.868l0.083,0.178
		c0.047,0.094,0.209,0.411,0.469,0.885c-3.395,1.476-5.626,4.31-7.079,7.721h9.363C30.085,27,32,29.095,32,31.679v0.642
		C32,34.904,30.085,37,27.722,37H16.008c-0.396,3.75-0.4,7.346-0.4,10c0,1.46,1.039,2.65,2.724,3.578
		c-0.004,0.06-0.018,0.117-0.018,0.179c0,1.55,1.256,2.806,2.805,2.806c0.981,0,1.842-0.506,2.343-1.27
		c4.885,0.978,11.113,0.938,15.875-0.129c0.486,0.833,1.38,1.398,2.413,1.398c1.549,0,2.805-1.256,2.805-2.806
		c0-0.197-0.021-0.39-0.061-0.575c1.292-0.862,2.061-1.923,2.061-3.182c0-2.122-0.003-4.848-0.205-7.771
		c1.653,0.491,3.377,0.778,5.169,0.778c0.158,0,0.321-0.015,0.481-0.02v-6.005C49.709,34.072,47.501,33.448,45.448,32.41z
		 M31.474,47.494c-1.906,0-3.451-1.545-3.451-3.451s1.545-3.451,3.451-3.451c1.906,0,3.451,1.545,3.451,3.451
		S33.38,47.494,31.474,47.494z"/>
	<path d="M57.641,30h-3.281C53.609,30,53,30.609,53,31.359v13.282C53,45.391,53.609,46,54.359,46h3.281
		C58.391,46,59,45.391,59,44.641V31.359C59,30.609,58.391,30,57.641,30z"/>
</g>
</svg>
