<?xml version="1.0" encoding="utf-8"?>
<!-- Generator: Adobe Illustrator 16.0.4, SVG Export Plug-In . SVG Version: 6.00 Build 0)  -->
<!DOCTYPE svg PUBLIC "-//W3C//DTD SVG 1.1//EN" "http://www.w3.org/Graphics/SVG/1.1/DTD/svg11.dtd">
<svg version="1.1" id="Capa_1" xmlns="http://www.w3.org/2000/svg" xmlns:xlink="http://www.w3.org/1999/xlink" x="0px" y="0px"
	 width="64px" height="64px" viewBox="0 0 64 64" enable-background="new 0 0 64 64" xml:space="preserve">
<g>
	<path d="M54,16v-3c0-1.105-0.895-2-2-2H11c-1.105,0-2,0.895-2,2v3c0,0.366,0.105,0.705,0.277,1h44.445
		C53.895,16.705,54,16.366,54,16z M13.379,15.935c-1.103,0-1.997-0.894-1.997-1.997s0.894-1.997,1.997-1.997
		c0.696,0,1.307,0.357,1.665,0.896l-1.34,0.476c-0.26,0.092-0.396,0.378-0.304,0.639c0.073,0.205,0.266,0.333,0.471,0.333
		c0.056,0,0.112-0.009,0.167-0.029l1.322-0.469c0.004,0.051,0.015,0.1,0.015,0.152C15.376,15.041,14.482,15.935,13.379,15.935z
		 M33.562,15.893c-1.092,0-1.977-0.885-1.977-1.976s0.885-1.976,1.977-1.976c0.703,0,1.316,0.37,1.666,0.923l-1.048,0.372
		c-0.261,0.092-0.396,0.378-0.305,0.639c0.073,0.205,0.266,0.333,0.472,0.333c0.056,0,0.112-0.009,0.167-0.029l1.014-0.36
		c0.001,0.033,0.01,0.065,0.01,0.099C35.538,15.008,34.653,15.893,33.562,15.893z M41.257,15.893c-1.091,0-1.976-0.885-1.976-1.976
		s0.885-1.976,1.976-1.976c0.703,0,1.315,0.37,1.666,0.923l-1.048,0.372c-0.261,0.092-0.396,0.378-0.305,0.639
		c0.073,0.205,0.266,0.333,0.472,0.333c0.056,0,0.112-0.009,0.167-0.029l1.014-0.36c0.002,0.033,0.01,0.065,0.01,0.099
		C43.232,15.008,42.348,15.893,41.257,15.893z M48.952,15.893c-1.091,0-1.976-0.885-1.976-1.976s0.885-1.976,1.976-1.976
		c0.702,0,1.315,0.37,1.666,0.922l-1.049,0.373c-0.261,0.092-0.396,0.378-0.305,0.639c0.073,0.205,0.266,0.333,0.472,0.333
		c0.056,0,0.112-0.009,0.167-0.029l1.015-0.36c0.002,0.033,0.01,0.065,0.01,0.099C50.928,15.008,50.043,15.893,48.952,15.893z"/>
	<rect x="10" y="56" width="4" height="3"/>
	<rect x="48" y="56" width="4" height="3"/>
	<path d="M53.809,19H9.193C8.535,19,8,19.535,8,20.193v32.614C8,53.465,8.535,54,9.193,54h44.614C54.465,54,55,53.465,55,52.807
		V20.193C55,19.535,54.466,19,53.809,19z M31.125,51.125c-8.133,0-14.75-6.617-14.75-14.75c0-8.133,6.617-14.75,14.75-14.75
		c8.133,0,14.75,6.617,14.75,14.75C45.875,44.508,39.258,51.125,31.125,51.125z"/>
	<path d="M31.125,23.625c-7.03,0-12.75,5.72-12.75,12.75s5.72,12.75,12.75,12.75c4.604,0,8.634-2.461,10.875-6.129V29.754
		C39.759,26.086,35.729,23.625,31.125,23.625z"/>
</g>
</svg>
