<?xml version="1.0" encoding="utf-8"?>
<!-- Generator: Adobe Illustrator 16.0.4, SVG Export Plug-In . SVG Version: 6.00 Build 0)  -->
<!DOCTYPE svg PUBLIC "-//W3C//DTD SVG 1.1//EN" "http://www.w3.org/Graphics/SVG/1.1/DTD/svg11.dtd">
<svg version="1.1" id="Capa_1" xmlns="http://www.w3.org/2000/svg" xmlns:xlink="http://www.w3.org/1999/xlink" x="0px" y="0px"
	 width="64px" height="64px" viewBox="0 0 64 64" enable-background="new 0 0 64 64" xml:space="preserve">
<g>
	<path d="M20.369,38.927l-6.554,12.71c-1.311,4.449,2.946,7.977,6.581,7.977c3.635,0,8.102-3.465,6.581-7.977L20.369,38.927z"/>
	<path d="M56.864,23.883c-0.255-0.445-0.536-0.881-0.864-1.299v-0.01c-0.04-0.046-0.083-0.09-0.124-0.136
		c-2.04-2.263-4.837-4.012-6.594-4.98c-6.547-3.366-14.9-4.951-18.053-4.951c-8.504,0-15.423,6.73-15.423,15.002
		c0,0.168,0.033,0.327,0.049,0.49h9.901c0.016-0.164,0.049-0.322,0.049-0.49c0-2.758,2.433-5.002,5.423-5.002
		c4.79,0,14.893,3.643,16.771,5.975V53c0,2.762,2.238,5,5,5s5-2.238,5-5V27.973C58,26.497,57.581,25.137,56.864,23.883z"/>
	<polygon points="13,35 28,35 28,33 20,33 20,32 28,32 28,29 13,29 	"/>
	<path d="M50.127,11.373l0.936,0.328C51.021,11.84,51,11.985,51,12.133v5.147c1.533,0.923,3.407,2.218,5,3.815v-7.663v-1.299v-0.262
		l-0.027-0.012C55.838,10.813,54.958,10,53.885,10h-0.349c-0.384,0-0.791,0.114-1.168,0.299l-1.114-0.482L37.432,3.833
		c0,0-1.68,0.993-1.257,2.648L50.127,11.373z"/>
</g>
</svg>
